<svg xmlns="http://www.w3.org/2000/svg" viewBox="0 0 460 216" width="100%" preserveAspectRatio="xMidYMid meet" role="img" aria-label="wavelength-dependent behaviour" class="td-svg" style="max-width:460px;height:auto;display:block;font-family:Georgia, serif"><title>wavelength-dependent behaviour</title><rect x="211.60000000000002" y="30" width="64.39999999999998" height="160" fill="rgba(120,150,170,.30)" stroke="#4d4943" stroke-width="1.4"></rect><text x="243.8" y="22" font-family="system-ui, sans-serif" font-size="10.5" fill="#4d4943" text-anchor="middle">coloured glass</text><g><line x1="24" y1="56" x2="206.70000000000002" y2="56" stroke="#b03030" stroke-width="2" stroke-linecap="round" stroke-dasharray="none"></line><path d="M211.6,56.0 L205.3,59.0 L205.3,53.0 Z" fill="#b03030" stroke="none"></path></g><text x="24" y="48" font-family="system-ui, sans-serif" font-size="10.5" fill="#4d4943">visible</text><g><line x1="276" y1="56" x2="431.1" y2="56" stroke="#b03030" stroke-width="2" stroke-linecap="round" stroke-dasharray="none"></line><path d="M436.0,56.0 L429.7,59.0 L429.7,53.0 Z" fill="#b03030" stroke="none"></path></g><text x="436" y="48" font-family="system-ui, sans-serif" font-size="10" fill="#8c8579" text-anchor="end">transmitted</text><g><line x1="24" y1="108" x2="206.70000000000002" y2="108" stroke="#b03030" stroke-width="2" stroke-linecap="round" stroke-dasharray="none"></line><path d="M211.6,108.0 L205.3,111.0 L205.3,105.0 Z" fill="#b03030" stroke="none"></path></g><text x="24" y="100" font-family="system-ui, sans-serif" font-size="10.5" fill="#4d4943">ultraviolet</text><circle cx="243.8" cy="108" r="4" fill="#b03030" stroke="#b03030" stroke-width="1.4" stroke-dasharray="none"></circle><text x="251.8" y="100" font-family="system-ui, sans-serif" font-size="10" fill="#8c8579">absorbed</text><g><line x1="24" y1="160" x2="206.70000000000002" y2="160" stroke="#b03030" stroke-width="2" stroke-linecap="round" stroke-dasharray="none"></line><path d="M211.6,160.0 L205.3,163.0 L205.3,157.0 Z" fill="#b03030" stroke="none"></path></g><text x="24" y="152" font-family="system-ui, sans-serif" font-size="10.5" fill="#4d4943">infrared</text><g><line x1="211.60000000000002" y1="160" x2="28.85360778617455" y2="134.67267485309455" stroke="#b03030" stroke-width="2" stroke-linecap="round" stroke-dasharray="none"></line><path d="M24.0,134.0 L30.7,131.9 L29.9,137.8 Z" fill="#b03030" stroke="none"></path></g><text x="60" y="130" font-family="system-ui, sans-serif" font-size="10" fill="#8c8579">reflected</text></svg>