<svg xmlns="http://www.w3.org/2000/svg" viewBox="0 0 480 258" width="100%" preserveAspectRatio="xMidYMid meet" role="img" aria-label="wavelength-dependent behaviour" class="td-svg" style="max-width:480px;height:auto;display:block;font-family:Georgia, serif"><title>wavelength-dependent behaviour</title><rect x="211.2" y="26" width="62.39999999999998" height="206" fill="rgba(120,150,170,.30)" stroke="#4d4943" stroke-width="1.4"></rect><text x="242.39999999999998" y="18" font-family="system-ui, sans-serif" font-size="10.5" fill="#4d4943" text-anchor="middle">coloured glass</text><g><line x1="152.93905751127366" y1="40.794751113808545" x2="211.2" y2="62" stroke="#b03030" stroke-width="2" stroke-linecap="butt" stroke-dasharray="none"></line><path d="M185.0,52.5 L178.0,53.1 L180.1,47.5 Z" fill="#b03030" stroke="none"></path></g><text x="152.93905751127366" y="34.794751113808545" font-family="system-ui, sans-serif" font-size="10.5" fill="#4d4943">visible</text><line x1="211.2" y1="62" x2="273.59999999999997" y2="84.71174261821102" stroke="#b03030" stroke-width="2" stroke-linecap="butt" stroke-dasharray="none"></line><g><line x1="273.59999999999997" y1="84.71174261821102" x2="335.61971297186994" y2="107.28507207770515" stroke="#b03030" stroke-width="2" stroke-linecap="butt" stroke-dasharray="none"></line><path d="M307.7,97.1 L300.7,97.8 L302.8,92.2 Z" fill="#b03030" stroke="none"></path></g><text x="466" y="107.28507207770515" font-family="system-ui, sans-serif" font-size="10" fill="#8c8579" text-anchor="end">transmitted</text><g><line x1="152.93905751127366" y1="102.79475111380854" x2="211.2" y2="124" stroke="#b03030" stroke-width="2" stroke-linecap="butt" stroke-dasharray="none"></line><path d="M185.0,114.5 L178.0,115.1 L180.1,109.5 Z" fill="#b03030" stroke="none"></path></g><text x="152.93905751127366" y="96.79475111380854" font-family="system-ui, sans-serif" font-size="10.5" fill="#4d4943">ultraviolet</text><circle cx="242.39999999999998" cy="135.3558713091055" r="4" fill="#b03030" stroke="#b03030" stroke-width="1.4" stroke-dasharray="none"></circle><text x="281.59999999999997" y="128" font-family="system-ui, sans-serif" font-size="10" fill="#8c8579">absorbed</text><g><line x1="152.93905751127366" y1="164.79475111380853" x2="211.2" y2="186" stroke="#b03030" stroke-width="2" stroke-linecap="butt" stroke-dasharray="none"></line><path d="M185.0,176.5 L178.0,177.1 L180.1,171.5 Z" fill="#b03030" stroke="none"></path></g><text x="152.93905751127366" y="158.79475111380853" font-family="system-ui, sans-serif" font-size="10.5" fill="#4d4943">infrared</text><line x1="171.2" y1="186" x2="219.2" y2="186" stroke="#8c8579" stroke-width="1" stroke-linecap="butt" stroke-dasharray="5 4"></line><g><line x1="211.2" y1="186" x2="149.18028702813004" y2="208.57332945949415" stroke="#b03030" stroke-width="2" stroke-linecap="butt" stroke-dasharray="none"></line><path d="M177.1,198.4 L182.0,193.4 L184.1,199.0 Z" fill="#b03030" stroke="none"></path></g><text x="145.18028702813004" y="212.57332945949415" font-family="system-ui, sans-serif" font-size="10" fill="#8c8579" text-anchor="end">reflected</text></svg>