<svg xmlns="http://www.w3.org/2000/svg" viewBox="0 0 460 280" width="100%" preserveAspectRatio="xMidYMid meet" role="img" aria-label="cooling curves" class="td-svg" style="max-width:460px;height:auto;display:block;font-family:Georgia, serif"><title>cooling curves</title><g><line x1="52" y1="234" x2="52" y2="18" stroke="rgba(26,26,23,.26)" stroke-width="1"></line><line x1="71.5" y1="234" x2="71.5" y2="18" stroke="rgba(26,26,23,.10)" stroke-width="0.6"></line><line x1="91" y1="234" x2="91" y2="18" stroke="rgba(26,26,23,.10)" stroke-width="0.6"></line><line x1="110.5" y1="234" x2="110.5" y2="18" stroke="rgba(26,26,23,.10)" stroke-width="0.6"></line><line x1="130" y1="234" x2="130" y2="18" stroke="rgba(26,26,23,.26)" stroke-width="1"></line><line x1="149.5" y1="234" x2="149.5" y2="18" stroke="rgba(26,26,23,.10)" stroke-width="0.6"></line><line x1="169" y1="234" x2="169" y2="18" stroke="rgba(26,26,23,.10)" stroke-width="0.6"></line><line x1="188.5" y1="234" x2="188.5" y2="18" stroke="rgba(26,26,23,.10)" stroke-width="0.6"></line><line x1="208" y1="234" x2="208" y2="18" stroke="rgba(26,26,23,.26)" stroke-width="1"></line><line x1="227.5" y1="234" x2="227.5" y2="18" stroke="rgba(26,26,23,.10)" stroke-width="0.6"></line><line x1="247" y1="234" x2="247" y2="18" stroke="rgba(26,26,23,.10)" stroke-width="0.6"></line><line x1="266.5" y1="234" x2="266.5" y2="18" stroke="rgba(26,26,23,.10)" stroke-width="0.6"></line><line x1="286" y1="234" x2="286" y2="18" stroke="rgba(26,26,23,.26)" stroke-width="1"></line><line x1="305.5" y1="234" x2="305.5" y2="18" stroke="rgba(26,26,23,.10)" stroke-width="0.6"></line><line x1="325" y1="234" x2="325" y2="18" stroke="rgba(26,26,23,.10)" stroke-width="0.6"></line><line x1="344.5" y1="234" x2="344.5" y2="18" stroke="rgba(26,26,23,.10)" stroke-width="0.6"></line><line x1="364" y1="234" x2="364" y2="18" stroke="rgba(26,26,23,.26)" stroke-width="1"></line><line x1="383.5" y1="234" x2="383.5" y2="18" stroke="rgba(26,26,23,.10)" stroke-width="0.6"></line><line x1="403" y1="234" x2="403" y2="18" stroke="rgba(26,26,23,.10)" stroke-width="0.6"></line><line x1="422.5" y1="234" x2="422.5" y2="18" stroke="rgba(26,26,23,.10)" stroke-width="0.6"></line><line x1="442" y1="234" x2="442" y2="18" stroke="rgba(26,26,23,.26)" stroke-width="1"></line><line x1="52" y1="234" x2="442" y2="234" stroke="rgba(26,26,23,.26)" stroke-width="1"></line><line x1="52" y1="220.5" x2="442" y2="220.5" stroke="rgba(26,26,23,.10)" stroke-width="0.6"></line><line x1="52" y1="207" x2="442" y2="207" stroke="rgba(26,26,23,.10)" stroke-width="0.6"></line><line x1="52" y1="193.5" x2="442" y2="193.5" stroke="rgba(26,26,23,.10)" stroke-width="0.6"></line><line x1="52" y1="180" x2="442" y2="180" stroke="rgba(26,26,23,.26)" stroke-width="1"></line><line x1="52" y1="166.5" x2="442" y2="166.5" stroke="rgba(26,26,23,.10)" stroke-width="0.6"></line><line x1="52" y1="153" x2="442" y2="153" stroke="rgba(26,26,23,.10)" stroke-width="0.6"></line><line x1="52" y1="139.5" x2="442" y2="139.5" stroke="rgba(26,26,23,.10)" stroke-width="0.6"></line><line x1="52" y1="126" x2="442" y2="126" stroke="rgba(26,26,23,.26)" stroke-width="1"></line><line x1="52" y1="112.5" x2="442" y2="112.5" stroke="rgba(26,26,23,.10)" stroke-width="0.6"></line><line x1="52" y1="99" x2="442" y2="99" stroke="rgba(26,26,23,.10)" stroke-width="0.6"></line><line x1="52" y1="85.5" x2="442" y2="85.5" stroke="rgba(26,26,23,.10)" stroke-width="0.6"></line><line x1="52" y1="72" x2="442" y2="72" stroke="rgba(26,26,23,.26)" stroke-width="1"></line><line x1="52" y1="58.5" x2="442" y2="58.5" stroke="rgba(26,26,23,.10)" stroke-width="0.6"></line><line x1="52" y1="45" x2="442" y2="45" stroke="rgba(26,26,23,.10)" stroke-width="0.6"></line><line x1="52" y1="31.5" x2="442" y2="31.5" stroke="rgba(26,26,23,.10)" stroke-width="0.6"></line><line x1="52" y1="18" x2="442" y2="18" stroke="rgba(26,26,23,.26)" stroke-width="1"></line></g><g><line x1="52" y1="234" x2="442" y2="234" stroke="#1a1a17" stroke-width="1.6"></line><line x1="52" y1="234" x2="52" y2="18" stroke="#1a1a17" stroke-width="1.6"></line><text x="52" y="250" font-family="system-ui, sans-serif" font-size="10.5" fill="#4d4943" text-anchor="middle">0</text><text x="130" y="250" font-family="system-ui, sans-serif" font-size="10.5" fill="#4d4943" text-anchor="middle">2</text><text x="208" y="250" font-family="system-ui, sans-serif" font-size="10.5" fill="#4d4943" text-anchor="middle">4</text><text x="286" y="250" font-family="system-ui, sans-serif" font-size="10.5" fill="#4d4943" text-anchor="middle">6</text><text x="364" y="250" font-family="system-ui, sans-serif" font-size="10.5" fill="#4d4943" text-anchor="middle">8</text><text x="442" y="250" font-family="system-ui, sans-serif" font-size="10.5" fill="#4d4943" text-anchor="middle">10</text><text x="46" y="237.5" font-family="system-ui, sans-serif" font-size="10.5" fill="#4d4943" text-anchor="end">0</text><text x="46" y="183.5" font-family="system-ui, sans-serif" font-size="10.5" fill="#4d4943" text-anchor="end">20</text><text x="46" y="129.5" font-family="system-ui, sans-serif" font-size="10.5" fill="#4d4943" text-anchor="end">40</text><text x="46" y="75.5" font-family="system-ui, sans-serif" font-size="10.5" fill="#4d4943" text-anchor="end">60</text><text x="46" y="21.5" font-family="system-ui, sans-serif" font-size="10.5" fill="#4d4943" text-anchor="end">80</text><text x="247" y="272" font-family="system-ui, sans-serif" font-size="12" fill="#1a1a17" text-anchor="middle" font-style="italic">time / min</text><text x="0" y="0" font-family="system-ui, sans-serif" font-size="12" fill="#1a1a17" text-anchor="middle" font-style="italic" transform="translate(13,126) rotate(-90)">temperature / C</text></g><path d="M52.00,18.00 L53.77,20.19 L55.55,22.36 L57.32,24.49 L59.09,26.60 L60.86,28.68 L62.64,30.73 L64.41,32.75 L66.18,34.74 L67.95,36.71 L69.73,38.65 L71.50,40.57 L73.27,42.45 L75.05,44.32 L76.82,46.15 L78.59,47.97 L80.36,49.76 L82.14,51.52 L83.91,53.26 L85.68,54.98 L87.45,56.67 L89.23,58.34 L91.00,59.99 L92.77,61.61 L94.55,63.22 L96.32,64.80 L98.09,66.36 L99.86,67.90 L101.64,69.42 L103.41,70.91 L105.18,72.39 L106.95,73.85 L108.73,75.29 L110.50,76.70 L112.27,78.10 L114.05,79.48 L115.82,80.84 L117.59,82.19 L119.36,83.51 L121.14,84.82 L122.91,86.11 L124.68,87.38 L126.45,88.63 L128.23,89.87 L130.00,91.09 L131.77,92.30 L133.55,93.48 L135.32,94.66 L137.09,95.81 L138.86,96.95 L140.64,98.08 L142.41,99.19 L144.18,100.28 L145.95,101.36 L147.73,102.43 L149.50,103.48 L151.27,104.51 L153.05,105.54 L154.82,106.54 L156.59,107.54 L158.36,108.52 L160.14,109.49 L161.91,110.44 L163.68,111.39 L165.45,112.31 L167.23,113.23 L169.00,114.14 L170.77,115.03 L172.55,115.91 L174.32,116.78 L176.09,117.63 L177.86,118.48 L179.64,119.31 L181.41,120.13 L183.18,120.94 L184.95,121.74 L186.73,122.53 L188.50,123.31 L190.27,124.08 L192.05,124.84 L193.82,125.58 L195.59,126.32 L197.36,127.05 L199.14,127.76 L200.91,128.47 L202.68,129.17 L204.45,129.86 L206.23,130.54 L208.00,131.21 L209.77,131.87 L211.55,132.52 L213.32,133.16 L215.09,133.80 L216.86,134.42 L218.64,135.04 L220.41,135.65 L222.18,136.25 L223.95,136.84 L225.73,137.43 L227.50,138.00 L229.27,138.57 L231.05,139.13 L232.82,139.69 L234.59,140.23 L236.36,140.77 L238.14,141.30 L239.91,141.83 L241.68,142.34 L243.45,142.85 L245.23,143.36 L247.00,143.85 L248.77,144.34 L250.55,144.83 L252.32,145.30 L254.09,145.77 L255.86,146.24 L257.64,146.69 L259.41,147.14 L261.18,147.59 L262.95,148.03 L264.73,148.46 L266.50,148.89 L268.27,149.31 L270.05,149.72 L271.82,150.13 L273.59,150.54 L275.36,150.94 L277.14,151.33 L278.91,151.72 L280.68,152.10 L282.45,152.48 L284.23,152.85 L286.00,153.22 L287.77,153.58 L289.55,153.94 L291.32,154.29 L293.09,154.64 L294.86,154.99 L296.64,155.33 L298.41,155.66 L300.18,155.99 L301.95,156.31 L303.73,156.64 L305.50,156.95 L307.27,157.26 L309.05,157.57 L310.82,157.88 L312.59,158.18 L314.36,158.47 L316.14,158.76 L317.91,159.05 L319.68,159.33 L321.45,159.61 L323.23,159.89 L325.00,160.16 L326.77,160.43 L328.55,160.70 L330.32,160.96 L332.09,161.22 L333.86,161.47 L335.64,161.72 L337.41,161.97 L339.18,162.21 L340.95,162.45 L342.73,162.69 L344.50,162.93 L346.27,163.16 L348.05,163.38 L349.82,163.61 L351.59,163.83 L353.36,164.05 L355.14,164.27 L356.91,164.48 L358.68,164.69 L360.45,164.90 L362.23,165.10 L364.00,165.30 L365.77,165.50 L367.55,165.70 L369.32,165.89 L371.09,166.08 L372.86,166.27 L374.64,166.46 L376.41,166.64 L378.18,166.82 L379.95,167.00 L381.73,167.18 L383.50,167.35 L385.27,167.52 L387.05,167.69 L388.82,167.86 L390.59,168.02 L392.36,168.18 L394.14,168.34 L395.91,168.50 L397.68,168.66 L399.45,168.81 L401.23,168.96 L403.00,169.11 L404.77,169.26 L406.55,169.41 L408.32,169.55 L410.09,169.69 L411.86,169.83 L413.64,169.97 L415.41,170.10 L417.18,170.24 L418.95,170.37 L420.73,170.50 L422.50,170.63 L424.27,170.76 L426.05,170.88 L427.82,171.00 L429.59,171.13 L431.36,171.25 L433.14,171.37 L434.91,171.48 L436.68,171.60 L438.45,171.71 L440.23,171.82 L442.00,171.93" fill="none" stroke="#1a1a17" stroke-width="2.4" stroke-linecap="round" stroke-linejoin="round" stroke-dasharray="none"></path><path d="M52.00,18.00 L53.77,18.73 L55.55,19.47 L57.32,20.19 L59.09,20.92 L60.86,21.64 L62.64,22.36 L64.41,23.07 L66.18,23.79 L67.95,24.49 L69.73,25.20 L71.50,25.90 L73.27,26.60 L75.05,27.30 L76.82,27.99 L78.59,28.68 L80.36,29.36 L82.14,30.05 L83.91,30.73 L85.68,31.40 L87.45,32.08 L89.23,32.75 L91.00,33.42 L92.77,34.08 L94.55,34.74 L96.32,35.40 L98.09,36.06 L99.86,36.71 L101.64,37.36 L103.41,38.01 L105.18,38.65 L106.95,39.29 L108.73,39.93 L110.50,40.57 L112.27,41.20 L114.05,41.83 L115.82,42.45 L117.59,43.08 L119.36,43.70 L121.14,44.32 L122.91,44.93 L124.68,45.54 L126.45,46.15 L128.23,46.76 L130.00,47.37 L131.77,47.97 L133.55,48.57 L135.32,49.16 L137.09,49.76 L138.86,50.35 L140.64,50.93 L142.41,51.52 L144.18,52.10 L145.95,52.68 L147.73,53.26 L149.50,53.83 L151.27,54.41 L153.05,54.98 L154.82,55.54 L156.59,56.11 L158.36,56.67 L160.14,57.23 L161.91,57.79 L163.68,58.34 L165.45,58.89 L167.23,59.44 L169.00,59.99 L170.77,60.53 L172.55,61.07 L174.32,61.61 L176.09,62.15 L177.86,62.68 L179.64,63.22 L181.41,63.75 L183.18,64.27 L184.95,64.80 L186.73,65.32 L188.50,65.84 L190.27,66.36 L192.05,66.87 L193.82,67.39 L195.59,67.90 L197.36,68.41 L199.14,68.91 L200.91,69.42 L202.68,69.92 L204.45,70.42 L206.23,70.91 L208.00,71.41 L209.77,71.90 L211.55,72.39 L213.32,72.88 L215.09,73.36 L216.86,73.85 L218.64,74.33 L220.41,74.81 L222.18,75.29 L223.95,75.76 L225.73,76.23 L227.50,76.70 L229.27,77.17 L231.05,77.64 L232.82,78.10 L234.59,78.57 L236.36,79.03 L238.14,79.48 L239.91,79.94 L241.68,80.39 L243.45,80.84 L245.23,81.29 L247.00,81.74 L248.77,82.19 L250.55,82.63 L252.32,83.07 L254.09,83.51 L255.86,83.95 L257.64,84.39 L259.41,84.82 L261.18,85.25 L262.95,85.68 L264.73,86.11 L266.50,86.53 L268.27,86.96 L270.05,87.38 L271.82,87.80 L273.59,88.22 L275.36,88.63 L277.14,89.05 L278.91,89.46 L280.68,89.87 L282.45,90.28 L284.23,90.69 L286.00,91.09 L287.77,91.50 L289.55,91.90 L291.32,92.30 L293.09,92.69 L294.86,93.09 L296.64,93.48 L298.41,93.88 L300.18,94.27 L301.95,94.66 L303.73,95.04 L305.50,95.43 L307.27,95.81 L309.05,96.19 L310.82,96.57 L312.59,96.95 L314.36,97.33 L316.14,97.70 L317.91,98.08 L319.68,98.45 L321.45,98.82 L323.23,99.19 L325.00,99.55 L326.77,99.92 L328.55,100.28 L330.32,100.64 L332.09,101.00 L333.86,101.36 L335.64,101.72 L337.41,102.07 L339.18,102.43 L340.95,102.78 L342.73,103.13 L344.50,103.48 L346.27,103.82 L348.05,104.17 L349.82,104.51 L351.59,104.86 L353.36,105.20 L355.14,105.54 L356.91,105.87 L358.68,106.21 L360.45,106.54 L362.23,106.88 L364.00,107.21 L365.77,107.54 L367.55,107.87 L369.32,108.19 L371.09,108.52 L372.86,108.84 L374.64,109.17 L376.41,109.49 L378.18,109.81 L379.95,110.13 L381.73,110.44 L383.50,110.76 L385.27,111.07 L387.05,111.39 L388.82,111.70 L390.59,112.01 L392.36,112.31 L394.14,112.62 L395.91,112.93 L397.68,113.23 L399.45,113.53 L401.23,113.84 L403.00,114.14 L404.77,114.43 L406.55,114.73 L408.32,115.03 L410.09,115.32 L411.86,115.62 L413.64,115.91 L415.41,116.20 L417.18,116.49 L418.95,116.78 L420.73,117.06 L422.50,117.35 L424.27,117.63 L426.05,117.91 L427.82,118.20 L429.59,118.48 L431.36,118.76 L433.14,119.03 L434.91,119.31 L436.68,119.59 L438.45,119.86 L440.23,120.13 L442.00,120.40" fill="none" stroke="#b03030" stroke-width="2.4" stroke-linecap="round" stroke-linejoin="round" stroke-dasharray="6 4"></path><text x="254.8" y="136.95795646547612" font-family="system-ui, sans-serif" font-size="10.5" fill="#1a1a17">matt black</text><text x="301.6" y="108.57862730502615" font-family="system-ui, sans-serif" font-size="10.5" fill="#b03030">shiny</text></svg>