<svg xmlns="http://www.w3.org/2000/svg" viewBox="0 0 460 280" width="100%" preserveAspectRatio="xMidYMid meet" role="img" aria-label="cooling curves" class="td-svg" style="max-width:460px;height:auto;display:block;font-family:Georgia, serif"><title>cooling curves</title><g><line x1="52" y1="234" x2="52" y2="18" stroke="rgba(26,26,23,.26)" stroke-width="1"></line><line x1="71.5" y1="234" x2="71.5" y2="18" stroke="rgba(26,26,23,.10)" stroke-width="0.6"></line><line x1="91" y1="234" x2="91" y2="18" stroke="rgba(26,26,23,.10)" stroke-width="0.6"></line><line x1="110.5" y1="234" x2="110.5" y2="18" stroke="rgba(26,26,23,.10)" stroke-width="0.6"></line><line x1="130" y1="234" x2="130" y2="18" stroke="rgba(26,26,23,.10)" stroke-width="0.6"></line><line x1="149.5" y1="234" x2="149.5" y2="18" stroke="rgba(26,26,23,.26)" stroke-width="1"></line><line x1="169" y1="234" x2="169" y2="18" stroke="rgba(26,26,23,.10)" stroke-width="0.6"></line><line x1="188.5" y1="234" x2="188.5" y2="18" stroke="rgba(26,26,23,.10)" stroke-width="0.6"></line><line x1="208" y1="234" x2="208" y2="18" stroke="rgba(26,26,23,.10)" stroke-width="0.6"></line><line x1="227.5" y1="234" x2="227.5" y2="18" stroke="rgba(26,26,23,.10)" stroke-width="0.6"></line><line x1="247" y1="234" x2="247" y2="18" stroke="rgba(26,26,23,.26)" stroke-width="1"></line><line x1="266.5" y1="234" x2="266.5" y2="18" stroke="rgba(26,26,23,.10)" stroke-width="0.6"></line><line x1="286" y1="234" x2="286" y2="18" stroke="rgba(26,26,23,.10)" stroke-width="0.6"></line><line x1="305.5" y1="234" x2="305.5" y2="18" stroke="rgba(26,26,23,.10)" stroke-width="0.6"></line><line x1="325" y1="234" x2="325" y2="18" stroke="rgba(26,26,23,.10)" stroke-width="0.6"></line><line x1="344.5" y1="234" x2="344.5" y2="18" stroke="rgba(26,26,23,.26)" stroke-width="1"></line><line x1="364" y1="234" x2="364" y2="18" stroke="rgba(26,26,23,.10)" stroke-width="0.6"></line><line x1="383.5" y1="234" x2="383.5" y2="18" stroke="rgba(26,26,23,.10)" stroke-width="0.6"></line><line x1="403" y1="234" x2="403" y2="18" stroke="rgba(26,26,23,.10)" stroke-width="0.6"></line><line x1="422.5" y1="234" x2="422.5" y2="18" stroke="rgba(26,26,23,.10)" stroke-width="0.6"></line><line x1="442" y1="234" x2="442" y2="18" stroke="rgba(26,26,23,.26)" stroke-width="1"></line><line x1="52" y1="234" x2="442" y2="234" stroke="rgba(26,26,23,.26)" stroke-width="1"></line><line x1="52" y1="223.2" x2="442" y2="223.2" stroke="rgba(26,26,23,.10)" stroke-width="0.6"></line><line x1="52" y1="212.4" x2="442" y2="212.4" stroke="rgba(26,26,23,.10)" stroke-width="0.6"></line><line x1="52" y1="201.6" x2="442" y2="201.6" stroke="rgba(26,26,23,.10)" stroke-width="0.6"></line><line x1="52" y1="190.8" x2="442" y2="190.8" stroke="rgba(26,26,23,.10)" stroke-width="0.6"></line><line x1="52" y1="180" x2="442" y2="180" stroke="rgba(26,26,23,.26)" stroke-width="1"></line><line x1="52" y1="169.2" x2="442" y2="169.2" stroke="rgba(26,26,23,.10)" stroke-width="0.6"></line><line x1="52" y1="158.4" x2="442" y2="158.4" stroke="rgba(26,26,23,.10)" stroke-width="0.6"></line><line x1="52" y1="147.6" x2="442" y2="147.6" stroke="rgba(26,26,23,.10)" stroke-width="0.6"></line><line x1="52" y1="136.8" x2="442" y2="136.8" stroke="rgba(26,26,23,.10)" stroke-width="0.6"></line><line x1="52" y1="126" x2="442" y2="126" stroke="rgba(26,26,23,.26)" stroke-width="1"></line><line x1="52" y1="115.19999999999999" x2="442" y2="115.19999999999999" stroke="rgba(26,26,23,.10)" stroke-width="0.6"></line><line x1="52" y1="104.4" x2="442" y2="104.4" stroke="rgba(26,26,23,.10)" stroke-width="0.6"></line><line x1="52" y1="93.6" x2="442" y2="93.6" stroke="rgba(26,26,23,.10)" stroke-width="0.6"></line><line x1="52" y1="82.80000000000001" x2="442" y2="82.80000000000001" stroke="rgba(26,26,23,.10)" stroke-width="0.6"></line><line x1="52" y1="72" x2="442" y2="72" stroke="rgba(26,26,23,.26)" stroke-width="1"></line><line x1="52" y1="61.19999999999999" x2="442" y2="61.19999999999999" stroke="rgba(26,26,23,.10)" stroke-width="0.6"></line><line x1="52" y1="50.400000000000006" x2="442" y2="50.400000000000006" stroke="rgba(26,26,23,.10)" stroke-width="0.6"></line><line x1="52" y1="39.599999999999994" x2="442" y2="39.599999999999994" stroke="rgba(26,26,23,.10)" stroke-width="0.6"></line><line x1="52" y1="28.80000000000001" x2="442" y2="28.80000000000001" stroke="rgba(26,26,23,.10)" stroke-width="0.6"></line><line x1="52" y1="18" x2="442" y2="18" stroke="rgba(26,26,23,.26)" stroke-width="1"></line></g><g><line x1="52" y1="234" x2="442" y2="234" stroke="#1a1a17" stroke-width="1.6"></line><line x1="52" y1="234" x2="52" y2="18" stroke="#1a1a17" stroke-width="1.6"></line><text x="52" y="250" font-family="system-ui, sans-serif" font-size="10.5" fill="#4d4943" text-anchor="middle">0</text><text x="149.5" y="250" font-family="system-ui, sans-serif" font-size="10.5" fill="#4d4943" text-anchor="middle">5</text><text x="247" y="250" font-family="system-ui, sans-serif" font-size="10.5" fill="#4d4943" text-anchor="middle">10</text><text x="344.5" y="250" font-family="system-ui, sans-serif" font-size="10.5" fill="#4d4943" text-anchor="middle">15</text><text x="442" y="250" font-family="system-ui, sans-serif" font-size="10.5" fill="#4d4943" text-anchor="middle">20</text><text x="46" y="237.5" font-family="system-ui, sans-serif" font-size="10.5" fill="#4d4943" text-anchor="end">0</text><text x="46" y="183.5" font-family="system-ui, sans-serif" font-size="10.5" fill="#4d4943" text-anchor="end">20</text><text x="46" y="129.5" font-family="system-ui, sans-serif" font-size="10.5" fill="#4d4943" text-anchor="end">40</text><text x="46" y="75.5" font-family="system-ui, sans-serif" font-size="10.5" fill="#4d4943" text-anchor="end">60</text><text x="46" y="21.5" font-family="system-ui, sans-serif" font-size="10.5" fill="#4d4943" text-anchor="end">80</text><text x="247" y="272" font-family="system-ui, sans-serif" font-size="12" fill="#1a1a17" text-anchor="middle" font-style="italic">time / min</text><text x="0" y="0" font-family="system-ui, sans-serif" font-size="12" fill="#1a1a17" text-anchor="middle" font-style="italic" transform="translate(13,126) rotate(-90)">temperature / C</text></g><path d="M52.00,18.00 L53.77,20.34 L55.55,22.64 L57.32,24.92 L59.09,27.16 L60.86,29.36 L62.64,31.54 L64.41,33.68 L66.18,35.80 L67.95,37.88 L69.73,39.93 L71.50,41.95 L73.27,43.95 L75.05,45.91 L76.82,47.85 L78.59,49.76 L80.36,51.64 L82.14,53.49 L83.91,55.32 L85.68,57.12 L87.45,58.89 L89.23,60.64 L91.00,62.36 L92.77,64.06 L94.55,65.74 L96.32,67.39 L98.09,69.01 L99.86,70.62 L101.64,72.20 L103.41,73.75 L105.18,75.29 L106.95,76.80 L108.73,78.29 L110.50,79.76 L112.27,81.20 L114.05,82.63 L115.82,84.04 L117.59,85.42 L119.36,86.79 L121.14,88.13 L122.91,89.46 L124.68,90.77 L126.45,92.06 L128.23,93.33 L130.00,94.58 L131.77,95.81 L133.55,97.03 L135.32,98.23 L137.09,99.41 L138.86,100.57 L140.64,101.72 L142.41,102.85 L144.18,103.96 L145.95,105.06 L147.73,106.14 L149.50,107.21 L151.27,108.26 L153.05,109.30 L154.82,110.32 L156.59,111.32 L158.36,112.31 L160.14,113.29 L161.91,114.26 L163.68,115.20 L165.45,116.14 L167.23,117.06 L169.00,117.97 L170.77,118.87 L172.55,119.75 L174.32,120.62 L176.09,121.48 L177.86,122.32 L179.64,123.16 L181.41,123.98 L183.18,124.79 L184.95,125.58 L186.73,126.37 L188.50,127.14 L190.27,127.91 L192.05,128.66 L193.82,129.40 L195.59,130.13 L197.36,130.85 L199.14,131.56 L200.91,132.26 L202.68,132.95 L204.45,133.63 L206.23,134.30 L208.00,134.96 L209.77,135.61 L211.55,136.25 L213.32,136.88 L215.09,137.50 L216.86,138.12 L218.64,138.72 L220.41,139.32 L222.18,139.91 L223.95,140.48 L225.73,141.06 L227.50,141.62 L229.27,142.17 L231.05,142.72 L232.82,143.26 L234.59,143.79 L236.36,144.31 L238.14,144.83 L239.91,145.33 L241.68,145.83 L243.45,146.33 L245.23,146.81 L247.00,147.29 L248.77,147.77 L250.55,148.23 L252.32,148.69 L254.09,149.14 L255.86,149.59 L257.64,150.03 L259.41,150.46 L261.18,150.89 L262.95,151.31 L264.73,151.72 L266.50,152.13 L268.27,152.53 L270.05,152.93 L271.82,153.32 L273.59,153.70 L275.36,154.08 L277.14,154.46 L278.91,154.83 L280.68,155.19 L282.45,155.55 L284.23,155.90 L286.00,156.25 L287.77,156.59 L289.55,156.93 L291.32,157.26 L293.09,157.59 L294.86,157.92 L296.64,158.23 L298.41,158.55 L300.18,158.86 L301.95,159.16 L303.73,159.46 L305.50,159.76 L307.27,160.05 L309.05,160.34 L310.82,160.63 L312.59,160.91 L314.36,161.18 L316.14,161.45 L317.91,161.72 L319.68,161.98 L321.45,162.24 L323.23,162.50 L325.00,162.75 L326.77,163.00 L328.55,163.25 L330.32,163.49 L332.09,163.73 L333.86,163.96 L335.64,164.20 L337.41,164.42 L339.18,164.65 L340.95,164.87 L342.73,165.09 L344.50,165.30 L346.27,165.52 L348.05,165.73 L349.82,165.93 L351.59,166.13 L353.36,166.33 L355.14,166.53 L356.91,166.73 L358.68,166.92 L360.45,167.11 L362.23,167.29 L364.00,167.48 L365.77,167.66 L367.55,167.84 L369.32,168.01 L371.09,168.18 L372.86,168.36 L374.64,168.52 L376.41,168.69 L378.18,168.85 L379.95,169.01 L381.73,169.17 L383.50,169.33 L385.27,169.48 L387.05,169.63 L388.82,169.78 L390.59,169.93 L392.36,170.08 L394.14,170.22 L395.91,170.36 L397.68,170.50 L399.45,170.64 L401.23,170.77 L403.00,170.91 L404.77,171.04 L406.55,171.17 L408.32,171.29 L410.09,171.42 L411.86,171.54 L413.64,171.67 L415.41,171.79 L417.18,171.91 L418.95,172.02 L420.73,172.14 L422.50,172.25 L424.27,172.36 L426.05,172.47 L427.82,172.58 L429.59,172.69 L431.36,172.79 L433.14,172.90 L434.91,173.00 L436.68,173.10 L438.45,173.20 L440.23,173.30 L442.00,173.40" fill="none" stroke="#1a1a17" stroke-width="2.4" stroke-linecap="round" stroke-linejoin="round" stroke-dasharray="none"></path><path d="M52.00,18.00 L53.77,19.10 L55.55,20.19 L57.32,21.28 L59.09,22.36 L60.86,23.43 L62.64,24.49 L64.41,25.55 L66.18,26.60 L67.95,27.64 L69.73,28.68 L71.50,29.71 L73.27,30.73 L75.05,31.74 L76.82,32.75 L78.59,33.75 L80.36,34.74 L82.14,35.73 L83.91,36.71 L85.68,37.68 L87.45,38.65 L89.23,39.61 L91.00,40.57 L92.77,41.51 L94.55,42.45 L96.32,43.39 L98.09,44.32 L99.86,45.24 L101.64,46.15 L103.41,47.06 L105.18,47.97 L106.95,48.86 L108.73,49.76 L110.50,50.64 L112.27,51.52 L114.05,52.39 L115.82,53.26 L117.59,54.12 L119.36,54.98 L121.14,55.83 L122.91,56.67 L124.68,57.51 L126.45,58.34 L128.23,59.17 L130.00,59.99 L131.77,60.80 L133.55,61.61 L135.32,62.42 L137.09,63.22 L138.86,64.01 L140.64,64.80 L142.41,65.58 L144.18,66.36 L145.95,67.13 L147.73,67.90 L149.50,68.66 L151.27,69.42 L153.05,70.17 L154.82,70.91 L156.59,71.65 L158.36,72.39 L160.14,73.12 L161.91,73.85 L163.68,74.57 L165.45,75.29 L167.23,76.00 L169.00,76.70 L170.77,77.41 L172.55,78.10 L174.32,78.80 L176.09,79.48 L177.86,80.17 L179.64,80.84 L181.41,81.52 L183.18,82.19 L184.95,82.85 L186.73,83.51 L188.50,84.17 L190.27,84.82 L192.05,85.47 L193.82,86.11 L195.59,86.75 L197.36,87.38 L199.14,88.01 L200.91,88.63 L202.68,89.26 L204.45,89.87 L206.23,90.48 L208.00,91.09 L209.77,91.70 L211.55,92.30 L213.32,92.89 L215.09,93.48 L216.86,94.07 L218.64,94.66 L220.41,95.24 L222.18,95.81 L223.95,96.38 L225.73,96.95 L227.50,97.52 L229.27,98.08 L231.05,98.63 L232.82,99.19 L234.59,99.74 L236.36,100.28 L238.14,100.82 L239.91,101.36 L241.68,101.90 L243.45,102.43 L245.23,102.95 L247.00,103.48 L248.77,104.00 L250.55,104.51 L252.32,105.03 L254.09,105.54 L255.86,106.04 L257.64,106.54 L259.41,107.04 L261.18,107.54 L262.95,108.03 L264.73,108.52 L266.50,109.01 L268.27,109.49 L270.05,109.97 L271.82,110.44 L273.59,110.92 L275.36,111.39 L277.14,111.85 L278.91,112.31 L280.68,112.77 L282.45,113.23 L284.23,113.69 L286.00,114.14 L287.77,114.58 L289.55,115.03 L291.32,115.47 L293.09,115.91 L294.86,116.34 L296.64,116.78 L298.41,117.21 L300.18,117.63 L301.95,118.06 L303.73,118.48 L305.50,118.89 L307.27,119.31 L309.05,119.72 L310.82,120.13 L312.59,120.54 L314.36,120.94 L316.14,121.34 L317.91,121.74 L319.68,122.14 L321.45,122.53 L323.23,122.92 L325.00,123.31 L326.77,123.70 L328.55,124.08 L330.32,124.46 L332.09,124.84 L333.86,125.21 L335.64,125.58 L337.41,125.95 L339.18,126.32 L340.95,126.68 L342.73,127.05 L344.50,127.41 L346.27,127.76 L348.05,128.12 L349.82,128.47 L351.59,128.82 L353.36,129.17 L355.14,129.51 L356.91,129.86 L358.68,130.20 L360.45,130.54 L362.23,130.87 L364.00,131.21 L365.77,131.54 L367.55,131.87 L369.32,132.19 L371.09,132.52 L372.86,132.84 L374.64,133.16 L376.41,133.48 L378.18,133.80 L379.95,134.11 L381.73,134.42 L383.50,134.73 L385.27,135.04 L387.05,135.35 L388.82,135.65 L390.59,135.95 L392.36,136.25 L394.14,136.55 L395.91,136.84 L397.68,137.14 L399.45,137.43 L401.23,137.72 L403.00,138.00 L404.77,138.29 L406.55,138.57 L408.32,138.85 L410.09,139.13 L411.86,139.41 L413.64,139.69 L415.41,139.96 L417.18,140.23 L418.95,140.50 L420.73,140.77 L422.50,141.04 L424.27,141.30 L426.05,141.57 L427.82,141.83 L429.59,142.09 L431.36,142.34 L433.14,142.60 L434.91,142.85 L436.68,143.11 L438.45,143.36 L440.23,143.61 L442.00,143.85" fill="none" stroke="#b03030" stroke-width="2.4" stroke-linecap="round" stroke-linejoin="round" stroke-dasharray="6 4"></path><text x="305.5" y="153.76130562382966" font-family="system-ui, sans-serif" font-size="10" fill="#1a1a17">matt black (cools faster)</text><text x="286" y="128.13571512202293" font-family="system-ui, sans-serif" font-size="10" fill="#b03030">shiny (cools slower)</text></svg>