<svg xmlns="http://www.w3.org/2000/svg" viewBox="0 0 420 300" width="100%" preserveAspectRatio="xMidYMid meet" role="img" aria-label="refraction through a rectangle" class="td-svg" style="max-width:420px;height:auto;display:block;font-family:Georgia, serif"><title>refraction through a rectangle</title><rect x="117.60000000000001" y="60" width="184.79999999999995" height="190" fill="rgba(120,170,190,.22)" stroke="#4d4943" stroke-width="1.4"></rect><g><line x1="67.86806142854125" y1="36.05858996720318" x2="133.64654488355484" y2="60" stroke="#b03030" stroke-width="1.8" stroke-linecap="butt" stroke-dasharray="none"></line><path d="M104.0,49.2 L97.1,49.9 L99.1,44.3 Z" fill="#b03030" stroke="none"></path></g><line x1="133.64654488355484" y1="60" x2="286.3534551164451" y2="250" stroke="#b03030" stroke-width="1.8" stroke-linecap="butt" stroke-dasharray="none"></line><g><line x1="286.3534551164451" y1="250" x2="352.1319385714587" y2="273.9414100327968" stroke="#b03030" stroke-width="1.8" stroke-linecap="butt" stroke-dasharray="none"></line><path d="M322.5,263.2 L315.6,263.8 L317.6,258.2 Z" fill="#b03030" stroke="none"></path></g><line x1="133.64654488355484" y1="30" x2="133.64654488355484" y2="100" stroke="#8c8579" stroke-width="1" stroke-linecap="butt" stroke-dasharray="5 4"></line><line x1="286.3534551164451" y1="210" x2="286.3534551164451" y2="280" stroke="#8c8579" stroke-width="1" stroke-linecap="butt" stroke-dasharray="5 4"></line><path d="M133.6,34.0 A26,26 0 0 1 158.1,51.1" fill="none" stroke="#4d4943" stroke-width="1"></path><text x="155.4424494648946" y="31.872222317018313" font-family="system-ui, sans-serif" font-size="10" fill="#4d4943" text-anchor="middle">i</text><path d="M133.6,86.0 A26,26 0 0 1 117.4,80.3" fill="none" stroke="#4d4943" stroke-width="1"></path><text x="121.02768851525094" y="98.8436112013859" font-family="system-ui, sans-serif" font-size="10" fill="#4d4943" text-anchor="middle">r</text><text x="123.60000000000001" y="76" font-family="system-ui, sans-serif" font-size="10" fill="#4d4943">glass block</text></svg>