<svg xmlns="http://www.w3.org/2000/svg" viewBox="0 0 420 300" width="100%" preserveAspectRatio="xMidYMid meet" role="img" aria-label="refraction through a rectangle" class="td-svg" style="max-width:420px;height:auto;display:block;font-family:Georgia, serif"><title>refraction through a rectangle</title><rect x="117.60000000000001" y="60" width="184.79999999999995" height="190" fill="rgba(120,170,190,.22)" stroke="#4d4943" stroke-width="1.4"></rect><g><line x1="141.41242789363898" y1="-0.6217782649107093" x2="176.41242789363898" y2="60" stroke="#b03030" stroke-width="1.8" stroke-linecap="butt" stroke-dasharray="none"></line><path d="M160.7,32.7 L154.9,28.7 L160.1,25.7 Z" fill="#b03030" stroke="none"></path></g><line x1="176.41242789363898" y1="60" x2="243.587572106361" y2="250" stroke="#b03030" stroke-width="1.8" stroke-linecap="butt" stroke-dasharray="none"></line><g><line x1="243.587572106361" y1="250" x2="278.587572106361" y2="310.6217782649107" stroke="#b03030" stroke-width="1.8" stroke-linecap="butt" stroke-dasharray="none"></line><path d="M262.8,283.3 L257.1,279.3 L262.3,276.4 Z" fill="#b03030" stroke="none"></path></g><line x1="176.41242789363898" y1="30" x2="176.41242789363898" y2="100" stroke="#8c8579" stroke-width="1" stroke-linecap="butt" stroke-dasharray="5 4"></line><line x1="243.587572106361" y1="210" x2="243.587572106361" y2="280" stroke="#8c8579" stroke-width="1" stroke-linecap="butt" stroke-dasharray="5 4"></line><path d="M176.4,34.0 A26,26 0 0 1 189.4,37.5" fill="none" stroke="#4d4943" stroke-width="1"></path><text x="186.24755160753477" y="26.294818601015407" font-family="system-ui, sans-serif" font-size="10" fill="#4d4943" text-anchor="middle">i</text><path d="M176.4,86.0 A26,26 0 0 1 167.7,84.5" fill="none" stroke="#4d4943" stroke-width="1"></path><text x="169.98655270206" y="100.45274526683258" font-family="system-ui, sans-serif" font-size="10" fill="#4d4943" text-anchor="middle">r</text><text x="123.60000000000001" y="76" font-family="system-ui, sans-serif" font-size="10" fill="#4d4943">glass block</text></svg>