<svg xmlns="http://www.w3.org/2000/svg" viewBox="0 0 420 300" width="100%" preserveAspectRatio="xMidYMid meet" role="img" aria-label="refraction through a rectangle" class="td-svg" style="max-width:420px;height:auto;display:block;font-family:Georgia, serif"><title>refraction through a rectangle</title><rect x="117.60000000000001" y="60" width="184.79999999999995" height="190" fill="rgba(120,170,190,.22)" stroke="#4d4943" stroke-width="1.4"></rect><g><line x1="57.1820166979867" y1="50.25788293279542" x2="126.50078150989663" y2="60" stroke="#b03030" stroke-width="1.8" stroke-linecap="butt" stroke-dasharray="none"></line><path d="M95.3,55.6 L88.6,57.7 L89.4,51.8 Z" fill="#b03030" stroke="none"></path></g><line x1="126.50078150989663" y1="60" x2="293.4992184901033" y2="250" stroke="#b03030" stroke-width="1.8" stroke-linecap="butt" stroke-dasharray="none"></line><g><line x1="293.4992184901033" y1="250" x2="362.81798330201326" y2="259.74211706720456" stroke="#b03030" stroke-width="1.8" stroke-linecap="butt" stroke-dasharray="none"></line><path d="M331.6,255.4 L324.9,257.4 L325.8,251.5 Z" fill="#b03030" stroke="none"></path></g><line x1="126.50078150989663" y1="30" x2="126.50078150989663" y2="100" stroke="#8c8579" stroke-width="1" stroke-linecap="butt" stroke-dasharray="5 4"></line><line x1="293.4992184901033" y1="210" x2="293.4992184901033" y2="280" stroke="#8c8579" stroke-width="1" stroke-linecap="butt" stroke-dasharray="5 4"></line><path d="M126.5,34.0 A26,26 0 0 1 152.2,56.4" fill="none" stroke="#4d4943" stroke-width="1"></path><text x="151.43102461153592" y="34.32103595153467" font-family="system-ui, sans-serif" font-size="10" fill="#4d4943" text-anchor="middle">i</text><path d="M126.5,86.0 A26,26 0 0 1 109.3,79.5" fill="none" stroke="#4d4943" stroke-width="1"></path><text x="113.09557280871941" y="98.55700183758302" font-family="system-ui, sans-serif" font-size="10" fill="#4d4943" text-anchor="middle">r</text><text x="123.60000000000001" y="76" font-family="system-ui, sans-serif" font-size="10" fill="#4d4943">glass block</text></svg>