<svg xmlns="http://www.w3.org/2000/svg" viewBox="0 0 420 320" width="100%" preserveAspectRatio="xMidYMid meet" role="img" aria-label="refraction of wavefronts" class="td-svg" style="max-width:420px;height:auto;display:block;font-family:Georgia, serif"><title>refraction of wavefronts</title><rect x="24" y="16" width="372" height="144" fill="rgba(60,110,150,.06)"></rect><rect x="24" y="160" width="372" height="144" fill="rgba(60,110,150,.18)"></rect><line x1="24" y1="160" x2="396" y2="160" stroke="#1a1a17" stroke-width="1.6" stroke-linecap="butt" stroke-dasharray="none"></line><text x="396" y="28" font-family="system-ui, sans-serif" font-size="10" fill="#4d4943" text-anchor="end">medium 1 (wave faster)</text><text x="396" y="298" font-family="system-ui, sans-serif" font-size="10" fill="#4d4943" text-anchor="end">medium 2 (wave slower)</text><line x1="31.40472200651712" y1="160" x2="203.01723934008336" y2="16" stroke="#1a1a17" stroke-width="1.8" stroke-linecap="butt" stroke-dasharray="none"></line><line x1="31.40472200651712" y1="160" x2="24" y2="163.51190267775632" stroke="#1a1a17" stroke-width="1.8" stroke-linecap="butt" stroke-dasharray="none"></line><line x1="71.85354150488784" y1="160" x2="243.4660588384541" y2="16" stroke="#1a1a17" stroke-width="1.8" stroke-linecap="butt" stroke-dasharray="none"></line><line x1="71.85354150488784" y1="160" x2="24" y2="182.69592030642426" stroke="#1a1a17" stroke-width="1.8" stroke-linecap="butt" stroke-dasharray="none"></line><line x1="112.30236100325857" y1="160" x2="283.9148783368248" y2="16" stroke="#1a1a17" stroke-width="1.8" stroke-linecap="butt" stroke-dasharray="none"></line><line x1="112.30236100325857" y1="160" x2="24" y2="201.8799379350922" stroke="#1a1a17" stroke-width="1.8" stroke-linecap="butt" stroke-dasharray="none"></line><line x1="152.75118050162928" y1="160" x2="324.3636978351955" y2="16" stroke="#1a1a17" stroke-width="1.8" stroke-linecap="butt" stroke-dasharray="none"></line><line x1="152.75118050162928" y1="160" x2="24" y2="221.06395556376012" stroke="#1a1a17" stroke-width="1.8" stroke-linecap="butt" stroke-dasharray="none"></line><line x1="193.20000000000002" y1="160" x2="364.81251733356623" y2="16" stroke="#1a1a17" stroke-width="1.8" stroke-linecap="butt" stroke-dasharray="none"></line><line x1="193.20000000000002" y1="160" x2="24" y2="240.24797319242805" stroke="#1a1a17" stroke-width="1.8" stroke-linecap="butt" stroke-dasharray="none"></line><line x1="233.64881949837076" y1="160" x2="396" y2="23.771184319886885" stroke="#1a1a17" stroke-width="1.8" stroke-linecap="butt" stroke-dasharray="none"></line><line x1="233.64881949837076" y1="160" x2="24" y2="259.431990821096" stroke="#1a1a17" stroke-width="1.8" stroke-linecap="butt" stroke-dasharray="none"></line><line x1="274.09763899674147" y1="160" x2="396" y2="57.71177384252613" stroke="#1a1a17" stroke-width="1.8" stroke-linecap="butt" stroke-dasharray="none"></line><line x1="274.09763899674147" y1="160" x2="24" y2="278.6160084497639" stroke="#1a1a17" stroke-width="1.8" stroke-linecap="butt" stroke-dasharray="none"></line><line x1="314.5464584951122" y1="160" x2="396" y2="91.65236336516536" stroke="#1a1a17" stroke-width="1.8" stroke-linecap="butt" stroke-dasharray="none"></line><line x1="314.5464584951122" y1="160" x2="24" y2="297.80002607843187" stroke="#1a1a17" stroke-width="1.8" stroke-linecap="butt" stroke-dasharray="none"></line><line x1="354.9952779934829" y1="160" x2="396" y2="125.59295288780459" stroke="#1a1a17" stroke-width="1.8" stroke-linecap="butt" stroke-dasharray="none"></line><line x1="354.9952779934829" y1="160" x2="51.376394790349366" y2="304" stroke="#1a1a17" stroke-width="1.8" stroke-linecap="butt" stroke-dasharray="none"></line><line x1="193.20000000000002" y1="20" x2="193.20000000000002" y2="304" stroke="#8c8579" stroke-width="1" stroke-linecap="butt" stroke-dasharray="5 4"></line><path d="M193.2,130.0 A30,30 0 0 1 212.5,137.0" fill="none" stroke="#4d4943" stroke-width="1"></path><text x="207.5648460196781" y="123.53290992699185" font-family="system-ui, sans-serif" font-size="10" fill="#4d4943" text-anchor="middle">i</text><path d="M193.2,190.0 A30,30 0 0 1 180.3,187.1" fill="none" stroke="#4d4943" stroke-width="1"></path><text x="183.9757581761521" y="203.97454530284838" font-family="system-ui, sans-serif" font-size="10" fill="#4d4943" text-anchor="middle">r</text><text x="30" y="152" font-family="system-ui, sans-serif" font-size="10" fill="#4d4943">λ1</text><text x="30" y="176" font-family="system-ui, sans-serif" font-size="10" fill="#4d4943">λ2 (closer)</text></svg>