<svg xmlns="http://www.w3.org/2000/svg" viewBox="0 0 420 320" width="100%" preserveAspectRatio="xMidYMid meet" role="img" aria-label="refraction of wavefronts" class="td-svg" style="max-width:420px;height:auto;display:block;font-family:Georgia, serif"><title>refraction of wavefronts</title><rect x="24" y="16" width="372" height="144" fill="rgba(60,110,150,.06)"></rect><rect x="24" y="160" width="372" height="144" fill="rgba(60,110,150,.18)"></rect><line x1="24" y1="160" x2="396" y2="160" stroke="#1a1a17" stroke-width="1.6" stroke-linecap="butt" stroke-dasharray="none"></line><text x="396" y="28" font-family="system-ui, sans-serif" font-size="10" fill="#4d4943" text-anchor="end">medium 1 (wave faster)</text><text x="396" y="298" font-family="system-ui, sans-serif" font-size="10" fill="#4d4943" text-anchor="end">medium 2 (wave slower)</text><line x1="31.40472200651712" y1="160" x2="91.1561885697974" y2="109.86256644444994" stroke="#1a1a17" stroke-width="1.8" stroke-linecap="butt" stroke-dasharray="none"></line><line x1="31.40472200651712" y1="160" x2="24" y2="193.42495570370005" stroke="#1a1a17" stroke-width="1.8" stroke-linecap="butt" stroke-dasharray="none"></line><line x1="71.85354150488784" y1="160" x2="131.60500806816813" y2="109.86256644444994" stroke="#1a1a17" stroke-width="1.8" stroke-linecap="butt" stroke-dasharray="none"></line><line x1="71.85354150488784" y1="160" x2="24" y2="193.42495570370005" stroke="#1a1a17" stroke-width="1.8" stroke-linecap="butt" stroke-dasharray="none"></line><line x1="112.30236100325857" y1="160" x2="172.05382756653884" y2="109.86256644444994" stroke="#1a1a17" stroke-width="1.8" stroke-linecap="butt" stroke-dasharray="none"></line><line x1="112.30236100325857" y1="160" x2="41.827029601372345" y2="193.42495570370005" stroke="#1a1a17" stroke-width="1.8" stroke-linecap="butt" stroke-dasharray="none"></line><line x1="152.75118050162928" y1="160" x2="212.50264706490955" y2="109.86256644444994" stroke="#1a1a17" stroke-width="1.8" stroke-linecap="butt" stroke-dasharray="none"></line><line x1="152.75118050162928" y1="160" x2="82.27584909974306" y2="193.42495570370005" stroke="#1a1a17" stroke-width="1.8" stroke-linecap="butt" stroke-dasharray="none"></line><line x1="193.20000000000002" y1="160" x2="252.9514665632803" y2="109.86256644444994" stroke="#1a1a17" stroke-width="1.8" stroke-linecap="butt" stroke-dasharray="none"></line><line x1="193.20000000000002" y1="160" x2="122.7246685981138" y2="193.42495570370005" stroke="#1a1a17" stroke-width="1.8" stroke-linecap="butt" stroke-dasharray="none"></line><line x1="233.64881949837076" y1="160" x2="293.40028606165106" y2="109.86256644444994" stroke="#1a1a17" stroke-width="1.8" stroke-linecap="butt" stroke-dasharray="none"></line><line x1="233.64881949837076" y1="160" x2="163.17348809648453" y2="193.42495570370005" stroke="#1a1a17" stroke-width="1.8" stroke-linecap="butt" stroke-dasharray="none"></line><line x1="274.09763899674147" y1="160" x2="333.84910556002177" y2="109.86256644444994" stroke="#1a1a17" stroke-width="1.8" stroke-linecap="butt" stroke-dasharray="none"></line><line x1="274.09763899674147" y1="160" x2="203.62230759485524" y2="193.42495570370005" stroke="#1a1a17" stroke-width="1.8" stroke-linecap="butt" stroke-dasharray="none"></line><line x1="314.5464584951122" y1="160" x2="374.2979250583925" y2="109.86256644444994" stroke="#1a1a17" stroke-width="1.8" stroke-linecap="butt" stroke-dasharray="none"></line><line x1="314.5464584951122" y1="160" x2="244.07112709322595" y2="193.42495570370005" stroke="#1a1a17" stroke-width="1.8" stroke-linecap="butt" stroke-dasharray="none"></line><line x1="354.9952779934829" y1="160" x2="396" y2="109.86256644444994" stroke="#1a1a17" stroke-width="1.8" stroke-linecap="butt" stroke-dasharray="none"></line><line x1="354.9952779934829" y1="160" x2="284.51994659159664" y2="193.42495570370005" stroke="#1a1a17" stroke-width="1.8" stroke-linecap="butt" stroke-dasharray="none"></line><g><line x1="148.20486732194226" y1="106.37688898167154" x2="190.05034071253598" y2="156.246382228717" stroke="#b03030" stroke-width="1.8" stroke-linecap="round" stroke-dasharray="none"></line><path d="M193.2,160.0 L186.8,157.1 L191.4,153.2 Z" fill="#b03030" stroke="none"></path></g><g><line x1="193.20000000000002" y1="160" x2="221.09698226039583" y2="218.81979582388198" stroke="#b03030" stroke-width="1.8" stroke-linecap="round" stroke-dasharray="none"></line><path d="M223.2,223.2 L217.8,218.8 L223.2,216.2 Z" fill="#b03030" stroke="none"></path></g><line x1="193.20000000000002" y1="20" x2="193.20000000000002" y2="304" stroke="#8c8579" stroke-width="1" stroke-linecap="butt" stroke-dasharray="5 4"></line><path d="M193.2,130.0 A30,30 0 0 1 212.5,137.0" fill="none" stroke="#4d4943" stroke-width="1"></path><text x="207.5648460196781" y="123.53290992699185" font-family="system-ui, sans-serif" font-size="10" fill="#4d4943" text-anchor="middle">i</text><path d="M193.2,190.0 A30,30 0 0 1 180.3,187.1" fill="none" stroke="#4d4943" stroke-width="1"></path><text x="183.9757581761521" y="203.97454530284838" font-family="system-ui, sans-serif" font-size="10" fill="#4d4943" text-anchor="middle">r</text><text x="30" y="152" font-family="system-ui, sans-serif" font-size="10" fill="#4d4943">lambda1</text><text x="30" y="176" font-family="system-ui, sans-serif" font-size="10" fill="#4d4943">lambda2 (closer)</text></svg>