<svg xmlns="http://www.w3.org/2000/svg" viewBox="0 0 420 320" width="100%" preserveAspectRatio="xMidYMid meet" role="img" aria-label="refraction of wavefronts" class="td-svg" style="max-width:420px;height:auto;display:block;font-family:Georgia, serif"><title>refraction of wavefronts</title><rect x="24" y="16" width="372" height="144" fill="rgba(60,110,150,.06)"></rect><rect x="24" y="160" width="372" height="144" fill="rgba(60,110,150,.18)"></rect><line x1="24" y1="160" x2="396" y2="160" stroke="#1a1a17" stroke-width="1.6" stroke-linecap="butt" stroke-dasharray="none"></line><text x="396" y="28" font-family="system-ui, sans-serif" font-size="10" fill="#4d4943" text-anchor="end">medium 1 (wave slower)</text><text x="396" y="298" font-family="system-ui, sans-serif" font-size="10" fill="#4d4943" text-anchor="end">medium 2 (wave faster)</text><line x1="70.1575176760701" y1="160" x2="378.96651422944655" y2="16" stroke="#1a1a17" stroke-width="1.8" stroke-linecap="butt" stroke-dasharray="none"></line><line x1="70.1575176760701" y1="160" x2="24" y2="197.83397477837138" stroke="#1a1a17" stroke-width="1.8" stroke-linecap="butt" stroke-dasharray="none"></line><line x1="131.67875883803507" y1="160" x2="396" y2="36.744981033141485" stroke="#1a1a17" stroke-width="1.8" stroke-linecap="butt" stroke-dasharray="none"></line><line x1="131.67875883803507" y1="160" x2="23.999999999999986" y2="248.2611468544513" stroke="#1a1a17" stroke-width="1.8" stroke-linecap="butt" stroke-dasharray="none"></line><line x1="193.20000000000002" y1="160" x2="396" y2="65.43280692616628" stroke="#1a1a17" stroke-width="1.8" stroke-linecap="butt" stroke-dasharray="none"></line><line x1="193.20000000000002" y1="160" x2="24" y2="298.6883189305312" stroke="#1a1a17" stroke-width="1.8" stroke-linecap="butt" stroke-dasharray="none"></line><line x1="254.72124116196497" y1="160" x2="396" y2="94.12063281919107" stroke="#1a1a17" stroke-width="1.8" stroke-linecap="butt" stroke-dasharray="none"></line><line x1="254.72124116196497" y1="160" x2="79.04098064770852" y2="304" stroke="#1a1a17" stroke-width="1.8" stroke-linecap="butt" stroke-dasharray="none"></line><line x1="316.24248232392995" y1="160" x2="396" y2="122.80845871221587" stroke="#1a1a17" stroke-width="1.8" stroke-linecap="butt" stroke-dasharray="none"></line><line x1="316.24248232392995" y1="160" x2="140.5622218096735" y2="304" stroke="#1a1a17" stroke-width="1.8" stroke-linecap="butt" stroke-dasharray="none"></line><line x1="377.7637234858949" y1="160" x2="396" y2="151.49628460524065" stroke="#1a1a17" stroke-width="1.8" stroke-linecap="butt" stroke-dasharray="none"></line><line x1="377.7637234858949" y1="160" x2="202.08346297163845" y2="304" stroke="#1a1a17" stroke-width="1.8" stroke-linecap="butt" stroke-dasharray="none"></line><line x1="193.20000000000002" y1="20" x2="193.20000000000002" y2="304" stroke="#8c8579" stroke-width="1" stroke-linecap="butt" stroke-dasharray="5 4"></line><path d="M193.2,130.0 A30,30 0 0 1 205.9,132.8" fill="none" stroke="#4d4943" stroke-width="1"></path><text x="202.29046378540033" y="121.9955677009628" font-family="system-ui, sans-serif" font-size="10" fill="#4d4943" text-anchor="middle">i</text><path d="M193.2,190.0 A30,30 0 0 1 174.2,183.2" fill="none" stroke="#4d4943" stroke-width="1"></path><text x="179.06254064802746" y="202.5491117861239" font-family="system-ui, sans-serif" font-size="10" fill="#4d4943" text-anchor="middle">r</text><text x="30" y="152" font-family="system-ui, sans-serif" font-size="10" fill="#4d4943">λ1</text><text x="30" y="176" font-family="system-ui, sans-serif" font-size="10" fill="#4d4943">λ2 (wider)</text></svg>