<svg xmlns="http://www.w3.org/2000/svg" viewBox="0 0 420 320" width="100%" preserveAspectRatio="xMidYMid meet" role="img" aria-label="refraction of wavefronts" class="td-svg" style="max-width:420px;height:auto;display:block;font-family:Georgia, serif"><title>refraction of wavefronts</title><rect x="24" y="16" width="372" height="144" fill="rgba(60,110,150,.06)"></rect><rect x="24" y="160" width="372" height="144" fill="rgba(60,110,150,.18)"></rect><line x1="24" y1="160" x2="396" y2="160" stroke="#1a1a17" stroke-width="1.6" stroke-linecap="butt" stroke-dasharray="none"></line><text x="396" y="28" font-family="system-ui, sans-serif" font-size="10" fill="#4d4943" text-anchor="end">medium 1 (wave slower)</text><text x="396" y="298" font-family="system-ui, sans-serif" font-size="10" fill="#4d4943" text-anchor="end">medium 2 (wave faster)</text><line x1="70.1575176760701" y1="160" x2="140.8495250649288" y2="127.03577558422543" stroke="#1a1a17" stroke-width="1.8" stroke-linecap="butt" stroke-dasharray="none"></line><line x1="70.1575176760701" y1="160" x2="24" y2="209.44633662366184" stroke="#1a1a17" stroke-width="1.8" stroke-linecap="butt" stroke-dasharray="none"></line><line x1="131.67875883803507" y1="160" x2="202.37076622689375" y2="127.03577558422543" stroke="#1a1a17" stroke-width="1.8" stroke-linecap="butt" stroke-dasharray="none"></line><line x1="131.67875883803507" y1="160" x2="71.35413870247584" y2="209.44633662366184" stroke="#1a1a17" stroke-width="1.8" stroke-linecap="butt" stroke-dasharray="none"></line><line x1="193.20000000000002" y1="160" x2="263.8920073888587" y2="127.03577558422543" stroke="#1a1a17" stroke-width="1.8" stroke-linecap="butt" stroke-dasharray="none"></line><line x1="193.20000000000002" y1="160" x2="132.8753798644408" y2="209.44633662366184" stroke="#1a1a17" stroke-width="1.8" stroke-linecap="butt" stroke-dasharray="none"></line><line x1="254.72124116196497" y1="160" x2="325.41324855082365" y2="127.03577558422543" stroke="#1a1a17" stroke-width="1.8" stroke-linecap="butt" stroke-dasharray="none"></line><line x1="254.72124116196497" y1="160" x2="194.39662102640574" y2="209.44633662366184" stroke="#1a1a17" stroke-width="1.8" stroke-linecap="butt" stroke-dasharray="none"></line><line x1="316.24248232392995" y1="160" x2="386.93448971278866" y2="127.03577558422543" stroke="#1a1a17" stroke-width="1.8" stroke-linecap="butt" stroke-dasharray="none"></line><line x1="316.24248232392995" y1="160" x2="255.91786218837072" y2="209.44633662366184" stroke="#1a1a17" stroke-width="1.8" stroke-linecap="butt" stroke-dasharray="none"></line><line x1="377.7637234858949" y1="160" x2="396" y2="127.03577558422543" stroke="#1a1a17" stroke-width="1.8" stroke-linecap="butt" stroke-dasharray="none"></line><line x1="377.7637234858949" y1="160" x2="317.4391033503357" y2="209.44633662366184" stroke="#1a1a17" stroke-width="1.8" stroke-linecap="butt" stroke-dasharray="none"></line><g><line x1="163.61672167815107" y1="96.55845490743451" x2="191.12917051747058" y2="155.5590918435204" stroke="#b03030" stroke-width="1.8" stroke-linecap="round" stroke-dasharray="none"></line><path d="M193.2,160.0 L187.8,155.5 L193.2,153.0 Z" fill="#b03030" stroke="none"></path></g><g><line x1="193.20000000000002" y1="160" x2="234.46867325897932" y2="210.34785603621674" stroke="#b03030" stroke-width="1.8" stroke-linecap="round" stroke-dasharray="none"></line><path d="M237.6,214.1 L231.3,211.1 L235.9,207.3 Z" fill="#b03030" stroke="none"></path></g><line x1="193.20000000000002" y1="20" x2="193.20000000000002" y2="304" stroke="#8c8579" stroke-width="1" stroke-linecap="butt" stroke-dasharray="5 4"></line><path d="M193.2,130.0 A30,30 0 0 1 205.9,132.8" fill="none" stroke="#4d4943" stroke-width="1"></path><text x="202.29046378540033" y="121.9955677009628" font-family="system-ui, sans-serif" font-size="10" fill="#4d4943" text-anchor="middle">i</text><path d="M193.2,190.0 A30,30 0 0 1 174.2,183.2" fill="none" stroke="#4d4943" stroke-width="1"></path><text x="179.06254064802746" y="202.5491117861239" font-family="system-ui, sans-serif" font-size="10" fill="#4d4943" text-anchor="middle">r</text><text x="30" y="152" font-family="system-ui, sans-serif" font-size="10" fill="#4d4943">lambda1</text><text x="30" y="176" font-family="system-ui, sans-serif" font-size="10" fill="#4d4943">lambda2 (wider)</text></svg>