<svg xmlns="http://www.w3.org/2000/svg" viewBox="0 0 420 300" width="100%" preserveAspectRatio="xMidYMid meet" role="img" aria-label="refraction through a rectangle" class="td-svg" style="max-width:420px;height:auto;display:block;font-family:Georgia, serif"><title>refraction through a rectangle</title><rect x="117.60000000000001" y="60" width="184.79999999999995" height="190" fill="rgba(120,170,190,.22)" stroke="#4d4943" stroke-width="1.4"></rect><g><line x1="131.40486732194225" y1="6.3768889816715415" x2="173.25034071253597" y2="56.24638222871701" stroke="#b03030" stroke-width="1.8" stroke-linecap="round" stroke-dasharray="none"></line><path d="M176.4,60.0 L170.0,57.1 L174.6,53.2 Z" fill="#b03030" stroke="none"></path></g><line x1="176.4" y1="60" x2="266.51297226100075" y2="250" stroke="#b03030" stroke-width="1.8" stroke-linecap="butt" stroke-dasharray="none"></line><g><line x1="266.51297226100075" y1="250" x2="308.3584456515945" y2="299.86949324704545" stroke="#b03030" stroke-width="1.8" stroke-linecap="round" stroke-dasharray="none"></line><path d="M311.5,303.6 L305.2,300.7 L309.7,296.9 Z" fill="#b03030" stroke="none"></path></g><line x1="176.4" y1="30" x2="176.4" y2="100" stroke="#8c8579" stroke-width="1" stroke-linecap="butt" stroke-dasharray="5 4"></line><line x1="266.51297226100075" y1="210" x2="266.51297226100075" y2="280" stroke="#8c8579" stroke-width="1" stroke-linecap="butt" stroke-dasharray="5 4"></line><path d="M176.4,34.0 A26,26 0 0 1 193.1,40.1" fill="none" stroke="#4d4943" stroke-width="1"></path><text x="189.3967654463754" y="27.291680410135484" font-family="system-ui, sans-serif" font-size="10" fill="#4d4943" text-anchor="middle">i</text><path d="M176.4,86.0 A26,26 0 0 1 165.3,83.5" fill="none" stroke="#4d4943" stroke-width="1"></path><text x="168.05425739747093" y="100.07220765495808" font-family="system-ui, sans-serif" font-size="10" fill="#4d4943" text-anchor="middle">r</text><text x="123.60000000000001" y="76" font-family="system-ui, sans-serif" font-size="10" fill="#4d4943">glass block</text></svg>