<svg xmlns="http://www.w3.org/2000/svg" viewBox="0 0 460 300" width="100%" preserveAspectRatio="xMidYMid meet" role="img" aria-label="ripple tank" class="td-svg" style="max-width:460px;height:auto;display:block;font-family:Georgia, serif"><title>ripple tank</title><circle cx="230" cy="26" r="9" fill="rgba(240,210,80,.8)" stroke="#4d4943" stroke-width="1.2" stroke-dasharray="none"></circle><text x="246" y="28" font-family="system-ui, sans-serif" font-size="10.5" fill="#4d4943">lamp</text><path d="M224,34 L40,120 L420,120 Z" fill="rgba(240,210,80,.10)" stroke="none"></path><rect x="40" y="96" width="380" height="28" fill="rgba(60,110,150,.14)" stroke="#4d4943" stroke-width="1.3"></rect><rect x="34" y="86" width="14" height="12" fill="rgba(120,90,60,.6)" stroke="#4d4943" stroke-width="1"></rect><text x="44" y="82" font-family="system-ui, sans-serif" font-size="10" fill="#4d4943">vibrating beam (frequency f)</text><rect x="40" y="150" width="380" height="110" fill="#fffdf6" stroke="#4d4943" stroke-width="1.2"></rect><text x="40" y="144" font-family="system-ui, sans-serif" font-size="10.5" fill="#8c8579">screen: shadows of the wavefronts</text><line x1="84.16666666666667" y1="160" x2="84.16666666666667" y2="236" stroke="#1a1a17" stroke-width="2" stroke-linecap="butt" stroke-dasharray="none"></line><line x1="142.5" y1="160" x2="142.5" y2="236" stroke="#1a1a17" stroke-width="2" stroke-linecap="butt" stroke-dasharray="none"></line><line x1="200.83333333333334" y1="160" x2="200.83333333333334" y2="236" stroke="#1a1a17" stroke-width="2" stroke-linecap="butt" stroke-dasharray="none"></line><line x1="259.1666666666667" y1="160" x2="259.1666666666667" y2="236" stroke="#1a1a17" stroke-width="2" stroke-linecap="butt" stroke-dasharray="none"></line><line x1="317.5" y1="160" x2="317.5" y2="236" stroke="#1a1a17" stroke-width="2" stroke-linecap="butt" stroke-dasharray="none"></line><line x1="375.83333333333337" y1="160" x2="375.83333333333337" y2="236" stroke="#1a1a17" stroke-width="2" stroke-linecap="butt" stroke-dasharray="none"></line><g></g><g><line x1="84.16666666666667" y1="246" x2="375.83333333333337" y2="246" stroke="#b03030" stroke-width="1.6" stroke-linecap="butt" stroke-dasharray="none"></line><path d="M84.2,246.0 L89.6,243.4 L89.6,248.6 Z" fill="#b03030" stroke="none"></path><path d="M375.8,246.0 L370.4,248.6 L370.4,243.4 Z" fill="#b03030" stroke="none"></path><text x="230.00000000000003" y="258" font-family="system-ui, sans-serif" font-size="12.5" fill="#b03030" text-anchor="middle" font-style="italic">5 wavelengths</text></g><text x="420" y="144" font-family="system-ui, sans-serif" font-size="10" fill="#8c8579" text-anchor="end">lambda = distance / 5</text></svg>