<svg xmlns="http://www.w3.org/2000/svg" viewBox="0 0 460 240" width="100%" preserveAspectRatio="xMidYMid meet" role="img" aria-label="wave scenario: speed_clap" class="td-svg" style="max-width:460px;height:auto;display:block;font-family:Georgia, serif"><title>wave scenario: speed_clap</title><line x1="20" y1="200" x2="440" y2="200" stroke="#4d4943" stroke-width="1.4" stroke-linecap="butt" stroke-dasharray="none"></line><g><circle cx="60" cy="162.28" r="8.28" fill="none" stroke="#1a1a17" stroke-width="1.6" stroke-dasharray="none"></circle><line x1="60" y1="170.56" x2="60" y2="183.9" stroke="#1a1a17" stroke-width="1.6" stroke-linecap="butt" stroke-dasharray="none"></line><line x1="60" y1="164.12" x2="50.8" y2="174.7" stroke="#1a1a17" stroke-width="1.6" stroke-linecap="butt" stroke-dasharray="none"></line><line x1="60" y1="164.12" x2="69.2" y2="174.7" stroke="#1a1a17" stroke-width="1.6" stroke-linecap="butt" stroke-dasharray="none"></line><line x1="60" y1="183.9" x2="51.72" y2="200" stroke="#1a1a17" stroke-width="1.6" stroke-linecap="butt" stroke-dasharray="none"></line><line x1="60" y1="183.9" x2="68.28" y2="200" stroke="#1a1a17" stroke-width="1.6" stroke-linecap="butt" stroke-dasharray="none"></line></g><g><circle cx="400" cy="162.28" r="8.28" fill="none" stroke="#1a1a17" stroke-width="1.6" stroke-dasharray="none"></circle><line x1="400" y1="170.56" x2="400" y2="183.9" stroke="#1a1a17" stroke-width="1.6" stroke-linecap="butt" stroke-dasharray="none"></line><line x1="400" y1="164.12" x2="390.8" y2="174.7" stroke="#1a1a17" stroke-width="1.6" stroke-linecap="butt" stroke-dasharray="none"></line><line x1="400" y1="164.12" x2="409.2" y2="174.7" stroke="#1a1a17" stroke-width="1.6" stroke-linecap="butt" stroke-dasharray="none"></line><line x1="400" y1="183.9" x2="391.72" y2="200" stroke="#1a1a17" stroke-width="1.6" stroke-linecap="butt" stroke-dasharray="none"></line><line x1="400" y1="183.9" x2="408.28" y2="200" stroke="#1a1a17" stroke-width="1.6" stroke-linecap="butt" stroke-dasharray="none"></line></g><text x="60" y="144" font-family="system-ui, sans-serif" font-size="11" fill="#4d4943" text-anchor="middle">claps</text><text x="400" y="144" font-family="system-ui, sans-serif" font-size="11" fill="#4d4943" text-anchor="middle">stopwatch</text><path d="M70,170 q40,-12 80,0" fill="none" stroke="#b03030" stroke-width="1.4" stroke-dasharray="4 3"></path><text x="230" y="30" font-family="system-ui, sans-serif" font-size="11.5" fill="#4d4943" text-anchor="middle">sound over a measured distance: v = d / t</text><g><line x1="60" y1="218" x2="400" y2="218" stroke="#b03030" stroke-width="1.6" stroke-linecap="butt" stroke-dasharray="none"></line><path d="M60.0,218.0 L65.4,215.4 L65.4,220.6 Z" fill="#b03030" stroke="none"></path><path d="M400.0,218.0 L394.6,220.6 L394.6,215.4 Z" fill="#b03030" stroke="none"></path><text x="230" y="230" font-family="system-ui, sans-serif" font-size="12.5" fill="#b03030" text-anchor="middle" font-style="italic">100 m</text></g><text x="400" y="130" font-family="system-ui, sans-serif" font-size="11" fill="#b03030" text-anchor="middle">t = 0.3 s</text></svg>