<svg xmlns="http://www.w3.org/2000/svg" viewBox="0 0 460 240" width="100%" preserveAspectRatio="xMidYMid meet" role="img" aria-label="wave scenario: shore" class="td-svg" style="max-width:460px;height:auto;display:block;font-family:Georgia, serif"><title>wave scenario: shore</title><rect x="20" y="70" width="350" height="140" fill="rgba(60,110,150,.12)" stroke="none"></rect><path d="M20.0,70.0 L21.8,71.4 L23.5,72.8 L25.3,73.9 L27.0,74.9 L28.8,75.6 L30.5,75.9 L32.3,76.0 L34.0,75.7 L35.8,75.0 L37.5,74.1 L39.3,72.9 L41.0,71.6 L42.8,70.2 L44.5,68.8 L46.3,67.4 L48.0,66.2 L49.8,65.2 L51.5,64.5 L53.3,64.1 L55.0,64.0 L56.8,64.3 L58.5,64.9 L60.3,65.8 L62.0,66.9 L63.8,68.2 L65.5,69.6 L67.3,71.0 L69.0,72.4 L70.8,73.6 L72.5,74.7 L74.3,75.4 L76.0,75.9 L77.8,76.0 L79.5,75.8 L81.3,75.2 L83.0,74.4 L84.8,73.3 L86.5,72.0 L88.3,70.6 L90.0,69.2 L91.8,67.8 L93.5,66.5 L95.3,65.5 L97.0,64.7 L98.8,64.2 L100.5,64.0 L102.3,64.2 L104.0,64.7 L105.8,65.5 L107.5,66.5 L109.3,67.8 L111.0,69.2 L112.8,70.6 L114.5,72.0 L116.3,73.3 L118.0,74.4 L119.8,75.2 L121.5,75.8 L123.3,76.0 L125.0,75.9 L126.8,75.4 L128.5,74.7 L130.3,73.6 L132.0,72.4 L133.8,71.0 L135.5,69.6 L137.3,68.2 L139.0,66.9 L140.8,65.8 L142.5,64.9 L144.3,64.3 L146.0,64.0 L147.8,64.1 L149.5,64.5 L151.3,65.2 L153.0,66.2 L154.8,67.4 L156.5,68.8 L158.3,70.2 L160.0,71.6 L161.8,72.9 L163.5,74.1 L165.3,75.0 L167.0,75.7 L168.8,76.0 L170.5,75.9 L172.3,75.6 L174.0,74.9 L175.8,73.9 L177.5,72.8 L179.3,71.4 L181.0,70.0 L182.8,68.6 L184.5,67.2 L186.3,66.1 L188.0,65.1 L189.8,64.4 L191.5,64.1 L193.3,64.0 L195.0,64.3 L196.8,65.0 L198.5,65.9 L200.3,67.1 L202.0,68.4 L203.8,69.8 L205.5,71.2 L207.3,72.6 L209.0,73.8 L210.8,74.8 L212.5,75.5 L214.3,75.9 L216.0,76.0 L217.8,75.7 L219.5,75.1 L221.3,74.2 L223.0,73.1 L224.8,71.8 L226.5,70.4 L228.3,69.0 L230.0,67.6 L231.8,66.4 L233.5,65.3 L235.3,64.6 L237.0,64.1 L238.8,64.0 L240.5,64.2 L242.3,64.8 L244.0,65.6 L245.8,66.7 L247.5,68.0 L249.3,69.4 L251.0,70.8 L252.8,72.2 L254.5,73.5 L256.3,74.5 L258.0,75.3 L259.8,75.8 L261.5,76.0 L263.3,75.8 L265.0,75.3 L266.8,74.5 L268.5,73.5 L270.3,72.2 L272.0,70.8 L273.8,69.4 L275.5,68.0 L277.3,66.7 L279.0,65.6 L280.8,64.8 L282.5,64.2 L284.3,64.0 L286.0,64.1 L287.8,64.6 L289.5,65.3 L291.3,66.4 L293.0,67.6 L294.8,69.0 L296.5,70.4 L298.3,71.8 L300.0,73.1 L301.8,74.2 L303.5,75.1 L305.3,75.7 L307.0,76.0 L308.8,75.9 L310.5,75.5 L312.3,74.8 L314.0,73.8 L315.8,72.6 L317.5,71.2 L319.3,69.8 L321.0,68.4 L322.8,67.1 L324.5,65.9 L326.3,65.0 L328.0,64.3 L329.8,64.0 L331.5,64.1 L333.3,64.4 L335.0,65.1 L336.8,66.1 L338.5,67.2 L340.3,68.6 L342.0,70.0 L343.8,71.4 L345.5,72.8 L347.3,73.9 L349.0,74.9 L350.8,75.6 L352.5,75.9 L354.3,76.0 L356.0,75.7 L357.8,75.0 L359.5,74.1 L361.3,72.9 L363.0,71.6 L364.8,70.2 L366.5,68.8 L368.3,67.4 L370.0,66.2" fill="none" stroke="#4d4943" stroke-width="1.6"></path><path d="M370,210 L440,170 L440,210 Z" fill="rgba(180,150,90,.35)" stroke="#4d4943" stroke-width="1.2"></path><g><line x1="60" y1="55" x2="345.1" y2="55" stroke="#8c8579" stroke-width="1.6" stroke-linecap="round" stroke-dasharray="none"></line><path d="M350.0,55.0 L343.7,58.0 L343.7,52.0 Z" fill="#8c8579" stroke="none"></path></g><text x="200" y="46" font-family="system-ui, sans-serif" font-size="11.5" fill="#4d4943" text-anchor="middle">waves travel toward the shore</text><g><line x1="50" y1="222" x2="330" y2="222" stroke="#b03030" stroke-width="1.6" stroke-linecap="butt" stroke-dasharray="none"></line><path d="M50.0,222.0 L55.4,219.4 L55.4,224.6 Z" fill="#b03030" stroke="none"></path><path d="M330.0,222.0 L324.6,224.6 L324.6,219.4 Z" fill="#b03030" stroke="none"></path><text x="190" y="234" font-family="system-ui, sans-serif" font-size="12.5" fill="#b03030" text-anchor="middle" font-style="italic">d</text></g></svg>