<svg xmlns="http://www.w3.org/2000/svg" viewBox="0 0 460 240" width="100%" preserveAspectRatio="xMidYMid meet" role="img" aria-label="wave scenario: pier" class="td-svg" style="max-width:460px;height:auto;display:block;font-family:Georgia, serif"><title>wave scenario: pier</title><rect x="20" y="95" width="420" height="121" fill="rgba(60,110,150,.12)" stroke="none"></rect><path d="M20.0,95.0 L22.1,96.9 L24.2,98.7 L26.3,100.0 L28.4,100.8 L30.5,101.0 L32.6,100.5 L34.7,99.4 L36.8,97.9 L38.9,96.0 L41.0,94.1 L43.1,92.2 L45.2,90.6 L47.3,89.5 L49.4,89.0 L51.5,89.2 L53.6,89.9 L55.7,91.2 L57.8,93.0 L59.9,94.9 L62.0,96.9 L64.1,98.6 L66.2,100.0 L68.3,100.8 L70.4,101.0 L72.5,100.5 L74.6,99.5 L76.7,98.0 L78.8,96.1 L80.9,94.2 L83.0,92.3 L85.1,90.7 L87.2,89.6 L89.3,89.0 L91.4,89.1 L93.5,89.9 L95.6,91.2 L97.7,92.9 L99.8,94.8 L101.9,96.8 L104.0,98.5 L106.1,99.9 L108.2,100.8 L110.3,101.0 L112.4,100.6 L114.5,99.6 L116.6,98.1 L118.7,96.2 L120.8,94.2 L122.9,92.4 L125.0,90.8 L127.1,89.6 L129.2,89.0 L131.3,89.1 L133.4,89.8 L135.5,91.1 L137.6,92.8 L139.7,94.7 L141.8,96.7 L143.9,98.5 L146.0,99.9 L148.1,100.7 L150.2,101.0 L152.3,100.6 L154.4,99.6 L156.5,98.1 L158.6,96.3 L160.7,94.3 L162.8,92.4 L164.9,90.8 L167.0,89.7 L169.1,89.1 L171.2,89.1 L173.3,89.8 L175.4,91.0 L177.5,92.7 L179.6,94.6 L181.7,96.6 L183.8,98.4 L185.9,99.8 L188.0,100.7 L190.1,101.0 L192.2,100.6 L194.3,99.7 L196.4,98.2 L198.5,96.4 L200.6,94.4 L202.7,92.5 L204.8,90.9 L206.9,89.7 L209.0,89.1 L211.1,89.1 L213.2,89.7 L215.3,91.0 L217.4,92.6 L219.5,94.5 L221.6,96.5 L223.7,98.3 L225.8,99.7 L227.9,100.7 L230.0,101.0 L232.1,100.7 L234.2,99.7 L236.3,98.3 L238.4,96.5 L240.5,94.5 L242.6,92.6 L244.7,91.0 L246.8,89.7 L248.9,89.1 L251.0,89.1 L253.1,89.7 L255.2,90.9 L257.3,92.5 L259.4,94.4 L261.5,96.4 L263.6,98.2 L265.7,99.7 L267.8,100.6 L269.9,101.0 L272.0,100.7 L274.1,99.8 L276.2,98.4 L278.3,96.6 L280.4,94.6 L282.5,92.7 L284.6,91.0 L286.7,89.8 L288.8,89.1 L290.9,89.1 L293.0,89.7 L295.1,90.8 L297.2,92.4 L299.3,94.3 L301.4,96.3 L303.5,98.1 L305.6,99.6 L307.7,100.6 L309.8,101.0 L311.9,100.7 L314.0,99.9 L316.1,98.5 L318.2,96.7 L320.3,94.7 L322.4,92.8 L324.5,91.1 L326.6,89.8 L328.7,89.1 L330.8,89.0 L332.9,89.6 L335.0,90.8 L337.1,92.4 L339.2,94.2 L341.3,96.2 L343.4,98.1 L345.5,99.6 L347.6,100.6 L349.7,101.0 L351.8,100.8 L353.9,99.9 L356.0,98.5 L358.1,96.8 L360.2,94.8 L362.3,92.9 L364.4,91.2 L366.5,89.9 L368.6,89.1 L370.7,89.0 L372.8,89.6 L374.9,90.7 L377.0,92.3 L379.1,94.2 L381.2,96.1 L383.3,98.0 L385.4,99.5 L387.5,100.5 L389.6,101.0 L391.7,100.8 L393.8,100.0 L395.9,98.6 L398.0,96.9 L400.1,94.9 L402.2,93.0 L404.3,91.2 L406.4,89.9 L408.5,89.2 L410.6,89.0 L412.7,89.5 L414.8,90.6 L416.9,92.2 L419.0,94.1 L421.1,96.0 L423.2,97.9 L425.3,99.4 L427.4,100.5 L429.5,101.0 L431.6,100.8 L433.7,100.0 L435.8,98.7 L437.9,96.9 L440.0,95.0" fill="none" stroke="#4d4943" stroke-width="1.6"></path><rect x="224" y="70" width="12" height="146" fill="rgba(120,90,60,.5)" stroke="#4d4943" stroke-width="1"></rect><g><circle cx="230" cy="37.2" r="7.199999999999999" fill="none" stroke="#1a1a17" stroke-width="1.6" stroke-dasharray="none"></circle><line x1="230" y1="44.4" x2="230" y2="56" stroke="#1a1a17" stroke-width="1.6" stroke-linecap="butt" stroke-dasharray="none"></line><line x1="230" y1="38.8" x2="222" y2="48" stroke="#1a1a17" stroke-width="1.6" stroke-linecap="butt" stroke-dasharray="none"></line><line x1="230" y1="38.8" x2="238" y2="48" stroke="#1a1a17" stroke-width="1.6" stroke-linecap="butt" stroke-dasharray="none"></line><line x1="230" y1="56" x2="222.8" y2="70" stroke="#1a1a17" stroke-width="1.6" stroke-linecap="butt" stroke-dasharray="none"></line><line x1="230" y1="56" x2="237.2" y2="70" stroke="#1a1a17" stroke-width="1.6" stroke-linecap="butt" stroke-dasharray="none"></line></g><text x="246" y="40" font-family="system-ui, sans-serif" font-size="11.5" fill="#4d4943">counts waves passing a point</text><text x="246" y="56" font-family="system-ui, sans-serif" font-size="10.5" fill="#8c8579">in a measured time</text><text x="40" y="120" font-family="system-ui, sans-serif" font-size="12" fill="#b03030">N = 8 waves</text><text x="40" y="138" font-family="system-ui, sans-serif" font-size="12" fill="#b03030">t = 20 s</text></svg>