<svg xmlns="http://www.w3.org/2000/svg" viewBox="0 0 460 240" width="100%" preserveAspectRatio="xMidYMid meet" role="img" aria-label="wave scenario: shore" class="td-svg" style="max-width:460px;height:auto;display:block;font-family:Georgia, serif"><title>wave scenario: shore</title><rect x="20" y="150" width="370" height="60" fill="rgba(60,110,150,.12)" stroke="none"></rect><path d="M20.0,150.0 L21.9,150.9 L23.7,151.8 L25.6,152.6 L27.4,153.2 L29.3,153.7 L31.1,153.9 L33.0,154.0 L34.8,153.8 L36.6,153.5 L38.5,152.9 L40.4,152.2 L42.2,151.4 L44.0,150.5 L45.9,149.5 L47.8,148.6 L49.6,147.8 L51.5,147.1 L53.3,146.5 L55.1,146.2 L57.0,146.0 L58.9,146.1 L60.7,146.3 L62.5,146.8 L64.4,147.4 L66.3,148.2 L68.1,149.1 L70.0,150.0 L71.8,150.9 L73.7,151.8 L75.5,152.5 L77.3,153.2 L79.2,153.7 L81.0,153.9 L82.9,154.0 L84.8,153.8 L86.6,153.5 L88.5,152.9 L90.3,152.2 L92.2,151.4 L94.0,150.5 L95.8,149.6 L97.7,148.7 L99.5,147.8 L101.4,147.1 L103.3,146.6 L105.1,146.2 L107.0,146.0 L108.8,146.1 L110.7,146.3 L112.5,146.8 L114.3,147.4 L116.2,148.2 L118.0,149.0 L119.9,149.9 L121.8,150.9 L123.6,151.7 L125.5,152.5 L127.3,153.2 L129.2,153.7 L131.0,153.9 L132.8,154.0 L134.7,153.8 L136.6,153.5 L138.4,153.0 L140.3,152.2 L142.1,151.4 L143.9,150.5 L145.8,149.6 L147.7,148.7 L149.5,147.9 L151.3,147.1 L153.2,146.6 L155.1,146.2 L156.9,146.0 L158.8,146.0 L160.6,146.3 L162.4,146.7 L164.3,147.4 L166.2,148.1 L168.0,149.0 L169.8,149.9 L171.7,150.8 L173.6,151.7 L175.4,152.5 L177.3,153.2 L179.1,153.6 L180.9,153.9 L182.8,154.0 L184.7,153.9 L186.5,153.5 L188.3,153.0 L190.2,152.3 L192.1,151.4 L193.9,150.6 L195.8,149.6 L197.6,148.7 L199.4,147.9 L201.3,147.2 L203.2,146.6 L205.0,146.2 L206.8,146.0 L208.7,146.0 L210.6,146.3 L212.4,146.7 L214.3,147.4 L216.1,148.1 L217.9,149.0 L219.8,149.9 L221.7,150.8 L223.5,151.7 L225.3,152.5 L227.2,153.1 L229.1,153.6 L230.9,153.9 L232.8,154.0 L234.6,153.9 L236.4,153.5 L238.3,153.0 L240.2,152.3 L242.0,151.5 L243.8,150.6 L245.7,149.6 L247.6,148.7 L249.4,147.9 L251.3,147.2 L253.1,146.6 L254.9,146.2 L256.8,146.0 L258.6,146.0 L260.5,146.3 L262.4,146.7 L264.2,147.3 L266.1,148.1 L267.9,149.0 L269.8,149.9 L271.6,150.8 L273.4,151.7 L275.3,152.5 L277.1,153.1 L279.0,153.6 L280.9,153.9 L282.7,154.0 L284.6,153.9 L286.4,153.5 L288.3,153.0 L290.1,152.3 L291.9,151.5 L293.8,150.6 L295.6,149.7 L297.5,148.8 L299.4,147.9 L301.2,147.2 L303.1,146.6 L304.9,146.2 L306.8,146.0 L308.6,146.0 L310.4,146.3 L312.3,146.7 L314.1,147.3 L316.0,148.1 L317.9,148.9 L319.7,149.8 L321.6,150.8 L323.4,151.7 L325.3,152.5 L327.1,153.1 L328.9,153.6 L330.8,153.9 L332.6,154.0 L334.5,153.9 L336.4,153.5 L338.2,153.0 L340.1,152.3 L341.9,151.5 L343.8,150.6 L345.6,149.7 L347.4,148.8 L349.3,147.9 L351.1,147.2 L353.0,146.6 L354.9,146.2 L356.7,146.0 L358.6,146.0 L360.4,146.3 L362.3,146.7 L364.1,147.3 L365.9,148.1 L367.8,148.9 L369.6,149.8 L371.5,150.7 L373.4,151.6 L375.2,152.4 L377.1,153.1 L378.9,153.6 L380.8,153.9 L382.6,154.0 L384.4,153.9 L386.3,153.6 L388.1,153.0 L390.0,152.4" fill="none" stroke="#4d4943" stroke-width="1.6"></path><path d="M340,210 L440,118 L440,210 Z" fill="rgba(180,150,90,.5)" stroke="#4d4943" stroke-width="1.2"></path><g><line x1="60" y1="132" x2="320" y2="132" stroke="#8c8579" stroke-width="1.6" stroke-linecap="butt" stroke-dasharray="none"></line><path d="M203.0,132.0 L196.7,135.0 L196.7,129.0 Z" fill="#8c8579" stroke="none"></path></g><text x="200" y="46" font-family="system-ui, sans-serif" font-size="11.5" fill="#4d4943" text-anchor="middle">ripples travel toward the shore</text><g><line x1="50" y1="222" x2="330" y2="222" stroke="#b03030" stroke-width="1.6" stroke-linecap="butt" stroke-dasharray="none"></line><path d="M50.0,222.0 L55.4,219.4 L55.4,224.6 Z" fill="#b03030" stroke="none"></path><path d="M330.0,222.0 L324.6,224.6 L324.6,219.4 Z" fill="#b03030" stroke="none"></path><text x="190" y="234" font-family="system-ui, sans-serif" font-size="12.5" fill="#b03030" text-anchor="middle" font-style="italic">d</text></g></svg>