<svg xmlns="http://www.w3.org/2000/svg" viewBox="0 0 460 240" width="100%" preserveAspectRatio="xMidYMid meet" role="img" aria-label="wave scenario: echo_wall" class="td-svg" style="max-width:460px;height:auto;display:block;font-family:Georgia, serif"><title>wave scenario: echo_wall</title><line x1="20" y1="200" x2="420" y2="200" stroke="#4d4943" stroke-width="1.4" stroke-linecap="butt" stroke-dasharray="none"></line><rect x="420" y="50" width="20" height="150" fill="rgba(120,120,120,.5)" stroke="#4d4943" stroke-width="1.2"></rect><text x="430" y="44" font-family="system-ui, sans-serif" font-size="10.5" fill="#4d4943" text-anchor="middle">wall</text><g><circle cx="70" cy="162.28" r="8.28" fill="none" stroke="#1a1a17" stroke-width="1.6" stroke-dasharray="none"></circle><line x1="70" y1="170.56" x2="70" y2="183.9" stroke="#1a1a17" stroke-width="1.6" stroke-linecap="butt" stroke-dasharray="none"></line><line x1="70" y1="164.12" x2="60.8" y2="174.7" stroke="#1a1a17" stroke-width="1.6" stroke-linecap="butt" stroke-dasharray="none"></line><line x1="70" y1="164.12" x2="79.2" y2="174.7" stroke="#1a1a17" stroke-width="1.6" stroke-linecap="butt" stroke-dasharray="none"></line><line x1="70" y1="183.9" x2="61.72" y2="200" stroke="#1a1a17" stroke-width="1.6" stroke-linecap="butt" stroke-dasharray="none"></line><line x1="70" y1="183.9" x2="78.28" y2="200" stroke="#1a1a17" stroke-width="1.6" stroke-linecap="butt" stroke-dasharray="none"></line></g><g><line x1="86" y1="170" x2="407.1" y2="170" stroke="#b03030" stroke-width="1.5" stroke-linecap="round" stroke-dasharray="none"></line><path d="M412.0,170.0 L405.7,173.0 L405.7,167.0 Z" fill="#b03030" stroke="none"></path></g><g><line x1="412" y1="154" x2="90.9" y2="154" stroke="#2d6a3f" stroke-width="1.5" stroke-linecap="round" stroke-dasharray="none"></line><path d="M86.0,154.0 L92.3,151.0 L92.3,157.0 Z" fill="#2d6a3f" stroke="none"></path></g><text x="230" y="30" font-family="system-ui, sans-serif" font-size="11" fill="#4d4943" text-anchor="middle">time the echo: v = 2d / t</text><g><line x1="70" y1="218" x2="430" y2="218" stroke="#b03030" stroke-width="1.6" stroke-linecap="butt" stroke-dasharray="none"></line><path d="M70.0,218.0 L75.4,215.4 L75.4,220.6 Z" fill="#b03030" stroke="none"></path><path d="M430.0,218.0 L424.6,220.6 L424.6,215.4 Z" fill="#b03030" stroke="none"></path><text x="250" y="230" font-family="system-ui, sans-serif" font-size="12.5" fill="#b03030" text-anchor="middle" font-style="italic">50 m</text></g><text x="120" y="140" font-family="system-ui, sans-serif" font-size="11" fill="#b03030">t = ? s</text></svg>