<svg xmlns="http://www.w3.org/2000/svg" viewBox="0 0 460 240" width="100%" preserveAspectRatio="xMidYMid meet" role="img" aria-label="wave scenario: clap_rhythm" class="td-svg" style="max-width:460px;height:auto;display:block;font-family:Georgia, serif"><title>wave scenario: clap_rhythm</title><line x1="20" y1="200" x2="420" y2="200" stroke="#4d4943" stroke-width="1.4" stroke-linecap="butt" stroke-dasharray="none"></line><rect x="420" y="50" width="20" height="150" fill="rgba(120,120,120,.5)" stroke="#4d4943" stroke-width="1.2"></rect><text x="430" y="44" font-family="system-ui, sans-serif" font-size="10.5" fill="#4d4943" text-anchor="middle">wall</text><g><circle cx="70" cy="162.28" r="8.28" fill="none" stroke="#1a1a17" stroke-width="1.6" stroke-dasharray="none"></circle><line x1="70" y1="170.56" x2="70" y2="183.9" stroke="#1a1a17" stroke-width="1.6" stroke-linecap="butt" stroke-dasharray="none"></line><line x1="70" y1="164.12" x2="60.8" y2="174.7" stroke="#1a1a17" stroke-width="1.6" stroke-linecap="butt" stroke-dasharray="none"></line><line x1="70" y1="164.12" x2="79.2" y2="174.7" stroke="#1a1a17" stroke-width="1.6" stroke-linecap="butt" stroke-dasharray="none"></line><line x1="70" y1="183.9" x2="61.72" y2="200" stroke="#1a1a17" stroke-width="1.6" stroke-linecap="butt" stroke-dasharray="none"></line><line x1="70" y1="183.9" x2="78.28" y2="200" stroke="#1a1a17" stroke-width="1.6" stroke-linecap="butt" stroke-dasharray="none"></line></g><g><line x1="86" y1="170" x2="412" y2="170" stroke="#b03030" stroke-width="1.5" stroke-linecap="butt" stroke-dasharray="none"></line><path d="M265.3,170.0 L259.0,173.0 L259.0,167.0 Z" fill="#b03030" stroke="none"></path></g><g><line x1="412" y1="154" x2="86" y2="154" stroke="#2d6a3f" stroke-width="1.5" stroke-linecap="butt" stroke-dasharray="none"></line><path d="M232.7,154.0 L239.0,151.0 L239.0,157.0 Z" fill="#2d6a3f" stroke="none"></path></g><text x="230" y="30" font-family="system-ui, sans-serif" font-size="11" fill="#4d4943" text-anchor="middle">clap in rhythm with each echo</text><g><line x1="70" y1="218" x2="430" y2="218" stroke="#b03030" stroke-width="1.6" stroke-linecap="butt" stroke-dasharray="none"></line><path d="M70.0,218.0 L75.4,215.4 L75.4,220.6 Z" fill="#b03030" stroke="none"></path><path d="M430.0,218.0 L424.6,220.6 L424.6,215.4 Z" fill="#b03030" stroke="none"></path><text x="250" y="230" font-family="system-ui, sans-serif" font-size="12.5" fill="#b03030" text-anchor="middle" font-style="italic">d</text></g></svg>