<svg xmlns="http://www.w3.org/2000/svg" viewBox="0 0 460 240" width="100%" preserveAspectRatio="xMidYMid meet" role="img" aria-label="wave scenario: sonar" class="td-svg" style="max-width:460px;height:auto;display:block;font-family:Georgia, serif"><title>wave scenario: sonar</title><line x1="20" y1="60" x2="440" y2="60" stroke="rgba(60,110,150,.5)" stroke-width="2" stroke-linecap="butt" stroke-dasharray="none"></line><rect x="20" y="60" width="420" height="150" fill="rgba(60,110,150,.12)"></rect><path d="M202,54 q28,16 56,0 z" fill="rgba(120,90,60,.7)" stroke="#4d4943" stroke-width="1"></path><rect x="20" y="210" width="420" height="16" fill="rgba(120,90,60,.4)" stroke="#4d4943" stroke-width="1"></rect><g><line x1="224" y1="64" x2="224" y2="203.1" stroke="#b03030" stroke-width="1.6" stroke-linecap="round" stroke-dasharray="none"></line><path d="M224.0,208.0 L221.0,201.7 L227.0,201.7 Z" fill="#b03030" stroke="none"></path></g><g><line x1="236" y1="208" x2="236" y2="68.9" stroke="#2d6a3f" stroke-width="1.6" stroke-linecap="round" stroke-dasharray="none"></line><path d="M236.0,64.0 L239.0,70.3 L233.0,70.3 Z" fill="#2d6a3f" stroke="none"></path></g><text x="244" y="120" font-family="system-ui, sans-serif" font-size="11" fill="#4d4943">pulse down, echo back: depth = v t / 2</text><text x="40" y="80" font-family="system-ui, sans-serif" font-size="12" fill="#b03030">echo time t = 0.4 s</text><g><line x1="34" y1="64" x2="34" y2="208" stroke="#b03030" stroke-width="1.6" stroke-linecap="butt" stroke-dasharray="none"></line><path d="M34.0,64.0 L36.6,69.4 L31.4,69.4 Z" fill="#b03030" stroke="none"></path><path d="M34.0,208.0 L31.4,202.6 L36.6,202.6 Z" fill="#b03030" stroke="none"></path><text x="32" y="131" font-family="system-ui, sans-serif" font-size="12.5" fill="#b03030" text-anchor="end" font-style="italic">depth</text></g></svg>