<svg xmlns="http://www.w3.org/2000/svg" viewBox="0 0 480 220" width="100%" preserveAspectRatio="xMidYMid meet" role="img" aria-label="standing wave on a string (required practical)" class="td-svg" style="max-width:480px;height:auto;display:block;font-family:Georgia, serif"><title>standing wave on a string (required practical)</title><rect x="28" y="82" width="30" height="44" rx="3" fill="rgba(150,150,150,.4)" stroke="#4d4943" stroke-width="1.2"></rect><text x="43" y="144" font-family="system-ui, sans-serif" font-size="9.5" fill="#4d4943" text-anchor="middle">vibration</text><text x="43" y="154" font-family="system-ui, sans-serif" font-size="9.5" fill="#4d4943" text-anchor="middle">generator</text><path d="M70.0,104.0 L71.4,105.3 L72.8,106.7 L74.3,108.0 L75.7,109.3 L77.1,110.6 L78.5,111.9 L79.9,113.2 L81.3,114.5 L82.8,115.8 L84.2,117.0 L85.6,118.2 L87.0,119.4 L88.4,120.6 L89.8,121.8 L91.3,122.9 L92.7,124.0 L94.1,125.0 L95.5,126.1 L96.9,127.1 L98.3,128.0 L99.8,129.0 L101.2,129.9 L102.6,130.7 L104.0,131.5 L105.4,132.3 L106.8,133.0 L108.3,133.7 L109.7,134.3 L111.1,134.9 L112.5,135.4 L113.9,135.9 L115.3,136.3 L116.8,136.7 L118.2,137.1 L119.6,137.3 L121.0,137.6 L122.4,137.8 L123.8,137.9 L125.3,138.0 L126.7,138.0 L128.1,138.0 L129.5,137.9 L130.9,137.8 L132.3,137.6 L133.8,137.3 L135.2,137.1 L136.6,136.7 L138.0,136.3 L139.4,135.9 L140.8,135.4 L142.3,134.9 L143.7,134.3 L145.1,133.7 L146.5,133.0 L147.9,132.3 L149.3,131.5 L150.8,130.7 L152.2,129.9 L153.6,129.0 L155.0,128.0 L156.4,127.1 L157.8,126.1 L159.3,125.0 L160.7,124.0 L162.1,122.9 L163.5,121.8 L164.9,120.6 L166.3,119.4 L167.8,118.2 L169.2,117.0 L170.6,115.8 L172.0,114.5 L173.4,113.2 L174.8,111.9 L176.3,110.6 L177.7,109.3 L179.1,108.0 L180.5,106.7 L181.9,105.3 L183.3,104.0 L184.8,102.7 L186.2,101.3 L187.6,100.0 L189.0,98.7 L190.4,97.4 L191.8,96.1 L193.3,94.8 L194.7,93.5 L196.1,92.2 L197.5,91.0 L198.9,89.8 L200.3,88.6 L201.8,87.4 L203.2,86.2 L204.6,85.1 L206.0,84.0 L207.4,83.0 L208.8,81.9 L210.3,80.9 L211.7,80.0 L213.1,79.0 L214.5,78.1 L215.9,77.3 L217.3,76.5 L218.8,75.7 L220.2,75.0 L221.6,74.3 L223.0,73.7 L224.4,73.1 L225.8,72.6 L227.3,72.1 L228.7,71.7 L230.1,71.3 L231.5,70.9 L232.9,70.7 L234.3,70.4 L235.8,70.2 L237.2,70.1 L238.6,70.0 L240.0,70.0 L241.4,70.0 L242.8,70.1 L244.3,70.2 L245.7,70.4 L247.1,70.7 L248.5,70.9 L249.9,71.3 L251.3,71.7 L252.8,72.1 L254.2,72.6 L255.6,73.1 L257.0,73.7 L258.4,74.3 L259.8,75.0 L261.3,75.7 L262.7,76.5 L264.1,77.3 L265.5,78.1 L266.9,79.0 L268.3,80.0 L269.8,80.9 L271.2,81.9 L272.6,83.0 L274.0,84.0 L275.4,85.1 L276.8,86.2 L278.3,87.4 L279.7,88.6 L281.1,89.8 L282.5,91.0 L283.9,92.2 L285.3,93.5 L286.8,94.8 L288.2,96.1 L289.6,97.4 L291.0,98.7 L292.4,100.0 L293.8,101.3 L295.3,102.7 L296.7,104.0 L298.1,105.3 L299.5,106.7 L300.9,108.0 L302.3,109.3 L303.8,110.6 L305.2,111.9 L306.6,113.2 L308.0,114.5 L309.4,115.8 L310.8,117.0 L312.3,118.2 L313.7,119.4 L315.1,120.6 L316.5,121.8 L317.9,122.9 L319.3,124.0 L320.8,125.0 L322.2,126.1 L323.6,127.1 L325.0,128.0 L326.4,129.0 L327.8,129.9 L329.3,130.7 L330.7,131.5 L332.1,132.3 L333.5,133.0 L334.9,133.7 L336.3,134.3 L337.8,134.9 L339.2,135.4 L340.6,135.9 L342.0,136.3 L343.4,136.7 L344.8,137.1 L346.3,137.3 L347.7,137.6 L349.1,137.8 L350.5,137.9 L351.9,138.0 L353.3,138.0 L354.8,138.0 L356.2,137.9 L357.6,137.8 L359.0,137.6 L360.4,137.3 L361.8,137.1 L363.3,136.7 L364.7,136.3 L366.1,135.9 L367.5,135.4 L368.9,134.9 L370.3,134.3 L371.8,133.7 L373.2,133.0 L374.6,132.3 L376.0,131.5 L377.4,130.7 L378.8,129.9 L380.3,129.0 L381.7,128.0 L383.1,127.1 L384.5,126.1 L385.9,125.0 L387.3,124.0 L388.8,122.9 L390.2,121.8 L391.6,120.6 L393.0,119.4 L394.4,118.2 L395.8,117.0 L397.3,115.8 L398.7,114.5 L400.1,113.2 L401.5,111.9 L402.9,110.6 L404.3,109.3 L405.8,108.0 L407.2,106.7 L408.6,105.3 L410.0,104.0" fill="none" stroke="#b03030" stroke-width="2" stroke-opacity="0.85"></path><path d="M70.0,104.0 L71.4,102.7 L72.8,101.3 L74.3,100.0 L75.7,98.7 L77.1,97.4 L78.5,96.1 L79.9,94.8 L81.3,93.5 L82.8,92.2 L84.2,91.0 L85.6,89.8 L87.0,88.6 L88.4,87.4 L89.8,86.2 L91.3,85.1 L92.7,84.0 L94.1,83.0 L95.5,81.9 L96.9,80.9 L98.3,80.0 L99.8,79.0 L101.2,78.1 L102.6,77.3 L104.0,76.5 L105.4,75.7 L106.8,75.0 L108.3,74.3 L109.7,73.7 L111.1,73.1 L112.5,72.6 L113.9,72.1 L115.3,71.7 L116.8,71.3 L118.2,70.9 L119.6,70.7 L121.0,70.4 L122.4,70.2 L123.8,70.1 L125.3,70.0 L126.7,70.0 L128.1,70.0 L129.5,70.1 L130.9,70.2 L132.3,70.4 L133.8,70.7 L135.2,70.9 L136.6,71.3 L138.0,71.7 L139.4,72.1 L140.8,72.6 L142.3,73.1 L143.7,73.7 L145.1,74.3 L146.5,75.0 L147.9,75.7 L149.3,76.5 L150.8,77.3 L152.2,78.1 L153.6,79.0 L155.0,80.0 L156.4,80.9 L157.8,81.9 L159.3,83.0 L160.7,84.0 L162.1,85.1 L163.5,86.2 L164.9,87.4 L166.3,88.6 L167.8,89.8 L169.2,91.0 L170.6,92.2 L172.0,93.5 L173.4,94.8 L174.8,96.1 L176.3,97.4 L177.7,98.7 L179.1,100.0 L180.5,101.3 L181.9,102.7 L183.3,104.0 L184.8,105.3 L186.2,106.7 L187.6,108.0 L189.0,109.3 L190.4,110.6 L191.8,111.9 L193.3,113.2 L194.7,114.5 L196.1,115.8 L197.5,117.0 L198.9,118.2 L200.3,119.4 L201.8,120.6 L203.2,121.8 L204.6,122.9 L206.0,124.0 L207.4,125.0 L208.8,126.1 L210.3,127.1 L211.7,128.0 L213.1,129.0 L214.5,129.9 L215.9,130.7 L217.3,131.5 L218.8,132.3 L220.2,133.0 L221.6,133.7 L223.0,134.3 L224.4,134.9 L225.8,135.4 L227.3,135.9 L228.7,136.3 L230.1,136.7 L231.5,137.1 L232.9,137.3 L234.3,137.6 L235.8,137.8 L237.2,137.9 L238.6,138.0 L240.0,138.0 L241.4,138.0 L242.8,137.9 L244.3,137.8 L245.7,137.6 L247.1,137.3 L248.5,137.1 L249.9,136.7 L251.3,136.3 L252.8,135.9 L254.2,135.4 L255.6,134.9 L257.0,134.3 L258.4,133.7 L259.8,133.0 L261.3,132.3 L262.7,131.5 L264.1,130.7 L265.5,129.9 L266.9,129.0 L268.3,128.0 L269.8,127.1 L271.2,126.1 L272.6,125.0 L274.0,124.0 L275.4,122.9 L276.8,121.8 L278.3,120.6 L279.7,119.4 L281.1,118.2 L282.5,117.0 L283.9,115.8 L285.3,114.5 L286.8,113.2 L288.2,111.9 L289.6,110.6 L291.0,109.3 L292.4,108.0 L293.8,106.7 L295.3,105.3 L296.7,104.0 L298.1,102.7 L299.5,101.3 L300.9,100.0 L302.3,98.7 L303.8,97.4 L305.2,96.1 L306.6,94.8 L308.0,93.5 L309.4,92.2 L310.8,91.0 L312.3,89.8 L313.7,88.6 L315.1,87.4 L316.5,86.2 L317.9,85.1 L319.3,84.0 L320.8,83.0 L322.2,81.9 L323.6,80.9 L325.0,80.0 L326.4,79.0 L327.8,78.1 L329.3,77.3 L330.7,76.5 L332.1,75.7 L333.5,75.0 L334.9,74.3 L336.3,73.7 L337.8,73.1 L339.2,72.6 L340.6,72.1 L342.0,71.7 L343.4,71.3 L344.8,70.9 L346.3,70.7 L347.7,70.4 L349.1,70.2 L350.5,70.1 L351.9,70.0 L353.3,70.0 L354.8,70.0 L356.2,70.1 L357.6,70.2 L359.0,70.4 L360.4,70.7 L361.8,70.9 L363.3,71.3 L364.7,71.7 L366.1,72.1 L367.5,72.6 L368.9,73.1 L370.3,73.7 L371.8,74.3 L373.2,75.0 L374.6,75.7 L376.0,76.5 L377.4,77.3 L378.8,78.1 L380.3,79.0 L381.7,80.0 L383.1,80.9 L384.5,81.9 L385.9,83.0 L387.3,84.0 L388.8,85.1 L390.2,86.2 L391.6,87.4 L393.0,88.6 L394.4,89.8 L395.8,91.0 L397.3,92.2 L398.7,93.5 L400.1,94.8 L401.5,96.1 L402.9,97.4 L404.3,98.7 L405.8,100.0 L407.2,101.3 L408.6,102.7 L410.0,104.0" fill="none" stroke="#b03030" stroke-width="2" stroke-opacity="0.5" stroke-dasharray="5 3"></path><line x1="70" y1="104" x2="410" y2="104" stroke="rgba(26,26,23,.22)" stroke-width="1" stroke-linecap="butt" stroke-dasharray="4 3"></line><circle cx="424" cy="104" r="9" fill="none" stroke="#4d4943" stroke-width="1.4" stroke-dasharray="none"></circle><line x1="410" y1="104" x2="424" y2="104" stroke="#1a1a17" stroke-width="1.6" stroke-linecap="butt" stroke-dasharray="none"></line><line x1="433" y1="104" x2="433" y2="184" stroke="#1a1a17" stroke-width="1.4" stroke-linecap="butt" stroke-dasharray="none"></line><rect x="426" y="184" width="14" height="18" fill="rgba(80,80,80,.6)" stroke="#4d4943" stroke-width="1"></rect><text x="433" y="214" font-family="system-ui, sans-serif" font-size="9.5" fill="#4d4943" text-anchor="middle">masses</text><circle cx="70" cy="104" r="3" fill="#1a1a17" stroke="#fffdf6" stroke-width="1" stroke-dasharray="none"></circle><circle cx="183.33333333333331" cy="104" r="3" fill="#1a1a17" stroke="#fffdf6" stroke-width="1" stroke-dasharray="none"></circle><circle cx="296.66666666666663" cy="104" r="3" fill="#1a1a17" stroke="#fffdf6" stroke-width="1" stroke-dasharray="none"></circle><circle cx="410" cy="104" r="3" fill="#1a1a17" stroke="#fffdf6" stroke-width="1" stroke-dasharray="none"></circle><text x="70" y="64" font-family="system-ui, sans-serif" font-size="10" fill="#4d4943">N = node</text><text x="126.66666666666666" y="66" font-family="system-ui, sans-serif" font-size="11" fill="#2d6a3f" text-anchor="middle" font-weight="bold">A</text><text x="240" y="66" font-family="system-ui, sans-serif" font-size="11" fill="#2d6a3f" text-anchor="middle" font-weight="bold">A</text><text x="353.3333333333333" y="66" font-family="system-ui, sans-serif" font-size="11" fill="#2d6a3f" text-anchor="middle" font-weight="bold">A</text><g><line x1="70" y1="152" x2="183.33333333333331" y2="152" stroke="#4d4943" stroke-width="1.6" stroke-linecap="butt" stroke-dasharray="none"></line><path d="M70.0,152.0 L75.4,149.4 L75.4,154.6 Z" fill="#4d4943" stroke="none"></path><path d="M183.3,152.0 L177.9,154.6 L177.9,149.4 Z" fill="#4d4943" stroke="none"></path><text x="126.66666666666666" y="164" font-family="system-ui, sans-serif" font-size="12.5" fill="#4d4943" text-anchor="middle" font-style="italic">λ/2</text></g><g><line x1="70" y1="198" x2="410" y2="198" stroke="#b03030" stroke-width="1.6" stroke-linecap="butt" stroke-dasharray="none"></line><path d="M70.0,198.0 L75.4,195.4 L75.4,200.6 Z" fill="#b03030" stroke="none"></path><path d="M410.0,198.0 L404.6,200.6 L404.6,195.4 Z" fill="#b03030" stroke="none"></path><text x="240" y="210" font-family="system-ui, sans-serif" font-size="12.5" fill="#b03030" text-anchor="middle" font-style="italic">L</text></g></svg>