<svg xmlns="http://www.w3.org/2000/svg" viewBox="0 0 420 300" width="100%" preserveAspectRatio="xMidYMid meet" role="img" aria-label="refraction through a triangle" class="td-svg" style="max-width:420px;height:auto;display:block;font-family:Georgia, serif"><title>refraction through a triangle</title><path d="M210,64 L116,246 L304,246 Z" fill="rgba(120,170,190,.22)" stroke="#4d4943" stroke-width="1.4"></path><g><line x1="97.78915789244104" y1="143.15411038117605" x2="167" y2="163" stroke="#b03030" stroke-width="1.8" stroke-linecap="butt" stroke-dasharray="none"></line><path d="M135.9,154.1 L128.9,155.2 L130.6,149.5 Z" fill="#b03030" stroke="none"></path></g><line x1="167" y1="163" x2="282.6323233596571" y2="204.62854097295312" stroke="#b03030" stroke-width="1.8" stroke-linecap="butt" stroke-dasharray="none"></line><g><line x1="282.6323233596571" y1="204.62854097295312" x2="350.3760481215117" y2="229.01681182986488" stroke="#b03030" stroke-width="1.8" stroke-linecap="butt" stroke-dasharray="none"></line><path d="M319.9,218.0 L312.9,218.7 L314.9,213.1 Z" fill="#b03030" stroke="none"></path></g><line x1="188.32381420925643" y1="174.01339854763793" x2="145.67618579074357" y2="151.98660145236207" stroke="#8c8579" stroke-width="1" stroke-linecap="butt" stroke-dasharray="5 4"></line><line x1="261.30850915040065" y1="215.64193952059105" x2="303.95613756891356" y2="193.61514242531518" stroke="#8c8579" stroke-width="1" stroke-linecap="butt" stroke-dasharray="5 4"></line><path d="M151.0,154.7 A18,18 0 0 0 149.7,158.0" fill="none" stroke="#4d4943" stroke-width="1"></path><text x="139.11786130991504" y="154.92812833948716" font-family="system-ui, sans-serif" font-size="10" fill="#4d4943" text-anchor="middle">i</text><path d="M183.0,171.3 A18,18 0 0 0 183.9,169.1" fill="none" stroke="#4d4943" stroke-width="1"></path><text x="194.49979570866296" y="177.99004737195824" font-family="system-ui, sans-serif" font-size="10" fill="#4d4943" text-anchor="middle">r</text><text x="210" y="238" font-family="system-ui, sans-serif" font-size="10" fill="#4d4943" text-anchor="middle">bends toward the base</text><text x="210" y="56" font-family="system-ui, sans-serif" font-size="10" fill="#4d4943" text-anchor="middle">glass prism</text></svg>