<svg xmlns="http://www.w3.org/2000/svg" viewBox="0 0 480 230" width="100%" preserveAspectRatio="xMidYMid meet" role="img" aria-label="transverse wave" class="td-svg" style="max-width:480px;height:auto;display:block;font-family:Georgia, serif"><title>transverse wave</title><line x1="30" y1="115" x2="450" y2="115" stroke="rgba(26,26,23,.22)" stroke-width="1.1" stroke-linecap="butt" stroke-dasharray="5 4"></line><path d="M30.00,115.00 L31.17,112.52 L32.33,110.03 L33.50,107.56 L34.67,105.09 L35.83,102.64 L37.00,100.20 L38.17,97.78 L39.33,95.37 L40.50,93.00 L41.67,90.65 L42.83,88.33 L44.00,86.04 L45.17,83.79 L46.33,81.57 L47.50,79.40 L48.67,77.27 L49.83,75.19 L51.00,73.15 L52.17,71.16 L53.33,69.23 L54.50,67.36 L55.67,65.54 L56.83,63.78 L58.00,62.09 L59.17,60.46 L60.33,58.89 L61.50,57.40 L62.67,55.97 L63.83,54.62 L65.00,53.34 L66.17,52.13 L67.33,51.01 L68.50,49.96 L69.67,48.98 L70.83,48.09 L72.00,47.28 L73.17,46.56 L74.33,45.91 L75.50,45.36 L76.67,44.88 L77.83,44.49 L79.00,44.19 L80.17,43.97 L81.33,43.84 L82.50,43.80 L83.67,43.84 L84.83,43.97 L86.00,44.19 L87.17,44.49 L88.33,44.88 L89.50,45.36 L90.67,45.91 L91.83,46.56 L93.00,47.28 L94.17,48.09 L95.33,48.98 L96.50,49.96 L97.67,51.01 L98.83,52.13 L100.00,53.34 L101.17,54.62 L102.33,55.97 L103.50,57.40 L104.67,58.89 L105.83,60.46 L107.00,62.09 L108.17,63.78 L109.33,65.54 L110.50,67.36 L111.67,69.23 L112.83,71.16 L114.00,73.15 L115.17,75.19 L116.33,77.27 L117.50,79.40 L118.67,81.57 L119.83,83.79 L121.00,86.04 L122.17,88.33 L123.33,90.65 L124.50,93.00 L125.67,95.37 L126.83,97.78 L128.00,100.20 L129.17,102.64 L130.33,105.09 L131.50,107.56 L132.67,110.03 L133.83,112.52 L135.00,115.00 L136.17,117.48 L137.33,119.97 L138.50,122.44 L139.67,124.91 L140.83,127.36 L142.00,129.80 L143.17,132.22 L144.33,134.63 L145.50,137.00 L146.67,139.35 L147.83,141.67 L149.00,143.96 L150.17,146.21 L151.33,148.43 L152.50,150.60 L153.67,152.73 L154.83,154.81 L156.00,156.85 L157.17,158.84 L158.33,160.77 L159.50,162.64 L160.67,164.46 L161.83,166.22 L163.00,167.91 L164.17,169.54 L165.33,171.11 L166.50,172.60 L167.67,174.03 L168.83,175.38 L170.00,176.66 L171.17,177.87 L172.33,178.99 L173.50,180.04 L174.67,181.02 L175.83,181.91 L177.00,182.72 L178.17,183.44 L179.33,184.09 L180.50,184.64 L181.67,185.12 L182.83,185.51 L184.00,185.81 L185.17,186.03 L186.33,186.16 L187.50,186.20 L188.67,186.16 L189.83,186.03 L191.00,185.81 L192.17,185.51 L193.33,185.12 L194.50,184.64 L195.67,184.09 L196.83,183.44 L198.00,182.72 L199.17,181.91 L200.33,181.02 L201.50,180.04 L202.67,178.99 L203.83,177.87 L205.00,176.66 L206.17,175.38 L207.33,174.03 L208.50,172.60 L209.67,171.11 L210.83,169.54 L212.00,167.91 L213.17,166.22 L214.33,164.46 L215.50,162.64 L216.67,160.77 L217.83,158.84 L219.00,156.85 L220.17,154.81 L221.33,152.73 L222.50,150.60 L223.67,148.43 L224.83,146.21 L226.00,143.96 L227.17,141.67 L228.33,139.35 L229.50,137.00 L230.67,134.63 L231.83,132.22 L233.00,129.80 L234.17,127.36 L235.33,124.91 L236.50,122.44 L237.67,119.97 L238.83,117.48 L240.00,115.00 L241.17,112.52 L242.33,110.03 L243.50,107.56 L244.67,105.09 L245.83,102.64 L247.00,100.20 L248.17,97.78 L249.33,95.37 L250.50,93.00 L251.67,90.65 L252.83,88.33 L254.00,86.04 L255.17,83.79 L256.33,81.57 L257.50,79.40 L258.67,77.27 L259.83,75.19 L261.00,73.15 L262.17,71.16 L263.33,69.23 L264.50,67.36 L265.67,65.54 L266.83,63.78 L268.00,62.09 L269.17,60.46 L270.33,58.89 L271.50,57.40 L272.67,55.97 L273.83,54.62 L275.00,53.34 L276.17,52.13 L277.33,51.01 L278.50,49.96 L279.67,48.98 L280.83,48.09 L282.00,47.28 L283.17,46.56 L284.33,45.91 L285.50,45.36 L286.67,44.88 L287.83,44.49 L289.00,44.19 L290.17,43.97 L291.33,43.84 L292.50,43.80 L293.67,43.84 L294.83,43.97 L296.00,44.19 L297.17,44.49 L298.33,44.88 L299.50,45.36 L300.67,45.91 L301.83,46.56 L303.00,47.28 L304.17,48.09 L305.33,48.98 L306.50,49.96 L307.67,51.01 L308.83,52.13 L310.00,53.34 L311.17,54.62 L312.33,55.97 L313.50,57.40 L314.67,58.89 L315.83,60.46 L317.00,62.09 L318.17,63.78 L319.33,65.54 L320.50,67.36 L321.67,69.23 L322.83,71.16 L324.00,73.15 L325.17,75.19 L326.33,77.27 L327.50,79.40 L328.67,81.57 L329.83,83.79 L331.00,86.04 L332.17,88.33 L333.33,90.65 L334.50,93.00 L335.67,95.37 L336.83,97.78 L338.00,100.20 L339.17,102.64 L340.33,105.09 L341.50,107.56 L342.67,110.03 L343.83,112.52 L345.00,115.00 L346.17,117.48 L347.33,119.97 L348.50,122.44 L349.67,124.91 L350.83,127.36 L352.00,129.80 L353.17,132.22 L354.33,134.63 L355.50,137.00 L356.67,139.35 L357.83,141.67 L359.00,143.96 L360.17,146.21 L361.33,148.43 L362.50,150.60 L363.67,152.73 L364.83,154.81 L366.00,156.85 L367.17,158.84 L368.33,160.77 L369.50,162.64 L370.67,164.46 L371.83,166.22 L373.00,167.91 L374.17,169.54 L375.33,171.11 L376.50,172.60 L377.67,174.03 L378.83,175.38 L380.00,176.66 L381.17,177.87 L382.33,178.99 L383.50,180.04 L384.67,181.02 L385.83,181.91 L387.00,182.72 L388.17,183.44 L389.33,184.09 L390.50,184.64 L391.67,185.12 L392.83,185.51 L394.00,185.81 L395.17,186.03 L396.33,186.16 L397.50,186.20 L398.67,186.16 L399.83,186.03 L401.00,185.81 L402.17,185.51 L403.33,185.12 L404.50,184.64 L405.67,184.09 L406.83,183.44 L408.00,182.72 L409.17,181.91 L410.33,181.02 L411.50,180.04 L412.67,178.99 L413.83,177.87 L415.00,176.66 L416.17,175.38 L417.33,174.03 L418.50,172.60 L419.67,171.11 L420.83,169.54 L422.00,167.91 L423.17,166.22 L424.33,164.46 L425.50,162.64 L426.67,160.77 L427.83,158.84 L429.00,156.85 L430.17,154.81 L431.33,152.73 L432.50,150.60 L433.67,148.43 L434.83,146.21 L436.00,143.96 L437.17,141.67 L438.33,139.35 L439.50,137.00 L440.67,134.63 L441.83,132.22 L443.00,129.80 L444.17,127.36 L445.33,124.91 L446.50,122.44 L447.67,119.97 L448.83,117.48 L450.00,115.00" fill="none" stroke="#b03030" stroke-width="2.6" stroke-linecap="round" stroke-linejoin="round"></path><g><line x1="82.5" y1="102.184" x2="82.5" y2="48.699999999999996" stroke="#4d4943" stroke-width="2" stroke-linecap="round" stroke-dasharray="none"></line><path d="M82.5,43.8 L85.5,50.1 L79.5,50.1 Z" fill="#4d4943" stroke="none"></path></g><g><line x1="187.5" y1="127.816" x2="187.5" y2="181.29999999999998" stroke="#4d4943" stroke-width="2" stroke-linecap="round" stroke-dasharray="none"></line><path d="M187.5,186.2 L184.5,179.9 L190.5,179.9 Z" fill="#4d4943" stroke="none"></path></g><g><line x1="82.5" y1="23.799999999999997" x2="82.5" y2="35.8" stroke="#4d4943" stroke-width="1" stroke-linecap="butt" stroke-dasharray="none"></line><line x1="292.5" y1="23.799999999999997" x2="292.5" y2="35.8" stroke="#4d4943" stroke-width="1" stroke-linecap="butt" stroke-dasharray="none"></line></g><g><line x1="82.5" y1="29.799999999999997" x2="292.5" y2="29.799999999999997" stroke="#b03030" stroke-width="1.6" stroke-linecap="butt" stroke-dasharray="none"></line><path d="M82.5,29.8 L87.9,27.2 L87.9,32.4 Z" fill="#b03030" stroke="none"></path><path d="M292.5,29.8 L287.1,32.4 L287.1,27.2 Z" fill="#b03030" stroke="none"></path><text x="187.5" y="23.799999999999997" font-family="system-ui, sans-serif" font-size="12.5" fill="#b03030" text-anchor="middle" font-style="italic">λ</text></g><g><line x1="82.5" y1="115" x2="82.5" y2="43.8" stroke="#2d6a3f" stroke-width="1.6" stroke-linecap="butt" stroke-dasharray="none"></line><path d="M82.5,115.0 L79.9,109.6 L85.1,109.6 Z" fill="#2d6a3f" stroke="none"></path><path d="M82.5,43.8 L85.1,49.2 L79.9,49.2 Z" fill="#2d6a3f" stroke="none"></path><text x="90.5" y="83.4" font-family="system-ui, sans-serif" font-size="12.5" fill="#2d6a3f" text-anchor="start" font-style="italic">A</text></g></svg>