<svg xmlns="http://www.w3.org/2000/svg" viewBox="0 0 360 240" width="100%" preserveAspectRatio="xMidYMid meet" role="img" aria-label="wavefronts (plan view)" class="td-svg" style="max-width:360px;height:auto;display:block;font-family:Georgia, serif"><title>wavefronts (plan view)</title><circle cx="32" cy="120" r="3" fill="#b03030" stroke="#b03030" stroke-width="1.4" stroke-dasharray="none"></circle><path d="M32,64 A56,56 0 0 1 32,176" fill="none" stroke="#1a1a17" stroke-width="2"></path><path d="M32,8 A112,112 0 0 1 32,232" fill="none" stroke="#1a1a17" stroke-width="2"></path><path d="M32,-48 A168,168 0 0 1 32,288" fill="none" stroke="#1a1a17" stroke-width="2"></path><path d="M32,-104 A224,224 0 0 1 32,344" fill="none" stroke="#1a1a17" stroke-width="2"></path><path d="M32,-160 A280,280 0 0 1 32,400" fill="none" stroke="#1a1a17" stroke-width="2"></path><g><line x1="88" y1="120" x2="144" y2="120" stroke="#b03030" stroke-width="1.6" stroke-linecap="butt" stroke-dasharray="none"></line><path d="M88.0,120.0 L93.4,117.4 L93.4,122.6 Z" fill="#b03030" stroke="none"></path><path d="M144.0,120.0 L138.6,122.6 L138.6,117.4 Z" fill="#b03030" stroke="none"></path><text x="116" y="114" font-family="system-ui, sans-serif" font-size="12.5" fill="#b03030" text-anchor="middle" font-style="italic">lambda</text></g></svg>