<svg xmlns="http://www.w3.org/2000/svg" viewBox="0 0 420 340" width="100%" preserveAspectRatio="xMidYMid meet" role="img" aria-label="Bar magnet and its magnetic field" class="td-svg" style="max-width:420px;height:auto;display:block;font-family:Georgia, serif"><title>Bar magnet and its magnetic field</title><g><rect x="155" y="148" width="55" height="44" rx="0" fill="rgba(176,48,48,.14)" stroke="none" stroke-width="0" stroke-dasharray="none"></rect><rect x="210" y="148" width="55" height="44" rx="0" fill="rgba(26,26,23,.08)" stroke="none" stroke-width="0" stroke-dasharray="none"></rect><rect x="155" y="148" width="110" height="44" rx="4" fill="none" stroke="#1a1a17" stroke-width="1.8" stroke-dasharray="none"></rect><line x1="210" y1="148" x2="210" y2="192" stroke="#1a1a17" stroke-width="1.2" stroke-linecap="round" stroke-dasharray="none"></line><text x="182.5" y="175" font-family="system-ui, sans-serif" font-size="15" fill="#1a1a17" font-weight="700" text-anchor="middle">N</text><text x="237.5" y="175" font-family="system-ui, sans-serif" font-size="15" fill="#1a1a17" font-weight="700" text-anchor="middle">S</text></g><path d="M149.1,108.9L148.8,103.9L148.8,98.9L148.9,93.9L149.4,88.9L150.1,83.9L151.0,79.0L152.3,74.2L153.8,69.4L155.6,64.8L157.7,60.2L160.1,55.8L162.7,51.6L165.7,47.6L169.0,43.8L172.5,40.3L176.3,37.0L180.4,34.1L184.7,31.5L189.2,29.4L193.8,27.6L198.7,26.3L203.6,25.5L208.6,25.1L213.6,25.2L218.5,25.8L223.4,26.8L228.2,28.3L232.8,30.3L237.2,32.6L241.4,35.3L245.4,38.4L249.1,41.7L252.5,45.4L255.6,49.3L258.4,53.4L261.0,57.7L263.3,62.2L265.2,66.8L266.9,71.5L268.3,76.3L269.4,81.1L270.3,86.1L270.8,91.0L271.2,96.0L271.2,101.0L271.1,106.0" fill="none" stroke="#1a1a17" stroke-width="1.7" stroke-linecap="round" stroke-linejoin="round" stroke-dasharray="none"></path><path d="M211.1,25.1 L204.2,28.1 L204.4,21.7 Z" fill="#1a1a17" stroke="none"></path><path d="M162.6,122.5L163.0,117.6L163.8,112.6L164.9,107.7L166.3,102.9L168.0,98.3L170.1,93.7L172.6,89.4L175.4,85.3L178.7,81.4L182.2,78.0L186.2,74.9L190.4,72.2L194.9,70.1L199.7,68.5L204.6,67.5L209.5,67.1L214.5,67.4L219.4,68.2L224.2,69.7L228.8,71.8L233.1,74.3L237.1,77.4L240.7,80.8L244.0,84.5L246.9,88.6L249.5,92.9L251.6,97.4L253.4,102.1L254.9,106.8L256.0,111.7L256.8,116.6L257.3,121.6" fill="none" stroke="#1a1a17" stroke-width="1.7" stroke-linecap="round" stroke-linejoin="round" stroke-dasharray="none"></path><path d="M209.5,67.1 L202.8,70.4 L202.7,64.0 Z" fill="#1a1a17" stroke="none"></path><path d="M171.5,130.1L172.8,125.3L174.5,120.6L176.6,116.0L179.2,111.7L182.1,107.7L185.5,104.0L189.3,100.8L193.5,98.0L198.0,95.9L202.8,94.4L207.7,93.7L212.7,93.7L217.6,94.5L222.4,96.0L226.9,98.2L231.0,101.0L234.8,104.3L238.1,108.0L241.1,112.1L243.5,116.4L245.6,121.0L247.3,125.7L248.6,130.5" fill="none" stroke="#1a1a17" stroke-width="1.7" stroke-linecap="round" stroke-linejoin="round" stroke-dasharray="none"></path><path d="M210.2,93.6 L203.4,96.7 L203.4,90.4 Z" fill="#1a1a17" stroke="none"></path><path d="M141.5,139.5L138.4,135.5L135.4,131.5L132.6,127.4L129.8,123.2L127.1,119.0L124.6,114.7L122.1,110.4L119.7,106.0L117.5,101.5L115.4,97.0L113.4,92.4L111.5,87.8L109.7,83.1L108.0,78.4L106.5,73.6L105.1,68.8L103.8,64.0L102.7,59.1L101.7,54.2L100.8,49.3L100.0,44.4L99.4,39.4L98.9,34.4L98.6,29.4L98.4,24.4L98.4,19.4L98.5,14.4L98.7,9.4" fill="none" stroke="#1a1a17" stroke-width="1.7" stroke-linecap="round" stroke-linejoin="round" stroke-dasharray="none"></path><path d="M108.0,78.4 L113.2,83.8 L107.2,85.8 Z" fill="#1a1a17" stroke="none"></path><path d="M321.3,9.4L321.5,14.4L321.6,19.4L321.6,24.4L321.4,29.4L321.1,34.4L320.6,39.4L320.0,44.4L319.2,49.3L318.3,54.2L317.3,59.1L316.2,64.0L314.9,68.8L313.5,73.6L312.0,78.4L310.3,83.1L308.5,87.8L306.6,92.4L304.6,97.0L302.5,101.5L300.3,106.0L297.9,110.4L295.4,114.7L292.9,119.0L290.2,123.2L287.4,127.4L284.6,131.5L281.6,135.5L278.5,139.5" fill="none" stroke="#1a1a17" stroke-width="1.7" stroke-linecap="round" stroke-linejoin="round" stroke-dasharray="none"></path><path d="M312.0,78.4 L311.1,70.9 L317.2,73.0 Z" fill="#1a1a17" stroke="none"></path><path d="M149.1,231.1L148.8,236.1L148.8,241.1L148.9,246.1L149.4,251.1L150.1,256.1L151.0,261.0L152.3,265.8L153.8,270.6L155.6,275.2L157.7,279.8L160.1,284.2L162.7,288.4L165.7,292.4L169.0,296.2L172.5,299.7L176.3,303.0L180.4,305.9L184.7,308.5L189.2,310.6L193.8,312.4L198.7,313.7L203.6,314.5L208.6,314.9L213.6,314.8L218.5,314.2L223.4,313.2L228.2,311.7L232.8,309.7L237.2,307.4L241.4,304.7L245.4,301.6L249.1,298.3L252.5,294.6L255.6,290.7L258.4,286.6L261.0,282.3L263.3,277.8L265.2,273.2L266.9,268.5L268.3,263.7L269.4,258.9L270.3,253.9L270.8,249.0L271.2,244.0L271.2,239.0L271.1,234.0" fill="none" stroke="#1a1a17" stroke-width="1.7" stroke-linecap="round" stroke-linejoin="round" stroke-dasharray="none"></path><path d="M211.1,314.9 L204.4,318.3 L204.2,311.9 Z" fill="#1a1a17" stroke="none"></path><path d="M162.6,217.5L163.0,222.4L163.8,227.4L164.9,232.3L166.3,237.1L168.0,241.7L170.1,246.3L172.6,250.6L175.4,254.7L178.7,258.6L182.2,262.0L186.2,265.1L190.4,267.8L194.9,269.9L199.7,271.5L204.6,272.5L209.5,272.9L214.5,272.6L219.4,271.8L224.2,270.3L228.8,268.2L233.1,265.7L237.1,262.6L240.7,259.2L244.0,255.5L246.9,251.4L249.5,247.1L251.6,242.6L253.4,237.9L254.9,233.2L256.0,228.3L256.8,223.4L257.3,218.4" fill="none" stroke="#1a1a17" stroke-width="1.7" stroke-linecap="round" stroke-linejoin="round" stroke-dasharray="none"></path><path d="M209.5,272.9 L202.7,276.0 L202.8,269.6 Z" fill="#1a1a17" stroke="none"></path><path d="M171.5,209.9L172.8,214.7L174.5,219.4L176.6,224.0L179.2,228.3L182.1,232.3L185.5,236.0L189.3,239.2L193.5,242.0L198.0,244.1L202.8,245.6L207.7,246.3L212.7,246.3L217.6,245.5L222.4,244.0L226.9,241.8L231.0,239.0L234.8,235.7L238.1,232.0L241.1,227.9L243.5,223.6L245.6,219.0L247.3,214.3L248.6,209.5" fill="none" stroke="#1a1a17" stroke-width="1.7" stroke-linecap="round" stroke-linejoin="round" stroke-dasharray="none"></path><path d="M210.2,246.4 L203.4,249.6 L203.4,243.3 Z" fill="#1a1a17" stroke="none"></path><path d="M141.5,200.5L138.4,204.5L135.4,208.5L132.6,212.6L129.8,216.8L127.1,221.0L124.6,225.3L122.1,229.6L119.7,234.0L117.5,238.5L115.4,243.0L113.4,247.6L111.5,252.2L109.7,256.9L108.0,261.6L106.5,266.4L105.1,271.2L103.8,276.0L102.7,280.9L101.7,285.8L100.8,290.7L100.0,295.6L99.4,300.6L98.9,305.6L98.6,310.6L98.4,315.6L98.4,320.6L98.5,325.6L98.7,330.6" fill="none" stroke="#1a1a17" stroke-width="1.7" stroke-linecap="round" stroke-linejoin="round" stroke-dasharray="none"></path><path d="M108.0,261.6 L107.2,254.2 L113.2,256.2 Z" fill="#1a1a17" stroke="none"></path><path d="M321.3,330.6L321.5,325.6L321.6,320.6L321.6,315.6L321.4,310.6L321.1,305.6L320.6,300.6L320.0,295.6L319.2,290.7L318.3,285.8L317.3,280.9L316.2,276.0L314.9,271.2L313.5,266.4L312.0,261.6L310.3,256.9L308.5,252.2L306.6,247.6L304.6,243.0L302.5,238.5L300.3,234.0L297.9,229.6L295.4,225.3L292.9,221.0L290.2,216.8L287.4,212.6L284.6,208.5L281.6,204.5L278.5,200.5" fill="none" stroke="#1a1a17" stroke-width="1.7" stroke-linecap="round" stroke-linejoin="round" stroke-dasharray="none"></path><path d="M312.0,261.6 L317.2,267.0 L311.1,269.1 Z" fill="#1a1a17" stroke="none"></path><path d="M136.9,170.0L131.9,170.0L126.9,170.0L121.9,170.0L116.9,170.0L111.9,170.0L106.9,170.0L101.9,170.0L96.9,170.0L91.9,170.0L86.9,170.0L81.9,170.0L76.9,170.0L71.9,170.0L66.9,170.0L61.9,170.0L56.9,170.0L51.9,170.0L46.9,170.0L41.9,170.0L36.9,170.0L31.9,170.0L26.9,170.0L21.9,170.0L16.9,170.0L11.9,170.0" fill="none" stroke="#1a1a17" stroke-width="1.7" stroke-linecap="round" stroke-linejoin="round" stroke-dasharray="none"></path><path d="M74.4,170.0 L81.2,166.8 L81.2,173.2 Z" fill="#1a1a17" stroke="none"></path><path d="M408.1,170.0L403.1,170.0L398.1,170.0L393.1,170.0L388.1,170.0L383.1,170.0L378.1,170.0L373.1,170.0L368.1,170.0L363.1,170.0L358.1,170.0L353.1,170.0L348.1,170.0L343.1,170.0L338.1,170.0L333.1,170.0L328.1,170.0L323.1,170.0L318.1,170.0L313.1,170.0L308.1,170.0L303.1,170.0L298.1,170.0L293.1,170.0L288.1,170.0L283.1,170.0" fill="none" stroke="#1a1a17" stroke-width="1.7" stroke-linecap="round" stroke-linejoin="round" stroke-dasharray="none"></path><path d="M345.6,170.0 L352.4,166.8 L352.4,173.2 Z" fill="#1a1a17" stroke="none"></path></svg>