<svg xmlns="http://www.w3.org/2000/svg" viewBox="0 0 420 340" width="100%" preserveAspectRatio="xMidYMid meet" role="img" aria-label="Bar magnet and its magnetic field" class="td-svg" style="max-width:420px;height:auto;display:block;font-family:Georgia, serif"><title>Bar magnet and its magnetic field</title><g><rect x="155" y="148" width="55" height="44" rx="0" fill="rgba(176,48,48,.14)" stroke="none" stroke-width="0" stroke-dasharray="none"></rect><rect x="210" y="148" width="55" height="44" rx="0" fill="rgba(26,26,23,.08)" stroke="none" stroke-width="0" stroke-dasharray="none"></rect><rect x="155" y="148" width="110" height="44" rx="4" fill="none" stroke="#1a1a17" stroke-width="1.8" stroke-dasharray="none"></rect><line x1="210" y1="148" x2="210" y2="192" stroke="#1a1a17" stroke-width="1.2" stroke-linecap="round" stroke-dasharray="none"></line><text x="182.5" y="175" font-family="system-ui, sans-serif" font-size="15" fill="#1a1a17" font-weight="700" text-anchor="middle">N</text><text x="237.5" y="175" font-family="system-ui, sans-serif" font-size="15" fill="#1a1a17" font-weight="700" text-anchor="middle">S</text></g><path d="M159.3,148.0L158.1,145.1L156.3,140.5L154.7,135.7L153.2,131.0L151.9,126.1L150.9,121.2L150.0,116.3L149.4,111.4L149.0,106.4L148.8,101.4L148.8,96.4L149.1,91.4L149.7,86.4L150.5,81.5L151.6,76.6L153.0,71.8L154.6,67.1L156.6,62.5L158.8,58.0L161.4,53.7L164.2,49.6L167.3,45.7L170.7,42.0L174.4,38.6L178.3,35.5L182.5,32.8L186.9,30.4L191.5,28.4L196.2,26.9L201.1,25.8L206.1,25.2L211.1,25.1L216.1,25.4L221.0,26.2L225.8,27.5L230.5,29.2L235.0,31.4L239.3,33.9L243.4,36.8L247.2,40.0L250.8,43.5L254.1,47.3L257.1,51.3L259.8,55.5L262.2,59.9L264.3,64.4L266.1,69.1L267.6,73.9L268.9,78.7L269.9,83.6L270.6,88.5L271.0,93.5L271.2,98.5L271.2,103.5L270.9,108.5L270.4,113.5L269.6,118.4L268.7,123.3L267.5,128.2L266.2,133.0L264.7,137.8L263.0,142.5L261.1,147.1" fill="none" stroke="#1a1a17" stroke-width="1.7" stroke-linecap="round" stroke-linejoin="round" stroke-dasharray="none"></path><path d="M211.1,25.1 L204.2,28.1 L204.4,21.7 Z" fill="#1a1a17" stroke="none"></path><path d="M164.5,148.0L163.9,145.0L163.2,140.0L162.7,135.0L162.5,130.0L162.5,125.0L162.8,120.0L163.4,115.1L164.3,110.2L165.5,105.3L167.1,100.6L169.0,96.0L171.3,91.5L174.0,87.3L177.0,83.3L180.4,79.7L184.2,76.4L188.2,73.5L192.6,71.1L197.3,69.2L202.1,67.9L207.0,67.2L212.0,67.2L217.0,67.7L221.9,68.9L226.5,70.7L231.0,73.0L235.1,75.8L238.9,79.0L242.4,82.6L245.5,86.5L248.2,90.7L250.6,95.1L252.6,99.7L254.2,104.4L255.5,109.3L256.5,114.2L257.1,119.1L257.5,124.1L257.5,129.1L257.3,134.1L256.9,139.1L256.2,144.0L255.5,148.0" fill="none" stroke="#1a1a17" stroke-width="1.7" stroke-linecap="round" stroke-linejoin="round" stroke-dasharray="none"></path><path d="M209.5,67.1 L202.8,70.4 L202.7,64.0 Z" fill="#1a1a17" stroke="none"></path><path d="M169.2,148.0L169.3,144.9L169.7,139.9L170.4,135.0L171.5,130.1L172.8,125.3L174.5,120.6L176.6,116.0L179.2,111.7L182.1,107.7L185.5,104.0L189.3,100.8L193.5,98.0L198.0,95.9L202.8,94.4L207.7,93.7L212.7,93.7L217.6,94.5L222.4,96.0L226.9,98.2L231.0,101.0L234.8,104.3L238.1,108.0L241.1,112.1L243.5,116.4L245.6,121.0L247.3,125.7L248.6,130.5L249.6,135.4L250.3,140.3L250.7,145.3L250.8,148.0" fill="none" stroke="#1a1a17" stroke-width="1.7" stroke-linecap="round" stroke-linejoin="round" stroke-dasharray="none"></path><path d="M210.2,93.6 L203.4,96.7 L203.4,90.4 Z" fill="#1a1a17" stroke="none"></path><path d="M155.0,155.0L152.9,152.7L149.5,149.0L146.2,145.3L143.0,141.4L139.9,137.5L136.9,133.5L134.0,129.5L131.2,125.3L128.4,121.1L125.8,116.9L123.3,112.6L120.9,108.2L118.6,103.7L116.4,99.2L114.3,94.7L112.4,90.1L110.6,85.4L108.8,80.7L107.3,76.0L105.8,71.2L104.4,66.4L103.2,61.6L102.1,56.7L101.2,51.8L100.4,46.8L99.7,41.9L99.2,36.9L98.8,31.9L98.5,26.9L98.4,21.9L98.4,16.9L98.6,11.9" fill="none" stroke="#1a1a17" stroke-width="1.7" stroke-linecap="round" stroke-linejoin="round" stroke-dasharray="none"></path><path d="M111.5,87.8 L116.9,92.9 L111.0,95.3 Z" fill="#1a1a17" stroke="none"></path><path d="M321.3,9.4L321.5,14.4L321.6,19.4L321.6,24.4L321.4,29.4L321.1,34.4L320.6,39.4L320.0,44.4L319.2,49.3L318.3,54.2L317.3,59.1L316.2,64.0L314.9,68.8L313.5,73.6L312.0,78.4L310.3,83.1L308.5,87.8L306.6,92.4L304.6,97.0L302.5,101.5L300.3,106.0L297.9,110.4L295.4,114.7L292.9,119.0L290.2,123.2L287.4,127.4L284.6,131.5L281.6,135.5L278.5,139.5L275.4,143.3L272.1,147.2L268.8,150.9L265.4,154.6" fill="none" stroke="#1a1a17" stroke-width="1.7" stroke-linecap="round" stroke-linejoin="round" stroke-dasharray="none"></path><path d="M307.6,90.1 L307.2,82.6 L313.1,85.0 Z" fill="#1a1a17" stroke="none"></path><path d="M159.3,192.0L158.1,194.9L156.3,199.5L154.7,204.3L153.2,209.0L151.9,213.9L150.9,218.8L150.0,223.7L149.4,228.6L149.0,233.6L148.8,238.6L148.8,243.6L149.1,248.6L149.7,253.6L150.5,258.5L151.6,263.4L153.0,268.2L154.6,272.9L156.6,277.5L158.8,282.0L161.4,286.3L164.2,290.4L167.3,294.3L170.7,298.0L174.4,301.4L178.3,304.5L182.5,307.2L186.9,309.6L191.5,311.6L196.2,313.1L201.1,314.2L206.1,314.8L211.1,314.9L216.1,314.6L221.0,313.8L225.8,312.5L230.5,310.8L235.0,308.6L239.3,306.1L243.4,303.2L247.2,300.0L250.8,296.5L254.1,292.7L257.1,288.7L259.8,284.5L262.2,280.1L264.3,275.6L266.1,270.9L267.6,266.1L268.9,261.3L269.9,256.4L270.6,251.5L271.0,246.5L271.2,241.5L271.2,236.5L270.9,231.5L270.4,226.5L269.6,221.6L268.7,216.7L267.5,211.8L266.2,207.0L264.7,202.2L263.0,197.5L261.1,192.9" fill="none" stroke="#1a1a17" stroke-width="1.7" stroke-linecap="round" stroke-linejoin="round" stroke-dasharray="none"></path><path d="M211.1,314.9 L204.4,318.3 L204.2,311.9 Z" fill="#1a1a17" stroke="none"></path><path d="M164.5,192.0L163.9,195.0L163.2,200.0L162.7,205.0L162.5,210.0L162.5,215.0L162.8,220.0L163.4,224.9L164.3,229.8L165.5,234.7L167.1,239.4L169.0,244.0L171.3,248.5L174.0,252.7L177.0,256.7L180.4,260.3L184.2,263.6L188.2,266.5L192.6,268.9L197.3,270.8L202.1,272.1L207.0,272.8L212.0,272.8L217.0,272.3L221.9,271.1L226.5,269.3L231.0,267.0L235.1,264.2L238.9,261.0L242.4,257.4L245.5,253.5L248.2,249.3L250.6,244.9L252.6,240.3L254.2,235.6L255.5,230.7L256.5,225.8L257.1,220.9L257.5,215.9L257.5,210.9L257.3,205.9L256.9,200.9L256.2,196.0L255.5,192.0" fill="none" stroke="#1a1a17" stroke-width="1.7" stroke-linecap="round" stroke-linejoin="round" stroke-dasharray="none"></path><path d="M209.5,272.9 L202.7,276.0 L202.8,269.6 Z" fill="#1a1a17" stroke="none"></path><path d="M169.2,192.0L169.3,195.1L169.7,200.1L170.4,205.0L171.5,209.9L172.8,214.7L174.5,219.4L176.6,224.0L179.2,228.3L182.1,232.3L185.5,236.0L189.3,239.2L193.5,242.0L198.0,244.1L202.8,245.6L207.7,246.3L212.7,246.3L217.6,245.5L222.4,244.0L226.9,241.8L231.0,239.0L234.8,235.7L238.1,232.0L241.1,227.9L243.5,223.6L245.6,219.0L247.3,214.3L248.6,209.5L249.6,204.6L250.3,199.7L250.7,194.7L250.8,192.0" fill="none" stroke="#1a1a17" stroke-width="1.7" stroke-linecap="round" stroke-linejoin="round" stroke-dasharray="none"></path><path d="M210.2,246.4 L203.4,249.6 L203.4,243.3 Z" fill="#1a1a17" stroke="none"></path><path d="M155.0,185.0L152.9,187.3L149.5,191.0L146.2,194.7L143.0,198.6L139.9,202.5L136.9,206.5L134.0,210.5L131.2,214.7L128.4,218.9L125.8,223.1L123.3,227.4L120.9,231.8L118.6,236.3L116.4,240.8L114.3,245.3L112.4,249.9L110.6,254.6L108.8,259.3L107.3,264.0L105.8,268.8L104.4,273.6L103.2,278.4L102.1,283.3L101.2,288.2L100.4,293.2L99.7,298.1L99.2,303.1L98.8,308.1L98.5,313.1L98.4,318.1L98.4,323.1L98.6,328.1" fill="none" stroke="#1a1a17" stroke-width="1.7" stroke-linecap="round" stroke-linejoin="round" stroke-dasharray="none"></path><path d="M111.5,252.2 L111.0,244.7 L116.9,247.1 Z" fill="#1a1a17" stroke="none"></path><path d="M321.3,330.6L321.5,325.6L321.6,320.6L321.6,315.6L321.4,310.6L321.1,305.6L320.6,300.6L320.0,295.6L319.2,290.7L318.3,285.8L317.3,280.9L316.2,276.0L314.9,271.2L313.5,266.4L312.0,261.6L310.3,256.9L308.5,252.2L306.6,247.6L304.6,243.0L302.5,238.5L300.3,234.0L297.9,229.6L295.4,225.3L292.9,221.0L290.2,216.8L287.4,212.6L284.6,208.5L281.6,204.5L278.5,200.5L275.4,196.7L272.1,192.8L268.8,189.1L265.4,185.4" fill="none" stroke="#1a1a17" stroke-width="1.7" stroke-linecap="round" stroke-linejoin="round" stroke-dasharray="none"></path><path d="M307.6,249.9 L313.1,255.0 L307.2,257.4 Z" fill="#1a1a17" stroke="none"></path><path d="M155.0,170.0L151.9,170.0L146.9,170.0L141.9,170.0L136.9,170.0L131.9,170.0L126.9,170.0L121.9,170.0L116.9,170.0L111.9,170.0L106.9,170.0L101.9,170.0L96.9,170.0L91.9,170.0L86.9,170.0L81.9,170.0L76.9,170.0L71.9,170.0L66.9,170.0L61.9,170.0L56.9,170.0L51.9,170.0L46.9,170.0L41.9,170.0L36.9,170.0L31.9,170.0L26.9,170.0L21.9,170.0L16.9,170.0L11.9,170.0" fill="none" stroke="#1a1a17" stroke-width="1.7" stroke-linecap="round" stroke-linejoin="round" stroke-dasharray="none"></path><path d="M84.4,170.0 L91.2,166.8 L91.2,173.2 Z" fill="#1a1a17" stroke="none"></path><path d="M408.1,170.0L403.1,170.0L398.1,170.0L393.1,170.0L388.1,170.0L383.1,170.0L378.1,170.0L373.1,170.0L368.1,170.0L363.1,170.0L358.1,170.0L353.1,170.0L348.1,170.0L343.1,170.0L338.1,170.0L333.1,170.0L328.1,170.0L323.1,170.0L318.1,170.0L313.1,170.0L308.1,170.0L303.1,170.0L298.1,170.0L293.1,170.0L288.1,170.0L283.1,170.0L278.1,170.0L273.1,170.0L268.1,170.0L265.0,170.0" fill="none" stroke="#1a1a17" stroke-width="1.7" stroke-linecap="round" stroke-linejoin="round" stroke-dasharray="none"></path><path d="M335.6,170.0 L342.4,166.8 L342.4,173.2 Z" fill="#1a1a17" stroke="none"></path></svg>