<svg xmlns="http://www.w3.org/2000/svg" viewBox="0 0 420 340" width="100%" preserveAspectRatio="xMidYMid meet" role="img" aria-label="Bar magnet and its magnetic field" class="td-svg" style="max-width:420px;height:auto;display:block;font-family:Georgia, serif"><title>Bar magnet and its magnetic field</title><g><rect x="155" y="148" width="55" height="44" rx="0" fill="rgba(26,26,23,.08)" stroke="none" stroke-width="0" stroke-dasharray="none"></rect><rect x="210" y="148" width="55" height="44" rx="0" fill="rgba(176,48,48,.14)" stroke="none" stroke-width="0" stroke-dasharray="none"></rect><rect x="155" y="148" width="110" height="44" rx="4" fill="none" stroke="#1a1a17" stroke-width="1.8" stroke-dasharray="none"></rect><line x1="210" y1="148" x2="210" y2="192" stroke="#1a1a17" stroke-width="1.2" stroke-linecap="round" stroke-dasharray="none"></line><text x="182.5" y="175" font-family="system-ui, sans-serif" font-size="15" fill="#1a1a17" font-weight="700" text-anchor="middle">S</text><text x="237.5" y="175" font-family="system-ui, sans-serif" font-size="15" fill="#1a1a17" font-weight="700" text-anchor="middle">N</text></g><path d="M260.7,148.0L261.9,145.1L263.7,140.5L265.3,135.7L266.8,131.0L268.1,126.1L269.1,121.2L270.0,116.3L270.6,111.4L271.0,106.4L271.2,101.4L271.2,96.4L270.9,91.4L270.3,86.4L269.5,81.5L268.4,76.6L267.0,71.8L265.4,67.1L263.4,62.5L261.2,58.0L258.6,53.7L255.8,49.6L252.7,45.7L249.3,42.0L245.6,38.6L241.7,35.5L237.5,32.8L233.1,30.4L228.5,28.4L223.8,26.9L218.9,25.8L213.9,25.2L208.9,25.1L203.9,25.4L199.0,26.2L194.2,27.5L189.5,29.2L185.0,31.4L180.7,33.9L176.6,36.8L172.8,40.0L169.2,43.5L165.9,47.3L162.9,51.3L160.2,55.5L157.8,59.9L155.7,64.4L153.9,69.1L152.4,73.9L151.1,78.7L150.1,83.6L149.4,88.5L149.0,93.5L148.8,98.5L148.8,103.5L149.1,108.5L149.6,113.5L150.4,118.4L151.3,123.3L152.5,128.2L153.8,133.0L155.3,137.8L157.0,142.5L158.9,147.1" fill="none" stroke="#1a1a17" stroke-width="1.7" stroke-linecap="round" stroke-linejoin="round" stroke-dasharray="none"></path><path d="M208.9,25.1 L215.6,21.7 L215.8,28.1 Z" fill="#1a1a17" stroke="none"></path><path d="M255.5,148.0L256.1,145.0L256.8,140.0L257.3,135.0L257.5,130.0L257.5,125.0L257.2,120.0L256.6,115.1L255.7,110.2L254.5,105.3L252.9,100.6L251.0,96.0L248.7,91.5L246.0,87.3L243.0,83.3L239.6,79.7L235.8,76.4L231.8,73.5L227.4,71.1L222.7,69.2L217.9,67.9L213.0,67.2L208.0,67.2L203.0,67.7L198.1,68.9L193.5,70.7L189.0,73.0L184.9,75.8L181.1,79.0L177.6,82.6L174.5,86.5L171.8,90.7L169.4,95.1L167.4,99.7L165.8,104.4L164.5,109.3L163.5,114.2L162.9,119.1L162.5,124.1L162.5,129.1L162.7,134.1L163.1,139.1L163.8,144.0L164.5,148.0" fill="none" stroke="#1a1a17" stroke-width="1.7" stroke-linecap="round" stroke-linejoin="round" stroke-dasharray="none"></path><path d="M210.5,67.1 L217.3,64.0 L217.2,70.4 Z" fill="#1a1a17" stroke="none"></path><path d="M250.8,148.0L250.7,144.9L250.3,139.9L249.6,135.0L248.5,130.1L247.2,125.3L245.5,120.6L243.4,116.0L240.8,111.7L237.9,107.7L234.5,104.0L230.7,100.8L226.5,98.0L222.0,95.9L217.2,94.4L212.3,93.7L207.3,93.7L202.4,94.5L197.6,96.0L193.1,98.2L189.0,101.0L185.2,104.3L181.9,108.0L178.9,112.1L176.5,116.4L174.4,121.0L172.7,125.7L171.4,130.5L170.4,135.4L169.7,140.3L169.3,145.3L169.2,148.0" fill="none" stroke="#1a1a17" stroke-width="1.7" stroke-linecap="round" stroke-linejoin="round" stroke-dasharray="none"></path><path d="M209.8,93.6 L216.6,90.4 L216.6,96.7 Z" fill="#1a1a17" stroke="none"></path><path d="M265.0,155.0L267.1,152.7L270.5,149.0L273.8,145.3L277.0,141.4L280.1,137.5L283.1,133.5L286.0,129.5L288.8,125.3L291.6,121.1L294.2,116.9L296.7,112.6L299.1,108.2L301.4,103.7L303.6,99.2L305.7,94.7L307.6,90.1L309.4,85.4L311.2,80.7L312.7,76.0L314.2,71.2L315.6,66.4L316.8,61.6L317.9,56.7L318.8,51.8L319.6,46.8L320.3,41.9L320.8,36.9L321.2,31.9L321.5,26.9L321.6,21.9L321.6,16.9L321.4,11.9" fill="none" stroke="#1a1a17" stroke-width="1.7" stroke-linecap="round" stroke-linejoin="round" stroke-dasharray="none"></path><path d="M308.5,87.8 L309.0,95.3 L303.1,92.9 Z" fill="#1a1a17" stroke="none"></path><path d="M98.7,9.4L98.5,14.4L98.4,19.4L98.4,24.4L98.6,29.4L98.9,34.4L99.4,39.4L100.0,44.4L100.8,49.3L101.7,54.2L102.7,59.1L103.8,64.0L105.1,68.8L106.5,73.6L108.0,78.4L109.7,83.1L111.5,87.8L113.4,92.4L115.4,97.0L117.5,101.5L119.7,106.0L122.1,110.4L124.6,114.7L127.1,119.0L129.8,123.2L132.6,127.4L135.4,131.5L138.4,135.5L141.5,139.5L144.6,143.3L147.9,147.2L151.2,150.9L154.6,154.6" fill="none" stroke="#1a1a17" stroke-width="1.7" stroke-linecap="round" stroke-linejoin="round" stroke-dasharray="none"></path><path d="M112.4,90.1 L106.9,85.0 L112.8,82.6 Z" fill="#1a1a17" stroke="none"></path><path d="M260.7,192.0L261.9,194.9L263.7,199.5L265.3,204.3L266.8,209.0L268.1,213.9L269.1,218.8L270.0,223.7L270.6,228.6L271.0,233.6L271.2,238.6L271.2,243.6L270.9,248.6L270.3,253.6L269.5,258.5L268.4,263.4L267.0,268.2L265.4,272.9L263.4,277.5L261.2,282.0L258.6,286.3L255.8,290.4L252.7,294.3L249.3,298.0L245.6,301.4L241.7,304.5L237.5,307.2L233.1,309.6L228.5,311.6L223.8,313.1L218.9,314.2L213.9,314.8L208.9,314.9L203.9,314.6L199.0,313.8L194.2,312.5L189.5,310.8L185.0,308.6L180.7,306.1L176.6,303.2L172.8,300.0L169.2,296.5L165.9,292.7L162.9,288.7L160.2,284.5L157.8,280.1L155.7,275.6L153.9,270.9L152.4,266.1L151.1,261.3L150.1,256.4L149.4,251.5L149.0,246.5L148.8,241.5L148.8,236.5L149.1,231.5L149.6,226.5L150.4,221.6L151.3,216.7L152.5,211.8L153.8,207.0L155.3,202.2L157.0,197.5L158.9,192.9" fill="none" stroke="#1a1a17" stroke-width="1.7" stroke-linecap="round" stroke-linejoin="round" stroke-dasharray="none"></path><path d="M208.9,314.9 L215.8,311.9 L215.6,318.3 Z" fill="#1a1a17" stroke="none"></path><path d="M255.5,192.0L256.1,195.0L256.8,200.0L257.3,205.0L257.5,210.0L257.5,215.0L257.2,220.0L256.6,224.9L255.7,229.8L254.5,234.7L252.9,239.4L251.0,244.0L248.7,248.5L246.0,252.7L243.0,256.7L239.6,260.3L235.8,263.6L231.8,266.5L227.4,268.9L222.7,270.8L217.9,272.1L213.0,272.8L208.0,272.8L203.0,272.3L198.1,271.1L193.5,269.3L189.0,267.0L184.9,264.2L181.1,261.0L177.6,257.4L174.5,253.5L171.8,249.3L169.4,244.9L167.4,240.3L165.8,235.6L164.5,230.7L163.5,225.8L162.9,220.9L162.5,215.9L162.5,210.9L162.7,205.9L163.1,200.9L163.8,196.0L164.5,192.0" fill="none" stroke="#1a1a17" stroke-width="1.7" stroke-linecap="round" stroke-linejoin="round" stroke-dasharray="none"></path><path d="M210.5,272.9 L217.2,269.6 L217.3,276.0 Z" fill="#1a1a17" stroke="none"></path><path d="M250.8,192.0L250.7,195.1L250.3,200.1L249.6,205.0L248.5,209.9L247.2,214.7L245.5,219.4L243.4,224.0L240.8,228.3L237.9,232.3L234.5,236.0L230.7,239.2L226.5,242.0L222.0,244.1L217.2,245.6L212.3,246.3L207.3,246.3L202.4,245.5L197.6,244.0L193.1,241.8L189.0,239.0L185.2,235.7L181.9,232.0L178.9,227.9L176.5,223.6L174.4,219.0L172.7,214.3L171.4,209.5L170.4,204.6L169.7,199.7L169.3,194.7L169.2,192.0" fill="none" stroke="#1a1a17" stroke-width="1.7" stroke-linecap="round" stroke-linejoin="round" stroke-dasharray="none"></path><path d="M209.8,246.4 L216.6,243.3 L216.6,249.6 Z" fill="#1a1a17" stroke="none"></path><path d="M265.0,185.0L267.1,187.3L270.5,191.0L273.8,194.7L277.0,198.6L280.1,202.5L283.1,206.5L286.0,210.5L288.8,214.7L291.6,218.9L294.2,223.1L296.7,227.4L299.1,231.8L301.4,236.3L303.6,240.8L305.7,245.3L307.6,249.9L309.4,254.6L311.2,259.3L312.7,264.0L314.2,268.8L315.6,273.6L316.8,278.4L317.9,283.3L318.8,288.2L319.6,293.2L320.3,298.1L320.8,303.1L321.2,308.1L321.5,313.1L321.6,318.1L321.6,323.1L321.4,328.1" fill="none" stroke="#1a1a17" stroke-width="1.7" stroke-linecap="round" stroke-linejoin="round" stroke-dasharray="none"></path><path d="M308.5,252.2 L303.1,247.1 L309.0,244.7 Z" fill="#1a1a17" stroke="none"></path><path d="M98.7,330.6L98.5,325.6L98.4,320.6L98.4,315.6L98.6,310.6L98.9,305.6L99.4,300.6L100.0,295.6L100.8,290.7L101.7,285.8L102.7,280.9L103.8,276.0L105.1,271.2L106.5,266.4L108.0,261.6L109.7,256.9L111.5,252.2L113.4,247.6L115.4,243.0L117.5,238.5L119.7,234.0L122.1,229.6L124.6,225.3L127.1,221.0L129.8,216.8L132.6,212.6L135.4,208.5L138.4,204.5L141.5,200.5L144.6,196.7L147.9,192.8L151.2,189.1L154.6,185.4" fill="none" stroke="#1a1a17" stroke-width="1.7" stroke-linecap="round" stroke-linejoin="round" stroke-dasharray="none"></path><path d="M112.4,249.9 L112.8,257.4 L106.9,255.0 Z" fill="#1a1a17" stroke="none"></path><path d="M265.0,170.0L268.1,170.0L273.1,170.0L278.1,170.0L283.1,170.0L288.1,170.0L293.1,170.0L298.1,170.0L303.1,170.0L308.1,170.0L313.1,170.0L318.1,170.0L323.1,170.0L328.1,170.0L333.1,170.0L338.1,170.0L343.1,170.0L348.1,170.0L353.1,170.0L358.1,170.0L363.1,170.0L368.1,170.0L373.1,170.0L378.1,170.0L383.1,170.0L388.1,170.0L393.1,170.0L398.1,170.0L403.1,170.0L408.1,170.0" fill="none" stroke="#1a1a17" stroke-width="1.7" stroke-linecap="round" stroke-linejoin="round" stroke-dasharray="none"></path><path d="M335.6,170.0 L328.8,173.2 L328.8,166.8 Z" fill="#1a1a17" stroke="none"></path><path d="M11.9,170.0L16.9,170.0L21.9,170.0L26.9,170.0L31.9,170.0L36.9,170.0L41.9,170.0L46.9,170.0L51.9,170.0L56.9,170.0L61.9,170.0L66.9,170.0L71.9,170.0L76.9,170.0L81.9,170.0L86.9,170.0L91.9,170.0L96.9,170.0L101.9,170.0L106.9,170.0L111.9,170.0L116.9,170.0L121.9,170.0L126.9,170.0L131.9,170.0L136.9,170.0L141.9,170.0L146.9,170.0L151.9,170.0L155.0,170.0" fill="none" stroke="#1a1a17" stroke-width="1.7" stroke-linecap="round" stroke-linejoin="round" stroke-dasharray="none"></path><path d="M84.4,170.0 L77.6,173.2 L77.6,166.8 Z" fill="#1a1a17" stroke="none"></path></svg>