<svg xmlns="http://www.w3.org/2000/svg" viewBox="0 0 420 340" width="100%" preserveAspectRatio="xMidYMid meet" role="img" aria-label="Bar magnet and its magnetic field" class="td-svg" style="max-width:420px;height:auto;display:block;font-family:Georgia, serif"><title>Bar magnet and its magnetic field</title><g><rect x="155" y="148" width="55" height="44" rx="0" fill="rgba(176,48,48,.14)" stroke="none" stroke-width="0" stroke-dasharray="none"></rect><rect x="210" y="148" width="55" height="44" rx="0" fill="rgba(26,26,23,.08)" stroke="none" stroke-width="0" stroke-dasharray="none"></rect><rect x="155" y="148" width="110" height="44" rx="4" fill="none" stroke="#1a1a17" stroke-width="1.8" stroke-dasharray="none"></rect><line x1="210" y1="148" x2="210" y2="192" stroke="#1a1a17" stroke-width="1.2" stroke-linecap="round" stroke-dasharray="none"></line><text x="182.5" y="175" font-family="system-ui, sans-serif" font-size="15" fill="#1a1a17" font-weight="700" text-anchor="middle">N</text><text x="237.5" y="175" font-family="system-ui, sans-serif" font-size="15" fill="#1a1a17" font-weight="700" text-anchor="middle">S</text></g><path d="M159.3,148.0L158.1,145.0L156.3,140.0L154.7,134.8L153.2,129.3L151.9,123.7L150.9,118.0L150.0,112.0L149.4,105.8L149.0,99.5L148.8,93.1L148.8,86.6L149.1,80.0L149.7,73.4L150.5,66.7L151.6,60.2L153.0,53.7L154.6,47.4L156.6,41.3L158.8,35.6L161.4,31.2L164.2,27.3L167.3,23.8L170.7,20.8L174.4,18.3L178.3,16.3L182.5,14.8L186.9,13.9L191.5,13.7L196.2,14.0L201.1,14.8L206.1,16.3L211.1,18.3L216.1,20.8L221.0,23.7L225.8,27.0L230.5,30.7L235.0,34.6L239.3,38.8L243.4,43.2L247.2,47.8L250.8,52.4L254.1,57.1L257.1,61.8L259.8,66.6L262.2,71.1L264.3,75.2L266.1,79.3L267.6,83.3L268.9,87.4L269.9,91.4L270.6,95.5L271.0,99.6L271.2,103.7L271.2,107.8L270.9,112.0L270.4,116.3L269.6,120.6L268.7,124.9L267.5,129.3L266.2,133.7L264.7,138.2L263.0,142.7L261.1,147.1" fill="none" stroke="#1a1a17" stroke-width="1.7" stroke-linecap="round" stroke-linejoin="round" stroke-dasharray="none"></path><path d="M211.1,18.3 L203.6,18.4 L206.2,12.6 Z" fill="#1a1a17" stroke="none"></path><path d="M164.5,148.0L163.9,144.8L163.2,139.5L162.7,134.1L162.5,128.5L162.5,122.9L162.8,117.1L163.4,111.3L164.3,105.5L165.5,99.8L167.1,94.1L169.0,88.7L171.3,83.5L174.0,78.6L177.0,74.2L180.4,70.3L184.2,67.0L188.2,64.4L192.6,62.5L197.3,61.5L202.1,61.2L207.0,61.8L212.0,63.1L217.0,65.0L221.9,67.6L226.5,70.6L231.0,73.9L235.1,77.6L238.9,81.5L242.4,85.5L245.5,89.6L248.2,93.9L250.6,98.2L252.6,102.5L254.2,107.0L255.5,111.5L256.5,116.0L257.1,120.6L257.5,125.2L257.5,129.9L257.3,134.6L256.9,139.4L256.2,144.1L255.5,148.0" fill="none" stroke="#1a1a17" stroke-width="1.7" stroke-linecap="round" stroke-linejoin="round" stroke-dasharray="none"></path><path d="M209.5,62.4 L202.2,63.8 L203.8,57.6 Z" fill="#1a1a17" stroke="none"></path><path d="M169.2,148.0L169.3,144.8L169.7,139.5L170.4,134.1L171.5,128.8L172.8,123.5L174.5,118.2L176.6,113.2L179.2,108.4L182.1,104.0L185.5,100.1L189.3,96.7L193.5,94.1L198.0,92.2L202.8,91.2L207.7,91.1L212.7,91.8L217.6,93.3L222.4,95.5L226.9,98.2L231.0,101.4L234.8,105.0L238.1,108.9L241.1,113.0L243.5,117.3L245.6,121.8L247.3,126.3L248.6,131.0L249.6,135.7L250.3,140.5L250.7,145.4L250.8,148.0" fill="none" stroke="#1a1a17" stroke-width="1.7" stroke-linecap="round" stroke-linejoin="round" stroke-dasharray="none"></path><path d="M210.2,91.3 L203.0,93.5 L203.9,87.2 Z" fill="#1a1a17" stroke="none"></path><path d="M155.0,155.0L152.9,152.7L149.5,148.7L146.2,144.7L143.0,140.3L139.9,135.8L136.9,131.0L134.0,126.0L131.2,120.7L128.4,115.2L125.8,109.4L123.3,103.3L120.9,96.9L118.6,90.3L116.4,83.3L114.3,76.1L112.4,68.6L110.6,60.7L108.8,52.6L107.3,44.2L105.8,36.0L104.4,29.1L103.2,22.1L102.1,15.1L101.2,8.0L100.4,1.0L99.7,-6.1L99.2,-13.1L98.8,-20.2L98.5,-27.1L98.4,-34.1L98.4,-41.0L98.6,-47.8" fill="none" stroke="#1a1a17" stroke-width="1.7" stroke-linecap="round" stroke-linejoin="round" stroke-dasharray="none"></path><path d="M111.5,64.7 L116.1,70.6 L109.9,72.0 Z" fill="#1a1a17" stroke="none"></path><path d="M321.3,54.0L321.5,57.7L321.6,61.3L321.6,64.9L321.4,68.5L321.1,71.9L320.6,75.3L320.0,78.7L319.2,82.0L318.3,85.3L317.3,88.6L316.2,91.8L314.9,95.0L313.5,97.8L312.0,99.7L310.3,101.8L308.5,104.1L306.6,106.4L304.6,108.9L302.5,111.6L300.3,114.4L297.9,117.3L295.4,120.3L292.9,123.4L290.2,126.7L287.4,130.0L284.6,133.3L281.6,136.8L278.5,140.3L275.4,143.8L272.1,147.4L268.8,151.0L265.4,154.6" fill="none" stroke="#1a1a17" stroke-width="1.7" stroke-linecap="round" stroke-linejoin="round" stroke-dasharray="none"></path><path d="M307.6,105.2 L309.3,97.9 L314.3,101.9 Z" fill="#1a1a17" stroke="none"></path><path d="M159.3,192.0L158.1,195.0L156.3,200.0L154.7,205.2L153.2,210.7L151.9,216.3L150.9,222.0L150.0,228.0L149.4,234.2L149.0,240.5L148.8,246.9L148.8,253.4L149.1,260.0L149.7,266.6L150.5,273.3L151.6,279.8L153.0,286.3L154.6,292.6L156.6,298.7L158.8,304.4L161.4,308.8L164.2,312.7L167.3,316.2L170.7,319.2L174.4,321.7L178.3,323.7L182.5,325.2L186.9,326.1L191.5,326.3L196.2,326.0L201.1,325.2L206.1,323.7L211.1,321.7L216.1,319.2L221.0,316.3L225.8,313.0L230.5,309.3L235.0,305.4L239.3,301.2L243.4,296.8L247.2,292.2L250.8,287.6L254.1,282.9L257.1,278.2L259.8,273.4L262.2,268.9L264.3,264.8L266.1,260.7L267.6,256.7L268.9,252.6L269.9,248.6L270.6,244.5L271.0,240.4L271.2,236.3L271.2,232.2L270.9,228.0L270.4,223.7L269.6,219.4L268.7,215.1L267.5,210.7L266.2,206.3L264.7,201.8L263.0,197.3L261.1,192.9" fill="none" stroke="#1a1a17" stroke-width="1.7" stroke-linecap="round" stroke-linejoin="round" stroke-dasharray="none"></path><path d="M211.1,321.7 L206.2,327.4 L203.6,321.6 Z" fill="#1a1a17" stroke="none"></path><path d="M164.5,192.0L163.9,195.2L163.2,200.5L162.7,205.9L162.5,211.5L162.5,217.1L162.8,222.9L163.4,228.7L164.3,234.5L165.5,240.2L167.1,245.9L169.0,251.3L171.3,256.5L174.0,261.4L177.0,265.8L180.4,269.7L184.2,273.0L188.2,275.6L192.6,277.5L197.3,278.5L202.1,278.8L207.0,278.2L212.0,276.9L217.0,275.0L221.9,272.4L226.5,269.4L231.0,266.1L235.1,262.4L238.9,258.5L242.4,254.5L245.5,250.4L248.2,246.1L250.6,241.8L252.6,237.5L254.2,233.0L255.5,228.5L256.5,224.0L257.1,219.4L257.5,214.8L257.5,210.1L257.3,205.4L256.9,200.6L256.2,195.9L255.5,192.0" fill="none" stroke="#1a1a17" stroke-width="1.7" stroke-linecap="round" stroke-linejoin="round" stroke-dasharray="none"></path><path d="M209.5,277.6 L203.8,282.4 L202.2,276.2 Z" fill="#1a1a17" stroke="none"></path><path d="M169.2,192.0L169.3,195.2L169.7,200.5L170.4,205.9L171.5,211.2L172.8,216.5L174.5,221.8L176.6,226.8L179.2,231.6L182.1,236.0L185.5,239.9L189.3,243.3L193.5,245.9L198.0,247.8L202.8,248.8L207.7,248.9L212.7,248.2L217.6,246.7L222.4,244.5L226.9,241.8L231.0,238.6L234.8,235.0L238.1,231.1L241.1,227.0L243.5,222.7L245.6,218.2L247.3,213.7L248.6,209.0L249.6,204.3L250.3,199.5L250.7,194.6L250.8,192.0" fill="none" stroke="#1a1a17" stroke-width="1.7" stroke-linecap="round" stroke-linejoin="round" stroke-dasharray="none"></path><path d="M210.2,248.7 L203.9,252.8 L203.0,246.5 Z" fill="#1a1a17" stroke="none"></path><path d="M155.0,185.0L152.9,187.3L149.5,191.3L146.2,195.3L143.0,199.7L139.9,204.2L136.9,209.0L134.0,214.0L131.2,219.3L128.4,224.8L125.8,230.6L123.3,236.7L120.9,243.1L118.6,249.7L116.4,256.7L114.3,263.9L112.4,271.4L110.6,279.3L108.8,287.4L107.3,295.8L105.8,304.0L104.4,310.9L103.2,317.9L102.1,324.9L101.2,332.0L100.4,339.0L99.7,346.1L99.2,353.1L98.8,360.2L98.5,367.1L98.4,374.1L98.4,381.0L98.6,387.8" fill="none" stroke="#1a1a17" stroke-width="1.7" stroke-linecap="round" stroke-linejoin="round" stroke-dasharray="none"></path><path d="M111.5,275.3 L109.9,268.0 L116.1,269.4 Z" fill="#1a1a17" stroke="none"></path><path d="M321.3,286.0L321.5,282.3L321.6,278.7L321.6,275.1L321.4,271.5L321.1,268.1L320.6,264.7L320.0,261.3L319.2,258.0L318.3,254.7L317.3,251.4L316.2,248.2L314.9,245.0L313.5,242.2L312.0,240.3L310.3,238.2L308.5,235.9L306.6,233.6L304.6,231.1L302.5,228.4L300.3,225.6L297.9,222.7L295.4,219.7L292.9,216.6L290.2,213.3L287.4,210.0L284.6,206.7L281.6,203.2L278.5,199.7L275.4,196.2L272.1,192.6L268.8,189.0L265.4,185.4" fill="none" stroke="#1a1a17" stroke-width="1.7" stroke-linecap="round" stroke-linejoin="round" stroke-dasharray="none"></path><path d="M307.6,234.8 L314.3,238.1 L309.3,242.1 Z" fill="#1a1a17" stroke="none"></path><path d="M155.0,170.0L151.9,170.0L146.9,170.0L141.9,170.0L136.9,170.0L131.9,170.0L126.9,170.0L121.9,170.0L116.9,170.0L111.9,170.0L106.9,170.0L101.9,170.0L96.9,170.0L91.9,170.0L86.9,170.0L81.9,170.0L76.9,170.0L71.9,170.0L66.9,170.0L61.9,170.0L56.9,170.0L51.9,170.0L46.9,170.0L41.9,170.0L36.9,170.0L31.9,170.0L26.9,170.0L21.9,170.0L16.9,170.0L11.9,170.0" fill="none" stroke="#1a1a17" stroke-width="1.7" stroke-linecap="round" stroke-linejoin="round" stroke-dasharray="none"></path><path d="M84.4,170.0 L91.2,166.8 L91.2,173.2 Z" fill="#1a1a17" stroke="none"></path><path d="M408.1,170.0L403.1,170.0L398.1,170.0L393.1,170.0L388.1,170.0L383.1,170.0L378.1,170.0L373.1,170.0L368.1,170.0L363.1,170.0L358.1,170.0L353.1,170.0L348.1,170.0L343.1,170.0L338.1,170.0L333.1,170.0L328.1,170.0L323.1,170.0L318.1,170.0L313.1,170.0L308.1,170.0L303.1,170.0L298.1,170.0L293.1,170.0L288.1,170.0L283.1,170.0L278.1,170.0L273.1,170.0L268.1,170.0L265.0,170.0" fill="none" stroke="#1a1a17" stroke-width="1.7" stroke-linecap="round" stroke-linejoin="round" stroke-dasharray="none"></path><path d="M335.6,170.0 L342.4,166.8 L342.4,173.2 Z" fill="#1a1a17" stroke="none"></path></svg>