<svg xmlns="http://www.w3.org/2000/svg" viewBox="0 0 360 250" width="100%" preserveAspectRatio="xMidYMid meet" role="img" aria-label="Bar magnet and its magnetic field" class="td-svg" style="max-width:360px;height:auto;display:block;font-family:Georgia, serif"><title>Bar magnet and its magnetic field</title><g><rect x="125" y="103" width="55" height="44" rx="0" fill="rgba(176,48,48,.14)" stroke="none" stroke-width="0" stroke-dasharray="none"></rect><rect x="180" y="103" width="55" height="44" rx="0" fill="rgba(26,26,23,.08)" stroke="none" stroke-width="0" stroke-dasharray="none"></rect><rect x="125" y="103" width="110" height="44" rx="4" fill="none" stroke="#1a1a17" stroke-width="1.8" stroke-dasharray="none"></rect><line x1="180" y1="103" x2="180" y2="147" stroke="#1a1a17" stroke-width="1.2" stroke-linecap="round" stroke-dasharray="none"></line><text x="152.5" y="130" font-family="system-ui, sans-serif" font-size="15" fill="#1a1a17" font-weight="700" text-anchor="middle">N</text><text x="207.5" y="130" font-family="system-ui, sans-serif" font-size="15" fill="#1a1a17" font-weight="700" text-anchor="middle">S</text></g><path d="M122.0,101.0 C88.0,88.0 88.0,52.0 180.0,46.0 C272.0,52.0 272.0,88.0 238.0,101.0" fill="none" stroke="#1a1a17" stroke-width="1.9" stroke-linecap="round" stroke-linejoin="round" stroke-dasharray="none"></path><path d="M122.0,149.0 C88.0,162.0 88.0,198.0 180.0,204.0 C272.0,198.0 272.0,162.0 238.0,149.0" fill="none" stroke="#1a1a17" stroke-width="1.9" stroke-linecap="round" stroke-linejoin="round" stroke-dasharray="none"></path><path d="M180.0,46.0 L173.2,49.2 L173.2,42.8 Z" fill="#1a1a17" stroke="none"></path><path d="M180.0,204.0 L173.2,207.2 L173.2,200.8 Z" fill="#1a1a17" stroke="none"></path><path d="M120.0,99.0 C60.0,82.0 60.0,26.0 180.0,24.0 C300.0,26.0 300.0,82.0 240.0,99.0" fill="none" stroke="#1a1a17" stroke-width="1.6" stroke-linecap="round" stroke-linejoin="round" stroke-dasharray="none"></path><path d="M120.0,151.0 C60.0,168.0 60.0,224.0 180.0,226.0 C300.0,224.0 300.0,168.0 240.0,151.0" fill="none" stroke="#1a1a17" stroke-width="1.6" stroke-linecap="round" stroke-linejoin="round" stroke-dasharray="none"></path><path d="M180.0,24.0 L173.2,27.2 L173.2,20.8 Z" fill="#1a1a17" stroke="none"></path><path d="M180.0,226.0 L173.2,229.2 L173.2,222.8 Z" fill="#1a1a17" stroke="none"></path><path d="M118.0,97.0 C30.0,74.0 30.0,12.0 180.0,10.0 C330.0,12.0 330.0,74.0 242.0,97.0" fill="none" stroke="#1a1a17" stroke-width="1.6" stroke-linecap="round" stroke-linejoin="round" stroke-dasharray="none"></path><path d="M118.0,153.0 C30.0,176.0 30.0,238.0 180.0,240.0 C330.0,238.0 330.0,176.0 242.0,153.0" fill="none" stroke="#1a1a17" stroke-width="1.6" stroke-linecap="round" stroke-linejoin="round" stroke-dasharray="none"></path><path d="M180.0,10.0 L173.2,13.2 L173.2,6.8 Z" fill="#1a1a17" stroke="none"></path><path d="M180.0,240.0 L173.2,243.2 L173.2,236.8 Z" fill="#1a1a17" stroke="none"></path><line x1="44" y1="125" x2="118" y2="125" stroke="#1a1a17" stroke-width="1.6" stroke-linecap="round" stroke-dasharray="none"></line><line x1="242" y1="125" x2="316" y2="125" stroke="#1a1a17" stroke-width="1.6" stroke-linecap="round" stroke-dasharray="none"></line><path d="M78.0,125.0 L84.8,121.8 L84.8,128.2 Z" fill="#1a1a17" stroke="none"></path><path d="M282.0,125.0 L288.8,121.8 L288.8,128.2 Z" fill="#1a1a17" stroke="none"></path></svg>