<svg xmlns="http://www.w3.org/2000/svg" viewBox="0 0 380 270" width="100%" preserveAspectRatio="xMidYMid meet" role="img" aria-label="Plotting compasses around a bar magnet" class="td-svg" style="max-width:380px;height:auto;display:block;font-family:Georgia, serif"><title>Plotting compasses around a bar magnet</title><g><rect x="135" y="113" width="55" height="44" rx="0" fill="rgba(176,48,48,.14)" stroke="none" stroke-width="0" stroke-dasharray="none"></rect><rect x="190" y="113" width="55" height="44" rx="0" fill="rgba(26,26,23,.08)" stroke="none" stroke-width="0" stroke-dasharray="none"></rect><rect x="135" y="113" width="110" height="44" rx="4" fill="none" stroke="#1a1a17" stroke-width="1.8" stroke-dasharray="none"></rect><line x1="190" y1="113" x2="190" y2="157" stroke="#1a1a17" stroke-width="1.2" stroke-linecap="round" stroke-dasharray="none"></line><text x="162.5" y="140" font-family="system-ui, sans-serif" font-size="15" fill="#1a1a17" font-weight="700" text-anchor="middle">N</text><text x="217.5" y="140" font-family="system-ui, sans-serif" font-size="15" fill="#1a1a17" font-weight="700" text-anchor="middle">S</text></g><g><circle cx="62" cy="135" r="15" fill="rgba(244,238,222,.85)" stroke="#4d4943" stroke-width="1.6" stroke-dasharray="none"></circle><path d="M50.3,135.0 L62.0,131.1 L62.0,138.9 Z" fill="#b03030" stroke="none"></path><path d="M73.7,135.0 L62.0,131.1 L62.0,138.9 Z" fill="#4d4943" stroke="none"></path><circle cx="62" cy="135" r="1.8" fill="#1a1a17"></circle></g><g><circle cx="318" cy="135" r="15" fill="rgba(244,238,222,.85)" stroke="#4d4943" stroke-width="1.6" stroke-dasharray="none"></circle><path d="M306.3,135.0 L318.0,131.1 L318.0,138.9 Z" fill="#b03030" stroke="none"></path><path d="M329.7,135.0 L318.0,131.1 L318.0,138.9 Z" fill="#4d4943" stroke="none"></path><circle cx="318" cy="135" r="1.8" fill="#1a1a17"></circle></g><g><circle cx="190" cy="40" r="15" fill="rgba(244,238,222,.85)" stroke="#4d4943" stroke-width="1.6" stroke-dasharray="none"></circle><path d="M201.7,40.0 L190.0,43.9 L190.0,36.1 Z" fill="#b03030" stroke="none"></path><path d="M178.3,40.0 L190.0,43.9 L190.0,36.1 Z" fill="#4d4943" stroke="none"></path><circle cx="190" cy="40" r="1.8" fill="#1a1a17"></circle></g><g><circle cx="190" cy="230" r="15" fill="rgba(244,238,222,.85)" stroke="#4d4943" stroke-width="1.6" stroke-dasharray="none"></circle><path d="M201.7,230.0 L190.0,233.9 L190.0,226.1 Z" fill="#b03030" stroke="none"></path><path d="M178.3,230.0 L190.0,233.9 L190.0,226.1 Z" fill="#4d4943" stroke="none"></path><circle cx="190" cy="230" r="1.8" fill="#1a1a17"></circle></g><g><circle cx="92" cy="62" r="15" fill="rgba(244,238,222,.85)" stroke="#4d4943" stroke-width="1.6" stroke-dasharray="none"></circle><path d="M85.6,52.2 L95.3,59.9 L88.7,64.1 Z" fill="#b03030" stroke="none"></path><path d="M98.4,71.8 L95.3,59.9 L88.7,64.1 Z" fill="#4d4943" stroke="none"></path><circle cx="92" cy="62" r="1.8" fill="#1a1a17"></circle></g><g><circle cx="288" cy="62" r="15" fill="rgba(244,238,222,.85)" stroke="#4d4943" stroke-width="1.6" stroke-dasharray="none"></circle><path d="M281.6,71.8 L284.7,59.9 L291.3,64.1 Z" fill="#b03030" stroke="none"></path><path d="M294.4,52.2 L284.7,59.9 L291.3,64.1 Z" fill="#4d4943" stroke="none"></path><circle cx="288" cy="62" r="1.8" fill="#1a1a17"></circle></g><g><circle cx="92" cy="208" r="15" fill="rgba(244,238,222,.85)" stroke="#4d4943" stroke-width="1.6" stroke-dasharray="none"></circle><path d="M85.6,217.8 L88.7,205.9 L95.3,210.1 Z" fill="#b03030" stroke="none"></path><path d="M98.4,198.2 L88.7,205.9 L95.3,210.1 Z" fill="#4d4943" stroke="none"></path><circle cx="92" cy="208" r="1.8" fill="#1a1a17"></circle></g><g><circle cx="288" cy="208" r="15" fill="rgba(244,238,222,.85)" stroke="#4d4943" stroke-width="1.6" stroke-dasharray="none"></circle><path d="M281.6,198.2 L291.3,205.9 L284.7,210.1 Z" fill="#b03030" stroke="none"></path><path d="M294.4,217.8 L291.3,205.9 L284.7,210.1 Z" fill="#4d4943" stroke="none"></path><circle cx="288" cy="208" r="1.8" fill="#1a1a17"></circle></g></svg>