<svg xmlns="http://www.w3.org/2000/svg" viewBox="0 0 380 320" width="100%" preserveAspectRatio="xMidYMid meet" role="img" aria-label="The Earth as a bar magnet, with a compass" class="td-svg" style="max-width:380px;height:auto;display:block;font-family:Georgia, serif"><title>The Earth as a bar magnet, with a compass</title><line x1="180" y1="55" x2="180" y2="275" stroke="#8c8579" stroke-width="1.1" stroke-linecap="round" stroke-dasharray="5 4"></line><text x="180" y="49" font-family="system-ui, sans-serif" font-size="10.5" fill="#4d4943" text-anchor="middle">geographic North</text><circle cx="180" cy="165" r="88" fill="rgba(140,170,200,.10)" stroke="#1a1a17" stroke-width="1.8" stroke-dasharray="none"></circle><g transform="rotate(11 180 165)"><rect x="163" y="113" width="34" height="52" rx="0" fill="rgba(26,26,23,.08)" stroke="none" stroke-width="0" stroke-dasharray="none"></rect><rect x="163" y="165" width="34" height="52" rx="0" fill="rgba(176,48,48,.14)" stroke="none" stroke-width="0" stroke-dasharray="none"></rect><rect x="163" y="113" width="34" height="104" rx="4" fill="none" stroke="#1a1a17" stroke-width="1.8" stroke-dasharray="5 4"></rect><line x1="163" y1="165" x2="197" y2="165" stroke="#1a1a17" stroke-width="1.2" stroke-linecap="round" stroke-dasharray="5 4"></line><text x="180" y="144" font-family="system-ui, sans-serif" font-size="15" fill="#1a1a17" font-weight="700" text-anchor="middle">S</text><text x="180" y="196" font-family="system-ui, sans-serif" font-size="15" fill="#1a1a17" font-weight="700" text-anchor="middle">N</text></g><path d="M178.0,227.8 C281.7,260.2 310.0,114.9 201.6,106.0" fill="none" stroke="#1a1a17" stroke-width="1.5" stroke-linecap="round" stroke-linejoin="round" stroke-dasharray="none"></path><path d="M158.4,224.0 C50.0,215.1 78.3,69.8 182.0,102.2" fill="none" stroke="#1a1a17" stroke-width="1.5" stroke-linecap="round" stroke-linejoin="round" stroke-dasharray="none"></path><path d="M266.5,181.8 L268.2,188.6 L262.4,187.5 Z" fill="#1a1a17" stroke="none"></path><path d="M93.5,148.2 L95.2,155.0 L89.3,153.8 Z" fill="#1a1a17" stroke="none"></path><path d="M194.5,237.1 C328.8,269.3 357.1,124.0 220.5,103.6" fill="none" stroke="#1a1a17" stroke-width="1.5" stroke-linecap="round" stroke-linejoin="round" stroke-dasharray="none"></path><path d="M139.5,226.4 C2.9,206.0 31.2,60.7 165.5,92.9" fill="none" stroke="#1a1a17" stroke-width="1.5" stroke-linecap="round" stroke-linejoin="round" stroke-dasharray="none"></path><path d="M301.7,188.7 L303.4,195.4 L297.6,194.3 Z" fill="#1a1a17" stroke="none"></path><path d="M58.3,141.3 L60.0,148.1 L54.1,147.0 Z" fill="#1a1a17" stroke="none"></path><g><circle cx="322" cy="165" r="20" fill="rgba(244,238,222,.85)" stroke="#4d4943" stroke-width="1.6" stroke-dasharray="none"></circle><path d="M327.7,150.5 L326.8,166.9 L317.2,163.1 Z" fill="#b03030" stroke="none"></path><path d="M316.3,179.5 L326.8,166.9 L317.2,163.1 Z" fill="#4d4943" stroke="none"></path><circle cx="322" cy="165" r="1.8" fill="#1a1a17"></circle></g><text x="322" y="211" font-family="system-ui, sans-serif" font-size="10" fill="#8c8579" text-anchor="middle">compass</text><text x="190" y="312" font-family="system-ui, sans-serif" font-size="11" fill="#8c8579" text-anchor="middle">the magnetic pole near geographic North is a magnetic S pole</text></svg>