<svg xmlns="http://www.w3.org/2000/svg" viewBox="0 0 420 330" width="100%" preserveAspectRatio="xMidYMid meet" role="img" aria-label="d.c. motor, end-on, with split-ring commutator" class="td-svg" style="max-width:420px;height:auto;display:block;font-family:Georgia, serif"><title>d.c. motor, end-on, with split-ring commutator</title><rect x="20" y="70" width="52" height="160" rx="5" fill="rgba(176,48,48,.14)" stroke="#1a1a17" stroke-width="1.8" stroke-dasharray="none"></rect><rect x="348" y="70" width="52" height="160" rx="5" fill="rgba(26,26,23,.08)" stroke="#1a1a17" stroke-width="1.8" stroke-dasharray="none"></rect><text x="46" y="156" font-family="system-ui, sans-serif" font-size="17" fill="#1a1a17" font-weight="700" text-anchor="middle">N</text><text x="374" y="156" font-family="system-ui, sans-serif" font-size="17" fill="#1a1a17" font-weight="700" text-anchor="middle">S</text><line x1="80" y1="104" x2="340" y2="104" stroke="#8c8579" stroke-width="1.1" stroke-linecap="round" stroke-dasharray="none"></line><path d="M322.0,104.0 L316.1,106.8 L316.1,101.2 Z" fill="#8c8579" stroke="none"></path><line x1="80" y1="150" x2="340" y2="150" stroke="#8c8579" stroke-width="1.1" stroke-linecap="round" stroke-dasharray="none"></line><path d="M322.0,150.0 L316.1,152.8 L316.1,147.2 Z" fill="#8c8579" stroke="none"></path><line x1="80" y1="196" x2="340" y2="196" stroke="#8c8579" stroke-width="1.1" stroke-linecap="round" stroke-dasharray="none"></line><path d="M322.0,196.0 L316.1,198.8 L316.1,193.2 Z" fill="#8c8579" stroke="none"></path><line x1="136" y1="150" x2="284" y2="150" stroke="#4d4943" stroke-width="4.5" stroke-linecap="round" stroke-dasharray="none"></line><circle cx="210" cy="150" r="4.5" fill="#fffdf6" stroke="#1a1a17" stroke-width="1.6"></circle><g><circle cx="136" cy="150" r="10" fill="#fffdf6" stroke="#1a1a17" stroke-width="2.2" stroke-dasharray="none"></circle><circle cx="136" cy="150" r="2.2" fill="#1a1a17"></circle></g><g><circle cx="284" cy="150" r="10" fill="#fffdf6" stroke="#1a1a17" stroke-width="2.2" stroke-dasharray="none"></circle><line x1="277.8" y1="143.8" x2="290.2" y2="156.2" stroke="#1a1a17" stroke-width="2.2" stroke-linecap="round" stroke-dasharray="none"></line><line x1="290.2" y1="143.8" x2="277.8" y2="156.2" stroke="#1a1a17" stroke-width="2.2" stroke-linecap="round" stroke-dasharray="none"></line></g><text x="116" y="154" font-family="system-ui, sans-serif" font-size="12" fill="#4d4943" font-weight="700">A</text><text x="298" y="154" font-family="system-ui, sans-serif" font-size="12" fill="#4d4943" font-weight="700">B</text><g><line x1="136" y1="134" x2="136" y2="96.72" stroke="#b03030" stroke-width="3" stroke-linecap="round" stroke-dasharray="none"></line><path d="M136.0,90.0 L140.1,98.7 L131.9,98.7 Z" fill="#b03030" stroke="none"></path><text x="146" y="100" font-family="system-ui, sans-serif" font-size="12" fill="#b03030" text-anchor="start">F</text></g><g><line x1="284" y1="166" x2="284" y2="203.28" stroke="#b03030" stroke-width="3" stroke-linecap="round" stroke-dasharray="none"></line><path d="M284.0,210.0 L279.9,201.3 L288.1,201.3 Z" fill="#b03030" stroke="none"></path><text x="294" y="200" font-family="system-ui, sans-serif" font-size="12" fill="#b03030" text-anchor="start">F</text></g><path d="M99.8,309.7 A24,24 0 0 0 99.8,262.3" fill="none" stroke="#1a1a17" stroke-width="3" stroke-linecap="round" stroke-linejoin="round" stroke-dasharray="none"></path><path d="M92.2,262.3 A24,24 0 0 0 92.2,309.7" fill="none" stroke="#1a1a17" stroke-width="3" stroke-linecap="round" stroke-linejoin="round" stroke-dasharray="none"></path><rect x="56" y="279" width="13" height="14" rx="0" fill="rgba(26,26,23,.15)" stroke="#1a1a17" stroke-width="1.4" stroke-dasharray="none"></rect><rect x="123" y="279" width="13" height="14" rx="0" fill="rgba(26,26,23,.15)" stroke="#1a1a17" stroke-width="1.4" stroke-dasharray="none"></rect><line x1="56" y1="286" x2="38" y2="286" stroke="#1a1a17" stroke-width="1.4" stroke-linecap="round" stroke-dasharray="none"></line><line x1="136" y1="286" x2="154" y2="286" stroke="#1a1a17" stroke-width="1.4" stroke-linecap="round" stroke-dasharray="none"></line><text x="142" y="290" font-family="system-ui, sans-serif" font-size="9.5" fill="#8c8579" text-anchor="start">split-ring commutator + brushes</text><text x="210" y="322" font-family="system-ui, sans-serif" font-size="11" fill="#8c8579" text-anchor="middle">coil horizontal: maximum turning effect</text></svg>