<svg xmlns="http://www.w3.org/2000/svg" viewBox="0 0 420 330" width="100%" preserveAspectRatio="xMidYMid meet" role="img" aria-label="d.c. motor, end-on, with split-ring commutator" class="td-svg" style="max-width:420px;height:auto;display:block;font-family:Georgia, serif"><title>d.c. motor, end-on, with split-ring commutator</title><rect x="20" y="70" width="52" height="160" rx="5" fill="rgba(176,48,48,.14)" stroke="#1a1a17" stroke-width="1.8" stroke-dasharray="none"></rect><rect x="348" y="70" width="52" height="160" rx="5" fill="rgba(26,26,23,.08)" stroke="#1a1a17" stroke-width="1.8" stroke-dasharray="none"></rect><text x="46" y="156" font-family="system-ui, sans-serif" font-size="17" fill="#1a1a17" font-weight="700" text-anchor="middle">N</text><text x="374" y="156" font-family="system-ui, sans-serif" font-size="17" fill="#1a1a17" font-weight="700" text-anchor="middle">S</text><line x1="80" y1="104" x2="340" y2="104" stroke="#8c8579" stroke-width="1.1" stroke-linecap="round" stroke-dasharray="none"></line><path d="M322.0,104.0 L316.1,106.8 L316.1,101.2 Z" fill="#8c8579" stroke="none"></path><line x1="80" y1="150" x2="340" y2="150" stroke="#8c8579" stroke-width="1.1" stroke-linecap="round" stroke-dasharray="none"></line><path d="M322.0,150.0 L316.1,152.8 L316.1,147.2 Z" fill="#8c8579" stroke="none"></path><line x1="80" y1="196" x2="340" y2="196" stroke="#8c8579" stroke-width="1.1" stroke-linecap="round" stroke-dasharray="none"></line><path d="M322.0,196.0 L316.1,198.8 L316.1,193.2 Z" fill="#8c8579" stroke="none"></path><line x1="157.6740981921955" y1="97.67409819219549" x2="262.32590180780454" y2="202.3259018078045" stroke="#4d4943" stroke-width="4.5" stroke-linecap="round" stroke-dasharray="none"></line><circle cx="210" cy="150" r="4.5" fill="#fffdf6" stroke="#1a1a17" stroke-width="1.6"></circle><g><circle cx="157.6740981921955" cy="97.67409819219549" r="10" fill="#fffdf6" stroke="#1a1a17" stroke-width="2.2" stroke-dasharray="none"></circle><circle cx="157.6740981921955" cy="97.67409819219549" r="2.2" fill="#1a1a17"></circle></g><g><circle cx="262.32590180780454" cy="202.3259018078045" r="10" fill="#fffdf6" stroke="#1a1a17" stroke-width="2.2" stroke-dasharray="none"></circle><line x1="256.12590180780455" y1="196.12590180780452" x2="268.52590180780453" y2="208.5259018078045" stroke="#1a1a17" stroke-width="2.2" stroke-linecap="round" stroke-dasharray="none"></line><line x1="268.52590180780453" y1="196.12590180780452" x2="256.12590180780455" y2="208.5259018078045" stroke="#1a1a17" stroke-width="2.2" stroke-linecap="round" stroke-dasharray="none"></line></g><text x="137.6740981921955" y="101.67409819219549" font-family="system-ui, sans-serif" font-size="12" fill="#4d4943" font-weight="700">A</text><text x="276.32590180780454" y="206.3259018078045" font-family="system-ui, sans-serif" font-size="12" fill="#4d4943" font-weight="700">B</text><g><line x1="157.6740981921955" y1="81.67409819219549" x2="157.6740981921955" y2="44.394098192195486" stroke="#b03030" stroke-width="3" stroke-linecap="round" stroke-dasharray="none"></line><path d="M157.7,37.7 L161.8,46.4 L153.6,46.4 Z" fill="#b03030" stroke="none"></path><text x="167.6740981921955" y="47.67409819219549" font-family="system-ui, sans-serif" font-size="12" fill="#b03030" text-anchor="start">F</text></g><g><line x1="262.32590180780454" y1="218.3259018078045" x2="262.32590180780454" y2="255.60590180780449" stroke="#b03030" stroke-width="3" stroke-linecap="round" stroke-dasharray="none"></line><path d="M262.3,262.3 L258.2,253.6 L266.4,253.6 Z" fill="#b03030" stroke="none"></path><text x="272.32590180780454" y="252.32590180780448" font-family="system-ui, sans-serif" font-size="12" fill="#b03030" text-anchor="start">F</text></g><path d="M115.5,300.1 A24,24 0 0 0 81.9,266.5" fill="none" stroke="#1a1a17" stroke-width="3" stroke-linecap="round" stroke-linejoin="round" stroke-dasharray="none"></path><path d="M76.5,271.9 A24,24 0 0 0 110.1,305.5" fill="none" stroke="#1a1a17" stroke-width="3" stroke-linecap="round" stroke-linejoin="round" stroke-dasharray="none"></path><rect x="56" y="279" width="13" height="14" rx="0" fill="rgba(26,26,23,.15)" stroke="#1a1a17" stroke-width="1.4" stroke-dasharray="none"></rect><rect x="123" y="279" width="13" height="14" rx="0" fill="rgba(26,26,23,.15)" stroke="#1a1a17" stroke-width="1.4" stroke-dasharray="none"></rect><line x1="56" y1="286" x2="38" y2="286" stroke="#1a1a17" stroke-width="1.4" stroke-linecap="round" stroke-dasharray="none"></line><line x1="136" y1="286" x2="154" y2="286" stroke="#1a1a17" stroke-width="1.4" stroke-linecap="round" stroke-dasharray="none"></line><text x="142" y="290" font-family="system-ui, sans-serif" font-size="9.5" fill="#8c8579" text-anchor="start">split-ring commutator + brushes</text><text x="210" y="322" font-family="system-ui, sans-serif" font-size="11" fill="#8c8579" text-anchor="middle">turning effect reduced as the coil turns</text></svg>