<svg xmlns="http://www.w3.org/2000/svg" viewBox="0 0 400 330" width="100%" preserveAspectRatio="xMidYMid meet" role="img" aria-label="Fleming's left-hand rule" class="td-svg" style="max-width:400px;height:auto;display:block;font-family:Georgia, serif"><title>Fleming's left-hand rule</title><rect x="168" y="188" width="92" height="92" rx="20" fill="rgba(244,238,222,.9)" stroke="#1a1a17" stroke-width="2" stroke-dasharray="none"></rect><rect x="186" y="272" width="58" height="50" rx="12" fill="rgba(244,238,222,.9)" stroke="#1a1a17" stroke-width="2" stroke-dasharray="none"></rect><ellipse cx="262" cy="218" rx="15" ry="12" fill="rgba(244,238,222,.9)" stroke="#1a1a17" stroke-width="2"></ellipse><ellipse cx="259" cy="244" rx="13" ry="11" fill="rgba(244,238,222,.9)" stroke="#1a1a17" stroke-width="2"></ellipse><rect x="164" y="96" width="28" height="102" rx="14" fill="rgba(244,238,222,.9)" stroke="#1a1a17" stroke-width="2" stroke-dasharray="none"></rect><rect x="250" y="168" width="112" height="28" rx="14" fill="rgba(244,238,222,.9)" stroke="#1a1a17" stroke-width="2" stroke-dasharray="none"></rect><circle cx="216" cy="178" r="17" fill="rgba(244,238,222,.9)" stroke="#1a1a17" stroke-width="2" stroke-dasharray="none"></circle><circle cx="216" cy="178" r="9" fill="none" stroke="#4d4943" stroke-width="1.4" stroke-dasharray="none"></circle><circle cx="216" cy="178" r="2.6" fill="#1a1a17"></circle><g><line x1="178" y1="88" x2="178" y2="36.72" stroke="#b03030" stroke-width="3" stroke-linecap="round" stroke-dasharray="none"></line><path d="M178.0,30.0 L182.1,38.7 L173.9,38.7 Z" fill="#b03030" stroke="none"></path><text x="190" y="37" font-family="system-ui, sans-serif" font-size="12.5" fill="#b03030" text-anchor="start">Force / Motion</text></g><g><line x1="366" y1="182" x2="387.28" y2="182" stroke="#1a1a17" stroke-width="3" stroke-linecap="round" stroke-dasharray="none"></line><path d="M394.0,182.0 L385.3,186.1 L385.3,177.9 Z" fill="#1a1a17" stroke="none"></path></g><text x="330" y="216" font-family="system-ui, sans-serif" font-size="12.5" fill="#1a1a17" text-anchor="middle">Field (N to S)</text><line x1="216" y1="152" x2="216" y2="120" stroke="#2d6a3f" stroke-width="1.4" stroke-linecap="round" stroke-dasharray="3 3"></line><g><circle cx="216" cy="106" r="11" fill="#fffdf6" stroke="#2d6a3f" stroke-width="2" stroke-dasharray="none"></circle><circle cx="216" cy="106" r="2.42" fill="#2d6a3f"></circle></g><text x="216" y="84" font-family="system-ui, sans-serif" font-size="12.5" fill="#2d6a3f" text-anchor="middle">Current</text><text x="216" y="132" font-family="system-ui, sans-serif" font-size="9.5" fill="#2d6a3f" text-anchor="middle">(out of the page)</text><text x="200" y="322" font-family="system-ui, sans-serif" font-size="11" fill="#8c8579" text-anchor="middle">thuMb = Motion   First finger = Field   seCond finger = Current</text></svg>