<svg xmlns="http://www.w3.org/2000/svg" viewBox="0 0 360 290" width="100%" preserveAspectRatio="xMidYMid meet" role="img" aria-label="Magnet inducing magnetism in a chain of paperclips" class="td-svg" style="max-width:360px;height:auto;display:block;font-family:Georgia, serif"><title>Magnet inducing magnetism in a chain of paperclips</title><g><rect x="160" y="2" width="44" height="39" rx="0" fill="rgba(26,26,23,.08)" stroke="none" stroke-width="0" stroke-dasharray="none"></rect><rect x="160" y="41" width="44" height="39" rx="0" fill="rgba(176,48,48,.14)" stroke="none" stroke-width="0" stroke-dasharray="none"></rect><rect x="160" y="2" width="44" height="78" rx="4" fill="none" stroke="#1a1a17" stroke-width="1.8" stroke-dasharray="5 4"></rect><line x1="160" y1="41" x2="204" y2="41" stroke="#1a1a17" stroke-width="1.2" stroke-linecap="round" stroke-dasharray="5 4"></line><text x="182" y="26.5" font-family="system-ui, sans-serif" font-size="15" fill="#1a1a17" font-weight="700" text-anchor="middle">S</text><text x="182" y="65.5" font-family="system-ui, sans-serif" font-size="15" fill="#1a1a17" font-weight="700" text-anchor="middle">N</text></g><g><line x1="236" y1="92" x2="236" y2="48.9" stroke="#8c8579" stroke-width="2" stroke-linecap="round" stroke-dasharray="none"></line><path d="M236.0,44.0 L239.0,50.3 L233.0,50.3 Z" fill="#8c8579" stroke="none"></path><text x="244" y="50" font-family="system-ui, sans-serif" font-size="10.5" fill="#8c8579" text-anchor="start">magnet removed</text></g><g transform="translate(152,158) rotate(-22)"><ellipse cx="0" cy="0" rx="11" ry="17" fill="none" stroke="#1a1a17" stroke-width="1.8"></ellipse><ellipse cx="0" cy="-2.5" rx="6.5" ry="11" fill="none" stroke="#4d4943" stroke-width="1.2"></ellipse></g><g transform="translate(226,208) rotate(28)"><ellipse cx="0" cy="0" rx="11" ry="17" fill="none" stroke="#1a1a17" stroke-width="1.8"></ellipse><ellipse cx="0" cy="-2.5" rx="6.5" ry="11" fill="none" stroke="#4d4943" stroke-width="1.2"></ellipse></g><g transform="translate(140,258) rotate(-22)"><ellipse cx="0" cy="0" rx="11" ry="17" fill="none" stroke="#1a1a17" stroke-width="1.8"></ellipse><ellipse cx="0" cy="-2.5" rx="6.5" ry="11" fill="none" stroke="#4d4943" stroke-width="1.2"></ellipse></g><text x="180" y="282" font-family="system-ui, sans-serif" font-size="11" fill="#8c8579" text-anchor="middle">soft iron: induced magnetism is temporary, the clips fall</text></svg>