<svg xmlns="http://www.w3.org/2000/svg" viewBox="0 0 380 270" width="100%" preserveAspectRatio="xMidYMid meet" role="img" aria-label="Plotting compasses mapping the field" class="td-svg" style="max-width:380px;height:auto;display:block;font-family:Georgia, serif"><title>Plotting compasses mapping the field</title><g><rect x="135" y="113" width="55" height="44" rx="0" fill="rgba(176,48,48,.14)" stroke="none" stroke-width="0" stroke-dasharray="none"></rect><rect x="190" y="113" width="55" height="44" rx="0" fill="rgba(26,26,23,.08)" stroke="none" stroke-width="0" stroke-dasharray="none"></rect><rect x="135" y="113" width="110" height="44" rx="4" fill="none" stroke="#1a1a17" stroke-width="1.8" stroke-dasharray="none"></rect><line x1="190" y1="113" x2="190" y2="157" stroke="#1a1a17" stroke-width="1.2" stroke-linecap="round" stroke-dasharray="none"></line><text x="162.5" y="140" font-family="system-ui, sans-serif" font-size="15" fill="#1a1a17" font-weight="700" text-anchor="middle">N</text><text x="217.5" y="140" font-family="system-ui, sans-serif" font-size="15" fill="#1a1a17" font-weight="700" text-anchor="middle">S</text></g><g><circle cx="56" cy="44" r="12.5" fill="rgba(244,238,222,.85)" stroke="#4d4943" stroke-width="1.6" stroke-dasharray="none"></circle><path d="M50.1,36.2 L58.6,42.0 L53.4,46.0 Z" fill="#b03030" stroke="none"></path><path d="M61.9,51.8 L58.6,42.0 L53.4,46.0 Z" fill="#4d4943" stroke="none"></path><circle cx="56" cy="44" r="1.8" fill="#1a1a17"></circle></g><g><circle cx="123" cy="44" r="12.5" fill="rgba(244,238,222,.85)" stroke="#4d4943" stroke-width="1.6" stroke-dasharray="none"></circle><path d="M122.6,34.3 L126.2,43.9 L119.8,44.1 Z" fill="#b03030" stroke="none"></path><path d="M123.4,53.7 L126.2,43.9 L119.8,44.1 Z" fill="#4d4943" stroke="none"></path><circle cx="123" cy="44" r="1.8" fill="#1a1a17"></circle></g><g><circle cx="190" cy="44" r="12.5" fill="rgba(244,238,222,.85)" stroke="#4d4943" stroke-width="1.6" stroke-dasharray="none"></circle><path d="M199.8,44.0 L190.0,47.3 L190.0,40.8 Z" fill="#b03030" stroke="none"></path><path d="M180.3,44.0 L190.0,47.3 L190.0,40.8 Z" fill="#4d4943" stroke="none"></path><circle cx="190" cy="44" r="1.8" fill="#1a1a17"></circle></g><g><circle cx="257" cy="44" r="12.5" fill="rgba(244,238,222,.85)" stroke="#4d4943" stroke-width="1.6" stroke-dasharray="none"></circle><path d="M256.6,53.7 L253.8,43.9 L260.2,44.1 Z" fill="#b03030" stroke="none"></path><path d="M257.4,34.3 L253.8,43.9 L260.2,44.1 Z" fill="#4d4943" stroke="none"></path><circle cx="257" cy="44" r="1.8" fill="#1a1a17"></circle></g><g><circle cx="324" cy="44" r="12.5" fill="rgba(244,238,222,.85)" stroke="#4d4943" stroke-width="1.6" stroke-dasharray="none"></circle><path d="M318.1,51.8 L321.4,42.0 L326.6,46.0 Z" fill="#b03030" stroke="none"></path><path d="M329.9,36.2 L321.4,42.0 L326.6,46.0 Z" fill="#4d4943" stroke="none"></path><circle cx="324" cy="44" r="1.8" fill="#1a1a17"></circle></g><g><circle cx="56" cy="90" r="12.5" fill="rgba(244,238,222,.85)" stroke="#4d4943" stroke-width="1.6" stroke-dasharray="none"></circle><path d="M47.4,85.4 L57.5,87.1 L54.5,92.9 Z" fill="#b03030" stroke="none"></path><path d="M64.6,94.6 L57.5,87.1 L54.5,92.9 Z" fill="#4d4943" stroke="none"></path><circle cx="56" cy="90" r="1.8" fill="#1a1a17"></circle></g><g><circle cx="123" cy="90" r="12.5" fill="rgba(244,238,222,.85)" stroke="#4d4943" stroke-width="1.6" stroke-dasharray="none"></circle><path d="M117.1,82.3 L125.6,88.0 L120.4,92.0 Z" fill="#b03030" stroke="none"></path><path d="M128.9,97.7 L125.6,88.0 L120.4,92.0 Z" fill="#4d4943" stroke="none"></path><circle cx="123" cy="90" r="1.8" fill="#1a1a17"></circle></g><g><circle cx="190" cy="90" r="12.5" fill="rgba(244,238,222,.85)" stroke="#4d4943" stroke-width="1.6" stroke-dasharray="none"></circle><path d="M199.8,90.0 L190.0,93.3 L190.0,86.8 Z" fill="#b03030" stroke="none"></path><path d="M180.3,90.0 L190.0,93.3 L190.0,86.8 Z" fill="#4d4943" stroke="none"></path><circle cx="190" cy="90" r="1.8" fill="#1a1a17"></circle></g><g><circle cx="257" cy="90" r="12.5" fill="rgba(244,238,222,.85)" stroke="#4d4943" stroke-width="1.6" stroke-dasharray="none"></circle><path d="M251.1,97.7 L254.4,88.0 L259.6,92.0 Z" fill="#b03030" stroke="none"></path><path d="M262.9,82.3 L254.4,88.0 L259.6,92.0 Z" fill="#4d4943" stroke="none"></path><circle cx="257" cy="90" r="1.8" fill="#1a1a17"></circle></g><g><circle cx="324" cy="90" r="12.5" fill="rgba(244,238,222,.85)" stroke="#4d4943" stroke-width="1.6" stroke-dasharray="none"></circle><path d="M315.4,94.6 L322.5,87.1 L325.5,92.9 Z" fill="#b03030" stroke="none"></path><path d="M332.6,85.4 L322.5,87.1 L325.5,92.9 Z" fill="#4d4943" stroke="none"></path><circle cx="324" cy="90" r="1.8" fill="#1a1a17"></circle></g><g><circle cx="56" cy="135" r="12.5" fill="rgba(244,238,222,.85)" stroke="#4d4943" stroke-width="1.6" stroke-dasharray="none"></circle><path d="M46.3,135.0 L56.0,131.8 L56.0,138.3 Z" fill="#b03030" stroke="none"></path><path d="M65.8,135.0 L56.0,131.8 L56.0,138.3 Z" fill="#4d4943" stroke="none"></path><circle cx="56" cy="135" r="1.8" fill="#1a1a17"></circle></g><g><circle cx="324" cy="135" r="12.5" fill="rgba(244,238,222,.85)" stroke="#4d4943" stroke-width="1.6" stroke-dasharray="none"></circle><path d="M314.3,135.0 L324.0,131.8 L324.0,138.3 Z" fill="#b03030" stroke="none"></path><path d="M333.8,135.0 L324.0,131.8 L324.0,138.3 Z" fill="#4d4943" stroke="none"></path><circle cx="324" cy="135" r="1.8" fill="#1a1a17"></circle></g><g><circle cx="56" cy="180" r="12.5" fill="rgba(244,238,222,.85)" stroke="#4d4943" stroke-width="1.6" stroke-dasharray="none"></circle><path d="M47.4,184.6 L54.5,177.1 L57.5,182.9 Z" fill="#b03030" stroke="none"></path><path d="M64.6,175.4 L54.5,177.1 L57.5,182.9 Z" fill="#4d4943" stroke="none"></path><circle cx="56" cy="180" r="1.8" fill="#1a1a17"></circle></g><g><circle cx="123" cy="180" r="12.5" fill="rgba(244,238,222,.85)" stroke="#4d4943" stroke-width="1.6" stroke-dasharray="none"></circle><path d="M117.1,187.7 L120.4,178.0 L125.6,182.0 Z" fill="#b03030" stroke="none"></path><path d="M128.9,172.3 L120.4,178.0 L125.6,182.0 Z" fill="#4d4943" stroke="none"></path><circle cx="123" cy="180" r="1.8" fill="#1a1a17"></circle></g><g><circle cx="190" cy="180" r="12.5" fill="rgba(244,238,222,.85)" stroke="#4d4943" stroke-width="1.6" stroke-dasharray="none"></circle><path d="M199.8,180.0 L190.0,183.3 L190.0,176.8 Z" fill="#b03030" stroke="none"></path><path d="M180.3,180.0 L190.0,183.3 L190.0,176.8 Z" fill="#4d4943" stroke="none"></path><circle cx="190" cy="180" r="1.8" fill="#1a1a17"></circle></g><g><circle cx="257" cy="180" r="12.5" fill="rgba(244,238,222,.85)" stroke="#4d4943" stroke-width="1.6" stroke-dasharray="none"></circle><path d="M251.1,172.3 L259.6,178.0 L254.4,182.0 Z" fill="#b03030" stroke="none"></path><path d="M262.9,187.7 L259.6,178.0 L254.4,182.0 Z" fill="#4d4943" stroke="none"></path><circle cx="257" cy="180" r="1.8" fill="#1a1a17"></circle></g><g><circle cx="324" cy="180" r="12.5" fill="rgba(244,238,222,.85)" stroke="#4d4943" stroke-width="1.6" stroke-dasharray="none"></circle><path d="M315.4,175.4 L325.5,177.1 L322.5,182.9 Z" fill="#b03030" stroke="none"></path><path d="M332.6,184.6 L325.5,177.1 L322.5,182.9 Z" fill="#4d4943" stroke="none"></path><circle cx="324" cy="180" r="1.8" fill="#1a1a17"></circle></g><g><circle cx="56" cy="226" r="12.5" fill="rgba(244,238,222,.85)" stroke="#4d4943" stroke-width="1.6" stroke-dasharray="none"></circle><path d="M50.1,233.8 L53.4,224.0 L58.6,228.0 Z" fill="#b03030" stroke="none"></path><path d="M61.9,218.2 L53.4,224.0 L58.6,228.0 Z" fill="#4d4943" stroke="none"></path><circle cx="56" cy="226" r="1.8" fill="#1a1a17"></circle></g><g><circle cx="123" cy="226" r="12.5" fill="rgba(244,238,222,.85)" stroke="#4d4943" stroke-width="1.6" stroke-dasharray="none"></circle><path d="M122.6,235.7 L119.8,225.9 L126.2,226.1 Z" fill="#b03030" stroke="none"></path><path d="M123.4,216.3 L119.8,225.9 L126.2,226.1 Z" fill="#4d4943" stroke="none"></path><circle cx="123" cy="226" r="1.8" fill="#1a1a17"></circle></g><g><circle cx="190" cy="226" r="12.5" fill="rgba(244,238,222,.85)" stroke="#4d4943" stroke-width="1.6" stroke-dasharray="none"></circle><path d="M199.8,226.0 L190.0,229.3 L190.0,222.8 Z" fill="#b03030" stroke="none"></path><path d="M180.3,226.0 L190.0,229.3 L190.0,222.8 Z" fill="#4d4943" stroke="none"></path><circle cx="190" cy="226" r="1.8" fill="#1a1a17"></circle></g><g><circle cx="257" cy="226" r="12.5" fill="rgba(244,238,222,.85)" stroke="#4d4943" stroke-width="1.6" stroke-dasharray="none"></circle><path d="M256.6,216.3 L260.2,225.9 L253.8,226.1 Z" fill="#b03030" stroke="none"></path><path d="M257.4,235.7 L260.2,225.9 L253.8,226.1 Z" fill="#4d4943" stroke="none"></path><circle cx="257" cy="226" r="1.8" fill="#1a1a17"></circle></g><g><circle cx="324" cy="226" r="12.5" fill="rgba(244,238,222,.85)" stroke="#4d4943" stroke-width="1.6" stroke-dasharray="none"></circle><path d="M318.1,218.2 L326.6,224.0 L321.4,228.0 Z" fill="#b03030" stroke="none"></path><path d="M329.9,233.8 L326.6,224.0 L321.4,228.0 Z" fill="#4d4943" stroke="none"></path><circle cx="324" cy="226" r="1.8" fill="#1a1a17"></circle></g><text x="190" y="262" font-family="system-ui, sans-serif" font-size="11" fill="#8c8579" text-anchor="middle">move the compass, dot the N end, join the dots</text></svg>