<svg xmlns="http://www.w3.org/2000/svg" viewBox="0 0 430 276" width="100%" preserveAspectRatio="xMidYMid meet" role="img" aria-label="Which materials does a magnet attract?" class="td-svg" style="max-width:430px;height:auto;display:block;font-family:Georgia, serif"><title>Which materials does a magnet attract?</title><g><rect x="20" y="116" width="55" height="44" rx="0" fill="rgba(26,26,23,.08)" stroke="none" stroke-width="0" stroke-dasharray="none"></rect><rect x="75" y="116" width="55" height="44" rx="0" fill="rgba(176,48,48,.14)" stroke="none" stroke-width="0" stroke-dasharray="none"></rect><rect x="20" y="116" width="110" height="44" rx="4" fill="none" stroke="#1a1a17" stroke-width="1.8" stroke-dasharray="none"></rect><line x1="75" y1="116" x2="75" y2="160" stroke="#1a1a17" stroke-width="1.2" stroke-linecap="round" stroke-dasharray="none"></line><text x="47.5" y="143" font-family="system-ui, sans-serif" font-size="15" fill="#1a1a17" font-weight="700" text-anchor="middle">S</text><text x="102.5" y="143" font-family="system-ui, sans-serif" font-size="15" fill="#1a1a17" font-weight="700" text-anchor="middle">N</text></g><g transform="translate(230,46)"><line x1="-14" y1="-6" x2="-14" y2="6" stroke="#1a1a17" stroke-width="2.6" stroke-linecap="round" stroke-dasharray="none"></line><path d="M-14,-3 L8,-3 L16,0 L8,3 L-14,3 Z" fill="rgba(140,133,121,.2)" stroke="#1a1a17" stroke-width="1.4" stroke-linecap="round" stroke-linejoin="round" stroke-dasharray="none"></path></g><text x="230" y="74" font-family="system-ui, sans-serif" font-size="10" fill="#4d4943" text-anchor="middle">iron nail</text><line x1="178" y1="46" x2="206" y2="46" stroke="#b03030" stroke-width="2.2" stroke-linecap="round" stroke-dasharray="none"></line><path d="M178.0,46.0 L184.8,42.8 L184.8,49.2 Z" fill="#b03030" stroke="none"></path><g transform="translate(335,46)"><ellipse cx="0" cy="0" rx="8" ry="13" fill="none" stroke="#1a1a17" stroke-width="1.8"></ellipse><ellipse cx="0" cy="-2" rx="4.5" ry="8" fill="none" stroke="#4d4943" stroke-width="1.1"></ellipse></g><text x="335" y="74" font-family="system-ui, sans-serif" font-size="10" fill="#4d4943" text-anchor="middle">steel paperclip</text><line x1="283" y1="46" x2="311" y2="46" stroke="#b03030" stroke-width="2.2" stroke-linecap="round" stroke-dasharray="none"></line><path d="M283.0,46.0 L289.8,42.8 L289.8,49.2 Z" fill="#b03030" stroke="none"></path><g transform="translate(230,104)"><circle cx="0" cy="0" r="11" fill="rgba(140,133,121,.15)" stroke="#1a1a17" stroke-width="1.8" stroke-dasharray="none"></circle><circle cx="0" cy="0" r="7.5" fill="none" stroke="#4d4943" stroke-width="0.9" stroke-dasharray="none"></circle></g><text x="230" y="132" font-family="system-ui, sans-serif" font-size="10" fill="#4d4943" text-anchor="middle">cobalt disc</text><line x1="178" y1="104" x2="206" y2="104" stroke="#b03030" stroke-width="2.2" stroke-linecap="round" stroke-dasharray="none"></line><path d="M178.0,104.0 L184.8,100.8 L184.8,107.2 Z" fill="#b03030" stroke="none"></path><g transform="translate(335,104)"><circle cx="0" cy="0" r="11" fill="rgba(140,133,121,.15)" stroke="#1a1a17" stroke-width="1.8" stroke-dasharray="none"></circle><circle cx="0" cy="0" r="7.5" fill="none" stroke="#4d4943" stroke-width="0.9" stroke-dasharray="none"></circle></g><text x="335" y="132" font-family="system-ui, sans-serif" font-size="10" fill="#4d4943" text-anchor="middle">nickel coin</text><line x1="283" y1="104" x2="311" y2="104" stroke="#b03030" stroke-width="2.2" stroke-linecap="round" stroke-dasharray="none"></line><path d="M283.0,104.0 L289.8,100.8 L289.8,107.2 Z" fill="#b03030" stroke="none"></path><g transform="translate(230,162)"><circle cx="0" cy="0" r="11" fill="rgba(176,86,48,.18)" stroke="#1a1a17" stroke-width="1.8" stroke-dasharray="none"></circle><circle cx="0" cy="0" r="7.5" fill="none" stroke="#4d4943" stroke-width="0.9" stroke-dasharray="none"></circle></g><text x="230" y="190" font-family="system-ui, sans-serif" font-size="10" fill="#4d4943" text-anchor="middle">copper coin</text><text x="192" y="166" font-family="system-ui, sans-serif" font-size="9.5" fill="#8c8579" text-anchor="middle">stays</text><g transform="translate(335,162)"><rect x="-8" y="-13" width="16" height="26" rx="4" fill="rgba(140,133,121,.12)" stroke="#1a1a17" stroke-width="1.8" stroke-dasharray="none"></rect><line x1="-8" y1="-8" x2="8" y2="-8" stroke="#1a1a17" stroke-width="1" stroke-linecap="round" stroke-dasharray="none"></line></g><text x="335" y="190" font-family="system-ui, sans-serif" font-size="10" fill="#4d4943" text-anchor="middle">aluminium can</text><text x="297" y="166" font-family="system-ui, sans-serif" font-size="9.5" fill="#8c8579" text-anchor="middle">stays</text><g transform="translate(230,220)"><rect x="-16" y="-5" width="32" height="10" rx="2" fill="none" stroke="#1a1a17" stroke-width="1.6" stroke-dasharray="none"></rect><line x1="-10" y1="-5" x2="-10" y2="-1" stroke="#1a1a17" stroke-width="1" stroke-linecap="round" stroke-dasharray="none"></line><line x1="-4" y1="-5" x2="-4" y2="-1" stroke="#1a1a17" stroke-width="1" stroke-linecap="round" stroke-dasharray="none"></line><line x1="2" y1="-5" x2="2" y2="-1" stroke="#1a1a17" stroke-width="1" stroke-linecap="round" stroke-dasharray="none"></line><line x1="8" y1="-5" x2="8" y2="-1" stroke="#1a1a17" stroke-width="1" stroke-linecap="round" stroke-dasharray="none"></line></g><text x="230" y="248" font-family="system-ui, sans-serif" font-size="10" fill="#4d4943" text-anchor="middle">plastic ruler</text><text x="192" y="224" font-family="system-ui, sans-serif" font-size="9.5" fill="#8c8579" text-anchor="middle">stays</text><g transform="translate(335,220)"><rect x="-13" y="-9" width="26" height="18" rx="2" fill="rgba(176,138,48,.12)" stroke="#1a1a17" stroke-width="1.6" stroke-dasharray="none"></rect><path d="M-9,-4 C-2,-7 4,-1 9,-4" fill="none" stroke="#4d4943" stroke-width="0.9" stroke-linecap="round" stroke-linejoin="round" stroke-dasharray="none"></path><path d="M-9,3 C-2,0 4,6 9,3" fill="none" stroke="#4d4943" stroke-width="0.9" stroke-linecap="round" stroke-linejoin="round" stroke-dasharray="none"></path></g><text x="335" y="248" font-family="system-ui, sans-serif" font-size="10" fill="#4d4943" text-anchor="middle">wooden block</text><text x="297" y="224" font-family="system-ui, sans-serif" font-size="9.5" fill="#8c8579" text-anchor="middle">stays</text><text x="215" y="268" font-family="system-ui, sans-serif" font-size="11" fill="#8c8579" text-anchor="middle">arrow = attracted toward the magnet</text></svg>