<svg xmlns="http://www.w3.org/2000/svg" viewBox="0 0 400 280" width="100%" preserveAspectRatio="xMidYMid meet" role="img" aria-label="Motor effect: wire in a magnetic field" class="td-svg" style="max-width:400px;height:auto;display:block;font-family:Georgia, serif"><title>Motor effect: wire in a magnetic field</title><rect x="124" y="92" width="44" height="92" rx="5" fill="rgba(176,48,48,.14)" stroke="#1a1a17" stroke-width="1.8" stroke-dasharray="none"></rect><rect x="232" y="92" width="44" height="92" rx="5" fill="rgba(26,26,23,.08)" stroke="#1a1a17" stroke-width="1.8" stroke-dasharray="none"></rect><text x="146" y="144" font-family="system-ui, sans-serif" font-size="17" fill="#1a1a17" font-weight="700" text-anchor="middle">N</text><text x="254" y="144" font-family="system-ui, sans-serif" font-size="17" fill="#1a1a17" font-weight="700" text-anchor="middle">S</text><line x1="174" y1="115" x2="226" y2="115" stroke="#8c8579" stroke-width="1.2" stroke-linecap="round" stroke-dasharray="none"></line><path d="M208.0,115.0 L202.1,117.8 L202.1,112.2 Z" fill="#8c8579" stroke="none"></path><line x1="174" y1="142.6" x2="226" y2="142.6" stroke="#8c8579" stroke-width="1.2" stroke-linecap="round" stroke-dasharray="none"></line><path d="M208.0,142.6 L202.1,145.4 L202.1,139.8 Z" fill="#8c8579" stroke="none"></path><line x1="174" y1="170.2" x2="226" y2="170.2" stroke="#8c8579" stroke-width="1.2" stroke-linecap="round" stroke-dasharray="none"></line><path d="M208.0,170.2 L202.1,173.0 L202.1,167.4 Z" fill="#8c8579" stroke="none"></path><rect x="124" y="184" width="152" height="14" rx="0" fill="rgba(140,133,121,.2)" stroke="#1a1a17" stroke-width="1.4" stroke-dasharray="none"></rect><rect x="104" y="198" width="192" height="42" rx="6" fill="none" stroke="#1a1a17" stroke-width="1.8" stroke-dasharray="none"></rect><rect x="122" y="208" width="76" height="22" rx="3" fill="rgba(26,26,23,.06)" stroke="#1a1a17" stroke-width="1.2" stroke-dasharray="none"></rect><text x="160" y="223" font-family="system-ui, sans-serif" font-size="12" fill="#1a1a17" text-anchor="middle">+ 0.24 g</text><text x="248" y="223" font-family="system-ui, sans-serif" font-size="10" fill="#8c8579" text-anchor="middle">balance</text><g><circle cx="200" cy="138" r="10" fill="#fffdf6" stroke="#1a1a17" stroke-width="2.2" stroke-dasharray="none"></circle><circle cx="200" cy="138" r="2.2" fill="#1a1a17"></circle></g><g><line x1="200" y1="122" x2="200" y2="82.72" stroke="#b03030" stroke-width="3" stroke-linecap="round" stroke-dasharray="none"></line><path d="M200.0,76.0 L204.1,84.7 L195.9,84.7 Z" fill="#b03030" stroke="none"></path><text x="214" y="107" font-family="system-ui, sans-serif" font-size="11" fill="#b03030" text-anchor="start">force on wire</text></g><g><line x1="296" y1="156" x2="296" y2="197.072" stroke="#4d4943" stroke-width="2.2" stroke-linecap="round" stroke-dasharray="none"></line><path d="M296.0,202.0 L293.0,195.6 L299.0,195.6 Z" fill="#4d4943" stroke="none"></path></g><text x="392" y="158" font-family="system-ui, sans-serif" font-size="10" fill="#4d4943" text-anchor="end">equal, opposite force</text><text x="392" y="171" font-family="system-ui, sans-serif" font-size="10" fill="#4d4943" text-anchor="end">on the magnet (N3)</text><text x="200" y="272" font-family="system-ui, sans-serif" font-size="11" fill="#8c8579" text-anchor="middle">the reading changes by the same size of force, opposite way</text></svg>