<svg xmlns="http://www.w3.org/2000/svg" viewBox="0 0 400 280" width="100%" preserveAspectRatio="xMidYMid meet" role="img" aria-label="Motor effect: wire in a magnetic field" class="td-svg" style="max-width:400px;height:auto;display:block;font-family:Georgia, serif"><title>Motor effect: wire in a magnetic field</title><rect x="26" y="70" width="54" height="130" rx="5" fill="rgba(176,48,48,.14)" stroke="#1a1a17" stroke-width="1.8" stroke-dasharray="none"></rect><rect x="320" y="70" width="54" height="130" rx="5" fill="rgba(26,26,23,.08)" stroke="#1a1a17" stroke-width="1.8" stroke-dasharray="none"></rect><text x="53" y="141" font-family="system-ui, sans-serif" font-size="17" fill="#1a1a17" font-weight="700" text-anchor="middle">N</text><text x="347" y="141" font-family="system-ui, sans-serif" font-size="17" fill="#1a1a17" font-weight="700" text-anchor="middle">S</text><line x1="80" y1="102.5" x2="320" y2="102.5" stroke="#8c8579" stroke-width="1.2" stroke-linecap="round" stroke-dasharray="none"></line><path d="M296.0,102.5 L290.1,105.3 L290.1,99.7 Z" fill="#8c8579" stroke="none"></path><line x1="80" y1="141.5" x2="320" y2="141.5" stroke="#8c8579" stroke-width="1.2" stroke-linecap="round" stroke-dasharray="none"></line><path d="M296.0,141.5 L290.1,144.3 L290.1,138.7 Z" fill="#8c8579" stroke="none"></path><line x1="80" y1="180.5" x2="320" y2="180.5" stroke="#8c8579" stroke-width="1.2" stroke-linecap="round" stroke-dasharray="none"></line><path d="M296.0,180.5 L290.1,183.3 L290.1,177.7 Z" fill="#8c8579" stroke="none"></path><line x1="150" y1="26" x2="250" y2="26" stroke="#1a1a17" stroke-width="2" stroke-linecap="round" stroke-dasharray="none"></line><line x1="168" y1="26" x2="194" y2="127" stroke="#4d4943" stroke-width="1.6" stroke-linecap="round" stroke-dasharray="none"></line><line x1="232" y1="26" x2="206" y2="127" stroke="#4d4943" stroke-width="1.6" stroke-linecap="round" stroke-dasharray="none"></line><circle cx="168" cy="26" r="3" fill="#1a1a17"></circle><circle cx="232" cy="26" r="3" fill="#1a1a17"></circle><text x="264" y="24" font-family="system-ui, sans-serif" font-size="10" fill="#8c8579">pivot</text><g><circle cx="200" cy="135" r="11" fill="#fffdf6" stroke="#1a1a17" stroke-width="2.4" stroke-dasharray="none"></circle><circle cx="200" cy="135" r="2.42" fill="#1a1a17"></circle></g><g><line x1="200" y1="117" x2="200" y2="65.72" stroke="#b03030" stroke-width="3" stroke-linecap="round" stroke-dasharray="none"></line><path d="M200.0,59.0 L204.1,67.7 L195.9,67.7 Z" fill="#b03030" stroke="none"></path><text x="212" y="78" font-family="system-ui, sans-serif" font-size="13" fill="#b03030" text-anchor="start">F</text></g><circle cx="234" cy="101" r="11" fill="none" stroke="#8c8579" stroke-width="1.4" stroke-dasharray="4 3"></circle></svg>