<svg xmlns="http://www.w3.org/2000/svg" viewBox="0 0 400 280" width="100%" preserveAspectRatio="xMidYMid meet" role="img" aria-label="Motor effect: wire in a magnetic field" class="td-svg" style="max-width:400px;height:auto;display:block;font-family:Georgia, serif"><title>Motor effect: wire in a magnetic field</title><rect x="26" y="70" width="54" height="130" rx="5" fill="rgba(176,48,48,.14)" stroke="#1a1a17" stroke-width="1.8" stroke-dasharray="none"></rect><rect x="320" y="70" width="54" height="130" rx="5" fill="rgba(26,26,23,.08)" stroke="#1a1a17" stroke-width="1.8" stroke-dasharray="none"></rect><text x="53" y="141" font-family="system-ui, sans-serif" font-size="17" fill="#1a1a17" font-weight="700" text-anchor="middle">N</text><text x="347" y="141" font-family="system-ui, sans-serif" font-size="17" fill="#1a1a17" font-weight="700" text-anchor="middle">S</text><line x1="86" y1="102.5" x2="314" y2="102.5" stroke="#8c8579" stroke-width="1.2" stroke-linecap="round" stroke-dasharray="none"></line><path d="M296.0,102.5 L290.1,105.3 L290.1,99.7 Z" fill="#8c8579" stroke="none"></path><line x1="86" y1="141.5" x2="314" y2="141.5" stroke="#8c8579" stroke-width="1.2" stroke-linecap="round" stroke-dasharray="none"></line><path d="M296.0,141.5 L290.1,144.3 L290.1,138.7 Z" fill="#8c8579" stroke="none"></path><line x1="86" y1="180.5" x2="314" y2="180.5" stroke="#8c8579" stroke-width="1.2" stroke-linecap="round" stroke-dasharray="none"></line><path d="M296.0,180.5 L290.1,183.3 L290.1,177.7 Z" fill="#8c8579" stroke="none"></path><g><circle cx="264" cy="135" r="11" fill="#fffdf6" stroke="#1a1a17" stroke-width="2.4" stroke-dasharray="none"></circle><circle cx="264" cy="135" r="2.42" fill="#1a1a17"></circle></g><g><line x1="264" y1="117" x2="264" y2="89.72" stroke="#b03030" stroke-width="3" stroke-linecap="round" stroke-dasharray="none"></line><path d="M264.0,83.0 L268.1,91.7 L259.9,91.7 Z" fill="#b03030" stroke="none"></path><text x="276" y="90" font-family="system-ui, sans-serif" font-size="13" fill="#b03030" text-anchor="start">F</text></g><text x="200" y="272" font-family="system-ui, sans-serif" font-size="11" fill="#8c8579" text-anchor="middle">further from the poles: weaker field, smaller force</text></svg>