<svg xmlns="http://www.w3.org/2000/svg" viewBox="0 0 420 290" width="100%" preserveAspectRatio="xMidYMid meet" role="img" aria-label="Solenoid field in section, with supply circuit" class="td-svg" style="max-width:420px;height:auto;display:block;font-family:Georgia, serif"><title>Solenoid field in section, with supply circuit</title><line x1="120" y1="102" x2="300" y2="102" stroke="#1a1a17" stroke-width="1.7" stroke-linecap="round" stroke-dasharray="none"></line><path d="M176.0,102.0 L169.2,105.2 L169.2,98.8 Z" fill="#1a1a17" stroke="none"></path><path d="M252.0,102.0 L245.2,105.2 L245.2,98.8 Z" fill="#1a1a17" stroke="none"></path><line x1="120" y1="124" x2="300" y2="124" stroke="#1a1a17" stroke-width="1.7" stroke-linecap="round" stroke-dasharray="none"></line><path d="M176.0,124.0 L169.2,127.2 L169.2,120.8 Z" fill="#1a1a17" stroke="none"></path><path d="M252.0,124.0 L245.2,127.2 L245.2,120.8 Z" fill="#1a1a17" stroke="none"></path><line x1="120" y1="146" x2="300" y2="146" stroke="#1a1a17" stroke-width="1.7" stroke-linecap="round" stroke-dasharray="none"></line><path d="M176.0,146.0 L169.2,149.2 L169.2,142.8 Z" fill="#1a1a17" stroke="none"></path><path d="M252.0,146.0 L245.2,149.2 L245.2,142.8 Z" fill="#1a1a17" stroke="none"></path><path d="M306,96 C398,62 398,18 210,16 C22,18 22,62 114,96" fill="none" stroke="#1a1a17" stroke-width="1.6" stroke-linecap="round" stroke-linejoin="round" stroke-dasharray="none"></path><path d="M306,152 C386,178 386,216 252,222" fill="none" stroke="#1a1a17" stroke-width="1.6" stroke-linecap="round" stroke-linejoin="round" stroke-dasharray="none"></path><path d="M114,152 C34,178 34,216 168,222" fill="none" stroke="#1a1a17" stroke-width="1.6" stroke-linecap="round" stroke-linejoin="round" stroke-dasharray="none"></path><path d="M210.0,16.0 L216.8,12.8 L216.8,19.2 Z" fill="#1a1a17" stroke="none"></path><path d="M359.0,194.5 L359.2,187.0 L364.9,189.9 Z" fill="#1a1a17" stroke="none"></path><path d="M61.0,194.5 L66.9,199.1 L61.2,202.0 Z" fill="#1a1a17" stroke="none"></path><g><circle cx="135" cy="86" r="8" fill="#fffdf6" stroke="#1a1a17" stroke-width="2" stroke-dasharray="none"></circle><circle cx="135" cy="86" r="1.76" fill="#1a1a17"></circle></g><g><circle cx="135" cy="162" r="8" fill="#fffdf6" stroke="#1a1a17" stroke-width="2" stroke-dasharray="none"></circle><line x1="130.04" y1="157.04" x2="139.96" y2="166.96" stroke="#1a1a17" stroke-width="2" stroke-linecap="round" stroke-dasharray="none"></line><line x1="139.96" y1="157.04" x2="130.04" y2="166.96" stroke="#1a1a17" stroke-width="2" stroke-linecap="round" stroke-dasharray="none"></line></g><g><circle cx="160" cy="86" r="8" fill="#fffdf6" stroke="#1a1a17" stroke-width="2" stroke-dasharray="none"></circle><circle cx="160" cy="86" r="1.76" fill="#1a1a17"></circle></g><g><circle cx="160" cy="162" r="8" fill="#fffdf6" stroke="#1a1a17" stroke-width="2" stroke-dasharray="none"></circle><line x1="155.04" y1="157.04" x2="164.96" y2="166.96" stroke="#1a1a17" stroke-width="2" stroke-linecap="round" stroke-dasharray="none"></line><line x1="164.96" y1="157.04" x2="155.04" y2="166.96" stroke="#1a1a17" stroke-width="2" stroke-linecap="round" stroke-dasharray="none"></line></g><g><circle cx="185" cy="86" r="8" fill="#fffdf6" stroke="#1a1a17" stroke-width="2" stroke-dasharray="none"></circle><circle cx="185" cy="86" r="1.76" fill="#1a1a17"></circle></g><g><circle cx="185" cy="162" r="8" fill="#fffdf6" stroke="#1a1a17" stroke-width="2" stroke-dasharray="none"></circle><line x1="180.04" y1="157.04" x2="189.96" y2="166.96" stroke="#1a1a17" stroke-width="2" stroke-linecap="round" stroke-dasharray="none"></line><line x1="189.96" y1="157.04" x2="180.04" y2="166.96" stroke="#1a1a17" stroke-width="2" stroke-linecap="round" stroke-dasharray="none"></line></g><g><circle cx="210" cy="86" r="8" fill="#fffdf6" stroke="#1a1a17" stroke-width="2" stroke-dasharray="none"></circle><circle cx="210" cy="86" r="1.76" fill="#1a1a17"></circle></g><g><circle cx="210" cy="162" r="8" fill="#fffdf6" stroke="#1a1a17" stroke-width="2" stroke-dasharray="none"></circle><line x1="205.04" y1="157.04" x2="214.96" y2="166.96" stroke="#1a1a17" stroke-width="2" stroke-linecap="round" stroke-dasharray="none"></line><line x1="214.96" y1="157.04" x2="205.04" y2="166.96" stroke="#1a1a17" stroke-width="2" stroke-linecap="round" stroke-dasharray="none"></line></g><g><circle cx="235" cy="86" r="8" fill="#fffdf6" stroke="#1a1a17" stroke-width="2" stroke-dasharray="none"></circle><circle cx="235" cy="86" r="1.76" fill="#1a1a17"></circle></g><g><circle cx="235" cy="162" r="8" fill="#fffdf6" stroke="#1a1a17" stroke-width="2" stroke-dasharray="none"></circle><line x1="230.04" y1="157.04" x2="239.96" y2="166.96" stroke="#1a1a17" stroke-width="2" stroke-linecap="round" stroke-dasharray="none"></line><line x1="239.96" y1="157.04" x2="230.04" y2="166.96" stroke="#1a1a17" stroke-width="2" stroke-linecap="round" stroke-dasharray="none"></line></g><g><circle cx="260" cy="86" r="8" fill="#fffdf6" stroke="#1a1a17" stroke-width="2" stroke-dasharray="none"></circle><circle cx="260" cy="86" r="1.76" fill="#1a1a17"></circle></g><g><circle cx="260" cy="162" r="8" fill="#fffdf6" stroke="#1a1a17" stroke-width="2" stroke-dasharray="none"></circle><line x1="255.04" y1="157.04" x2="264.96" y2="166.96" stroke="#1a1a17" stroke-width="2" stroke-linecap="round" stroke-dasharray="none"></line><line x1="264.96" y1="157.04" x2="255.04" y2="166.96" stroke="#1a1a17" stroke-width="2" stroke-linecap="round" stroke-dasharray="none"></line></g><g><circle cx="285" cy="86" r="8" fill="#fffdf6" stroke="#1a1a17" stroke-width="2" stroke-dasharray="none"></circle><circle cx="285" cy="86" r="1.76" fill="#1a1a17"></circle></g><g><circle cx="285" cy="162" r="8" fill="#fffdf6" stroke="#1a1a17" stroke-width="2" stroke-dasharray="none"></circle><line x1="280.04" y1="157.04" x2="289.96" y2="166.96" stroke="#1a1a17" stroke-width="2" stroke-linecap="round" stroke-dasharray="none"></line><line x1="289.96" y1="157.04" x2="280.04" y2="166.96" stroke="#1a1a17" stroke-width="2" stroke-linecap="round" stroke-dasharray="none"></line></g><text x="86" y="130" font-family="system-ui, sans-serif" font-size="18" fill="#b03030" font-weight="700" text-anchor="middle">?</text><text x="334" y="130" font-family="system-ui, sans-serif" font-size="18" fill="#b03030" font-weight="700" text-anchor="middle">?</text><path d="M135,172 L135,252 L201,252" fill="none" stroke="#4d4943" stroke-width="1.5" stroke-linecap="round" stroke-linejoin="round" stroke-dasharray="none"></path><path d="M285,172 L285,252 L219,252" fill="none" stroke="#4d4943" stroke-width="1.5" stroke-linecap="round" stroke-linejoin="round" stroke-dasharray="none"></path><line x1="202" y1="236" x2="202" y2="268" stroke="#1a1a17" stroke-width="2" stroke-linecap="round" stroke-dasharray="none"></line><line x1="218" y1="244" x2="218" y2="260" stroke="#1a1a17" stroke-width="4" stroke-linecap="round" stroke-dasharray="none"></line><text x="202" y="230" font-family="system-ui, sans-serif" font-size="13" fill="#1a1a17" text-anchor="middle">+</text><path d="M135.0,212.0 L138.2,218.8 L131.8,218.8 Z" fill="#b03030" stroke="none"></path><path d="M285.0,212.0 L281.8,205.2 L288.2,205.2 Z" fill="#b03030" stroke="none"></path><text x="118" y="212" font-family="system-ui, sans-serif" font-size="12" fill="#b03030" font-style="italic">I</text></svg>