<svg xmlns="http://www.w3.org/2000/svg" viewBox="0 0 440 300" width="100%" preserveAspectRatio="xMidYMid meet" role="img" aria-label="Field between two bar magnets" class="td-svg" style="max-width:440px;height:auto;display:block;font-family:Georgia, serif"><title>Field between two bar magnets</title><g><rect x="40" y="128" width="50" height="44" rx="0" fill="rgba(176,48,48,.14)" stroke="none" stroke-width="0" stroke-dasharray="none"></rect><rect x="90" y="128" width="50" height="44" rx="0" fill="rgba(26,26,23,.08)" stroke="none" stroke-width="0" stroke-dasharray="none"></rect><rect x="40" y="128" width="100" height="44" rx="4" fill="none" stroke="#1a1a17" stroke-width="1.8" stroke-dasharray="none"></rect><line x1="90" y1="128" x2="90" y2="172" stroke="#1a1a17" stroke-width="1.2" stroke-linecap="round" stroke-dasharray="none"></line><text x="65" y="155" font-family="system-ui, sans-serif" font-size="15" fill="#1a1a17" font-weight="700" text-anchor="middle">N</text><text x="115" y="155" font-family="system-ui, sans-serif" font-size="15" fill="#1a1a17" font-weight="700" text-anchor="middle">S</text></g><g><rect x="300" y="128" width="50" height="44" rx="0" fill="rgba(26,26,23,.08)" stroke="none" stroke-width="0" stroke-dasharray="none"></rect><rect x="350" y="128" width="50" height="44" rx="0" fill="rgba(176,48,48,.14)" stroke="none" stroke-width="0" stroke-dasharray="none"></rect><rect x="300" y="128" width="100" height="44" rx="4" fill="none" stroke="#1a1a17" stroke-width="1.8" stroke-dasharray="none"></rect><line x1="350" y1="128" x2="350" y2="172" stroke="#1a1a17" stroke-width="1.2" stroke-linecap="round" stroke-dasharray="none"></line><text x="325" y="155" font-family="system-ui, sans-serif" font-size="15" fill="#1a1a17" font-weight="700" text-anchor="middle">S</text><text x="375" y="155" font-family="system-ui, sans-serif" font-size="15" fill="#1a1a17" font-weight="700" text-anchor="middle">N</text></g><path d="M40.0,150.0L36.9,150.0L31.9,150.0L26.9,150.0L21.9,150.0L16.9,150.0L11.9,150.0L9.4,150.0" fill="none" stroke="#1a1a17" stroke-width="1.7" stroke-linecap="round" stroke-linejoin="round" stroke-dasharray="none"></path><path d="M24.4,150.0 L31.2,146.8 L31.2,153.2 Z" fill="#1a1a17" stroke="none"></path><path d="M40.0,142.5L37.4,140.8L33.2,138.1L29.1,135.2L25.0,132.4L21.0,129.4L17.0,126.4L13.1,123.3L9.2,120.1" fill="none" stroke="#1a1a17" stroke-width="1.7" stroke-linecap="round" stroke-linejoin="round" stroke-dasharray="none"></path><path d="M25.0,132.4 L32.4,133.7 L28.7,138.9 Z" fill="#1a1a17" stroke="none"></path><path d="M40.0,157.5L37.4,159.2L33.2,161.9L29.1,164.8L25.0,167.6L21.0,170.6L17.0,173.6L13.1,176.7L9.2,179.9" fill="none" stroke="#1a1a17" stroke-width="1.7" stroke-linecap="round" stroke-linejoin="round" stroke-dasharray="none"></path><path d="M25.0,167.6 L28.7,161.1 L32.4,166.3 Z" fill="#1a1a17" stroke="none"></path><path d="M40.0,129.2L38.6,126.5L36.5,121.9L34.6,117.3L32.8,112.6L31.2,107.9L29.9,103.1L28.7,98.2L27.8,93.3L27.1,88.3L26.7,83.3L26.5,78.4L26.6,73.4L27.0,68.4L27.7,63.4L28.6,58.5L29.9,53.7L31.5,49.0L33.5,44.3L35.8,39.9L38.4,35.6L41.3,31.6L44.6,27.8L48.2,24.3L52.1,21.2L56.2,18.4L60.6,16.1L65.3,14.1L70.0,12.7L74.9,11.7L79.9,11.1L84.9,11.1L89.9,11.5L94.8,12.3L99.6,13.6L104.3,15.3L108.9,17.3L113.3,19.7L117.5,22.5L121.5,25.5L125.2,28.8L128.7,32.3L132.0,36.1L135.1,40.0L137.9,44.2L140.4,48.5L142.7,52.9L144.7,57.5L146.4,62.2L147.8,67.0L149.0,71.9L149.8,76.8L150.3,81.8L150.5,86.8L150.4,91.8L150.0,96.8L149.3,101.7L148.3,106.6L147.0,111.4L145.5,116.2L143.7,120.9L141.7,125.5L140.0,129.1" fill="none" stroke="#1a1a17" stroke-width="1.7" stroke-linecap="round" stroke-linejoin="round" stroke-dasharray="none"></path><path d="M84.9,11.1 L78.0,14.0 L78.2,7.6 Z" fill="#1a1a17" stroke="none"></path><path d="M40.0,170.8L38.6,173.5L36.5,178.1L34.6,182.7L32.8,187.4L31.2,192.1L29.9,196.9L28.7,201.8L27.8,206.7L27.1,211.7L26.7,216.7L26.5,221.6L26.6,226.6L27.0,231.6L27.7,236.6L28.6,241.5L29.9,246.3L31.5,251.0L33.5,255.7L35.8,260.1L38.4,264.4L41.3,268.4L44.6,272.2L48.2,275.7L52.1,278.8L56.2,281.6L60.6,283.9L65.3,285.9L70.0,287.3L74.9,288.3L79.9,288.9L84.9,288.9L89.9,288.5L94.8,287.7L99.6,286.4L104.3,284.7L108.9,282.7L113.3,280.3L117.5,277.5L121.5,274.5L125.2,271.2L128.7,267.7L132.0,263.9L135.1,260.0L137.9,255.8L140.4,251.5L142.7,247.1L144.7,242.5L146.4,237.8L147.8,233.0L149.0,228.1L149.8,223.2L150.3,218.2L150.5,213.2L150.4,208.2L150.0,203.2L149.3,198.3L148.3,193.4L147.0,188.6L145.5,183.8L143.7,179.1L141.7,174.5L140.0,170.9" fill="none" stroke="#1a1a17" stroke-width="1.7" stroke-linecap="round" stroke-linejoin="round" stroke-dasharray="none"></path><path d="M84.9,288.9 L78.2,292.4 L78.0,286.0 Z" fill="#1a1a17" stroke="none"></path><path d="M400.0,150.0L403.1,150.0L408.1,150.0L413.1,150.0L418.1,150.0L423.1,150.0L428.1,150.0L430.6,150.0" fill="none" stroke="#1a1a17" stroke-width="1.7" stroke-linecap="round" stroke-linejoin="round" stroke-dasharray="none"></path><path d="M415.6,150.0 L408.8,153.2 L408.8,146.8 Z" fill="#1a1a17" stroke="none"></path><path d="M400.0,157.5L402.6,159.2L406.8,161.9L410.9,164.8L415.0,167.6L419.0,170.6L423.0,173.6L426.9,176.7L430.8,179.9" fill="none" stroke="#1a1a17" stroke-width="1.7" stroke-linecap="round" stroke-linejoin="round" stroke-dasharray="none"></path><path d="M415.0,167.6 L407.6,166.3 L411.3,161.1 Z" fill="#1a1a17" stroke="none"></path><path d="M400.0,142.5L402.6,140.8L406.8,138.1L410.9,135.2L415.0,132.4L419.0,129.4L423.0,126.4L426.9,123.3L430.8,120.1" fill="none" stroke="#1a1a17" stroke-width="1.7" stroke-linecap="round" stroke-linejoin="round" stroke-dasharray="none"></path><path d="M415.0,132.4 L411.3,138.9 L407.6,133.7 Z" fill="#1a1a17" stroke="none"></path><path d="M400.0,170.8L401.4,173.5L403.5,178.1L405.4,182.7L407.2,187.4L408.8,192.1L410.1,196.9L411.3,201.8L412.2,206.7L412.9,211.7L413.3,216.7L413.5,221.6L413.4,226.6L413.0,231.6L412.3,236.6L411.4,241.5L410.1,246.3L408.5,251.0L406.5,255.7L404.2,260.1L401.6,264.4L398.7,268.4L395.4,272.2L391.8,275.7L387.9,278.8L383.8,281.6L379.4,283.9L374.7,285.9L370.0,287.3L365.1,288.3L360.1,288.9L355.1,288.9L350.1,288.5L345.2,287.7L340.4,286.4L335.7,284.7L331.1,282.7L326.7,280.3L322.5,277.5L318.5,274.5L314.8,271.2L311.3,267.7L308.0,263.9L304.9,260.0L302.1,255.8L299.6,251.5L297.3,247.1L295.3,242.5L293.6,237.8L292.2,233.0L291.0,228.1L290.2,223.2L289.7,218.2L289.5,213.2L289.6,208.2L290.0,203.2L290.7,198.3L291.7,193.4L293.0,188.6L294.5,183.8L296.3,179.1L298.3,174.5L300.0,170.9" fill="none" stroke="#1a1a17" stroke-width="1.7" stroke-linecap="round" stroke-linejoin="round" stroke-dasharray="none"></path><path d="M355.1,288.9 L362.0,286.0 L361.8,292.4 Z" fill="#1a1a17" stroke="none"></path><path d="M400.0,129.2L401.4,126.5L403.5,121.9L405.4,117.3L407.2,112.6L408.8,107.9L410.1,103.1L411.3,98.2L412.2,93.3L412.9,88.3L413.3,83.3L413.5,78.4L413.4,73.4L413.0,68.4L412.3,63.4L411.4,58.5L410.1,53.7L408.5,49.0L406.5,44.3L404.2,39.9L401.6,35.6L398.7,31.6L395.4,27.8L391.8,24.3L387.9,21.2L383.8,18.4L379.4,16.1L374.7,14.1L370.0,12.7L365.1,11.7L360.1,11.1L355.1,11.1L350.1,11.5L345.2,12.3L340.4,13.6L335.7,15.3L331.1,17.3L326.7,19.7L322.5,22.5L318.5,25.5L314.8,28.8L311.3,32.3L308.0,36.1L304.9,40.0L302.1,44.2L299.6,48.5L297.3,52.9L295.3,57.5L293.6,62.2L292.2,67.0L291.0,71.9L290.2,76.8L289.7,81.8L289.5,86.8L289.6,91.8L290.0,96.8L290.7,101.7L291.7,106.6L293.0,111.4L294.5,116.2L296.3,120.9L298.3,125.5L300.0,129.1" fill="none" stroke="#1a1a17" stroke-width="1.7" stroke-linecap="round" stroke-linejoin="round" stroke-dasharray="none"></path><path d="M355.1,11.1 L361.8,7.6 L362.0,14.0 Z" fill="#1a1a17" stroke="none"></path><path d="M218.1,150.0L213.1,150.0L208.1,150.0L203.1,150.0L198.1,150.0L193.1,150.0L188.1,150.0L183.1,150.0L178.1,150.0L173.1,150.0L168.1,150.0L163.1,150.0L158.1,150.0L153.1,150.0L148.1,150.0L143.1,150.0L140.0,150.0" fill="none" stroke="#1a1a17" stroke-width="1.7" stroke-linecap="round" stroke-linejoin="round" stroke-dasharray="none"></path><path d="M178.1,150.0 L184.9,146.8 L184.9,153.2 Z" fill="#1a1a17" stroke="none"></path><path d="M221.9,150.0L226.9,150.0L231.9,150.0L236.9,150.0L241.9,150.0L246.9,150.0L251.9,150.0L256.9,150.0L261.9,150.0L266.9,150.0L271.9,150.0L276.9,150.0L281.9,150.0L286.9,150.0L291.9,150.0L296.9,150.0L300.0,150.0" fill="none" stroke="#1a1a17" stroke-width="1.7" stroke-linecap="round" stroke-linejoin="round" stroke-dasharray="none"></path><path d="M261.9,150.0 L255.1,153.2 L255.1,146.8 Z" fill="#1a1a17" stroke="none"></path><line x1="214" y1="144" x2="226" y2="156" stroke="#b03030" stroke-width="2" stroke-linecap="round" stroke-dasharray="none"></line><line x1="226" y1="144" x2="214" y2="156" stroke="#b03030" stroke-width="2" stroke-linecap="round" stroke-dasharray="none"></line><text x="220" y="176" font-family="system-ui, sans-serif" font-size="10.5" fill="#b03030" text-anchor="middle">neutral point</text></svg>