<svg xmlns="http://www.w3.org/2000/svg" viewBox="0 0 440 300" width="100%" preserveAspectRatio="xMidYMid meet" role="img" aria-label="Field between two bar magnets" class="td-svg" style="max-width:440px;height:auto;display:block;font-family:Georgia, serif"><title>Field between two bar magnets</title><g><rect x="40" y="128" width="50" height="44" rx="0" fill="rgba(26,26,23,.08)" stroke="none" stroke-width="0" stroke-dasharray="none"></rect><rect x="90" y="128" width="50" height="44" rx="0" fill="rgba(176,48,48,.14)" stroke="none" stroke-width="0" stroke-dasharray="none"></rect><rect x="40" y="128" width="100" height="44" rx="4" fill="none" stroke="#1a1a17" stroke-width="1.8" stroke-dasharray="none"></rect><line x1="90" y1="128" x2="90" y2="172" stroke="#1a1a17" stroke-width="1.2" stroke-linecap="round" stroke-dasharray="none"></line><text x="65" y="155" font-family="system-ui, sans-serif" font-size="15" fill="#1a1a17" font-weight="700" text-anchor="middle">S</text><text x="115" y="155" font-family="system-ui, sans-serif" font-size="15" fill="#1a1a17" font-weight="700" text-anchor="middle">N</text></g><g><rect x="300" y="128" width="50" height="44" rx="0" fill="rgba(176,48,48,.14)" stroke="none" stroke-width="0" stroke-dasharray="none"></rect><rect x="350" y="128" width="50" height="44" rx="0" fill="rgba(26,26,23,.08)" stroke="none" stroke-width="0" stroke-dasharray="none"></rect><rect x="300" y="128" width="100" height="44" rx="4" fill="none" stroke="#1a1a17" stroke-width="1.8" stroke-dasharray="none"></rect><line x1="350" y1="128" x2="350" y2="172" stroke="#1a1a17" stroke-width="1.2" stroke-linecap="round" stroke-dasharray="none"></line><text x="325" y="155" font-family="system-ui, sans-serif" font-size="15" fill="#1a1a17" font-weight="700" text-anchor="middle">N</text><text x="375" y="155" font-family="system-ui, sans-serif" font-size="15" fill="#1a1a17" font-weight="700" text-anchor="middle">S</text></g><path d="M140.0,150.0L143.1,150.0L148.1,150.0L153.1,150.0L158.1,150.0L163.1,150.0L168.1,150.0L173.1,150.0L178.1,150.0L183.1,150.0L188.1,150.0L193.1,150.0L198.1,150.0L203.1,150.0L208.1,150.0L213.1,150.0L218.1,150.0" fill="none" stroke="#1a1a17" stroke-width="1.7" stroke-linecap="round" stroke-linejoin="round" stroke-dasharray="none"></path><path d="M178.1,150.0 L171.3,153.2 L171.3,146.8 Z" fill="#1a1a17" stroke="none"></path><path d="M140.0,158.4L142.5,160.2L146.5,163.2L150.4,166.3L154.3,169.5L158.0,172.8L161.7,176.2L165.2,179.8L168.6,183.5L171.7,187.4L174.7,191.4L177.3,195.6L179.7,200.0L181.8,204.6L183.6,209.2L185.0,214.0L186.2,218.9L187.0,223.8L187.7,228.8L188.0,233.8L188.2,238.8L188.2,243.8L188.1,248.8L187.7,253.7L187.3,258.7L186.7,263.7L186.0,268.6L185.2,273.6L184.3,278.5L183.3,283.4L182.2,288.3L180.9,293.1" fill="none" stroke="#1a1a17" stroke-width="1.7" stroke-linecap="round" stroke-linejoin="round" stroke-dasharray="none"></path><path d="M185.6,216.4 L181.0,210.6 L187.2,209.1 Z" fill="#1a1a17" stroke="none"></path><path d="M140.0,141.6L142.5,139.8L146.5,136.8L150.4,133.7L154.3,130.5L158.0,127.2L161.7,123.8L165.2,120.2L168.6,116.5L171.7,112.6L174.7,108.6L177.3,104.4L179.7,100.0L181.8,95.4L183.6,90.8L185.0,86.0L186.2,81.1L187.0,76.2L187.7,71.2L188.0,66.2L188.2,61.2L188.2,56.2L188.1,51.2L187.7,46.3L187.3,41.3L186.7,36.3L186.0,31.4L185.2,26.4L184.3,21.5L183.3,16.6L182.2,11.7L180.9,6.9" fill="none" stroke="#1a1a17" stroke-width="1.7" stroke-linecap="round" stroke-linejoin="round" stroke-dasharray="none"></path><path d="M185.6,83.6 L187.2,90.9 L181.0,89.4 Z" fill="#1a1a17" stroke="none"></path><path d="M138.3,172.0L139.4,174.9L141.0,179.6L142.3,184.4L143.4,189.3L144.2,194.3L144.7,199.2L144.9,204.2L144.8,209.2L144.4,214.2L143.6,219.1L142.5,224.0L141.1,228.8L139.3,233.5L137.3,238.0L134.9,242.4L132.2,246.7L129.2,250.7L125.9,254.4L122.4,258.0L118.6,261.2L114.5,264.1L110.3,266.7L105.8,268.9L101.1,270.7L96.3,272.0L91.4,272.9L86.4,273.3L81.4,273.1L76.4,272.4L71.6,271.2L66.9,269.5L62.4,267.3L58.1,264.7L54.2,261.6L50.6,258.2L47.3,254.4L44.3,250.4L41.8,246.1L39.5,241.6L37.7,237.0L36.2,232.2L35.0,227.4L34.2,222.4L33.7,217.5L33.4,212.5L33.5,207.5L33.9,202.5L34.5,197.5L35.4,192.6L36.5,187.7L37.8,182.9L39.3,178.1L41.1,173.4L41.6,172.0" fill="none" stroke="#1a1a17" stroke-width="1.7" stroke-linecap="round" stroke-linejoin="round" stroke-dasharray="none"></path><path d="M86.4,273.3 L93.1,269.9 L93.2,276.3 Z" fill="#1a1a17" stroke="none"></path><path d="M138.3,128.0L139.4,125.1L141.0,120.4L142.3,115.6L143.4,110.7L144.2,105.7L144.7,100.8L144.9,95.8L144.8,90.8L144.4,85.8L143.6,80.9L142.5,76.0L141.1,71.2L139.3,66.5L137.3,62.0L134.9,57.6L132.2,53.3L129.2,49.3L125.9,45.6L122.4,42.0L118.6,38.8L114.5,35.9L110.3,33.3L105.8,31.1L101.1,29.3L96.3,28.0L91.4,27.1L86.4,26.7L81.4,26.9L76.4,27.6L71.6,28.8L66.9,30.5L62.4,32.7L58.1,35.3L54.2,38.4L50.6,41.8L47.3,45.6L44.3,49.6L41.8,53.9L39.5,58.4L37.7,63.0L36.2,67.8L35.0,72.6L34.2,77.6L33.7,82.5L33.4,87.5L33.5,92.5L33.9,97.5L34.5,102.5L35.4,107.4L36.5,112.3L37.8,117.1L39.3,121.9L41.1,126.6L41.6,128.0" fill="none" stroke="#1a1a17" stroke-width="1.7" stroke-linecap="round" stroke-linejoin="round" stroke-dasharray="none"></path><path d="M86.4,26.7 L93.2,23.7 L93.1,30.1 Z" fill="#1a1a17" stroke="none"></path><path d="M300.0,150.0L296.9,150.0L291.9,150.0L286.9,150.0L281.9,150.0L276.9,150.0L271.9,150.0L266.9,150.0L261.9,150.0L256.9,150.0L251.9,150.0L246.9,150.0L241.9,150.0L236.9,150.0L231.9,150.0L226.9,150.0L221.9,150.0" fill="none" stroke="#1a1a17" stroke-width="1.7" stroke-linecap="round" stroke-linejoin="round" stroke-dasharray="none"></path><path d="M261.9,150.0 L268.7,146.8 L268.7,153.2 Z" fill="#1a1a17" stroke="none"></path><path d="M300.0,141.6L297.5,139.8L293.5,136.8L289.6,133.7L285.7,130.5L282.0,127.2L278.3,123.8L274.8,120.2L271.4,116.5L268.3,112.6L265.3,108.6L262.7,104.4L260.3,100.0L258.2,95.4L256.4,90.8L255.0,86.0L253.8,81.1L253.0,76.2L252.3,71.2L252.0,66.2L251.8,61.2L251.8,56.2L251.9,51.2L252.3,46.3L252.7,41.3L253.3,36.3L254.0,31.4L254.8,26.4L255.7,21.5L256.7,16.6L257.8,11.7L259.1,6.9" fill="none" stroke="#1a1a17" stroke-width="1.7" stroke-linecap="round" stroke-linejoin="round" stroke-dasharray="none"></path><path d="M254.4,83.6 L259.0,89.4 L252.8,90.9 Z" fill="#1a1a17" stroke="none"></path><path d="M300.0,158.4L297.5,160.2L293.5,163.2L289.6,166.3L285.7,169.5L282.0,172.8L278.3,176.2L274.8,179.8L271.4,183.5L268.3,187.4L265.3,191.4L262.7,195.6L260.3,200.0L258.2,204.6L256.4,209.2L255.0,214.0L253.8,218.9L253.0,223.8L252.3,228.8L252.0,233.8L251.8,238.8L251.8,243.8L251.9,248.8L252.3,253.7L252.7,258.7L253.3,263.7L254.0,268.6L254.8,273.6L255.7,278.5L256.7,283.4L257.8,288.3L259.1,293.1" fill="none" stroke="#1a1a17" stroke-width="1.7" stroke-linecap="round" stroke-linejoin="round" stroke-dasharray="none"></path><path d="M254.4,216.4 L252.8,209.1 L259.0,210.6 Z" fill="#1a1a17" stroke="none"></path><path d="M301.7,128.0L300.6,125.1L299.0,120.4L297.7,115.6L296.6,110.7L295.8,105.7L295.3,100.8L295.1,95.8L295.2,90.8L295.6,85.8L296.4,80.9L297.5,76.0L298.9,71.2L300.7,66.5L302.7,62.0L305.1,57.6L307.8,53.3L310.8,49.3L314.1,45.6L317.6,42.0L321.4,38.8L325.5,35.9L329.7,33.3L334.2,31.1L338.9,29.3L343.7,28.0L348.6,27.1L353.6,26.7L358.6,26.9L363.6,27.6L368.4,28.8L373.1,30.5L377.6,32.7L381.9,35.3L385.8,38.4L389.4,41.8L392.7,45.6L395.7,49.6L398.2,53.9L400.5,58.4L402.3,63.0L403.8,67.8L405.0,72.6L405.8,77.6L406.3,82.5L406.6,87.5L406.5,92.5L406.1,97.5L405.5,102.5L404.6,107.4L403.5,112.3L402.2,117.1L400.7,121.9L398.9,126.6L398.4,128.0" fill="none" stroke="#1a1a17" stroke-width="1.7" stroke-linecap="round" stroke-linejoin="round" stroke-dasharray="none"></path><path d="M353.6,26.7 L346.9,30.1 L346.8,23.7 Z" fill="#1a1a17" stroke="none"></path><path d="M301.7,172.0L300.6,174.9L299.0,179.6L297.7,184.4L296.6,189.3L295.8,194.3L295.3,199.2L295.1,204.2L295.2,209.2L295.6,214.2L296.4,219.1L297.5,224.0L298.9,228.8L300.7,233.5L302.7,238.0L305.1,242.4L307.8,246.7L310.8,250.7L314.1,254.4L317.6,258.0L321.4,261.2L325.5,264.1L329.7,266.7L334.2,268.9L338.9,270.7L343.7,272.0L348.6,272.9L353.6,273.3L358.6,273.1L363.6,272.4L368.4,271.2L373.1,269.5L377.6,267.3L381.9,264.7L385.8,261.6L389.4,258.2L392.7,254.4L395.7,250.4L398.2,246.1L400.5,241.6L402.3,237.0L403.8,232.2L405.0,227.4L405.8,222.4L406.3,217.5L406.6,212.5L406.5,207.5L406.1,202.5L405.5,197.5L404.6,192.6L403.5,187.7L402.2,182.9L400.7,178.1L398.9,173.4L398.4,172.0" fill="none" stroke="#1a1a17" stroke-width="1.7" stroke-linecap="round" stroke-linejoin="round" stroke-dasharray="none"></path><path d="M353.6,273.3 L346.8,276.3 L346.9,269.9 Z" fill="#1a1a17" stroke="none"></path><path d="M9.4,150.0L14.4,150.0L19.4,150.0L24.4,150.0L29.4,150.0L34.4,150.0L39.4,150.0L40.0,150.0" fill="none" stroke="#1a1a17" stroke-width="1.7" stroke-linecap="round" stroke-linejoin="round" stroke-dasharray="none"></path><path d="M26.9,150.0 L20.1,153.2 L20.1,146.8 Z" fill="#1a1a17" stroke="none"></path><path d="M430.6,150.0L425.6,150.0L420.6,150.0L415.6,150.0L410.6,150.0L405.6,150.0L400.6,150.0L400.0,150.0" fill="none" stroke="#1a1a17" stroke-width="1.7" stroke-linecap="round" stroke-linejoin="round" stroke-dasharray="none"></path><path d="M413.1,150.0 L419.9,146.8 L419.9,153.2 Z" fill="#1a1a17" stroke="none"></path><line x1="214" y1="144" x2="226" y2="156" stroke="#b03030" stroke-width="2" stroke-linecap="round" stroke-dasharray="none"></line><line x1="226" y1="144" x2="214" y2="156" stroke="#b03030" stroke-width="2" stroke-linecap="round" stroke-dasharray="none"></line><text x="220" y="176" font-family="system-ui, sans-serif" font-size="10.5" fill="#b03030" text-anchor="middle">neutral point</text></svg>