<svg xmlns="http://www.w3.org/2000/svg" viewBox="0 0 380 240" width="100%" preserveAspectRatio="xMidYMid meet" role="img" aria-label="Field between two bar magnets" class="td-svg" style="max-width:380px;height:auto;display:block;font-family:Georgia, serif"><title>Field between two bar magnets</title><g><rect x="20" y="98" width="55" height="44" rx="0" fill="rgba(26,26,23,.08)" stroke="none" stroke-width="0" stroke-dasharray="none"></rect><rect x="75" y="98" width="55" height="44" rx="0" fill="rgba(176,48,48,.14)" stroke="none" stroke-width="0" stroke-dasharray="none"></rect><rect x="20" y="98" width="110" height="44" rx="4" fill="none" stroke="#1a1a17" stroke-width="1.8" stroke-dasharray="none"></rect><line x1="75" y1="98" x2="75" y2="142" stroke="#1a1a17" stroke-width="1.2" stroke-linecap="round" stroke-dasharray="none"></line><text x="47.5" y="125" font-family="system-ui, sans-serif" font-size="15" fill="#1a1a17" font-weight="700" text-anchor="middle">S</text><text x="102.5" y="125" font-family="system-ui, sans-serif" font-size="15" fill="#1a1a17" font-weight="700" text-anchor="middle">N</text></g><g><rect x="250" y="98" width="55" height="44" rx="0" fill="rgba(26,26,23,.08)" stroke="none" stroke-width="0" stroke-dasharray="none"></rect><rect x="305" y="98" width="55" height="44" rx="0" fill="rgba(176,48,48,.14)" stroke="none" stroke-width="0" stroke-dasharray="none"></rect><rect x="250" y="98" width="110" height="44" rx="4" fill="none" stroke="#1a1a17" stroke-width="1.8" stroke-dasharray="none"></rect><line x1="305" y1="98" x2="305" y2="142" stroke="#1a1a17" stroke-width="1.2" stroke-linecap="round" stroke-dasharray="none"></line><text x="277.5" y="125" font-family="system-ui, sans-serif" font-size="15" fill="#1a1a17" font-weight="700" text-anchor="middle">S</text><text x="332.5" y="125" font-family="system-ui, sans-serif" font-size="15" fill="#1a1a17" font-weight="700" text-anchor="middle">N</text></g><path d="M132,108 C170,99 210,99 248,108" fill="none" stroke="#1a1a17" stroke-width="1.8" stroke-linecap="round" stroke-linejoin="round" stroke-dasharray="none"></path><line x1="132" y1="120" x2="248" y2="120" stroke="#1a1a17" stroke-width="1.8" stroke-linecap="round" stroke-dasharray="none"></line><path d="M132,132 C170,141 210,141 248,132" fill="none" stroke="#1a1a17" stroke-width="1.8" stroke-linecap="round" stroke-linejoin="round" stroke-dasharray="none"></path><path d="M192.0,102.2 L185.2,105.4 L185.2,99.0 Z" fill="#1a1a17" stroke="none"></path><path d="M192.0,120.0 L185.2,123.2 L185.2,116.8 Z" fill="#1a1a17" stroke="none"></path><path d="M192.0,137.8 L185.2,141.0 L185.2,134.6 Z" fill="#1a1a17" stroke="none"></path><path d="M354,94 C312,18 68,18 26,94" fill="none" stroke="#1a1a17" stroke-width="1.6" stroke-linecap="round" stroke-linejoin="round" stroke-dasharray="none"></path><path d="M354,146 C312,222 68,222 26,146" fill="none" stroke="#1a1a17" stroke-width="1.6" stroke-linecap="round" stroke-linejoin="round" stroke-dasharray="none"></path><path d="M190.0,37.0 L196.8,33.8 L196.8,40.2 Z" fill="#1a1a17" stroke="none"></path><path d="M190.0,203.0 L196.8,199.8 L196.8,206.2 Z" fill="#1a1a17" stroke="none"></path></svg>