<svg xmlns="http://www.w3.org/2000/svg" viewBox="0 0 440 300" width="100%" preserveAspectRatio="xMidYMid meet" role="img" aria-label="Field between two bar magnets" class="td-svg" style="max-width:440px;height:auto;display:block;font-family:Georgia, serif"><title>Field between two bar magnets</title><g><rect x="40" y="128" width="50" height="44" rx="0" fill="rgba(26,26,23,.08)" stroke="none" stroke-width="0" stroke-dasharray="none"></rect><rect x="90" y="128" width="50" height="44" rx="0" fill="rgba(176,48,48,.14)" stroke="none" stroke-width="0" stroke-dasharray="none"></rect><rect x="40" y="128" width="100" height="44" rx="4" fill="none" stroke="#1a1a17" stroke-width="1.8" stroke-dasharray="none"></rect><line x1="90" y1="128" x2="90" y2="172" stroke="#1a1a17" stroke-width="1.2" stroke-linecap="round" stroke-dasharray="none"></line><text x="65" y="155" font-family="system-ui, sans-serif" font-size="15" fill="#1a1a17" font-weight="700" text-anchor="middle">S</text><text x="115" y="155" font-family="system-ui, sans-serif" font-size="15" fill="#1a1a17" font-weight="700" text-anchor="middle">N</text></g><g><rect x="300" y="128" width="50" height="44" rx="0" fill="rgba(26,26,23,.08)" stroke="none" stroke-width="0" stroke-dasharray="none"></rect><rect x="350" y="128" width="50" height="44" rx="0" fill="rgba(176,48,48,.14)" stroke="none" stroke-width="0" stroke-dasharray="none"></rect><rect x="300" y="128" width="100" height="44" rx="4" fill="none" stroke="#1a1a17" stroke-width="1.8" stroke-dasharray="none"></rect><line x1="350" y1="128" x2="350" y2="172" stroke="#1a1a17" stroke-width="1.2" stroke-linecap="round" stroke-dasharray="none"></line><text x="325" y="155" font-family="system-ui, sans-serif" font-size="15" fill="#1a1a17" font-weight="700" text-anchor="middle">S</text><text x="375" y="155" font-family="system-ui, sans-serif" font-size="15" fill="#1a1a17" font-weight="700" text-anchor="middle">N</text></g><path d="M140.0,150.0L143.1,150.0L148.1,150.0L153.1,150.0L158.1,150.0L163.1,150.0L168.1,150.0L173.1,150.0L178.1,150.0L183.1,150.0L188.1,150.0L193.1,150.0L198.1,150.0L203.1,150.0L208.1,150.0L213.1,150.0L218.1,150.0L223.1,150.0L228.1,150.0L233.1,150.0L238.1,150.0L243.1,150.0L248.1,150.0L253.1,150.0L258.1,150.0L263.1,150.0L268.1,150.0L273.1,150.0L278.1,150.0L283.1,150.0L288.1,150.0L293.1,150.0L298.1,150.0L300.0,150.0" fill="none" stroke="#1a1a17" stroke-width="1.7" stroke-linecap="round" stroke-linejoin="round" stroke-dasharray="none"></path><path d="M220.6,150.0 L213.8,153.2 L213.8,146.8 Z" fill="#1a1a17" stroke="none"></path><path d="M140.0,157.8L142.6,159.5L146.7,162.3L150.8,165.2L154.9,168.0L159.0,170.9L163.1,173.8L167.1,176.7L171.2,179.6L175.4,182.4L179.5,185.2L183.8,187.8L188.1,190.3L192.5,192.6L197.1,194.7L201.8,196.5L206.6,197.9L211.5,198.9L216.4,199.5L221.4,199.6L226.4,199.2L231.3,198.4L236.2,197.1L240.9,195.5L245.5,193.6L250.0,191.4L254.4,188.9L258.6,186.3L262.8,183.6L267.0,180.8L271.1,178.0L275.2,175.1L279.2,172.2L283.3,169.3L287.4,166.4L291.5,163.5L295.6,160.7L299.8,157.9L300.0,157.8" fill="none" stroke="#1a1a17" stroke-width="1.7" stroke-linecap="round" stroke-linejoin="round" stroke-dasharray="none"></path><path d="M221.4,199.6 L214.7,203.0 L214.5,196.6 Z" fill="#1a1a17" stroke="none"></path><path d="M140.0,142.2L142.6,140.5L146.7,137.7L150.8,134.8L154.9,132.0L159.0,129.1L163.1,126.2L167.1,123.3L171.2,120.4L175.4,117.6L179.5,114.8L183.8,112.2L188.1,109.7L192.5,107.4L197.1,105.3L201.8,103.5L206.6,102.1L211.5,101.1L216.4,100.5L221.4,100.4L226.4,100.8L231.3,101.6L236.2,102.9L240.9,104.5L245.5,106.4L250.0,108.6L254.4,111.1L258.6,113.7L262.8,116.4L267.0,119.2L271.1,122.0L275.2,124.9L279.2,127.8L283.3,130.7L287.4,133.6L291.5,136.5L295.6,139.3L299.8,142.1L300.0,142.2" fill="none" stroke="#1a1a17" stroke-width="1.7" stroke-linecap="round" stroke-linejoin="round" stroke-dasharray="none"></path><path d="M221.4,100.4 L214.5,103.4 L214.7,97.0 Z" fill="#1a1a17" stroke="none"></path><path d="M140.0,165.4L141.8,167.9L144.7,171.9L147.6,176.1L150.3,180.2L153.0,184.4L155.7,188.7L158.3,192.9L160.9,197.2L163.4,201.5L166.0,205.8L168.6,210.0L171.3,214.3L174.0,218.5L176.9,222.6L179.8,226.6L182.9,230.6L186.2,234.3L189.6,237.9L193.3,241.3L197.3,244.4L201.5,247.1L206.0,249.3L210.7,251.0L215.6,252.0L220.5,252.3L225.5,251.9L230.4,250.7L235.0,248.9L239.4,246.5L243.6,243.7L247.5,240.6L251.1,237.2L254.5,233.5L257.8,229.7L260.8,225.8L263.8,221.7L266.6,217.6L269.3,213.4L271.9,209.1L274.5,204.9L277.1,200.6L279.7,196.3L282.3,192.0L284.9,187.8L287.6,183.5L290.3,179.3L293.0,175.2L295.9,171.0L298.8,167.0L300.0,165.3" fill="none" stroke="#1a1a17" stroke-width="1.7" stroke-linecap="round" stroke-linejoin="round" stroke-dasharray="none"></path><path d="M220.5,252.3 L213.8,255.6 L213.7,249.2 Z" fill="#1a1a17" stroke="none"></path><path d="M140.0,134.6L141.8,132.1L144.7,128.1L147.6,123.9L150.3,119.8L153.0,115.6L155.7,111.3L158.3,107.1L160.9,102.8L163.4,98.5L166.0,94.2L168.6,90.0L171.3,85.7L174.0,81.5L176.9,77.4L179.8,73.4L182.9,69.4L186.2,65.7L189.6,62.1L193.3,58.7L197.3,55.6L201.5,52.9L206.0,50.7L210.7,49.0L215.6,48.0L220.5,47.7L225.5,48.1L230.4,49.3L235.0,51.1L239.4,53.5L243.6,56.3L247.5,59.4L251.1,62.8L254.5,66.5L257.8,70.3L260.8,74.2L263.8,78.3L266.6,82.4L269.3,86.6L271.9,90.9L274.5,95.1L277.1,99.4L279.7,103.7L282.3,108.0L284.9,112.2L287.6,116.5L290.3,120.7L293.0,124.8L295.9,129.0L298.8,133.0L300.0,134.7" fill="none" stroke="#1a1a17" stroke-width="1.7" stroke-linecap="round" stroke-linejoin="round" stroke-dasharray="none"></path><path d="M220.5,47.7 L213.7,50.8 L213.8,44.4 Z" fill="#1a1a17" stroke="none"></path><path d="M133.5,172.0L134.1,175.0L134.8,180.0L135.4,185.0L135.7,189.9L135.8,194.9L135.7,199.9L135.3,204.9L134.6,209.9L133.6,214.8L132.4,219.6L130.8,224.4L128.8,228.9L126.4,233.3L123.6,237.5L120.5,241.4L116.9,244.8L112.9,247.9L108.6,250.3L103.9,252.2L99.1,253.4L94.1,254.0L89.1,253.8L84.2,253.0L79.4,251.6L74.8,249.6L70.5,247.0L66.5,244.1L62.8,240.7L59.5,237.0L56.5,233.0L53.8,228.7L51.5,224.3L49.6,219.7L48.0,214.9L46.7,210.1L45.7,205.2L45.1,200.3L44.7,195.3L44.7,190.3L44.9,185.3L45.3,180.3L46.0,175.3L46.5,172.0" fill="none" stroke="#1a1a17" stroke-width="1.7" stroke-linecap="round" stroke-linejoin="round" stroke-dasharray="none"></path><path d="M91.6,254.0 L98.5,251.0 L98.3,257.4 Z" fill="#1a1a17" stroke="none"></path><path d="M133.5,128.0L134.1,125.0L134.8,120.0L135.4,115.0L135.7,110.1L135.8,105.1L135.7,100.1L135.3,95.1L134.6,90.1L133.6,85.2L132.4,80.4L130.8,75.6L128.8,71.1L126.4,66.7L123.6,62.5L120.5,58.6L116.9,55.2L112.9,52.1L108.6,49.7L103.9,47.8L99.1,46.6L94.1,46.0L89.1,46.2L84.2,47.0L79.4,48.4L74.8,50.4L70.5,53.0L66.5,55.9L62.8,59.3L59.5,63.0L56.5,67.0L53.8,71.3L51.5,75.7L49.6,80.3L48.0,85.1L46.7,89.9L45.7,94.8L45.1,99.7L44.7,104.7L44.7,109.7L44.9,114.7L45.3,119.7L46.0,124.7L46.5,128.0" fill="none" stroke="#1a1a17" stroke-width="1.7" stroke-linecap="round" stroke-linejoin="round" stroke-dasharray="none"></path><path d="M91.6,46.0 L98.3,42.6 L98.5,49.0 Z" fill="#1a1a17" stroke="none"></path><path d="M400.0,150.0L403.1,150.0L408.1,150.0L413.1,150.0L418.1,150.0L423.1,150.0L428.1,150.0L430.6,150.0" fill="none" stroke="#1a1a17" stroke-width="1.7" stroke-linecap="round" stroke-linejoin="round" stroke-dasharray="none"></path><path d="M415.6,150.0 L408.8,153.2 L408.8,146.8 Z" fill="#1a1a17" stroke="none"></path><path d="M393.5,172.0L394.1,175.0L394.7,180.0L395.2,185.0L395.4,190.0L395.4,195.0L395.1,200.0L394.5,204.9L393.6,209.8L392.3,214.7L390.8,219.4L388.9,224.1L386.6,228.5L384.0,232.8L381.1,236.8L377.8,240.6L374.2,244.0L370.2,247.1L365.9,249.7L361.4,251.8L356.6,253.3L351.7,254.2L346.7,254.5L341.7,254.1L336.9,253.0L332.2,251.2L327.8,248.9L323.7,245.9L320.1,242.6L316.8,238.8L314.0,234.7L311.5,230.3L309.5,225.7L307.8,221.0L306.4,216.2L305.4,211.3L304.7,206.4L304.3,201.4L304.1,196.4L304.1,191.4L304.4,186.4L304.9,181.4L305.6,176.5L306.4,172.0" fill="none" stroke="#1a1a17" stroke-width="1.7" stroke-linecap="round" stroke-linejoin="round" stroke-dasharray="none"></path><path d="M349.2,254.4 L355.8,250.9 L356.2,257.3 Z" fill="#1a1a17" stroke="none"></path><path d="M393.5,128.0L394.1,125.0L394.7,120.0L395.2,115.0L395.4,110.0L395.4,105.0L395.1,100.0L394.5,95.1L393.6,90.2L392.3,85.3L390.8,80.6L388.9,75.9L386.6,71.5L384.0,67.2L381.1,63.2L377.8,59.4L374.2,56.0L370.2,52.9L365.9,50.3L361.4,48.2L356.6,46.7L351.7,45.8L346.7,45.5L341.7,45.9L336.9,47.0L332.2,48.8L327.8,51.1L323.7,54.1L320.1,57.4L316.8,61.2L314.0,65.3L311.5,69.7L309.5,74.3L307.8,79.0L306.4,83.8L305.4,88.7L304.7,93.6L304.3,98.6L304.1,103.6L304.1,108.6L304.4,113.6L304.9,118.6L305.6,123.5L306.4,128.0" fill="none" stroke="#1a1a17" stroke-width="1.7" stroke-linecap="round" stroke-linejoin="round" stroke-dasharray="none"></path><path d="M349.2,45.6 L356.2,42.7 L355.8,49.1 Z" fill="#1a1a17" stroke="none"></path><path d="M9.4,150.0L14.4,150.0L19.4,150.0L24.4,150.0L29.4,150.0L34.4,150.0L39.4,150.0L40.0,150.0" fill="none" stroke="#1a1a17" stroke-width="1.7" stroke-linecap="round" stroke-linejoin="round" stroke-dasharray="none"></path><path d="M26.9,150.0 L20.1,153.2 L20.1,146.8 Z" fill="#1a1a17" stroke="none"></path></svg>