<svg xmlns="http://www.w3.org/2000/svg" viewBox="0 0 380 240" width="100%" preserveAspectRatio="xMidYMid meet" role="img" aria-label="Field between two bar magnets" class="td-svg" style="max-width:380px;height:auto;display:block;font-family:Georgia, serif"><title>Field between two bar magnets</title><g><rect x="20" y="98" width="55" height="44" rx="0" fill="rgba(176,48,48,.14)" stroke="none" stroke-width="0" stroke-dasharray="none"></rect><rect x="75" y="98" width="55" height="44" rx="0" fill="rgba(26,26,23,.08)" stroke="none" stroke-width="0" stroke-dasharray="none"></rect><rect x="20" y="98" width="110" height="44" rx="4" fill="none" stroke="#1a1a17" stroke-width="1.8" stroke-dasharray="none"></rect><line x1="75" y1="98" x2="75" y2="142" stroke="#1a1a17" stroke-width="1.2" stroke-linecap="round" stroke-dasharray="none"></line><text x="47.5" y="125" font-family="system-ui, sans-serif" font-size="15" fill="#1a1a17" font-weight="700" text-anchor="middle">N</text><text x="102.5" y="125" font-family="system-ui, sans-serif" font-size="15" fill="#1a1a17" font-weight="700" text-anchor="middle">S</text></g><g><rect x="250" y="98" width="55" height="44" rx="0" fill="rgba(26,26,23,.08)" stroke="none" stroke-width="0" stroke-dasharray="none"></rect><rect x="305" y="98" width="55" height="44" rx="0" fill="rgba(176,48,48,.14)" stroke="none" stroke-width="0" stroke-dasharray="none"></rect><rect x="250" y="98" width="110" height="44" rx="4" fill="none" stroke="#1a1a17" stroke-width="1.8" stroke-dasharray="none"></rect><line x1="305" y1="98" x2="305" y2="142" stroke="#1a1a17" stroke-width="1.2" stroke-linecap="round" stroke-dasharray="none"></line><text x="277.5" y="125" font-family="system-ui, sans-serif" font-size="15" fill="#1a1a17" font-weight="700" text-anchor="middle">S</text><text x="332.5" y="125" font-family="system-ui, sans-serif" font-size="15" fill="#1a1a17" font-weight="700" text-anchor="middle">N</text></g><path d="M132,106 C158,96 172,78 176,50" fill="none" stroke="#1a1a17" stroke-width="1.8" stroke-linecap="round" stroke-linejoin="round" stroke-dasharray="none"></path><path d="M132,134 C158,144 172,162 176,190" fill="none" stroke="#1a1a17" stroke-width="1.8" stroke-linecap="round" stroke-linejoin="round" stroke-dasharray="none"></path><path d="M176.0,50.0 L173.8,42.8 L180.1,43.7 Z" fill="#1a1a17" stroke="none"></path><path d="M176.0,190.0 L180.1,196.3 L173.8,197.2 Z" fill="#1a1a17" stroke="none"></path><line x1="132" y1="120" x2="168" y2="120" stroke="#1a1a17" stroke-width="1.8" stroke-linecap="round" stroke-dasharray="none"></line><path d="M140.0,120.0 L146.8,116.8 L146.8,123.2 Z" fill="#1a1a17" stroke="none"></path><path d="M248,106 C222,96 208,78 204,50" fill="none" stroke="#1a1a17" stroke-width="1.8" stroke-linecap="round" stroke-linejoin="round" stroke-dasharray="none"></path><path d="M248,134 C222,144 208,162 204,190" fill="none" stroke="#1a1a17" stroke-width="1.8" stroke-linecap="round" stroke-linejoin="round" stroke-dasharray="none"></path><path d="M204.0,50.0 L199.9,43.7 L206.2,42.8 Z" fill="#1a1a17" stroke="none"></path><path d="M204.0,190.0 L206.2,197.2 L199.9,196.3 Z" fill="#1a1a17" stroke="none"></path><line x1="248" y1="120" x2="212" y2="120" stroke="#1a1a17" stroke-width="1.8" stroke-linecap="round" stroke-dasharray="none"></line><path d="M240.0,120.0 L233.2,123.2 L233.2,116.8 Z" fill="#1a1a17" stroke="none"></path><line x1="184" y1="114" x2="196" y2="126" stroke="#b03030" stroke-width="2" stroke-linecap="round" stroke-dasharray="none"></line><line x1="196" y1="114" x2="184" y2="126" stroke="#b03030" stroke-width="2" stroke-linecap="round" stroke-dasharray="none"></line><text x="190" y="146" font-family="system-ui, sans-serif" font-size="10.5" fill="#b03030" text-anchor="middle">neutral point</text></svg>