<?xml version="1.0" encoding="UTF-8"?>
<svg xmlns="http://www.w3.org/2000/svg" viewBox="0 0 340 250" width="100%" preserveAspectRatio="xMidYMid meet" role="img" aria-label="Direct p.d. against time" class="td-svg" style="max-width:340px;height:auto;display:block;font-family:Georgia, serif"><title>Direct p.d. against time</title><g><line x1="40" y1="117" x2="320" y2="117" stroke="rgba(26,26,23,.22)" stroke-width="1.4"></line><path d="M320.0,117.0 L314.6,119.6 L314.6,114.4 Z" fill="rgba(26,26,23,.22)" stroke="none"></path><line x1="40" y1="214" x2="40" y2="20" stroke="rgba(26,26,23,.22)" stroke-width="1.4"></line><path d="M40.0,20.0 L42.6,25.4 L37.4,25.4 Z" fill="rgba(26,26,23,.22)" stroke="none"></path><path d="M40.0,214.0 L37.4,208.6 L42.6,208.6 Z" fill="rgba(26,26,23,.22)" stroke="none"></path><text x="318" y="109" font-family="system-ui, sans-serif" font-size="12" fill="#1a1a17" text-anchor="end" font-style="italic">t</text><text x="47" y="31" font-family="system-ui, sans-serif" font-size="12" fill="#1a1a17" text-anchor="start" font-style="italic">V</text><text x="36" y="129" font-family="system-ui, sans-serif" font-size="10" fill="#8c8579" text-anchor="end">0</text></g><path d="M40.00,58.80 L41.27,58.80 L42.55,58.80 L43.82,58.80 L45.09,58.80 L46.36,58.80 L47.64,58.80 L48.91,58.80 L50.18,58.80 L51.45,58.80 L52.73,58.80 L54.00,58.80 L55.27,58.80 L56.55,58.80 L57.82,58.80 L59.09,58.80 L60.36,58.80 L61.64,58.80 L62.91,58.80 L64.18,58.80 L65.45,58.80 L66.73,58.80 L68.00,58.80 L69.27,58.80 L70.55,58.80 L71.82,58.80 L73.09,58.80 L74.36,58.80 L75.64,58.80 L76.91,58.80 L78.18,58.80 L79.45,58.80 L80.73,58.80 L82.00,58.80 L83.27,58.80 L84.55,58.80 L85.82,58.80 L87.09,58.80 L88.36,58.80 L89.64,58.80 L90.91,58.80 L92.18,58.80 L93.45,58.80 L94.73,58.80 L96.00,58.80 L97.27,58.80 L98.55,58.80 L99.82,58.80 L101.09,58.80 L102.36,58.80 L103.64,58.80 L104.91,58.80 L106.18,58.80 L107.45,58.80 L108.73,58.80 L110.00,58.80 L111.27,58.80 L112.55,58.80 L113.82,58.80 L115.09,58.80 L116.36,58.80 L117.64,58.80 L118.91,58.80 L120.18,58.80 L121.45,58.80 L122.73,58.80 L124.00,58.80 L125.27,58.80 L126.55,58.80 L127.82,58.80 L129.09,58.80 L130.36,58.80 L131.64,58.80 L132.91,58.80 L134.18,58.80 L135.45,58.80 L136.73,58.80 L138.00,58.80 L139.27,58.80 L140.55,58.80 L141.82,58.80 L143.09,58.80 L144.36,58.80 L145.64,58.80 L146.91,58.80 L148.18,58.80 L149.45,58.80 L150.73,58.80 L152.00,58.80 L153.27,58.80 L154.55,58.80 L155.82,58.80 L157.09,58.80 L158.36,58.80 L159.64,58.80 L160.91,58.80 L162.18,58.80 L163.45,58.80 L164.73,58.80 L166.00,58.80 L167.27,58.80 L168.55,58.80 L169.82,58.80 L171.09,58.80 L172.36,58.80 L173.64,58.80 L174.91,58.80 L176.18,58.80 L177.45,58.80 L178.73,58.80 L180.00,58.80 L181.27,58.80 L182.55,58.80 L183.82,58.80 L185.09,58.80 L186.36,58.80 L187.64,58.80 L188.91,58.80 L190.18,58.80 L191.45,58.80 L192.73,58.80 L194.00,58.80 L195.27,58.80 L196.55,58.80 L197.82,58.80 L199.09,58.80 L200.36,58.80 L201.64,58.80 L202.91,58.80 L204.18,58.80 L205.45,58.80 L206.73,58.80 L208.00,58.80 L209.27,58.80 L210.55,58.80 L211.82,58.80 L213.09,58.80 L214.36,58.80 L215.64,58.80 L216.91,58.80 L218.18,58.80 L219.45,58.80 L220.73,58.80 L222.00,58.80 L223.27,58.80 L224.55,58.80 L225.82,58.80 L227.09,58.80 L228.36,58.80 L229.64,58.80 L230.91,58.80 L232.18,58.80 L233.45,58.80 L234.73,58.80 L236.00,58.80 L237.27,58.80 L238.55,58.80 L239.82,58.80 L241.09,58.80 L242.36,58.80 L243.64,58.80 L244.91,58.80 L246.18,58.80 L247.45,58.80 L248.73,58.80 L250.00,58.80 L251.27,58.80 L252.55,58.80 L253.82,58.80 L255.09,58.80 L256.36,58.80 L257.64,58.80 L258.91,58.80 L260.18,58.80 L261.45,58.80 L262.73,58.80 L264.00,58.80 L265.27,58.80 L266.55,58.80 L267.82,58.80 L269.09,58.80 L270.36,58.80 L271.64,58.80 L272.91,58.80 L274.18,58.80 L275.45,58.80 L276.73,58.80 L278.00,58.80 L279.27,58.80 L280.55,58.80 L281.82,58.80 L283.09,58.80 L284.36,58.80 L285.64,58.80 L286.91,58.80 L288.18,58.80 L289.45,58.80 L290.73,58.80 L292.00,58.80 L293.27,58.80 L294.55,58.80 L295.82,58.80 L297.09,58.80 L298.36,58.80 L299.64,58.80 L300.91,58.80 L302.18,58.80 L303.45,58.80 L304.73,58.80 L306.00,58.80 L307.27,58.80 L308.55,58.80 L309.82,58.80 L311.09,58.80 L312.36,58.80 L313.64,58.80 L314.91,58.80 L316.18,58.80 L317.45,58.80 L318.73,58.80 L320.00,58.80" fill="none" stroke="#b03030" stroke-width="2.6" stroke-linecap="round" stroke-linejoin="round" stroke-dasharray="none"></path></svg>