<?xml version="1.0" encoding="UTF-8"?>
<svg xmlns="http://www.w3.org/2000/svg" viewBox="0 0 340 250" width="100%" preserveAspectRatio="xMidYMid meet" role="img" aria-label="Alternating current against time" class="td-svg" style="max-width:340px;height:auto;display:block;font-family:Georgia, serif"><title>Alternating current against time</title><g><line x1="40" y1="117" x2="320" y2="117" stroke="rgba(26,26,23,.22)" stroke-width="1.4"></line><path d="M320.0,117.0 L314.6,119.6 L314.6,114.4 Z" fill="rgba(26,26,23,.22)" stroke="none"></path><line x1="40" y1="214" x2="40" y2="20" stroke="rgba(26,26,23,.22)" stroke-width="1.4"></line><path d="M40.0,20.0 L42.6,25.4 L37.4,25.4 Z" fill="rgba(26,26,23,.22)" stroke="none"></path><path d="M40.0,214.0 L37.4,208.6 L42.6,208.6 Z" fill="rgba(26,26,23,.22)" stroke="none"></path><text x="318" y="109" font-family="system-ui, sans-serif" font-size="12" fill="#1a1a17" text-anchor="end" font-style="italic">t</text><text x="47" y="31" font-family="system-ui, sans-serif" font-size="12" fill="#1a1a17" text-anchor="start" font-style="italic">I</text><text x="36" y="129" font-family="system-ui, sans-serif" font-size="10" fill="#8c8579" text-anchor="end">0</text></g><path d="M40.00,117.00 L41.27,113.59 L42.55,110.19 L43.82,106.81 L45.09,103.44 L46.36,100.09 L47.64,96.78 L48.91,93.50 L50.18,90.27 L51.45,87.09 L52.73,83.96 L54.00,80.89 L55.27,77.89 L56.55,74.96 L57.82,72.10 L59.09,69.33 L60.36,66.65 L61.64,64.06 L62.91,61.57 L64.18,59.17 L65.45,56.89 L66.73,54.71 L68.00,52.65 L69.27,50.71 L70.55,48.89 L71.82,47.19 L73.09,45.62 L74.36,44.18 L75.64,42.88 L76.91,41.71 L78.18,40.68 L79.45,39.79 L80.73,39.04 L82.00,38.44 L83.27,37.98 L84.55,37.66 L85.82,37.49 L87.09,37.47 L88.36,37.59 L89.64,37.86 L90.91,38.27 L92.18,38.83 L93.45,39.53 L94.73,40.37 L96.00,41.35 L97.27,42.48 L98.55,43.73 L99.82,45.13 L101.09,46.65 L102.36,48.31 L103.64,50.09 L104.91,51.99 L106.18,54.01 L107.45,56.15 L108.73,58.40 L110.00,60.76 L111.27,63.22 L112.55,65.78 L113.82,68.43 L115.09,71.17 L116.36,74.00 L117.64,76.90 L118.91,79.88 L120.18,82.93 L121.45,86.04 L122.73,89.20 L124.00,92.42 L125.27,95.68 L126.55,98.98 L127.82,102.32 L129.09,105.68 L130.36,109.06 L131.64,112.46 L132.91,115.86 L134.18,119.27 L135.45,122.67 L136.73,126.07 L138.00,129.44 L139.27,132.80 L140.55,136.12 L141.82,139.41 L143.09,142.66 L144.36,145.86 L145.64,149.01 L146.91,152.09 L148.18,155.12 L149.45,158.07 L150.73,160.95 L152.00,163.75 L153.27,166.47 L154.55,169.09 L155.82,171.61 L157.09,174.04 L158.36,176.36 L159.64,178.58 L160.91,180.68 L162.18,182.66 L163.45,184.52 L164.73,186.26 L166.00,187.87 L167.27,189.35 L168.55,190.70 L169.82,191.91 L171.09,192.99 L172.36,193.93 L173.64,194.72 L174.91,195.38 L176.18,195.88 L177.45,196.25 L178.73,196.47 L180.00,196.54 L181.27,196.47 L182.55,196.25 L183.82,195.88 L185.09,195.38 L186.36,194.72 L187.64,193.93 L188.91,192.99 L190.18,191.91 L191.45,190.70 L192.73,189.35 L194.00,187.87 L195.27,186.26 L196.55,184.52 L197.82,182.66 L199.09,180.68 L200.36,178.58 L201.64,176.36 L202.91,174.04 L204.18,171.61 L205.45,169.09 L206.73,166.47 L208.00,163.75 L209.27,160.95 L210.55,158.07 L211.82,155.12 L213.09,152.09 L214.36,149.01 L215.64,145.86 L216.91,142.66 L218.18,139.41 L219.45,136.12 L220.73,132.80 L222.00,129.44 L223.27,126.07 L224.55,122.67 L225.82,119.27 L227.09,115.86 L228.36,112.46 L229.64,109.06 L230.91,105.68 L232.18,102.32 L233.45,98.98 L234.73,95.68 L236.00,92.42 L237.27,89.20 L238.55,86.04 L239.82,82.93 L241.09,79.88 L242.36,76.90 L243.64,74.00 L244.91,71.17 L246.18,68.43 L247.45,65.78 L248.73,63.22 L250.00,60.76 L251.27,58.40 L252.55,56.15 L253.82,54.01 L255.09,51.99 L256.36,50.09 L257.64,48.31 L258.91,46.65 L260.18,45.13 L261.45,43.73 L262.73,42.48 L264.00,41.35 L265.27,40.37 L266.55,39.53 L267.82,38.83 L269.09,38.27 L270.36,37.86 L271.64,37.59 L272.91,37.47 L274.18,37.49 L275.45,37.66 L276.73,37.98 L278.00,38.44 L279.27,39.04 L280.55,39.79 L281.82,40.68 L283.09,41.71 L284.36,42.88 L285.64,44.18 L286.91,45.62 L288.18,47.19 L289.45,48.89 L290.73,50.71 L292.00,52.65 L293.27,54.71 L294.55,56.89 L295.82,59.17 L297.09,61.57 L298.36,64.06 L299.64,66.65 L300.91,69.33 L302.18,72.10 L303.45,74.96 L304.73,77.89 L306.00,80.89 L307.27,83.96 L308.55,87.09 L309.82,90.27 L311.09,93.50 L312.36,96.78 L313.64,100.09 L314.91,103.44 L316.18,106.81 L317.45,110.19 L318.73,113.59 L320.00,117.00" fill="none" stroke="#b03030" stroke-width="2.6" stroke-linecap="round" stroke-linejoin="round" stroke-dasharray="none"></path></svg>