<?xml version="1.0" encoding="UTF-8"?>
<svg xmlns="http://www.w3.org/2000/svg" viewBox="0 0 340 250" width="100%" preserveAspectRatio="xMidYMid meet" role="img" aria-label="Diode current-voltage characteristic" class="td-svg" style="max-width:340px;height:auto;display:block;font-family:Georgia, serif"><title>Diode current-voltage characteristic</title><g><line x1="40" y1="193.21428571428572" x2="320" y2="193.21428571428572" stroke="rgba(26,26,23,.22)" stroke-width="1.4"></line><path d="M320.0,193.2 L314.6,195.8 L314.6,190.7 Z" fill="rgba(26,26,23,.22)" stroke="none"></path><path d="M40.0,193.2 L45.4,190.7 L45.4,195.8 Z" fill="rgba(26,26,23,.22)" stroke="none"></path><line x1="180" y1="214" x2="180" y2="20" stroke="rgba(26,26,23,.22)" stroke-width="1.4"></line><path d="M180.0,20.0 L182.6,25.4 L177.4,25.4 Z" fill="rgba(26,26,23,.22)" stroke="none"></path><path d="M180.0,214.0 L177.4,208.6 L182.6,208.6 Z" fill="rgba(26,26,23,.22)" stroke="none"></path><text x="318" y="185.21428571428572" font-family="system-ui, sans-serif" font-size="12" fill="#1a1a17" text-anchor="end" font-style="italic">V</text><text x="187" y="31" font-family="system-ui, sans-serif" font-size="12" fill="#1a1a17" text-anchor="start" font-style="italic">I</text><text x="176" y="205.21428571428572" font-family="system-ui, sans-serif" font-size="10" fill="#8c8579" text-anchor="end">0</text></g><path d="M40.00,193.21 L41.27,193.21 L42.55,193.21 L43.82,193.21 L45.09,193.21 L46.36,193.21 L47.64,193.21 L48.91,193.21 L50.18,193.21 L51.45,193.21 L52.73,193.21 L54.00,193.21 L55.27,193.21 L56.55,193.21 L57.82,193.21 L59.09,193.21 L60.36,193.21 L61.64,193.21 L62.91,193.21 L64.18,193.21 L65.45,193.21 L66.73,193.21 L68.00,193.21 L69.27,193.21 L70.55,193.21 L71.82,193.21 L73.09,193.21 L74.36,193.21 L75.64,193.21 L76.91,193.21 L78.18,193.21 L79.45,193.21 L80.73,193.21 L82.00,193.21 L83.27,193.21 L84.55,193.21 L85.82,193.21 L87.09,193.21 L88.36,193.21 L89.64,193.21 L90.91,193.21 L92.18,193.21 L93.45,193.21 L94.73,193.21 L96.00,193.21 L97.27,193.21 L98.55,193.21 L99.82,193.21 L101.09,193.21 L102.36,193.21 L103.64,193.21 L104.91,193.21 L106.18,193.21 L107.45,193.21 L108.73,193.21 L110.00,193.21 L111.27,193.21 L112.55,193.21 L113.82,193.21 L115.09,193.21 L116.36,193.21 L117.64,193.21 L118.91,193.21 L120.18,193.21 L121.45,193.21 L122.73,193.21 L124.00,193.21 L125.27,193.21 L126.55,193.21 L127.82,193.21 L129.09,193.21 L130.36,193.21 L131.64,193.21 L132.91,193.21 L134.18,193.21 L135.45,193.21 L136.73,193.21 L138.00,193.21 L139.27,193.21 L140.55,193.21 L141.82,193.21 L143.09,193.21 L144.36,193.21 L145.64,193.21 L146.91,193.21 L148.18,193.21 L149.45,193.21 L150.73,193.21 L152.00,193.21 L153.27,193.21 L154.55,193.21 L155.82,193.21 L157.09,193.21 L158.36,193.21 L159.64,193.21 L160.91,193.21 L162.18,193.21 L163.45,193.21 L164.73,193.21 L166.00,193.21 L167.27,193.21 L168.55,193.21 L169.82,193.21 L171.09,193.21 L172.36,193.21 L173.64,193.21 L174.91,193.21 L176.18,193.21 L177.45,193.21 L178.73,193.21 L180.00,193.21 L181.27,193.21 L182.55,193.21 L183.82,193.21 L185.09,193.21 L186.36,193.21 L187.64,193.21 L188.91,193.21 L190.18,193.21 L191.45,193.21 L192.73,193.21 L194.00,193.21 L195.27,193.21 L196.55,193.21 L197.82,193.21 L199.09,193.21 L200.36,193.21 L201.64,193.21 L202.91,193.21 L204.18,193.21 L205.45,193.21 L206.73,193.21 L208.00,193.21 L209.27,193.21 L210.55,193.21 L211.82,193.21 L213.09,193.21 L214.36,193.21 L215.64,193.21 L216.91,193.21 L218.18,193.21 L219.45,193.21 L220.73,193.21 L222.00,193.21 L223.27,193.21 L224.55,193.21 L225.82,193.21 L227.09,193.21 L228.36,193.21 L229.64,193.21 L230.91,193.21 L232.18,193.21 L233.45,193.21 L234.73,193.21 L236.00,193.21 L237.27,193.21 L238.55,193.21 L239.82,193.21 L241.09,193.21 L242.36,193.21 L243.64,193.17 L244.91,193.06 L246.18,192.95 L247.45,192.83 L248.73,192.69 L250.00,192.55 L251.27,192.39 L252.55,192.22 L253.82,192.03 L255.09,191.83 L256.36,191.62 L257.64,191.38 L258.91,191.12 L260.18,190.85 L261.45,190.54 L262.73,190.22 L264.00,189.86 L265.27,189.47 L266.55,189.05 L267.82,188.60 L269.09,188.11 L270.36,187.57 L271.64,186.99 L272.91,186.36 L274.18,185.67 L275.45,184.93 L276.73,184.13 L278.00,183.25 L279.27,182.30 L280.55,181.27 L281.82,180.15 L283.09,178.94 L284.36,177.62 L285.64,176.19 L286.91,174.64 L288.18,172.96 L289.45,171.13 L290.73,169.15 L292.00,166.99 L293.27,164.66 L294.55,162.12 L295.82,159.37 L297.09,156.39 L298.36,153.15 L299.64,149.63 L300.91,145.81 L302.18,141.67 L303.45,137.18 L304.73,132.30 L306.00,127.01 L307.27,121.26 L308.55,115.03 L309.82,108.26 L311.09,100.92 L312.36,92.95 L313.64,84.30 L314.91,74.92 L316.18,64.73 L317.45,53.68 L318.73,41.68 L320.00,28.66" fill="none" stroke="#b03030" stroke-width="2.6" stroke-linecap="round" stroke-linejoin="round" stroke-dasharray="none"></path></svg>