<?xml version="1.0" encoding="UTF-8"?>
<svg xmlns="http://www.w3.org/2000/svg" viewBox="0 0 340 250" width="100%" preserveAspectRatio="xMidYMid meet" role="img" aria-label="Filament lamp (distractor: plateaus) current-voltage characteristic" class="td-svg" style="max-width:340px;height:auto;display:block;font-family:Georgia, serif"><title>Filament lamp (distractor: plateaus) current-voltage characteristic</title><g><line x1="40" y1="117" x2="320" y2="117" stroke="rgba(26,26,23,.22)" stroke-width="1.4"></line><path d="M320.0,117.0 L314.6,119.6 L314.6,114.4 Z" fill="rgba(26,26,23,.22)" stroke="none"></path><path d="M40.0,117.0 L45.4,114.4 L45.4,119.6 Z" fill="rgba(26,26,23,.22)" stroke="none"></path><line x1="180" y1="214" x2="180" y2="20" stroke="rgba(26,26,23,.22)" stroke-width="1.4"></line><path d="M180.0,20.0 L182.6,25.4 L177.4,25.4 Z" fill="rgba(26,26,23,.22)" stroke="none"></path><path d="M180.0,214.0 L177.4,208.6 L182.6,208.6 Z" fill="rgba(26,26,23,.22)" stroke="none"></path><text x="318" y="109" font-family="system-ui, sans-serif" font-size="12" fill="#1a1a17" text-anchor="end" font-style="italic">V</text><text x="187" y="31" font-family="system-ui, sans-serif" font-size="12" fill="#1a1a17" text-anchor="start" font-style="italic">I</text><text x="176" y="129" font-family="system-ui, sans-serif" font-size="10" fill="#8c8579" text-anchor="end">0</text></g><path d="M40.00,196.52 L41.27,196.51 L42.55,196.51 L43.82,196.51 L45.09,196.51 L46.36,196.50 L47.64,196.50 L48.91,196.50 L50.18,196.49 L51.45,196.49 L52.73,196.49 L54.00,196.48 L55.27,196.48 L56.55,196.47 L57.82,196.47 L59.09,196.46 L60.36,196.45 L61.64,196.45 L62.91,196.44 L64.18,196.43 L65.45,196.42 L66.73,196.41 L68.00,196.40 L69.27,196.39 L70.55,196.38 L71.82,196.36 L73.09,196.35 L74.36,196.33 L75.64,196.32 L76.91,196.30 L78.18,196.28 L79.45,196.25 L80.73,196.23 L82.00,196.20 L83.27,196.18 L84.55,196.15 L85.82,196.11 L87.09,196.08 L88.36,196.04 L89.64,196.00 L90.91,195.95 L92.18,195.91 L93.45,195.85 L94.73,195.80 L96.00,195.73 L97.27,195.67 L98.55,195.59 L99.82,195.52 L101.09,195.43 L102.36,195.34 L103.64,195.24 L104.91,195.13 L106.18,195.02 L107.45,194.89 L108.73,194.76 L110.00,194.61 L111.27,194.45 L112.55,194.28 L113.82,194.10 L115.09,193.90 L116.36,193.68 L117.64,193.45 L118.91,193.19 L120.18,192.92 L121.45,192.63 L122.73,192.31 L124.00,191.97 L125.27,191.60 L126.55,191.20 L127.82,190.77 L129.09,190.31 L130.36,189.81 L131.64,189.28 L132.91,188.70 L134.18,188.08 L135.45,187.42 L136.73,186.71 L138.00,185.94 L139.27,185.12 L140.55,184.25 L141.82,183.31 L143.09,182.31 L144.36,181.23 L145.64,180.09 L146.91,178.87 L148.18,177.58 L149.45,176.20 L150.73,174.74 L152.00,173.19 L153.27,171.55 L154.55,169.82 L155.82,167.99 L157.09,166.07 L158.36,164.05 L159.64,161.93 L160.91,159.72 L162.18,157.40 L163.45,155.00 L164.73,152.49 L166.00,149.90 L167.27,147.22 L168.55,144.46 L169.82,141.62 L171.09,138.71 L172.36,135.73 L173.64,132.70 L174.91,129.62 L176.18,126.50 L177.45,123.35 L178.73,120.18 L180.00,117.00 L181.27,113.82 L182.55,110.65 L183.82,107.50 L185.09,104.38 L186.36,101.30 L187.64,98.27 L188.91,95.29 L190.18,92.38 L191.45,89.54 L192.73,86.78 L194.00,84.10 L195.27,81.51 L196.55,79.00 L197.82,76.60 L199.09,74.28 L200.36,72.07 L201.64,69.95 L202.91,67.93 L204.18,66.01 L205.45,64.18 L206.73,62.45 L208.00,60.81 L209.27,59.26 L210.55,57.80 L211.82,56.42 L213.09,55.13 L214.36,53.91 L215.64,52.77 L216.91,51.69 L218.18,50.69 L219.45,49.75 L220.73,48.88 L222.00,48.06 L223.27,47.29 L224.55,46.58 L225.82,45.92 L227.09,45.30 L228.36,44.72 L229.64,44.19 L230.91,43.69 L232.18,43.23 L233.45,42.80 L234.73,42.40 L236.00,42.03 L237.27,41.69 L238.55,41.37 L239.82,41.08 L241.09,40.81 L242.36,40.55 L243.64,40.32 L244.91,40.10 L246.18,39.90 L247.45,39.72 L248.73,39.55 L250.00,39.39 L251.27,39.24 L252.55,39.11 L253.82,38.98 L255.09,38.87 L256.36,38.76 L257.64,38.66 L258.91,38.57 L260.18,38.48 L261.45,38.41 L262.73,38.33 L264.00,38.27 L265.27,38.20 L266.55,38.15 L267.82,38.09 L269.09,38.05 L270.36,38.00 L271.64,37.96 L272.91,37.92 L274.18,37.89 L275.45,37.85 L276.73,37.82 L278.00,37.80 L279.27,37.77 L280.55,37.75 L281.82,37.72 L283.09,37.70 L284.36,37.68 L285.64,37.67 L286.91,37.65 L288.18,37.64 L289.45,37.62 L290.73,37.61 L292.00,37.60 L293.27,37.59 L294.55,37.58 L295.82,37.57 L297.09,37.56 L298.36,37.55 L299.64,37.55 L300.91,37.54 L302.18,37.53 L303.45,37.53 L304.73,37.52 L306.00,37.52 L307.27,37.51 L308.55,37.51 L309.82,37.51 L311.09,37.50 L312.36,37.50 L313.64,37.50 L314.91,37.49 L316.18,37.49 L317.45,37.49 L318.73,37.49 L320.00,37.48" fill="none" stroke="#b03030" stroke-width="2.6" stroke-linecap="round" stroke-linejoin="round" stroke-dasharray="none"></path></svg>