<?xml version="1.0" encoding="UTF-8"?>
<svg xmlns="http://www.w3.org/2000/svg" viewBox="0 0 340 250" width="100%" preserveAspectRatio="xMidYMid meet" role="img" aria-label="Filament lamp (distractor: negative-gradient line) current-voltage characteristic" class="td-svg" style="max-width:340px;height:auto;display:block;font-family:Georgia, serif"><title>Filament lamp (distractor: negative-gradient line) current-voltage characteristic</title><g><line x1="40" y1="117" x2="320" y2="117" stroke="rgba(26,26,23,.22)" stroke-width="1.4"></line><path d="M320.0,117.0 L314.6,119.6 L314.6,114.4 Z" fill="rgba(26,26,23,.22)" stroke="none"></path><path d="M40.0,117.0 L45.4,114.4 L45.4,119.6 Z" fill="rgba(26,26,23,.22)" stroke="none"></path><line x1="180" y1="214" x2="180" y2="20" stroke="rgba(26,26,23,.22)" stroke-width="1.4"></line><path d="M180.0,20.0 L182.6,25.4 L177.4,25.4 Z" fill="rgba(26,26,23,.22)" stroke="none"></path><path d="M180.0,214.0 L177.4,208.6 L182.6,208.6 Z" fill="rgba(26,26,23,.22)" stroke="none"></path><text x="318" y="109" font-family="system-ui, sans-serif" font-size="12" fill="#1a1a17" text-anchor="end" font-style="italic">V</text><text x="187" y="31" font-family="system-ui, sans-serif" font-size="12" fill="#1a1a17" text-anchor="start" font-style="italic">I</text><text x="176" y="129" font-family="system-ui, sans-serif" font-size="10" fill="#8c8579" text-anchor="end">0</text></g><path d="M40.00,35.52 L41.27,36.26 L42.55,37.00 L43.82,37.74 L45.09,38.48 L46.36,39.22 L47.64,39.96 L48.91,40.71 L50.18,41.45 L51.45,42.19 L52.73,42.93 L54.00,43.67 L55.27,44.41 L56.55,45.15 L57.82,45.89 L59.09,46.63 L60.36,47.37 L61.64,48.11 L62.91,48.85 L64.18,49.59 L65.45,50.33 L66.73,51.08 L68.00,51.82 L69.27,52.56 L70.55,53.30 L71.82,54.04 L73.09,54.78 L74.36,55.52 L75.64,56.26 L76.91,57.00 L78.18,57.74 L79.45,58.48 L80.73,59.22 L82.00,59.96 L83.27,60.70 L84.55,61.45 L85.82,62.19 L87.09,62.93 L88.36,63.67 L89.64,64.41 L90.91,65.15 L92.18,65.89 L93.45,66.63 L94.73,67.37 L96.00,68.11 L97.27,68.85 L98.55,69.59 L99.82,70.33 L101.09,71.07 L102.36,71.82 L103.64,72.56 L104.91,73.30 L106.18,74.04 L107.45,74.78 L108.73,75.52 L110.00,76.26 L111.27,77.00 L112.55,77.74 L113.82,78.48 L115.09,79.22 L116.36,79.96 L117.64,80.70 L118.91,81.45 L120.18,82.19 L121.45,82.93 L122.73,83.67 L124.00,84.41 L125.27,85.15 L126.55,85.89 L127.82,86.63 L129.09,87.37 L130.36,88.11 L131.64,88.85 L132.91,89.59 L134.18,90.33 L135.45,91.07 L136.73,91.82 L138.00,92.56 L139.27,93.30 L140.55,94.04 L141.82,94.78 L143.09,95.52 L144.36,96.26 L145.64,97.00 L146.91,97.74 L148.18,98.48 L149.45,99.22 L150.73,99.96 L152.00,100.70 L153.27,101.44 L154.55,102.19 L155.82,102.93 L157.09,103.67 L158.36,104.41 L159.64,105.15 L160.91,105.89 L162.18,106.63 L163.45,107.37 L164.73,108.11 L166.00,108.85 L167.27,109.59 L168.55,110.33 L169.82,111.07 L171.09,111.81 L172.36,112.56 L173.64,113.30 L174.91,114.04 L176.18,114.78 L177.45,115.52 L178.73,116.26 L180.00,117.00 L181.27,117.74 L182.55,118.48 L183.82,119.22 L185.09,119.96 L186.36,120.70 L187.64,121.44 L188.91,122.19 L190.18,122.93 L191.45,123.67 L192.73,124.41 L194.00,125.15 L195.27,125.89 L196.55,126.63 L197.82,127.37 L199.09,128.11 L200.36,128.85 L201.64,129.59 L202.91,130.33 L204.18,131.07 L205.45,131.81 L206.73,132.56 L208.00,133.30 L209.27,134.04 L210.55,134.78 L211.82,135.52 L213.09,136.26 L214.36,137.00 L215.64,137.74 L216.91,138.48 L218.18,139.22 L219.45,139.96 L220.73,140.70 L222.00,141.44 L223.27,142.18 L224.55,142.93 L225.82,143.67 L227.09,144.41 L228.36,145.15 L229.64,145.89 L230.91,146.63 L232.18,147.37 L233.45,148.11 L234.73,148.85 L236.00,149.59 L237.27,150.33 L238.55,151.07 L239.82,151.81 L241.09,152.55 L242.36,153.30 L243.64,154.04 L244.91,154.78 L246.18,155.52 L247.45,156.26 L248.73,157.00 L250.00,157.74 L251.27,158.48 L252.55,159.22 L253.82,159.96 L255.09,160.70 L256.36,161.44 L257.64,162.18 L258.91,162.93 L260.18,163.67 L261.45,164.41 L262.73,165.15 L264.00,165.89 L265.27,166.63 L266.55,167.37 L267.82,168.11 L269.09,168.85 L270.36,169.59 L271.64,170.33 L272.91,171.07 L274.18,171.81 L275.45,172.55 L276.73,173.30 L278.00,174.04 L279.27,174.78 L280.55,175.52 L281.82,176.26 L283.09,177.00 L284.36,177.74 L285.64,178.48 L286.91,179.22 L288.18,179.96 L289.45,180.70 L290.73,181.44 L292.00,182.18 L293.27,182.92 L294.55,183.67 L295.82,184.41 L297.09,185.15 L298.36,185.89 L299.64,186.63 L300.91,187.37 L302.18,188.11 L303.45,188.85 L304.73,189.59 L306.00,190.33 L307.27,191.07 L308.55,191.81 L309.82,192.55 L311.09,193.29 L312.36,194.04 L313.64,194.78 L314.91,195.52 L316.18,196.26 L317.45,197.00 L318.73,197.74 L320.00,198.48" fill="none" stroke="#b03030" stroke-width="2.6" stroke-linecap="round" stroke-linejoin="round" stroke-dasharray="none"></path></svg>