<?xml version="1.0" encoding="UTF-8"?>
<svg xmlns="http://www.w3.org/2000/svg" viewBox="0 0 340 250" width="100%" preserveAspectRatio="xMidYMid meet" role="img" aria-label="Filament lamp (distractor: droops) current-voltage characteristic" class="td-svg" style="max-width:340px;height:auto;display:block;font-family:Georgia, serif"><title>Filament lamp (distractor: droops) current-voltage characteristic</title><g><line x1="40" y1="117" x2="320" y2="117" stroke="rgba(26,26,23,.22)" stroke-width="1.4"></line><path d="M320.0,117.0 L314.6,119.6 L314.6,114.4 Z" fill="rgba(26,26,23,.22)" stroke="none"></path><path d="M40.0,117.0 L45.4,114.4 L45.4,119.6 Z" fill="rgba(26,26,23,.22)" stroke="none"></path><line x1="180" y1="214" x2="180" y2="20" stroke="rgba(26,26,23,.22)" stroke-width="1.4"></line><path d="M180.0,20.0 L182.6,25.4 L177.4,25.4 Z" fill="rgba(26,26,23,.22)" stroke="none"></path><path d="M180.0,214.0 L177.4,208.6 L182.6,208.6 Z" fill="rgba(26,26,23,.22)" stroke="none"></path><text x="318" y="109" font-family="system-ui, sans-serif" font-size="12" fill="#1a1a17" text-anchor="end" font-style="italic">V</text><text x="187" y="31" font-family="system-ui, sans-serif" font-size="12" fill="#1a1a17" text-anchor="start" font-style="italic">I</text><text x="176" y="129" font-family="system-ui, sans-serif" font-size="10" fill="#8c8579" text-anchor="end">0</text></g><path d="M40.00,168.99 L41.27,170.78 L42.55,172.51 L43.82,174.18 L45.09,175.79 L46.36,177.34 L47.64,178.82 L48.91,180.25 L50.18,181.62 L51.45,182.93 L52.73,184.19 L54.00,185.39 L55.27,186.53 L56.55,187.61 L57.82,188.64 L59.09,189.62 L60.36,190.54 L61.64,191.40 L62.91,192.22 L64.18,192.98 L65.45,193.69 L66.73,194.35 L68.00,194.96 L69.27,195.52 L70.55,196.03 L71.82,196.49 L73.09,196.90 L74.36,197.26 L75.64,197.58 L76.91,197.85 L78.18,198.07 L79.45,198.25 L80.73,198.38 L82.00,198.47 L83.27,198.52 L84.55,198.52 L85.82,198.48 L87.09,198.40 L88.36,198.27 L89.64,198.11 L90.91,197.90 L92.18,197.65 L93.45,197.37 L94.73,197.04 L96.00,196.68 L97.27,196.28 L98.55,195.85 L99.82,195.37 L101.09,194.86 L102.36,194.32 L103.64,193.74 L104.91,193.13 L106.18,192.48 L107.45,191.80 L108.73,191.09 L110.00,190.35 L111.27,189.57 L112.55,188.77 L113.82,187.93 L115.09,187.06 L116.36,186.17 L117.64,185.25 L118.91,184.29 L120.18,183.32 L121.45,182.31 L122.73,181.28 L124.00,180.22 L125.27,179.14 L126.55,178.03 L127.82,176.90 L129.09,175.75 L130.36,174.57 L131.64,173.38 L132.91,172.16 L134.18,170.91 L135.45,169.65 L136.73,168.37 L138.00,167.07 L139.27,165.75 L140.55,164.41 L141.82,163.06 L143.09,161.68 L144.36,160.29 L145.64,158.89 L146.91,157.47 L148.18,156.03 L149.45,154.58 L150.73,153.12 L152.00,151.64 L153.27,150.15 L154.55,148.65 L155.82,147.14 L157.09,145.62 L158.36,144.08 L159.64,142.54 L160.91,140.99 L162.18,139.43 L163.45,137.86 L164.73,136.28 L166.00,134.70 L167.27,133.11 L168.55,131.52 L169.82,129.92 L171.09,128.31 L172.36,126.70 L173.64,125.09 L174.91,123.48 L176.18,121.86 L177.45,120.24 L178.73,118.62 L180.00,117.00 L181.27,115.38 L182.55,113.76 L183.82,112.14 L185.09,110.52 L186.36,108.91 L187.64,107.30 L188.91,105.69 L190.18,104.08 L191.45,102.48 L192.73,100.89 L194.00,99.30 L195.27,97.72 L196.55,96.14 L197.82,94.57 L199.09,93.01 L200.36,91.46 L201.64,89.92 L202.91,88.38 L204.18,86.86 L205.45,85.35 L206.73,83.85 L208.00,82.36 L209.27,80.88 L210.55,79.42 L211.82,77.97 L213.09,76.53 L214.36,75.11 L215.64,73.71 L216.91,72.32 L218.18,70.94 L219.45,69.59 L220.73,68.25 L222.00,66.93 L223.27,65.63 L224.55,64.35 L225.82,63.09 L227.09,61.84 L228.36,60.62 L229.64,59.43 L230.91,58.25 L232.18,57.10 L233.45,55.97 L234.73,54.86 L236.00,53.78 L237.27,52.72 L238.55,51.69 L239.82,50.68 L241.09,49.71 L242.36,48.75 L243.64,47.83 L244.91,46.94 L246.18,46.07 L247.45,45.23 L248.73,44.43 L250.00,43.65 L251.27,42.91 L252.55,42.20 L253.82,41.52 L255.09,40.87 L256.36,40.26 L257.64,39.68 L258.91,39.14 L260.18,38.63 L261.45,38.15 L262.73,37.72 L264.00,37.32 L265.27,36.96 L266.55,36.63 L267.82,36.35 L269.09,36.10 L270.36,35.89 L271.64,35.73 L272.91,35.60 L274.18,35.52 L275.45,35.48 L276.73,35.48 L278.00,35.53 L279.27,35.62 L280.55,35.75 L281.82,35.93 L283.09,36.15 L284.36,36.42 L285.64,36.74 L286.91,37.10 L288.18,37.51 L289.45,37.97 L290.73,38.48 L292.00,39.04 L293.27,39.65 L294.55,40.31 L295.82,41.02 L297.09,41.78 L298.36,42.60 L299.64,43.46 L300.91,44.38 L302.18,45.36 L303.45,46.39 L304.73,47.47 L306.00,48.61 L307.27,49.81 L308.55,51.07 L309.82,52.38 L311.09,53.75 L312.36,55.18 L313.64,56.66 L314.91,58.21 L316.18,59.82 L317.45,61.49 L318.73,63.22 L320.00,65.01" fill="none" stroke="#b03030" stroke-width="2.6" stroke-linecap="round" stroke-linejoin="round" stroke-dasharray="none"></path></svg>