<?xml version="1.0" encoding="UTF-8"?>
<svg xmlns="http://www.w3.org/2000/svg" viewBox="0 0 340 250" width="100%" preserveAspectRatio="xMidYMid meet" role="img" aria-label="Filament lamp current-voltage characteristic" class="td-svg" style="max-width:340px;height:auto;display:block;font-family:Georgia, serif"><title>Filament lamp current-voltage characteristic</title><g><line x1="40" y1="117" x2="320" y2="117" stroke="rgba(26,26,23,.22)" stroke-width="1.4"></line><path d="M320.0,117.0 L314.6,119.6 L314.6,114.4 Z" fill="rgba(26,26,23,.22)" stroke="none"></path><path d="M40.0,117.0 L45.4,114.4 L45.4,119.6 Z" fill="rgba(26,26,23,.22)" stroke="none"></path><line x1="180" y1="214" x2="180" y2="20" stroke="rgba(26,26,23,.22)" stroke-width="1.4"></line><path d="M180.0,20.0 L182.6,25.4 L177.4,25.4 Z" fill="rgba(26,26,23,.22)" stroke="none"></path><path d="M180.0,214.0 L177.4,208.6 L182.6,208.6 Z" fill="rgba(26,26,23,.22)" stroke="none"></path><text x="318" y="109" font-family="system-ui, sans-serif" font-size="12" fill="#1a1a17" text-anchor="end" font-style="italic">V</text><text x="187" y="31" font-family="system-ui, sans-serif" font-size="12" fill="#1a1a17" text-anchor="start" font-style="italic">I</text><text x="176" y="129" font-family="system-ui, sans-serif" font-size="10" fill="#8c8579" text-anchor="end">0</text></g><path d="M40.00,206.24 L41.27,205.92 L42.55,205.59 L43.82,205.26 L45.09,204.92 L46.36,204.58 L47.64,204.24 L48.91,203.89 L50.18,203.54 L51.45,203.19 L52.73,202.83 L54.00,202.46 L55.27,202.09 L56.55,201.72 L57.82,201.34 L59.09,200.96 L60.36,200.57 L61.64,200.17 L62.91,199.77 L64.18,199.37 L65.45,198.96 L66.73,198.54 L68.00,198.12 L69.27,197.70 L70.55,197.26 L71.82,196.83 L73.09,196.38 L74.36,195.93 L75.64,195.47 L76.91,195.01 L78.18,194.54 L79.45,194.06 L80.73,193.58 L82.00,193.09 L83.27,192.59 L84.55,192.08 L85.82,191.57 L87.09,191.05 L88.36,190.52 L89.64,189.99 L90.91,189.44 L92.18,188.89 L93.45,188.33 L94.73,187.76 L96.00,187.18 L97.27,186.60 L98.55,186.00 L99.82,185.39 L101.09,184.78 L102.36,184.15 L103.64,183.52 L104.91,182.88 L106.18,182.22 L107.45,181.56 L108.73,180.88 L110.00,180.19 L111.27,179.50 L112.55,178.79 L113.82,178.07 L115.09,177.33 L116.36,176.59 L117.64,175.83 L118.91,175.06 L120.18,174.28 L121.45,173.48 L122.73,172.68 L124.00,171.85 L125.27,171.02 L126.55,170.17 L127.82,169.30 L129.09,168.42 L130.36,167.53 L131.64,166.62 L132.91,165.70 L134.18,164.75 L135.45,163.80 L136.73,162.82 L138.00,161.83 L139.27,160.82 L140.55,159.80 L141.82,158.76 L143.09,157.69 L144.36,156.61 L145.64,155.51 L146.91,154.39 L148.18,153.26 L149.45,152.10 L150.73,150.92 L152.00,149.72 L153.27,148.49 L154.55,147.25 L155.82,145.98 L157.09,144.69 L158.36,143.38 L159.64,142.04 L160.91,140.68 L162.18,139.30 L163.45,137.88 L164.73,136.45 L166.00,134.99 L167.27,133.50 L168.55,131.98 L169.82,130.43 L171.09,128.86 L172.36,127.26 L173.64,125.63 L174.91,123.96 L176.18,122.27 L177.45,120.55 L178.73,118.79 L180.00,117.00 L181.27,115.21 L182.55,113.45 L183.82,111.73 L185.09,110.04 L186.36,108.37 L187.64,106.74 L188.91,105.14 L190.18,103.57 L191.45,102.02 L192.73,100.50 L194.00,99.01 L195.27,97.55 L196.55,96.12 L197.82,94.70 L199.09,93.32 L200.36,91.96 L201.64,90.62 L202.91,89.31 L204.18,88.02 L205.45,86.75 L206.73,85.51 L208.00,84.28 L209.27,83.08 L210.55,81.90 L211.82,80.74 L213.09,79.61 L214.36,78.49 L215.64,77.39 L216.91,76.31 L218.18,75.24 L219.45,74.20 L220.73,73.18 L222.00,72.17 L223.27,71.18 L224.55,70.20 L225.82,69.25 L227.09,68.30 L228.36,67.38 L229.64,66.47 L230.91,65.58 L232.18,64.70 L233.45,63.83 L234.73,62.98 L236.00,62.15 L237.27,61.32 L238.55,60.52 L239.82,59.72 L241.09,58.94 L242.36,58.17 L243.64,57.41 L244.91,56.67 L246.18,55.93 L247.45,55.21 L248.73,54.50 L250.00,53.81 L251.27,53.12 L252.55,52.44 L253.82,51.78 L255.09,51.12 L256.36,50.48 L257.64,49.85 L258.91,49.22 L260.18,48.61 L261.45,48.00 L262.73,47.40 L264.00,46.82 L265.27,46.24 L266.55,45.67 L267.82,45.11 L269.09,44.56 L270.36,44.01 L271.64,43.48 L272.91,42.95 L274.18,42.43 L275.45,41.92 L276.73,41.41 L278.00,40.91 L279.27,40.42 L280.55,39.94 L281.82,39.46 L283.09,38.99 L284.36,38.53 L285.64,38.07 L286.91,37.62 L288.18,37.17 L289.45,36.74 L290.73,36.30 L292.00,35.88 L293.27,35.46 L294.55,35.04 L295.82,34.63 L297.09,34.23 L298.36,33.83 L299.64,33.43 L300.91,33.04 L302.18,32.66 L303.45,32.28 L304.73,31.91 L306.00,31.54 L307.27,31.17 L308.55,30.81 L309.82,30.46 L311.09,30.11 L312.36,29.76 L313.64,29.42 L314.91,29.08 L316.18,28.74 L317.45,28.41 L318.73,28.08 L320.00,27.76" fill="none" stroke="#b03030" stroke-width="2.6" stroke-linecap="round" stroke-linejoin="round" stroke-dasharray="none"></path></svg>