<?xml version="1.0" encoding="UTF-8"?>
<svg xmlns="http://www.w3.org/2000/svg" viewBox="0 0 340 250" width="100%" preserveAspectRatio="xMidYMid meet" role="img" aria-label="Ohmic resistor current-voltage characteristic" class="td-svg" style="max-width:340px;height:auto;display:block;font-family:Georgia, serif"><title>Ohmic resistor current-voltage characteristic</title><g><line x1="40" y1="117" x2="320" y2="117" stroke="rgba(26,26,23,.22)" stroke-width="1.4"></line><path d="M320.0,117.0 L314.6,119.6 L314.6,114.4 Z" fill="rgba(26,26,23,.22)" stroke="none"></path><path d="M40.0,117.0 L45.4,114.4 L45.4,119.6 Z" fill="rgba(26,26,23,.22)" stroke="none"></path><line x1="180" y1="214" x2="180" y2="20" stroke="rgba(26,26,23,.22)" stroke-width="1.4"></line><path d="M180.0,20.0 L182.6,25.4 L177.4,25.4 Z" fill="rgba(26,26,23,.22)" stroke="none"></path><path d="M180.0,214.0 L177.4,208.6 L182.6,208.6 Z" fill="rgba(26,26,23,.22)" stroke="none"></path><text x="318" y="109" font-family="system-ui, sans-serif" font-size="12" fill="#1a1a17" text-anchor="end" font-style="italic">V</text><text x="187" y="31" font-family="system-ui, sans-serif" font-size="12" fill="#1a1a17" text-anchor="start" font-style="italic">I</text><text x="176" y="129" font-family="system-ui, sans-serif" font-size="10" fill="#8c8579" text-anchor="end">0</text></g><path d="M40.00,199.45 L41.27,198.70 L42.55,197.95 L43.82,197.20 L45.09,196.45 L46.36,195.70 L47.64,194.95 L48.91,194.20 L50.18,193.45 L51.45,192.70 L52.73,191.95 L54.00,191.21 L55.27,190.46 L56.55,189.71 L57.82,188.96 L59.09,188.21 L60.36,187.46 L61.64,186.71 L62.91,185.96 L64.18,185.21 L65.45,184.46 L66.73,183.71 L68.00,182.96 L69.27,182.21 L70.55,181.46 L71.82,180.71 L73.09,179.96 L74.36,179.21 L75.64,178.46 L76.91,177.71 L78.18,176.96 L79.45,176.21 L80.73,175.46 L82.00,174.72 L83.27,173.97 L84.55,173.22 L85.82,172.47 L87.09,171.72 L88.36,170.97 L89.64,170.22 L90.91,169.47 L92.18,168.72 L93.45,167.97 L94.73,167.22 L96.00,166.47 L97.27,165.72 L98.55,164.97 L99.82,164.22 L101.09,163.47 L102.36,162.72 L103.64,161.97 L104.91,161.22 L106.18,160.47 L107.45,159.72 L108.73,158.97 L110.00,158.22 L111.27,157.48 L112.55,156.73 L113.82,155.98 L115.09,155.23 L116.36,154.48 L117.64,153.73 L118.91,152.98 L120.18,152.23 L121.45,151.48 L122.73,150.73 L124.00,149.98 L125.27,149.23 L126.55,148.48 L127.82,147.73 L129.09,146.98 L130.36,146.23 L131.64,145.48 L132.91,144.73 L134.18,143.98 L135.45,143.23 L136.73,142.48 L138.00,141.74 L139.27,140.99 L140.55,140.24 L141.82,139.49 L143.09,138.74 L144.36,137.99 L145.64,137.24 L146.91,136.49 L148.18,135.74 L149.45,134.99 L150.73,134.24 L152.00,133.49 L153.27,132.74 L154.55,131.99 L155.82,131.24 L157.09,130.49 L158.36,129.74 L159.64,128.99 L160.91,128.24 L162.18,127.49 L163.45,126.74 L164.73,125.99 L166.00,125.24 L167.27,124.50 L168.55,123.75 L169.82,123.00 L171.09,122.25 L172.36,121.50 L173.64,120.75 L174.91,120.00 L176.18,119.25 L177.45,118.50 L178.73,117.75 L180.00,117.00 L181.27,116.25 L182.55,115.50 L183.82,114.75 L185.09,114.00 L186.36,113.25 L187.64,112.50 L188.91,111.75 L190.18,111.00 L191.45,110.25 L192.73,109.50 L194.00,108.76 L195.27,108.01 L196.55,107.26 L197.82,106.51 L199.09,105.76 L200.36,105.01 L201.64,104.26 L202.91,103.51 L204.18,102.76 L205.45,102.01 L206.73,101.26 L208.00,100.51 L209.27,99.76 L210.55,99.01 L211.82,98.26 L213.09,97.51 L214.36,96.76 L215.64,96.01 L216.91,95.26 L218.18,94.51 L219.45,93.76 L220.73,93.01 L222.00,92.27 L223.27,91.52 L224.55,90.77 L225.82,90.02 L227.09,89.27 L228.36,88.52 L229.64,87.77 L230.91,87.02 L232.18,86.27 L233.45,85.52 L234.73,84.77 L236.00,84.02 L237.27,83.27 L238.55,82.52 L239.82,81.77 L241.09,81.02 L242.36,80.27 L243.64,79.52 L244.91,78.77 L246.18,78.02 L247.45,77.27 L248.73,76.52 L250.00,75.78 L251.27,75.03 L252.55,74.28 L253.82,73.53 L255.09,72.78 L256.36,72.03 L257.64,71.28 L258.91,70.53 L260.18,69.78 L261.45,69.03 L262.73,68.28 L264.00,67.53 L265.27,66.78 L266.55,66.03 L267.82,65.28 L269.09,64.53 L270.36,63.78 L271.64,63.03 L272.91,62.28 L274.18,61.53 L275.45,60.78 L276.73,60.03 L278.00,59.28 L279.27,58.54 L280.55,57.79 L281.82,57.04 L283.09,56.29 L284.36,55.54 L285.64,54.79 L286.91,54.04 L288.18,53.29 L289.45,52.54 L290.73,51.79 L292.00,51.04 L293.27,50.29 L294.55,49.54 L295.82,48.79 L297.09,48.04 L298.36,47.29 L299.64,46.54 L300.91,45.79 L302.18,45.04 L303.45,44.29 L304.73,43.54 L306.00,42.80 L307.27,42.05 L308.55,41.30 L309.82,40.55 L311.09,39.80 L312.36,39.05 L313.64,38.30 L314.91,37.55 L316.18,36.80 L317.45,36.05 L318.73,35.30 L320.00,34.55" fill="none" stroke="#b03030" stroke-width="2.6" stroke-linecap="round" stroke-linejoin="round" stroke-dasharray="none"></path></svg>