<?xml version="1.0" encoding="UTF-8"?>
<svg xmlns="http://www.w3.org/2000/svg" viewBox="0 0 380 270" width="100%" preserveAspectRatio="xMidYMid meet" role="img" aria-label="Electric shock hazard: live-to-earth fault path" class="td-svg" style="max-width:380px;height:auto;display:block;font-family:Georgia, serif"><title>Electric shock hazard: live-to-earth fault path</title><line x1="0" y1="232" x2="380" y2="232" stroke="#4d4943" stroke-width="2"></line><line x1="8" y1="232" x2="0" y2="241" stroke="#8c8579" stroke-width="1"></line><line x1="24" y1="232" x2="16" y2="241" stroke="#8c8579" stroke-width="1"></line><line x1="40" y1="232" x2="32" y2="241" stroke="#8c8579" stroke-width="1"></line><line x1="56" y1="232" x2="48" y2="241" stroke="#8c8579" stroke-width="1"></line><line x1="72" y1="232" x2="64" y2="241" stroke="#8c8579" stroke-width="1"></line><line x1="88" y1="232" x2="80" y2="241" stroke="#8c8579" stroke-width="1"></line><line x1="104" y1="232" x2="96" y2="241" stroke="#8c8579" stroke-width="1"></line><line x1="120" y1="232" x2="112" y2="241" stroke="#8c8579" stroke-width="1"></line><line x1="136" y1="232" x2="128" y2="241" stroke="#8c8579" stroke-width="1"></line><line x1="152" y1="232" x2="144" y2="241" stroke="#8c8579" stroke-width="1"></line><line x1="168" y1="232" x2="160" y2="241" stroke="#8c8579" stroke-width="1"></line><line x1="184" y1="232" x2="176" y2="241" stroke="#8c8579" stroke-width="1"></line><line x1="200" y1="232" x2="192" y2="241" stroke="#8c8579" stroke-width="1"></line><line x1="216" y1="232" x2="208" y2="241" stroke="#8c8579" stroke-width="1"></line><line x1="232" y1="232" x2="224" y2="241" stroke="#8c8579" stroke-width="1"></line><line x1="248" y1="232" x2="240" y2="241" stroke="#8c8579" stroke-width="1"></line><line x1="264" y1="232" x2="256" y2="241" stroke="#8c8579" stroke-width="1"></line><line x1="280" y1="232" x2="272" y2="241" stroke="#8c8579" stroke-width="1"></line><line x1="296" y1="232" x2="288" y2="241" stroke="#8c8579" stroke-width="1"></line><line x1="312" y1="232" x2="304" y2="241" stroke="#8c8579" stroke-width="1"></line><line x1="328" y1="232" x2="320" y2="241" stroke="#8c8579" stroke-width="1"></line><line x1="344" y1="232" x2="336" y2="241" stroke="#8c8579" stroke-width="1"></line><line x1="360" y1="232" x2="352" y2="241" stroke="#8c8579" stroke-width="1"></line><line x1="376" y1="232" x2="368" y2="241" stroke="#8c8579" stroke-width="1"></line><text x="372" y="252" font-family="system-ui, sans-serif" font-size="10" fill="#8c8579" text-anchor="end">earth (0 V)</text><rect x="40" y="96" width="92" height="70" rx="4" fill="#b9b2a4" stroke="#4d4943" stroke-width="2"></rect><text x="86" y="88" font-family="system-ui, sans-serif" font-size="10" fill="#4d4943" text-anchor="middle">metal case</text><line x1="0" y1="120" x2="70" y2="120" stroke="#6f4a2a" stroke-width="5"></line><line x1="70" y1="120" x2="84" y2="130" stroke="#6f4a2a" stroke-width="5"></line><text x="8" y="112" font-family="system-ui, sans-serif" font-size="10" fill="#6f4a2a">live (brown)</text><circle cx="86" cy="132" r="5" fill="#e8a317"></circle><text x="110" y="180" font-family="system-ui, sans-serif" font-size="10" fill="#b03030" text-anchor="middle">fault: live touches case</text><circle cx="232" cy="96" r="13" fill="#d9a878" stroke="#4d4943" stroke-width="1.4"></circle><line x1="232" y1="109" x2="232" y2="168" stroke="#1a1a17" stroke-width="3"></line><line x1="232" y1="122" x2="132" y2="138" stroke="#1a1a17" stroke-width="3"></line><line x1="232" y1="122" x2="258" y2="142" stroke="#1a1a17" stroke-width="3"></line><line x1="232" y1="168" x2="216" y2="232" stroke="#1a1a17" stroke-width="3"></line><line x1="232" y1="168" x2="248" y2="232" stroke="#1a1a17" stroke-width="3"></line><circle cx="20" cy="120" r="2.6" fill="#b03030"></circle><circle cx="86" cy="132" r="2.6" fill="#b03030"></circle><circle cx="160" cy="140" r="2.6" fill="#b03030"></circle><circle cx="232" cy="150" r="2.6" fill="#b03030"></circle><circle cx="232" cy="168" r="2.6" fill="#b03030"></circle><circle cx="217" cy="230" r="2.6" fill="#b03030"></circle><path d="M180.0,142.0 L173.2,143.7 L174.4,137.8 Z" fill="#b03030" stroke="none"></path><path d="M232.0,162.0 L229.0,155.7 L235.0,155.7 Z" fill="#b03030" stroke="none"></path><path d="M220.0,224.0 L220.4,217.0 L225.7,219.9 Z" fill="#b03030" stroke="none"></path><text x="290" y="150" font-family="system-ui, sans-serif" font-size="10" fill="#b03030">current flows</text><text x="290" y="163" font-family="system-ui, sans-serif" font-size="10" fill="#b03030">through the body</text><text x="290" y="176" font-family="system-ui, sans-serif" font-size="10" fill="#b03030">to earth</text><text x="190" y="24" font-family="system-ui, sans-serif" font-size="13" fill="#1a1a17" text-anchor="middle">Live-to-earth fault: danger of electric shock</text><text x="190" y="264" font-family="system-ui, sans-serif" font-size="10" fill="#8c8579" text-anchor="middle">An earth wire gives a safe low-resistance path, blowing the fuse</text></svg>