<?xml version="1.0" encoding="UTF-8"?>
<svg xmlns="http://www.w3.org/2000/svg" viewBox="0 0 340 250" width="100%" preserveAspectRatio="xMidYMid meet" role="img" aria-label="Filament resistance against voltage" class="td-svg" style="max-width:340px;height:auto;display:block;font-family:Georgia, serif"><title>Filament resistance against voltage</title><g><line x1="40" y1="214" x2="320" y2="214" stroke="rgba(26,26,23,.22)" stroke-width="1.4"></line><path d="M320.0,214.0 L314.6,216.6 L314.6,211.4 Z" fill="rgba(26,26,23,.22)" stroke="none"></path><line x1="40" y1="214" x2="40" y2="20" stroke="rgba(26,26,23,.22)" stroke-width="1.4"></line><path d="M40.0,20.0 L42.6,25.4 L37.4,25.4 Z" fill="rgba(26,26,23,.22)" stroke="none"></path><text x="318" y="206" font-family="system-ui, sans-serif" font-size="12" fill="#1a1a17" text-anchor="end" font-style="italic">V</text><text x="47" y="31" font-family="system-ui, sans-serif" font-size="12" fill="#1a1a17" text-anchor="start" font-style="italic">R</text></g><path d="M40.00,171.32 L41.27,170.79 L42.55,170.26 L43.82,169.73 L45.09,169.20 L46.36,168.67 L47.64,168.15 L48.91,167.62 L50.18,167.09 L51.45,166.56 L52.73,166.03 L54.00,165.50 L55.27,164.97 L56.55,164.44 L57.82,163.91 L59.09,163.38 L60.36,162.85 L61.64,162.33 L62.91,161.80 L64.18,161.27 L65.45,160.74 L66.73,160.21 L68.00,159.68 L69.27,159.15 L70.55,158.62 L71.82,158.09 L73.09,157.56 L74.36,157.03 L75.64,156.51 L76.91,155.98 L78.18,155.45 L79.45,154.92 L80.73,154.39 L82.00,153.86 L83.27,153.33 L84.55,152.80 L85.82,152.27 L87.09,151.74 L88.36,151.21 L89.64,150.69 L90.91,150.16 L92.18,149.63 L93.45,149.10 L94.73,148.57 L96.00,148.04 L97.27,147.51 L98.55,146.98 L99.82,146.45 L101.09,145.92 L102.36,145.39 L103.64,144.87 L104.91,144.34 L106.18,143.81 L107.45,143.28 L108.73,142.75 L110.00,142.22 L111.27,141.69 L112.55,141.16 L113.82,140.63 L115.09,140.10 L116.36,139.57 L117.64,139.05 L118.91,138.52 L120.18,137.99 L121.45,137.46 L122.73,136.93 L124.00,136.40 L125.27,135.87 L126.55,135.34 L127.82,134.81 L129.09,134.28 L130.36,133.75 L131.64,133.23 L132.91,132.70 L134.18,132.17 L135.45,131.64 L136.73,131.11 L138.00,130.58 L139.27,130.05 L140.55,129.52 L141.82,128.99 L143.09,128.46 L144.36,127.93 L145.64,127.41 L146.91,126.88 L148.18,126.35 L149.45,125.82 L150.73,125.29 L152.00,124.76 L153.27,124.23 L154.55,123.70 L155.82,123.17 L157.09,122.64 L158.36,122.11 L159.64,121.59 L160.91,121.06 L162.18,120.53 L163.45,120.00 L164.73,119.47 L166.00,118.94 L167.27,118.41 L168.55,117.88 L169.82,117.35 L171.09,116.82 L172.36,116.29 L173.64,115.77 L174.91,115.24 L176.18,114.71 L177.45,114.18 L178.73,113.65 L180.00,113.12 L181.27,112.59 L182.55,112.06 L183.82,111.53 L185.09,111.00 L186.36,110.47 L187.64,109.95 L188.91,109.42 L190.18,108.89 L191.45,108.36 L192.73,107.83 L194.00,107.30 L195.27,106.77 L196.55,106.24 L197.82,105.71 L199.09,105.18 L200.36,104.65 L201.64,104.13 L202.91,103.60 L204.18,103.07 L205.45,102.54 L206.73,102.01 L208.00,101.48 L209.27,100.95 L210.55,100.42 L211.82,99.89 L213.09,99.36 L214.36,98.83 L215.64,98.31 L216.91,97.78 L218.18,97.25 L219.45,96.72 L220.73,96.19 L222.00,95.66 L223.27,95.13 L224.55,94.60 L225.82,94.07 L227.09,93.54 L228.36,93.01 L229.64,92.49 L230.91,91.96 L232.18,91.43 L233.45,90.90 L234.73,90.37 L236.00,89.84 L237.27,89.31 L238.55,88.78 L239.82,88.25 L241.09,87.72 L242.36,87.19 L243.64,86.67 L244.91,86.14 L246.18,85.61 L247.45,85.08 L248.73,84.55 L250.00,84.02 L251.27,83.49 L252.55,82.96 L253.82,82.43 L255.09,81.90 L256.36,81.37 L257.64,80.85 L258.91,80.32 L260.18,79.79 L261.45,79.26 L262.73,78.73 L264.00,78.20 L265.27,77.67 L266.55,77.14 L267.82,76.61 L269.09,76.08 L270.36,75.55 L271.64,75.03 L272.91,74.50 L274.18,73.97 L275.45,73.44 L276.73,72.91 L278.00,72.38 L279.27,71.85 L280.55,71.32 L281.82,70.79 L283.09,70.26 L284.36,69.73 L285.64,69.21 L286.91,68.68 L288.18,68.15 L289.45,67.62 L290.73,67.09 L292.00,66.56 L293.27,66.03 L294.55,65.50 L295.82,64.97 L297.09,64.44 L298.36,63.91 L299.64,63.39 L300.91,62.86 L302.18,62.33 L303.45,61.80 L304.73,61.27 L306.00,60.74 L307.27,60.21 L308.55,59.68 L309.82,59.15 L311.09,58.62 L312.36,58.09 L313.64,57.57 L314.91,57.04 L316.18,56.51 L317.45,55.98 L318.73,55.45 L320.00,54.92" fill="none" stroke="#b03030" stroke-width="2.6" stroke-linecap="round" stroke-linejoin="round" stroke-dasharray="none"></path></svg>