<?xml version="1.0" encoding="UTF-8"?>
<svg xmlns="http://www.w3.org/2000/svg" viewBox="0 0 340 250" width="100%" preserveAspectRatio="xMidYMid meet" role="img" aria-label="LDR: resistance falls as light intensity rises" class="td-svg" style="max-width:340px;height:auto;display:block;font-family:Georgia, serif"><title>LDR: resistance falls as light intensity rises</title><g><line x1="40" y1="214" x2="320" y2="214" stroke="rgba(26,26,23,.22)" stroke-width="1.4"></line><path d="M320.0,214.0 L314.6,216.6 L314.6,211.4 Z" fill="rgba(26,26,23,.22)" stroke="none"></path><line x1="40" y1="214" x2="40" y2="20" stroke="rgba(26,26,23,.22)" stroke-width="1.4"></line><path d="M40.0,20.0 L42.6,25.4 L37.4,25.4 Z" fill="rgba(26,26,23,.22)" stroke="none"></path><text x="318" y="206" font-family="system-ui, sans-serif" font-size="12" fill="#1a1a17" text-anchor="end" font-style="italic">light</text><text x="47" y="31" font-family="system-ui, sans-serif" font-size="12" fill="#1a1a17" text-anchor="start" font-style="italic">R</text></g><path d="M40.00,20.00 L41.27,22.61 L42.55,25.17 L43.82,27.70 L45.09,30.20 L46.36,32.66 L47.64,35.08 L48.91,37.47 L50.18,39.82 L51.45,42.14 L52.73,44.42 L54.00,46.68 L55.27,48.90 L56.55,51.08 L57.82,53.24 L59.09,55.37 L60.36,57.46 L61.64,59.53 L62.91,61.56 L64.18,63.56 L65.45,65.54 L66.73,67.49 L68.00,69.41 L69.27,71.30 L70.55,73.16 L71.82,75.00 L73.09,76.81 L74.36,78.60 L75.64,80.36 L76.91,82.09 L78.18,83.80 L79.45,85.48 L80.73,87.14 L82.00,88.78 L83.27,90.39 L84.55,91.98 L85.82,93.55 L87.09,95.09 L88.36,96.61 L89.64,98.11 L90.91,99.59 L92.18,101.04 L93.45,102.48 L94.73,103.89 L96.00,105.29 L97.27,106.66 L98.55,108.01 L99.82,109.35 L101.09,110.66 L102.36,111.96 L103.64,113.24 L104.91,114.50 L106.18,115.74 L107.45,116.96 L108.73,118.16 L110.00,119.35 L111.27,120.52 L112.55,121.68 L113.82,122.81 L115.09,123.93 L116.36,125.04 L117.64,126.13 L118.91,127.20 L120.18,128.26 L121.45,129.30 L122.73,130.33 L124.00,131.34 L125.27,132.34 L126.55,133.32 L127.82,134.29 L129.09,135.24 L130.36,136.18 L131.64,137.11 L132.91,138.03 L134.18,138.93 L135.45,139.81 L136.73,140.69 L138.00,141.55 L139.27,142.40 L140.55,143.24 L141.82,144.07 L143.09,144.88 L144.36,145.68 L145.64,146.47 L146.91,147.25 L148.18,148.02 L149.45,148.78 L150.73,149.52 L152.00,150.26 L153.27,150.98 L154.55,151.69 L155.82,152.40 L157.09,153.09 L158.36,153.78 L159.64,154.45 L160.91,155.11 L162.18,155.77 L163.45,156.41 L164.73,157.05 L166.00,157.67 L167.27,158.29 L168.55,158.90 L169.82,159.50 L171.09,160.09 L172.36,160.67 L173.64,161.25 L174.91,161.81 L176.18,162.37 L177.45,162.92 L178.73,163.46 L180.00,163.99 L181.27,164.52 L182.55,165.04 L183.82,165.55 L185.09,166.05 L186.36,166.55 L187.64,167.04 L188.91,167.52 L190.18,168.00 L191.45,168.46 L192.73,168.92 L194.00,169.38 L195.27,169.83 L196.55,170.27 L197.82,170.71 L199.09,171.13 L200.36,171.56 L201.64,171.97 L202.91,172.38 L204.18,172.79 L205.45,173.19 L206.73,173.58 L208.00,173.97 L209.27,174.35 L210.55,174.73 L211.82,175.10 L213.09,175.46 L214.36,175.82 L215.64,176.18 L216.91,176.53 L218.18,176.87 L219.45,177.21 L220.73,177.55 L222.00,177.88 L223.27,178.21 L224.55,178.53 L225.82,178.84 L227.09,179.15 L228.36,179.46 L229.64,179.76 L230.91,180.06 L232.18,180.36 L233.45,180.65 L234.73,180.93 L236.00,181.21 L237.27,181.49 L238.55,181.76 L239.82,182.03 L241.09,182.30 L242.36,182.56 L243.64,182.82 L244.91,183.07 L246.18,183.32 L247.45,183.57 L248.73,183.81 L250.00,184.05 L251.27,184.29 L252.55,184.52 L253.82,184.75 L255.09,184.98 L256.36,185.20 L257.64,185.42 L258.91,185.64 L260.18,185.85 L261.45,186.06 L262.73,186.27 L264.00,186.47 L265.27,186.67 L266.55,186.87 L267.82,187.07 L269.09,187.26 L270.36,187.45 L271.64,187.64 L272.91,187.82 L274.18,188.00 L275.45,188.18 L276.73,188.36 L278.00,188.53 L279.27,188.71 L280.55,188.88 L281.82,189.04 L283.09,189.21 L284.36,189.37 L285.64,189.53 L286.91,189.69 L288.18,189.84 L289.45,189.99 L290.73,190.14 L292.00,190.29 L293.27,190.44 L294.55,190.58 L295.82,190.72 L297.09,190.86 L298.36,191.00 L299.64,191.14 L300.91,191.27 L302.18,191.40 L303.45,191.53 L304.73,191.66 L306.00,191.79 L307.27,191.91 L308.55,192.04 L309.82,192.16 L311.09,192.28 L312.36,192.40 L313.64,192.51 L314.91,192.63 L316.18,192.74 L317.45,192.85 L318.73,192.96 L320.00,193.07" fill="none" stroke="#b03030" stroke-width="2.6" stroke-linecap="round" stroke-linejoin="round" stroke-dasharray="none"></path></svg>