<?xml version="1.0" encoding="UTF-8"?>
<svg xmlns="http://www.w3.org/2000/svg" viewBox="0 0 340 250" width="100%" preserveAspectRatio="xMidYMid meet" role="img" aria-label="Metal wire: R rises with temperature" class="td-svg" style="max-width:340px;height:auto;display:block;font-family:Georgia, serif"><title>Metal wire: R rises with temperature</title><g><line x1="40" y1="214" x2="320" y2="214" stroke="rgba(26,26,23,.22)" stroke-width="1.4"></line><path d="M320.0,214.0 L314.6,216.6 L314.6,211.4 Z" fill="rgba(26,26,23,.22)" stroke="none"></path><line x1="40" y1="214" x2="40" y2="20" stroke="rgba(26,26,23,.22)" stroke-width="1.4"></line><path d="M40.0,20.0 L42.6,25.4 L37.4,25.4 Z" fill="rgba(26,26,23,.22)" stroke="none"></path><text x="318" y="206" font-family="system-ui, sans-serif" font-size="12" fill="#1a1a17" text-anchor="end" font-style="italic">temp</text><text x="47" y="31" font-family="system-ui, sans-serif" font-size="12" fill="#1a1a17" text-anchor="start" font-style="italic">R</text></g><path d="M40.00,179.08 L41.27,178.53 L42.55,177.99 L43.82,177.44 L45.09,176.89 L46.36,176.35 L47.64,175.80 L48.91,175.25 L50.18,174.71 L51.45,174.16 L52.73,173.61 L54.00,173.07 L55.27,172.52 L56.55,171.97 L57.82,171.43 L59.09,170.88 L60.36,170.33 L61.64,169.79 L62.91,169.24 L64.18,168.69 L65.45,168.15 L66.73,167.60 L68.00,167.05 L69.27,166.51 L70.55,165.96 L71.82,165.41 L73.09,164.87 L74.36,164.32 L75.64,163.77 L76.91,163.22 L78.18,162.68 L79.45,162.13 L80.73,161.58 L82.00,161.04 L83.27,160.49 L84.55,159.94 L85.82,159.40 L87.09,158.85 L88.36,158.30 L89.64,157.76 L90.91,157.21 L92.18,156.66 L93.45,156.12 L94.73,155.57 L96.00,155.02 L97.27,154.48 L98.55,153.93 L99.82,153.38 L101.09,152.84 L102.36,152.29 L103.64,151.74 L104.91,151.20 L106.18,150.65 L107.45,150.10 L108.73,149.56 L110.00,149.01 L111.27,148.46 L112.55,147.92 L113.82,147.37 L115.09,146.82 L116.36,146.28 L117.64,145.73 L118.91,145.18 L120.18,144.64 L121.45,144.09 L122.73,143.54 L124.00,143.00 L125.27,142.45 L126.55,141.90 L127.82,141.36 L129.09,140.81 L130.36,140.26 L131.64,139.72 L132.91,139.17 L134.18,138.62 L135.45,138.08 L136.73,137.53 L138.00,136.98 L139.27,136.44 L140.55,135.89 L141.82,135.34 L143.09,134.80 L144.36,134.25 L145.64,133.70 L146.91,133.15 L148.18,132.61 L149.45,132.06 L150.73,131.51 L152.00,130.97 L153.27,130.42 L154.55,129.87 L155.82,129.33 L157.09,128.78 L158.36,128.23 L159.64,127.69 L160.91,127.14 L162.18,126.59 L163.45,126.05 L164.73,125.50 L166.00,124.95 L167.27,124.41 L168.55,123.86 L169.82,123.31 L171.09,122.77 L172.36,122.22 L173.64,121.67 L174.91,121.13 L176.18,120.58 L177.45,120.03 L178.73,119.49 L180.00,118.94 L181.27,118.39 L182.55,117.85 L183.82,117.30 L185.09,116.75 L186.36,116.21 L187.64,115.66 L188.91,115.11 L190.18,114.57 L191.45,114.02 L192.73,113.47 L194.00,112.93 L195.27,112.38 L196.55,111.83 L197.82,111.29 L199.09,110.74 L200.36,110.19 L201.64,109.65 L202.91,109.10 L204.18,108.55 L205.45,108.01 L206.73,107.46 L208.00,106.91 L209.27,106.37 L210.55,105.82 L211.82,105.27 L213.09,104.73 L214.36,104.18 L215.64,103.63 L216.91,103.08 L218.18,102.54 L219.45,101.99 L220.73,101.44 L222.00,100.90 L223.27,100.35 L224.55,99.80 L225.82,99.26 L227.09,98.71 L228.36,98.16 L229.64,97.62 L230.91,97.07 L232.18,96.52 L233.45,95.98 L234.73,95.43 L236.00,94.88 L237.27,94.34 L238.55,93.79 L239.82,93.24 L241.09,92.70 L242.36,92.15 L243.64,91.60 L244.91,91.06 L246.18,90.51 L247.45,89.96 L248.73,89.42 L250.00,88.87 L251.27,88.32 L252.55,87.78 L253.82,87.23 L255.09,86.68 L256.36,86.14 L257.64,85.59 L258.91,85.04 L260.18,84.50 L261.45,83.95 L262.73,83.40 L264.00,82.86 L265.27,82.31 L266.55,81.76 L267.82,81.22 L269.09,80.67 L270.36,80.12 L271.64,79.58 L272.91,79.03 L274.18,78.48 L275.45,77.94 L276.73,77.39 L278.00,76.84 L279.27,76.30 L280.55,75.75 L281.82,75.20 L283.09,74.66 L284.36,74.11 L285.64,73.56 L286.91,73.01 L288.18,72.47 L289.45,71.92 L290.73,71.37 L292.00,70.83 L293.27,70.28 L294.55,69.73 L295.82,69.19 L297.09,68.64 L298.36,68.09 L299.64,67.55 L300.91,67.00 L302.18,66.45 L303.45,65.91 L304.73,65.36 L306.00,64.81 L307.27,64.27 L308.55,63.72 L309.82,63.17 L311.09,62.63 L312.36,62.08 L313.64,61.53 L314.91,60.99 L316.18,60.44 L317.45,59.89 L318.73,59.35 L320.00,58.80" fill="none" stroke="#b03030" stroke-width="2.6" stroke-linecap="round" stroke-linejoin="round" stroke-dasharray="none"></path></svg>