<?xml version="1.0" encoding="UTF-8"?>
<svg xmlns="http://www.w3.org/2000/svg" viewBox="0 0 340 250" width="100%" preserveAspectRatio="xMidYMid meet" role="img" aria-label="Metal wire: R rises with temperature (distractor: negative-gradient line)" class="td-svg" style="max-width:340px;height:auto;display:block;font-family:Georgia, serif"><title>Metal wire: R rises with temperature (distractor: negative-gradient line)</title><g><line x1="40" y1="214" x2="320" y2="214" stroke="rgba(26,26,23,.22)" stroke-width="1.4"></line><path d="M320.0,214.0 L314.6,216.6 L314.6,211.4 Z" fill="rgba(26,26,23,.22)" stroke="none"></path><line x1="40" y1="214" x2="40" y2="20" stroke="rgba(26,26,23,.22)" stroke-width="1.4"></line><path d="M40.0,20.0 L42.6,25.4 L37.4,25.4 Z" fill="rgba(26,26,23,.22)" stroke="none"></path><text x="318" y="206" font-family="system-ui, sans-serif" font-size="12" fill="#1a1a17" text-anchor="end" font-style="italic">temp</text><text x="47" y="31" font-family="system-ui, sans-serif" font-size="12" fill="#1a1a17" text-anchor="start" font-style="italic">R</text></g><path d="M40.00,49.10 L41.27,49.65 L42.55,50.19 L43.82,50.74 L45.09,51.29 L46.36,51.83 L47.64,52.38 L48.91,52.93 L50.18,53.47 L51.45,54.02 L52.73,54.57 L54.00,55.11 L55.27,55.66 L56.55,56.21 L57.82,56.75 L59.09,57.30 L60.36,57.85 L61.64,58.39 L62.91,58.94 L64.18,59.49 L65.45,60.03 L66.73,60.58 L68.00,61.13 L69.27,61.67 L70.55,62.22 L71.82,62.77 L73.09,63.31 L74.36,63.86 L75.64,64.41 L76.91,64.96 L78.18,65.50 L79.45,66.05 L80.73,66.60 L82.00,67.14 L83.27,67.69 L84.55,68.24 L85.82,68.78 L87.09,69.33 L88.36,69.88 L89.64,70.42 L90.91,70.97 L92.18,71.52 L93.45,72.06 L94.73,72.61 L96.00,73.16 L97.27,73.70 L98.55,74.25 L99.82,74.80 L101.09,75.34 L102.36,75.89 L103.64,76.44 L104.91,76.98 L106.18,77.53 L107.45,78.08 L108.73,78.62 L110.00,79.17 L111.27,79.72 L112.55,80.26 L113.82,80.81 L115.09,81.36 L116.36,81.90 L117.64,82.45 L118.91,83.00 L120.18,83.54 L121.45,84.09 L122.73,84.64 L124.00,85.18 L125.27,85.73 L126.55,86.28 L127.82,86.82 L129.09,87.37 L130.36,87.92 L131.64,88.46 L132.91,89.01 L134.18,89.56 L135.45,90.10 L136.73,90.65 L138.00,91.20 L139.27,91.74 L140.55,92.29 L141.82,92.84 L143.09,93.38 L144.36,93.93 L145.64,94.48 L146.91,95.03 L148.18,95.57 L149.45,96.12 L150.73,96.67 L152.00,97.21 L153.27,97.76 L154.55,98.31 L155.82,98.85 L157.09,99.40 L158.36,99.95 L159.64,100.49 L160.91,101.04 L162.18,101.59 L163.45,102.13 L164.73,102.68 L166.00,103.23 L167.27,103.77 L168.55,104.32 L169.82,104.87 L171.09,105.41 L172.36,105.96 L173.64,106.51 L174.91,107.05 L176.18,107.60 L177.45,108.15 L178.73,108.69 L180.00,109.24 L181.27,109.79 L182.55,110.33 L183.82,110.88 L185.09,111.43 L186.36,111.97 L187.64,112.52 L188.91,113.07 L190.18,113.61 L191.45,114.16 L192.73,114.71 L194.00,115.25 L195.27,115.80 L196.55,116.35 L197.82,116.89 L199.09,117.44 L200.36,117.99 L201.64,118.53 L202.91,119.08 L204.18,119.63 L205.45,120.17 L206.73,120.72 L208.00,121.27 L209.27,121.81 L210.55,122.36 L211.82,122.91 L213.09,123.45 L214.36,124.00 L215.64,124.55 L216.91,125.10 L218.18,125.64 L219.45,126.19 L220.73,126.74 L222.00,127.28 L223.27,127.83 L224.55,128.38 L225.82,128.92 L227.09,129.47 L228.36,130.02 L229.64,130.56 L230.91,131.11 L232.18,131.66 L233.45,132.20 L234.73,132.75 L236.00,133.30 L237.27,133.84 L238.55,134.39 L239.82,134.94 L241.09,135.48 L242.36,136.03 L243.64,136.58 L244.91,137.12 L246.18,137.67 L247.45,138.22 L248.73,138.76 L250.00,139.31 L251.27,139.86 L252.55,140.40 L253.82,140.95 L255.09,141.50 L256.36,142.04 L257.64,142.59 L258.91,143.14 L260.18,143.68 L261.45,144.23 L262.73,144.78 L264.00,145.32 L265.27,145.87 L266.55,146.42 L267.82,146.96 L269.09,147.51 L270.36,148.06 L271.64,148.60 L272.91,149.15 L274.18,149.70 L275.45,150.24 L276.73,150.79 L278.00,151.34 L279.27,151.88 L280.55,152.43 L281.82,152.98 L283.09,153.52 L284.36,154.07 L285.64,154.62 L286.91,155.17 L288.18,155.71 L289.45,156.26 L290.73,156.81 L292.00,157.35 L293.27,157.90 L294.55,158.45 L295.82,158.99 L297.09,159.54 L298.36,160.09 L299.64,160.63 L300.91,161.18 L302.18,161.73 L303.45,162.27 L304.73,162.82 L306.00,163.37 L307.27,163.91 L308.55,164.46 L309.82,165.01 L311.09,165.55 L312.36,166.10 L313.64,166.65 L314.91,167.19 L316.18,167.74 L317.45,168.29 L318.73,168.83 L320.00,169.38" fill="none" stroke="#b03030" stroke-width="2.6" stroke-linecap="round" stroke-linejoin="round" stroke-dasharray="none"></path></svg>