<?xml version="1.0" encoding="UTF-8"?>
<svg xmlns="http://www.w3.org/2000/svg" viewBox="0 0 340 250" width="100%" preserveAspectRatio="xMidYMid meet" role="img" aria-label="Thermistor (NTC): R falls as temperature rises" class="td-svg" style="max-width:340px;height:auto;display:block;font-family:Georgia, serif"><title>Thermistor (NTC): R falls as temperature rises</title><g><line x1="40" y1="214" x2="320" y2="214" stroke="rgba(26,26,23,.22)" stroke-width="1.4"></line><path d="M320.0,214.0 L314.6,216.6 L314.6,211.4 Z" fill="rgba(26,26,23,.22)" stroke="none"></path><line x1="40" y1="214" x2="40" y2="20" stroke="rgba(26,26,23,.22)" stroke-width="1.4"></line><path d="M40.0,20.0 L42.6,25.4 L37.4,25.4 Z" fill="rgba(26,26,23,.22)" stroke="none"></path><text x="318" y="206" font-family="system-ui, sans-serif" font-size="12" fill="#1a1a17" text-anchor="end" font-style="italic">temp</text><text x="47" y="31" font-family="system-ui, sans-serif" font-size="12" fill="#1a1a17" text-anchor="start" font-style="italic">R</text></g><path d="M40.00,20.00 L41.27,22.42 L42.55,24.80 L43.82,27.15 L45.09,29.47 L46.36,31.76 L47.64,34.02 L48.91,36.25 L50.18,38.45 L51.45,40.61 L52.73,42.75 L54.00,44.86 L55.27,46.94 L56.55,48.99 L57.82,51.02 L59.09,53.02 L60.36,54.99 L61.64,56.93 L62.91,58.85 L64.18,60.74 L65.45,62.60 L66.73,64.44 L68.00,66.26 L69.27,68.05 L70.55,69.82 L71.82,71.56 L73.09,73.28 L74.36,74.97 L75.64,76.65 L76.91,78.30 L78.18,79.92 L79.45,81.53 L80.73,83.11 L82.00,84.68 L83.27,86.22 L84.55,87.74 L85.82,89.24 L87.09,90.72 L88.36,92.18 L89.64,93.62 L90.91,95.04 L92.18,96.44 L93.45,97.82 L94.73,99.18 L96.00,100.53 L97.27,101.85 L98.55,103.16 L99.82,104.45 L101.09,105.73 L102.36,106.98 L103.64,108.22 L104.91,109.45 L106.18,110.65 L107.45,111.84 L108.73,113.01 L110.00,114.17 L111.27,115.31 L112.55,116.44 L113.82,117.55 L115.09,118.65 L116.36,119.73 L117.64,120.80 L118.91,121.85 L120.18,122.89 L121.45,123.91 L122.73,124.92 L124.00,125.92 L125.27,126.90 L126.55,127.87 L127.82,128.82 L129.09,129.77 L130.36,130.70 L131.64,131.62 L132.91,132.52 L134.18,133.42 L135.45,134.30 L136.73,135.17 L138.00,136.02 L139.27,136.87 L140.55,137.70 L141.82,138.53 L143.09,139.34 L144.36,140.14 L145.64,140.93 L146.91,141.71 L148.18,142.48 L149.45,143.24 L150.73,143.98 L152.00,144.72 L153.27,145.45 L154.55,146.17 L155.82,146.88 L157.09,147.58 L158.36,148.27 L159.64,148.95 L160.91,149.62 L162.18,150.28 L163.45,150.93 L164.73,151.58 L166.00,152.21 L167.27,152.84 L168.55,153.46 L169.82,154.07 L171.09,154.67 L172.36,155.26 L173.64,155.85 L174.91,156.42 L176.18,156.99 L177.45,157.55 L178.73,158.11 L180.00,158.66 L181.27,159.20 L182.55,159.73 L183.82,160.25 L185.09,160.77 L186.36,161.28 L187.64,161.78 L188.91,162.28 L190.18,162.77 L191.45,163.26 L192.73,163.73 L194.00,164.20 L195.27,164.67 L196.55,165.13 L197.82,165.58 L199.09,166.02 L200.36,166.46 L201.64,166.90 L202.91,167.32 L204.18,167.75 L205.45,168.16 L206.73,168.57 L208.00,168.98 L209.27,169.38 L210.55,169.77 L211.82,170.16 L213.09,170.54 L214.36,170.92 L215.64,171.30 L216.91,171.66 L218.18,172.03 L219.45,172.38 L220.73,172.74 L222.00,173.09 L223.27,173.43 L224.55,173.77 L225.82,174.10 L227.09,174.43 L228.36,174.76 L229.64,175.08 L230.91,175.40 L232.18,175.71 L233.45,176.02 L234.73,176.32 L236.00,176.62 L237.27,176.92 L238.55,177.21 L239.82,177.50 L241.09,177.78 L242.36,178.06 L243.64,178.34 L244.91,178.61 L246.18,178.88 L247.45,179.15 L248.73,179.41 L250.00,179.67 L251.27,179.92 L252.55,180.17 L253.82,180.42 L255.09,180.67 L256.36,180.91 L257.64,181.15 L258.91,181.38 L260.18,181.61 L261.45,181.84 L262.73,182.07 L264.00,182.29 L265.27,182.51 L266.55,182.72 L267.82,182.94 L269.09,183.15 L270.36,183.36 L271.64,183.56 L272.91,183.76 L274.18,183.96 L275.45,184.16 L276.73,184.35 L278.00,184.54 L279.27,184.73 L280.55,184.92 L281.82,185.10 L283.09,185.28 L284.36,185.46 L285.64,185.64 L286.91,185.81 L288.18,185.98 L289.45,186.15 L290.73,186.32 L292.00,186.49 L293.27,186.65 L294.55,186.81 L295.82,186.97 L297.09,187.12 L298.36,187.28 L299.64,187.43 L300.91,187.58 L302.18,187.72 L303.45,187.87 L304.73,188.01 L306.00,188.16 L307.27,188.30 L308.55,188.43 L309.82,188.57 L311.09,188.70 L312.36,188.84 L313.64,188.97 L314.91,189.10 L316.18,189.22 L317.45,189.35 L318.73,189.47 L320.00,189.59" fill="none" stroke="#b03030" stroke-width="2.6" stroke-linecap="round" stroke-linejoin="round" stroke-dasharray="none"></path></svg>