<?xml version="1.0" encoding="UTF-8"?>
<svg xmlns="http://www.w3.org/2000/svg" viewBox="0 0 620 250" width="100%" preserveAspectRatio="xMidYMid meet" role="img" aria-label="National Grid transmission line" class="td-svg" style="max-width:620px;height:auto;display:block;font-family:Georgia, serif"><title>National Grid transmission line</title><line x1="0" y1="200" x2="620" y2="200" stroke="rgba(26,26,23,.22)" stroke-width="1.4"></line><rect x="14" y="154" width="70" height="46" fill="#fffdf6" stroke="#1a1a17" stroke-width="1.8"></rect><rect x="30" y="130" width="9" height="24" fill="#4d4943"></rect><circle cx="35" cy="122" r="6" fill="none" stroke="#8c8579" stroke-width="1.4"></circle><circle cx="41" cy="114" r="7" fill="none" stroke="#8c8579" stroke-width="1.2"></circle><text x="49" y="214" font-family="system-ui, sans-serif" font-size="10" fill="#4d4943" text-anchor="middle">Power station</text><text x="49" y="44" font-family="system-ui, sans-serif" font-size="11" fill="#b03030" text-anchor="middle">~25 kV</text><text x="49" y="58" font-family="system-ui, sans-serif" font-size="9" fill="#8c8579" text-anchor="middle">generated</text><rect x="108" y="150" width="64" height="50" rx="3" fill="#fffdf6" stroke="#1a1a17" stroke-width="1.8"></rect><text x="140" y="174" font-family="system-ui, sans-serif" font-size="11" fill="#1a1a17" text-anchor="middle">Step-up</text><text x="140" y="187" font-family="system-ui, sans-serif" font-size="10" fill="#b03030" text-anchor="middle">transformer</text><path d="M214,200 L224,96 M246,200 L236,96 M224,96 L236,96" fill="none" stroke="#4d4943" stroke-width="1.6"></path><line x1="219" y1="140" x2="241" y2="140" stroke="#4d4943" stroke-width="1.4"></line><line x1="216" y1="168" x2="244" y2="168" stroke="#4d4943" stroke-width="1.4"></line><line x1="212" y1="104" x2="248" y2="104" stroke="#4d4943" stroke-width="1.6"></line><path d="M314,200 L324,96 M346,200 L336,96 M324,96 L336,96" fill="none" stroke="#4d4943" stroke-width="1.6"></path><line x1="319" y1="140" x2="341" y2="140" stroke="#4d4943" stroke-width="1.4"></line><line x1="316" y1="168" x2="344" y2="168" stroke="#4d4943" stroke-width="1.4"></line><line x1="312" y1="104" x2="348" y2="104" stroke="#4d4943" stroke-width="1.6"></line><path d="M414,200 L424,96 M446,200 L436,96 M424,96 L436,96" fill="none" stroke="#4d4943" stroke-width="1.6"></path><line x1="419" y1="140" x2="441" y2="140" stroke="#4d4943" stroke-width="1.4"></line><line x1="416" y1="168" x2="444" y2="168" stroke="#4d4943" stroke-width="1.4"></line><line x1="412" y1="104" x2="448" y2="104" stroke="#4d4943" stroke-width="1.6"></line><path d="M176,104 Q194,120 212,104" fill="none" stroke="#b03030" stroke-width="1.8"></path><path d="M212,104 Q262,120 312,104" fill="none" stroke="#b03030" stroke-width="1.8"></path><path d="M312,104 Q362,120 412,104" fill="none" stroke="#b03030" stroke-width="1.8"></path><path d="M412,104 Q441,120 470,104" fill="none" stroke="#b03030" stroke-width="1.8"></path><text x="330" y="44" font-family="system-ui, sans-serif" font-size="11" fill="#b03030" text-anchor="middle">400 kV</text><text x="330" y="58" font-family="system-ui, sans-serif" font-size="9" fill="#8c8579" text-anchor="middle">high V, low I</text><rect x="474" y="150" width="64" height="50" rx="3" fill="#fffdf6" stroke="#1a1a17" stroke-width="1.8"></rect><text x="506" y="174" font-family="system-ui, sans-serif" font-size="11" fill="#1a1a17" text-anchor="middle">Step-down</text><text x="506" y="187" font-family="system-ui, sans-serif" font-size="10" fill="#b03030" text-anchor="middle">transformer</text><path d="M560,200 L560,180 L574,170 L588,180 L588,200 Z" fill="#fffdf6" stroke="#1a1a17" stroke-width="1.6"></path><path d="M584,200 L584,180 L598,170 L612,180 L612,200 Z" fill="#fffdf6" stroke="#1a1a17" stroke-width="1.6"></path><text x="584" y="214" font-family="system-ui, sans-serif" font-size="10" fill="#4d4943" text-anchor="middle">Homes</text><text x="560" y="44" font-family="system-ui, sans-serif" font-size="11" fill="#b03030" text-anchor="middle">230 V</text><text x="560" y="58" font-family="system-ui, sans-serif" font-size="9" fill="#8c8579" text-anchor="middle">domestic</text><line x1="84" y1="170" x2="108" y2="170" stroke="#1a1a17" stroke-width="1.6"></line><line x1="140" y1="150" x2="140" y2="104" stroke="#b03030" stroke-width="1.6"></line><line x1="140" y1="104" x2="176" y2="104" stroke="#b03030" stroke-width="1.6"></line><line x1="470" y1="104" x2="506" y2="104" stroke="#b03030" stroke-width="1.6"></line><line x1="506" y1="104" x2="506" y2="150" stroke="#b03030" stroke-width="1.6"></line><line x1="538" y1="170" x2="560" y2="170" stroke="#1a1a17" stroke-width="1.6"></line><text x="310" y="242" font-family="system-ui, sans-serif" font-size="11" fill="#1a1a17" text-anchor="middle">Transmit at high voltage -&gt; low current -&gt; small power loss in cables (P = I squared R)</text></svg>