<?xml version="1.0" encoding="UTF-8"?>
<svg xmlns="http://www.w3.org/2000/svg" viewBox="0 0 360 230" width="100%" preserveAspectRatio="xMidYMid meet" role="img" aria-label="Transformer schematic (step-up)" class="td-svg" style="max-width:360px;height:auto;display:block;font-family:Georgia, serif"><title>Transformer schematic (step-up)</title><rect x="150" y="30" width="60" height="170" fill="none" stroke="#4d4943" stroke-width="2"></rect><line x1="157" y1="34" x2="157" y2="196" stroke="rgba(26,26,23,.22)" stroke-width="1"></line><line x1="164" y1="34" x2="164" y2="196" stroke="rgba(26,26,23,.22)" stroke-width="1"></line><line x1="171" y1="34" x2="171" y2="196" stroke="rgba(26,26,23,.22)" stroke-width="1"></line><line x1="178" y1="34" x2="178" y2="196" stroke="rgba(26,26,23,.22)" stroke-width="1"></line><line x1="185" y1="34" x2="185" y2="196" stroke="rgba(26,26,23,.22)" stroke-width="1"></line><line x1="192" y1="34" x2="192" y2="196" stroke="rgba(26,26,23,.22)" stroke-width="1"></line><line x1="199" y1="34" x2="199" y2="196" stroke="rgba(26,26,23,.22)" stroke-width="1"></line><line x1="206" y1="34" x2="206" y2="196" stroke="rgba(26,26,23,.22)" stroke-width="1"></line><g><path d="M150,55 A15,15 0 0 0 150,85 A15,15 0 0 0 150,115 A15,15 0 0 0 150,145 A15,15 0 0 0 150,175" fill="none" stroke="#1a1a17" stroke-width="2.2" stroke-linecap="round"></path></g><g><path d="M210,55 A7.5,7.5 0 0 1 210,70 A7.5,7.5 0 0 1 210,85 A7.5,7.5 0 0 1 210,100 A7.5,7.5 0 0 1 210,115 A7.5,7.5 0 0 1 210,130 A7.5,7.5 0 0 1 210,145 A7.5,7.5 0 0 1 210,160 A7.5,7.5 0 0 1 210,175" fill="none" stroke="#1a1a17" stroke-width="2.2" stroke-linecap="round"></path></g><line x1="40" y1="70" x2="132" y2="70" stroke="#1a1a17" stroke-width="2"></line><line x1="40" y1="160" x2="132" y2="160" stroke="#1a1a17" stroke-width="2"></line><line x1="132" y1="70" x2="132" y2="55" stroke="#1a1a17" stroke-width="2"></line><line x1="132" y1="160" x2="132" y2="175" stroke="#1a1a17" stroke-width="2"></line><circle cx="40" cy="115" r="16" fill="#fffdf6" stroke="#1a1a17" stroke-width="2"></circle><path d="M32,115 q4,-7 8,0 q4,7 8,0" fill="none" stroke="#1a1a17" stroke-width="1.6"></path><line x1="40" y1="99" x2="40" y2="70" stroke="#1a1a17" stroke-width="2"></line><line x1="40" y1="131" x2="40" y2="160" stroke="#1a1a17" stroke-width="2"></line><line x1="228" y1="70" x2="320" y2="70" stroke="#1a1a17" stroke-width="2"></line><line x1="228" y1="160" x2="320" y2="160" stroke="#1a1a17" stroke-width="2"></line><line x1="228" y1="70" x2="228" y2="55" stroke="#1a1a17" stroke-width="2"></line><line x1="228" y1="160" x2="228" y2="175" stroke="#1a1a17" stroke-width="2"></line><rect x="308" y="100" width="24" height="30" fill="#fffdf6" stroke="#1a1a17" stroke-width="2"></rect><line x1="320" y1="70" x2="320" y2="100" stroke="#1a1a17" stroke-width="2"></line><line x1="320" y1="130" x2="320" y2="160" stroke="#1a1a17" stroke-width="2"></line><text x="95" y="210" font-family="system-ui, sans-serif" font-size="11" fill="#4d4943" text-anchor="middle">Primary</text><text x="95" y="224" font-family="system-ui, sans-serif" font-size="12" fill="#b03030" text-anchor="middle">Np = 4</text><text x="265" y="210" font-family="system-ui, sans-serif" font-size="11" fill="#4d4943" text-anchor="middle">Secondary</text><text x="265" y="224" font-family="system-ui, sans-serif" font-size="12" fill="#b03030" text-anchor="middle">Ns = 8</text><text x="180" y="22" font-family="system-ui, sans-serif" font-size="12" fill="#1a1a17" text-anchor="middle">Step-up (Ns &gt; Np)</text><text x="40" y="150" font-family="system-ui, sans-serif" font-size="10" fill="#8c8579" text-anchor="middle">a.c. in</text></svg>